<?xml version="1.0" encoding="UTF-8"?>
<svg width="84px" height="49px" viewBox="0 0 84 49" version="1.1" xmlns="http://www.w3.org/2000/svg" xmlns:xlink="http://www.w3.org/1999/xlink">
    <title>aitex</title>
    <defs>
        <polygon id="path-1" points="0 0 27.7345374 0 27.7345374 24.7170996 0 24.7170996"></polygon>
        <polygon id="path-3" points="7.10542736e-15 0 56.031015 0 56.031015 4.0429 7.10542736e-15 4.0429"></polygon>
    </defs>
    <g id="concept" stroke="none" stroke-width="1" fill="none" fill-rule="evenodd">
        <g id="00_home-d-docencia" transform="translate(-962.000000, -2149.000000)">
            <g id="aitex" transform="translate(962.000000, 2149.000000)">
                <path d="M33.6478556,39.0357 L33.1828556,39.0357 C32.3288556,38.9927 31.5768556,38.6467 30.9268556,37.9967 C30.3218556,37.3477 30.0198556,36.5807 30.0198556,35.6947 C30.0198556,34.8547 30.2988556,34.1097 30.8618556,33.4607 C31.4198556,32.8407 32.1218556,32.4717 32.9618556,32.3537 L37.5638556,32.3537 L37.5638556,34.9217 C37.5358556,36.0717 37.1438556,37.0237 36.3908556,37.7757 C35.6388556,38.5557 34.7238556,38.9767 33.6478556,39.0357 L33.6478556,39.0357 Z M34.1578556,40.6287 L34.1788556,40.6287 C35.4328556,40.6287 36.5608556,40.2607 37.5638556,39.5237 L37.5638556,39.5887 C37.5638556,40.1197 37.8308556,40.3847 38.3618556,40.3847 L39.1128556,40.3847 C39.6428556,40.3847 39.9098556,40.1197 39.9098556,39.5887 L39.9098556,32.3317 L39.9098556,30.7387 L39.9098556,29.0797 C39.9098556,29.0057 39.8868556,28.9097 39.8418556,28.7927 C39.6958556,27.6717 39.1788556,26.7487 38.2938556,26.0267 C37.4538556,25.3187 36.4278556,24.9277 35.2188556,24.8547 C35.1608556,24.8397 35.1078556,24.8317 35.0638556,24.8317 C35.0358556,24.8177 35.0048556,24.8097 34.9758556,24.8097 L34.2018556,24.8097 L30.0638556,24.8097 C29.5338556,24.8097 29.2668556,25.0677 29.2668556,25.5837 C29.2668556,26.1147 29.5338556,26.3807 30.0638556,26.3807 L33.9798556,26.3807 C34.0398556,26.3947 34.0838556,26.4097 34.1138556,26.4257 L34.2018556,26.4257 C35.1168556,26.4257 35.8968556,26.7117 36.5458556,27.2867 C37.1958556,27.8337 37.5358556,28.5697 37.5638556,29.5007 L37.5638556,30.7387 L32.6538556,30.7387 L32.6308556,30.7387 L32.5858556,30.7387 C31.2288556,30.7687 30.0718556,31.2627 29.1138556,32.2217 C28.1688556,33.1657 27.6968556,34.3237 27.6968556,35.6947 C27.6968556,37.0237 28.1758556,38.1887 29.1338556,39.1907 C30.1378556,40.1497 31.3028556,40.6287 32.6308556,40.6287 L32.6538556,40.6287 L33.3158556,40.6287 L33.3828556,40.6287 L33.4058556,40.6287 L34.0678556,40.6287 L34.1578556,40.6287 Z" id="Fill-1" fill="#878786"></path>
                <path d="M44.7025556,24.8101 L43.9515556,24.8101 C43.4205556,24.8101 43.1545556,25.0761 43.1545556,25.6061 L43.1545556,26.4021 L43.1545556,39.5891 C43.1545556,40.1201 43.4195556,40.3851 43.9495556,40.3851 L44.7255556,40.3851 C45.2405556,40.3851 45.4985556,40.1201 45.4985556,39.5891 L45.4985556,25.6061 C45.4985556,25.0761 45.2395556,24.8101 44.7255556,24.8101 L44.7025556,24.8101 Z M43.9225556,21.2741 C43.1995556,21.2741 42.8385556,21.6431 42.8385556,22.3801 C42.8385556,23.1031 43.1995556,23.4651 43.9225556,23.4651 L44.6975556,23.4651 C45.4195556,23.4651 45.7815556,23.1031 45.7815556,22.3801 C45.7815556,21.6421 45.4195556,21.2741 44.6975556,21.2741 L43.9225556,21.2741 Z" id="Fill-3" fill="#878786"></path>
                <path d="M56.8363556,40.3848 C57.3673556,40.3848 57.6323556,40.1198 57.6323556,39.5888 C57.6323556,39.0578 57.3673556,38.7928 56.8363556,38.7928 L54.4023556,38.7928 L54.2473556,38.7928 C53.4073556,38.7488 52.6623556,38.4458 52.0133556,37.8848 C51.4073556,37.3108 51.1073556,36.5808 51.1073556,35.6948 L51.1073556,35.6728 L51.0833556,35.6728 L51.0833556,26.3798 L55.1993556,26.3798 C55.7143556,26.3798 55.9733556,26.1228 55.9733556,25.6058 C55.9733556,25.0758 55.7143556,24.8098 55.1983556,24.8098 L51.0833556,24.8098 L51.0833556,21.9118 C51.0833556,21.3798 50.8253556,21.1148 50.3083556,21.1148 L49.5343556,21.1148 C49.0043556,21.1148 48.7373556,21.3798 48.7373556,21.9118 L48.7373556,24.8098 L48.7373556,26.3798 L48.7373556,35.7178 C48.7373556,35.8058 48.7463556,35.8648 48.7603556,35.8928 C48.8333556,37.2068 49.3283556,38.2688 50.2433556,39.0808 C51.2173556,39.9208 52.3293556,40.3488 53.5833556,40.3638 C53.5833556,40.3638 53.5913556,40.3708 53.6063556,40.3848 L53.6503556,40.3848 L53.6943556,40.3848 L56.8363556,40.3848 Z" id="Fill-5" fill="#878786"></path>
                <path d="M62.6049556,40.3848 L67.5169556,40.3848 C68.0339556,40.3848 68.2919556,40.1198 68.2919556,39.5888 C68.2919556,39.0728 68.0339556,38.8158 67.5159556,38.8158 L63.6009556,38.8158 C63.5419556,38.7998 63.4899556,38.7928 63.4459556,38.7928 C63.4169556,38.7788 63.3859556,38.7708 63.3579556,38.7708 C62.4729556,38.7708 61.6819556,38.4458 60.9899556,37.7968 C60.3549556,37.1638 60.0229556,36.3808 59.9949556,35.4518 L59.9949556,34.4338 L64.9279556,34.4338 L64.9509556,34.4338 L64.9949556,34.4338 C66.3369556,34.4338 67.4879556,33.9538 68.4479556,32.9968 C69.4059556,31.9928 69.8839556,30.8268 69.8839556,29.4998 C69.8839556,28.1288 69.3969556,26.9638 68.4239556,26.0038 C67.4639556,25.0308 66.3069556,24.5448 64.9509556,24.5448 L64.9509556,24.5658 L64.9279556,24.5448 L63.3349556,24.5448 L63.3119556,24.5448 L63.2679556,24.5448 C61.7929556,24.5888 60.5099556,25.1338 59.4189556,26.1808 C58.3419556,27.2138 57.7589556,28.4678 57.6699556,29.9428 L57.6699556,30.0748 L57.6699556,30.2748 L57.6699556,35.4518 L57.6699556,35.5178 C57.7009556,36.8458 58.1589556,37.9518 59.0419556,38.8368 C59.9579556,39.7658 61.0559556,40.2678 62.3389556,40.3408 C62.4139556,40.3558 62.4729556,40.3708 62.5159556,40.3848 L62.6049556,40.3848 Z M64.1539556,26.1368 L64.3529556,26.1368 C65.2089556,26.1808 65.9599556,26.5278 66.6089556,27.1778 C67.2289556,27.8258 67.5399556,28.6008 67.5399556,29.4998 C67.5399556,30.4148 67.2139556,31.1968 66.5639556,31.8458 C65.9169556,32.4948 65.1409556,32.8258 64.2429556,32.8408 L64.1539556,32.8408 L59.9949556,32.8408 L59.9949556,30.2298 C60.0229556,29.0958 60.4149556,28.1508 61.1669556,27.3978 C61.9499556,26.6018 62.8849556,26.1808 63.9759556,26.1368 L64.0429556,26.1368 L64.1539556,26.1368 Z" id="Fill-7" fill="#878786"></path>
                <path d="M73.1654556,24.8755 C73.0314556,24.6985 72.7284556,24.5955 72.2564556,24.5665 C71.8304556,24.5215 71.5144556,24.5585 71.3074556,24.6775 C70.8784556,24.9715 70.8064556,25.3405 71.0854556,25.7835 L75.7534556,32.5965 L71.0854556,39.4115 C70.8064556,39.8545 70.8784556,40.2235 71.3074556,40.5175 C71.5264556,40.6075 71.8454556,40.6445 72.2564556,40.6295 C72.7284556,40.6005 73.0314556,40.4965 73.1654556,40.3195 L77.0804556,34.5675 L81.0194556,40.3195 C81.1384556,40.5105 81.4254556,40.6135 81.8814556,40.6295 C82.2794556,40.6445 82.6124556,40.6075 82.8774556,40.5175 C83.3054556,40.2235 83.3714556,39.8545 83.0764556,39.4115 L78.4314556,32.5965 L83.0764556,25.7835 C83.3714556,25.3545 83.3054556,24.9865 82.8774556,24.6775 C82.6704556,24.5585 82.3384556,24.5215 81.8814556,24.5665 C81.4264556,24.5815 81.1384556,24.6835 81.0194556,24.8755 L77.0804556,30.6285 L73.1654556,24.8755 Z" id="Fill-9" fill="#878786"></path>
                <g id="Group-13" transform="translate(0.000000, 0.000000)">
                    <mask id="mask-2" fill="white">
                        <use xlink:href="#path-1"></use>
                    </mask>
                    <g id="Clip-12"></g>
                    <path d="M0.00335564907,14.2305 C0.117355649,10.3825 1.39635565,7.5015 3.92135565,5.1555 C3.38435565,6.5275 3.09835565,8.0865 3.19135565,9.8305 C3.49435565,15.3915 7.60435565,20.7575 13.5733556,20.4145 C18.2943556,20.1445 23.0923556,16.7745 22.8013556,11.5605 C22.5863556,7.6875 19.9423556,3.4545 15.4783556,3.6865 C6.52935565,4.1525 7.88735565,14.6785 13.1733556,14.6555 C16.5403556,14.6415 18.5353556,11.4445 16.0943556,9.0905 C15.0633556,8.0965 13.5643556,9.6505 14.5973556,10.6435 C15.3843556,11.4035 14.9573556,12.4905 13.1633556,12.4975 C12.0353556,12.5025 11.0083556,11.0645 11.1323556,9.3335 C11.4803556,4.4755 20.6173556,4.1965 20.5823556,11.6915 C20.5383556,20.4205 5.96335565,21.0615 5.34835565,9.7145 C5.16135565,6.2935 7.09935565,3.0695 9.94235565,1.2855 C14.5843556,-0.8365 19.2873556,-0.8475 23.8503556,5.2555 C29.0313556,12.1835 29.1753556,19.2615 23.3993556,23.2535 C18.3033556,26.7765 -0.286644351,24.0045 0.00335564907,14.2305" id="Fill-11" fill="#F18705" mask="url(#mask-2)"></path>
                </g>
                <g id="Group-16" transform="translate(27.571756, 44.539100)">
                    <mask id="mask-4" fill="white">
                        <use xlink:href="#path-3"></use>
                    </mask>
                    <g id="Clip-15"></g>
                    <path d="M1.289,3.707 C1.244,3.718 1.199,3.727 1.153,3.735 C1.107,3.742 1.062,3.746 1.018,3.746 C0.95,3.746 0.896,3.738 0.857,3.723 C0.818,3.707 0.79,3.682 0.771,3.65 C0.754,3.617 0.742,3.576 0.738,3.525 C0.732,3.474 0.73,3.413 0.731,3.344 L0.731,1.388 L1.267,1.388 L1.267,1.112 L0.731,1.112 L0.731,0.319 L0.401,0.319 L0.401,1.112 L7.10542736e-15,1.112 L7.10542736e-15,1.388 L0.401,1.388 L0.401,3.476 C0.401,3.616 0.422,3.728 0.461,3.812 C0.5,3.894 0.558,3.954 0.633,3.99 C0.708,4.027 0.8,4.044 0.908,4.043 C0.962,4.042 1.013,4.038 1.06,4.029 C1.108,4.021 1.152,4.012 1.19,4.002 C1.229,3.991 1.263,3.983 1.289,3.977 L1.289,3.707 Z M1.952,2.341 C1.969,2.205 2.001,2.077 2.048,1.955 C2.096,1.835 2.157,1.728 2.236,1.634 C2.316,1.541 2.412,1.468 2.524,1.414 C2.637,1.361 2.765,1.334 2.91,1.333 C3.06,1.334 3.19,1.36 3.303,1.412 C3.416,1.464 3.511,1.536 3.586,1.628 C3.661,1.72 3.719,1.827 3.758,1.949 C3.795,2.07 3.814,2.201 3.814,2.341 L1.952,2.341 Z M4.16701443,2.616 C4.168,2.274 4.117,1.986 4.018,1.751 C3.917,1.516 3.772,1.338 3.586,1.217 C3.397,1.097 3.173,1.036 2.91,1.035 C2.707,1.036 2.523,1.076 2.361,1.154 C2.199,1.234 2.063,1.342 1.949,1.48 C1.837,1.619 1.75,1.78 1.689,1.963 C1.63,2.145 1.601,2.341 1.6,2.55 C1.6,2.762 1.625,2.959 1.676,3.139 C1.726,3.32 1.807,3.478 1.912,3.613 C2.018,3.748 2.153,3.853 2.32,3.928 C2.485,4.004 2.682,4.042 2.91,4.043 C3.092,4.042 3.251,4.019 3.388,3.97 C3.522,3.922 3.641,3.855 3.738,3.769 C3.837,3.683 3.919,3.582 3.984,3.467 C4.05,3.352 4.104,3.226 4.144,3.09 L3.775,3.09 C3.741,3.23 3.684,3.349 3.602,3.446 C3.521,3.544 3.423,3.618 3.304,3.668 C3.185,3.72 3.055,3.746 2.91,3.746 C2.752,3.745 2.613,3.714 2.492,3.656 C2.373,3.597 2.272,3.516 2.191,3.413 C2.11,3.309 2.051,3.189 2.011,3.053 C1.971,2.918 1.951,2.771 1.952,2.616 L4.16701443,2.616 Z M6.599,3.966 L6.995,3.966 L5.927,2.49 L6.957,1.112 L6.539,1.112 L5.728,2.247 L4.94,1.112 L4.532,1.112 L5.542,2.49 L4.444,3.966 L4.847,3.966 L5.733,2.732 L6.599,3.966 Z M8.431,3.707 C8.387,3.718 8.342,3.727 8.296,3.735 C8.25,3.742 8.204,3.746 8.16,3.746 C8.093,3.746 8.039,3.738 8,3.723 C7.961,3.707 7.932,3.682 7.914,3.65 C7.895,3.617 7.885,3.576 7.881,3.525 C7.875,3.474 7.874,3.413 7.874,3.344 L7.874,1.388 L8.408,1.388 L8.408,1.112 L7.874,1.112 L7.874,0.319 L7.544,0.319 L7.544,1.112 L7.142,1.112 L7.142,1.388 L7.544,1.388 L7.544,3.476 C7.544,3.616 7.563,3.728 7.603,3.812 C7.642,3.894 7.699,3.954 7.774,3.99 C7.851,4.027 7.941,4.044 8.051,4.043 C8.103,4.042 8.155,4.038 8.202,4.029 C8.251,4.021 8.295,4.012 8.334,4.002 C8.371,3.991 8.404,3.983 8.431,3.977 L8.431,3.707 Z M8.939,3.966 L9.27,3.966 L9.27,1.112 L8.939,1.112 L8.939,3.966 Z M8.923,0.49 L9.286,0.49 L9.286,0 L8.923,0 L8.923,0.49 Z M10.094,3.967 L10.425,3.967 L10.425,0 L10.094,0 L10.094,3.967 Z M11.402,2.341 C11.419,2.205 11.45,2.077 11.498,1.955 C11.546,1.835 11.607,1.728 11.686,1.634 C11.767,1.541 11.862,1.468 11.975,1.414 C12.087,1.361 12.215,1.334 12.36,1.333 C12.51,1.334 12.641,1.36 12.753,1.412 C12.865,1.464 12.961,1.536 13.035,1.628 C13.111,1.72 13.169,1.827 13.208,1.949 C13.244,2.07 13.265,2.201 13.265,2.341 L11.402,2.341 Z M13.616015,2.616 C13.617,2.274 13.568,1.986 13.468,1.751 C13.367,1.516 13.223,1.338 13.035,1.217 C12.848,1.097 12.623,1.036 12.36,1.035 C12.156,1.036 11.974,1.076 11.811,1.154 C11.649,1.234 11.514,1.342 11.399,1.48 C11.286,1.619 11.199,1.78 11.14,1.963 C11.079,2.145 11.051,2.341 11.05,2.55 C11.05,2.762 11.074,2.959 11.126,3.139 C11.178,3.32 11.257,3.478 11.362,3.613 C11.469,3.748 11.603,3.853 11.77,3.928 C11.935,4.004 12.133,4.042 12.36,4.043 C12.542,4.042 12.7,4.019 12.838,3.97 C12.974,3.922 13.091,3.855 13.188,3.769 C13.286,3.683 13.368,3.582 13.435,3.467 C13.501,3.352 13.555,3.226 13.595,3.09 L13.226,3.09 C13.191,3.23 13.134,3.349 13.054,3.446 C12.972,3.544 12.873,3.618 12.754,3.668 C12.637,3.72 12.505,3.746 12.36,3.746 C12.201,3.745 12.063,3.714 11.942,3.656 C11.822,3.597 11.723,3.516 11.642,3.413 C11.56,3.309 11.501,3.189 11.461,3.053 C11.421,2.918 11.401,2.771 11.402,2.616 L13.616015,2.616 Z M16.07,2.567 C16.069,2.406 16.084,2.254 16.113,2.111 C16.143,1.969 16.192,1.843 16.263,1.734 C16.334,1.625 16.43,1.54 16.553,1.48 C16.675,1.419 16.827,1.391 17.014,1.393 L17.014,1.035 C16.854,1.034 16.716,1.054 16.599,1.092 C16.482,1.131 16.382,1.195 16.298,1.285 C16.214,1.375 16.142,1.495 16.082,1.647 L16.07,1.647 L16.07,1.112 L15.74,1.112 L15.74,3.966 L16.07,3.966 L16.07,2.567 Z M17.595,2.341 C17.61,2.205 17.643,2.077 17.689,1.955 C17.737,1.835 17.8,1.728 17.879,1.634 C17.959,1.541 18.055,1.468 18.167,1.414 C18.278,1.361 18.406,1.334 18.553,1.333 C18.701,1.334 18.833,1.36 18.944,1.412 C19.058,1.464 19.152,1.536 19.227,1.628 C19.304,1.72 19.36,1.827 19.399,1.949 C19.436,2.07 19.457,2.201 19.457,2.341 L17.595,2.341 Z M19.809015,2.616 C19.81,2.274 19.761,1.986 19.659,1.751 C19.56,1.516 19.415,1.338 19.227,1.217 C19.04,1.097 18.814,1.036 18.553,1.035 C18.349,1.036 18.166,1.076 18.004,1.154 C17.842,1.234 17.706,1.342 17.592,1.48 C17.478,1.619 17.392,1.78 17.332,1.963 C17.271,2.145 17.242,2.341 17.241,2.55 C17.241,2.762 17.267,2.959 17.317,3.139 C17.369,3.32 17.448,3.478 17.555,3.613 C17.66,3.748 17.796,3.853 17.963,3.928 C18.128,4.004 18.324,4.042 18.553,4.043 C18.733,4.042 18.893,4.019 19.029,3.97 C19.166,3.922 19.282,3.855 19.381,3.769 C19.478,3.683 19.56,3.582 19.627,3.467 C19.692,3.352 19.746,3.226 19.786,3.09 L19.418,3.09 C19.384,3.23 19.325,3.349 19.245,3.446 C19.164,3.544 19.064,3.618 18.945,3.668 C18.828,3.72 18.696,3.746 18.553,3.746 C18.393,3.745 18.256,3.714 18.135,3.656 C18.015,3.597 17.915,3.516 17.834,3.413 C17.753,3.309 17.692,3.189 17.652,3.053 C17.612,2.918 17.594,2.771 17.595,2.616 L19.809015,2.616 Z M20.241,3.073 C20.249,3.21 20.276,3.336 20.327,3.453 C20.379,3.57 20.449,3.672 20.543,3.761 C20.635,3.849 20.745,3.918 20.878,3.968 C21.009,4.017 21.158,4.042 21.326,4.043 C21.495,4.043 21.65,4.026 21.792,3.99 C21.934,3.954 22.056,3.902 22.16,3.832 C22.264,3.762 22.345,3.675 22.401,3.571 C22.46,3.467 22.487,3.348 22.488,3.211 C22.487,3.075 22.462,2.962 22.409,2.869 C22.359,2.777 22.29,2.701 22.203,2.641 C22.115,2.581 22.018,2.533 21.91,2.495 C21.802,2.458 21.689,2.425 21.574,2.398 C21.459,2.37 21.347,2.343 21.238,2.315 C21.13,2.287 21.032,2.254 20.945,2.214 C20.859,2.174 20.79,2.123 20.738,2.061 C20.687,1.998 20.66,1.919 20.659,1.823 C20.659,1.725 20.685,1.639 20.734,1.566 C20.782,1.492 20.855,1.436 20.95,1.395 C21.048,1.354 21.165,1.334 21.305,1.333 C21.443,1.332 21.566,1.351 21.675,1.391 C21.782,1.43 21.871,1.493 21.94,1.582 C22.01,1.67 22.055,1.787 22.075,1.933 L22.411,1.933 C22.384,1.719 22.321,1.546 22.226,1.414 C22.131,1.281 22.006,1.185 21.851,1.125 C21.696,1.065 21.517,1.034 21.31,1.03497655 C21.098,1.036 20.918,1.072 20.768,1.142 C20.619,1.211 20.506,1.306 20.427,1.428 C20.348,1.55 20.309,1.692 20.308,1.851 C20.309,1.99 20.335,2.106 20.387,2.198 C20.436,2.29 20.507,2.365 20.593,2.423 C20.68,2.48 20.777,2.524 20.886,2.559 C20.994,2.593 21.105,2.622 21.222,2.646 C21.338,2.669 21.449,2.693 21.558,2.718 C21.667,2.743 21.764,2.774 21.851,2.813 C21.937,2.851 22.007,2.903 22.059,2.967 C22.108,3.031 22.136,3.115 22.137,3.217 C22.137,3.31 22.111,3.397 22.06,3.477 C22.009,3.557 21.932,3.621 21.826,3.67 C21.724,3.719 21.591,3.744 21.432,3.746 C21.267,3.747 21.128,3.725 21.013,3.68 C20.898,3.636 20.806,3.565 20.735,3.465 C20.665,3.367 20.611,3.236 20.577,3.073 L20.241,3.073 Z M23.273,2.341 C23.291,2.205 23.322,2.077 23.369,1.955 C23.417,1.835 23.479,1.728 23.559,1.634 C23.639,1.541 23.733,1.468 23.846,1.414 C23.958,1.361 24.087,1.334 24.232,1.333 C24.382,1.334 24.513,1.36 24.625,1.412 C24.737,1.464 24.832,1.536 24.907,1.628 C24.983,1.72 25.041,1.827 25.078,1.949 C25.116,2.07 25.136,2.201 25.136,2.341 L23.273,2.341 Z M25.4880147,2.616 C25.489,2.274 25.439,1.986 25.339,1.751 C25.238,1.516 25.095,1.338 24.907,1.217 C24.72,1.097 24.493,1.036 24.232,1.035 C24.028,1.036 23.845,1.076 23.684,1.154 C23.521,1.234 23.385,1.342 23.27,1.48 C23.157,1.619 23.07,1.78 23.012,1.963 C22.951,2.145 22.922,2.341 22.922,2.55 C22.922,2.762 22.946,2.959 22.998,3.139 C23.049,3.32 23.128,3.478 23.234,3.613 C23.34,3.748 23.476,3.853 23.642,3.928 C23.808,4.004 24.004,4.042 24.232,4.043 C24.414,4.042 24.571,4.019 24.709,3.97 C24.845,3.922 24.963,3.855 25.06,3.769 C25.157,3.683 25.24,3.582 25.307,3.467 C25.371,3.352 25.426,3.226 25.467,3.09 L25.098,3.09 C25.063,3.23 25.006,3.349 24.925,3.446 C24.843,3.544 24.743,3.618 24.626,3.668 C24.508,3.72 24.377,3.746 24.232,3.746 C24.073,3.745 23.935,3.714 23.814,3.656 C23.694,3.597 23.595,3.516 23.514,3.413 C23.433,3.309 23.373,3.189 23.333,3.053 C23.293,2.918 23.272,2.771 23.273,2.616 L25.4880147,2.616 Z M27.932,2.914 C27.931,3.058 27.9,3.183 27.843,3.287 C27.784,3.393 27.706,3.479 27.607,3.547 C27.509,3.614 27.397,3.665 27.274,3.697 C27.15,3.73 27.022,3.746 26.891,3.746 C26.811,3.746 26.735,3.736 26.661,3.714 C26.589,3.693 26.522,3.662 26.465,3.62 C26.405,3.578 26.359,3.524 26.325,3.46 C26.292,3.396 26.274,3.32 26.273,3.233 C26.274,3.105 26.307,2.998 26.37,2.914 C26.435,2.829 26.526,2.762 26.646,2.715 C26.767,2.67 26.909,2.64 27.077,2.627 C27.173,2.621 27.268,2.612 27.364,2.602 C27.46,2.592 27.555,2.576 27.648,2.556 C27.743,2.535 27.838,2.505 27.932,2.467 L27.932,2.914 Z M26.918,2.363 C26.585,2.407 26.335,2.501 26.17,2.646 C26.004,2.79 25.921,2.983 25.921,3.222 C25.922,3.36 25.948,3.48 25.999,3.583 C26.051,3.686 26.12,3.771 26.21,3.839 C26.298,3.907 26.399,3.959 26.513,3.993 C26.628,4.027 26.746,4.043 26.874,4.043 C27.082,4.042 27.275,4.002 27.457,3.922 C27.638,3.841 27.799,3.725 27.936,3.569 C27.938,3.636 27.945,3.7 27.96,3.76 C27.973,3.82 27.999,3.871 28.036,3.913 C28.073,3.955 28.129,3.982 28.201,3.994 C28.226,3.999 28.251,4.003 28.273,4.006 C28.298,4.008 28.322,4.01 28.351,4.01 C28.383,4.01 28.415,4.006 28.447,3.999 C28.481,3.993 28.513,3.985 28.542,3.977 C28.569,3.968 28.592,3.96 28.609,3.955 L28.609,3.696 C28.517,3.729 28.444,3.744 28.394,3.74 C28.344,3.737 28.309,3.714 28.29,3.67 C28.27,3.626 28.262,3.562 28.263,3.476 L28.263,1.922 C28.262,1.757 28.234,1.618 28.182,1.505 C28.129,1.391 28.056,1.299 27.962,1.231 C27.867,1.162 27.757,1.111 27.633,1.081 C27.508,1.05 27.373,1.034 27.226,1.035 C27.07,1.035 26.924,1.053 26.787,1.088 C26.651,1.123 26.53,1.179 26.425,1.254 C26.319,1.33 26.233,1.427 26.17,1.546 C26.105,1.666 26.065,1.809 26.054,1.977 L26.389,1.977 C26.41,1.813 26.457,1.684 26.53,1.59 C26.602,1.495 26.698,1.429 26.814,1.39 C26.933,1.35 27.067,1.332 27.221,1.333 C27.391,1.334 27.528,1.359 27.634,1.408 C27.737,1.457 27.813,1.525 27.86,1.612 C27.908,1.698 27.933,1.798 27.932,1.911 C27.933,1.945 27.93,1.982 27.926,2.021 C27.92,2.061 27.908,2.098 27.891,2.131 C27.874,2.166 27.848,2.191 27.81,2.209 C27.772,2.225 27.727,2.24 27.676,2.253 C27.624,2.266 27.57,2.276 27.518,2.284 C27.465,2.292 27.417,2.298 27.376,2.302 L26.918,2.363 Z M29.404,2.567 C29.404,2.406 29.419,2.254 29.447,2.111 C29.476,1.969 29.527,1.843 29.597,1.734 C29.668,1.625 29.765,1.54 29.887,1.48 C30.009,1.419 30.161,1.391 30.348,1.393 L30.348,1.035 C30.188,1.034 30.05,1.054 29.934,1.092 C29.816,1.131 29.716,1.195 29.632,1.285 C29.548,1.375 29.476,1.495 29.417,1.647 L29.404,1.647 L29.404,1.112 L29.074,1.112 L29.074,3.966 L29.404,3.966 L29.404,2.567 Z M33.083,2.01 C33.049,1.79 32.98,1.608 32.877,1.464 C32.773,1.319 32.64,1.211 32.475,1.141 C32.31,1.07 32.117,1.035 31.897,1.035 C31.726,1.036 31.571,1.063 31.434,1.116 C31.295,1.169 31.173,1.243 31.067,1.338 C30.963,1.433 30.874,1.544 30.803,1.671 C30.73,1.797 30.678,1.935 30.641,2.083 C30.604,2.232 30.587,2.385 30.587,2.545 C30.587,2.757 30.612,2.953 30.664,3.134 C30.716,3.316 30.795,3.474 30.901,3.61 C31.008,3.746 31.144,3.851 31.31,3.928 C31.475,4.004 31.671,4.042 31.897,4.043 C32.137,4.041 32.341,3.996 32.51,3.908 C32.678,3.82 32.813,3.696 32.916,3.537 C33.018,3.378 33.088,3.193 33.127,2.98 L32.773,2.98 C32.749,3.139 32.696,3.275 32.621,3.39 C32.547,3.503 32.446,3.591 32.325,3.652 C32.204,3.714 32.061,3.745 31.897,3.746 C31.761,3.745 31.641,3.723 31.536,3.679 C31.431,3.635 31.341,3.574 31.266,3.496 C31.189,3.418 31.129,3.329 31.079,3.227 C31.031,3.125 30.996,3.017 30.974,2.9 C30.95,2.784 30.939,2.666 30.939,2.545 C30.939,2.424 30.95,2.307 30.974,2.19 C30.996,2.074 31.032,1.963 31.082,1.861 C31.131,1.758 31.191,1.667 31.268,1.588 C31.344,1.509 31.434,1.447 31.537,1.402 C31.643,1.357 31.763,1.334 31.897,1.333 C32.045,1.333 32.175,1.36 32.289,1.414 C32.4,1.468 32.495,1.545 32.572,1.646 C32.649,1.747 32.708,1.868 32.746,2.01 L33.083,2.01 Z M34.049,3.966 L34.049,2.429 C34.049,2.331 34.052,2.239 34.06,2.153 C34.068,2.066 34.089,1.978 34.12,1.889 C34.155,1.79 34.21,1.699 34.282,1.614 C34.354,1.531 34.443,1.463 34.551,1.412 C34.656,1.36 34.778,1.334 34.914,1.333 C35.09,1.333 35.231,1.361 35.342,1.419 C35.449,1.476 35.528,1.562 35.578,1.676 C35.629,1.791 35.653,1.933 35.652,2.104 L35.652,3.966 L35.982,3.966 L35.982,2.098 C35.983,2.019 35.981,1.942 35.977,1.868 C35.971,1.794 35.958,1.721 35.937,1.65 C35.918,1.58 35.885,1.511 35.84,1.443 C35.771,1.344 35.691,1.265 35.601,1.205 C35.51,1.145 35.41,1.101 35.305,1.075 C35.196,1.048 35.086,1.034 34.97,1.035 C34.838,1.036 34.72,1.056 34.612,1.096 C34.508,1.135 34.407,1.19 34.317,1.261 C34.226,1.332 34.137,1.414 34.049,1.509 L34.049,0 L33.719,0 L33.719,3.966 L34.049,3.966 Z M38.294,3.966 L38.625,3.966 L38.625,1.112 L38.294,1.112 L38.294,3.966 Z M38.278,0.49 L38.641,0.49 L38.641,0 L38.278,0 L38.278,0.49 Z M39.728,2.429 C39.727,2.331 39.731,2.239 39.739,2.153 C39.748,2.066 39.768,1.978 39.801,1.889 C39.836,1.79 39.89,1.699 39.962,1.614 C40.034,1.531 40.124,1.463 40.229,1.412 C40.337,1.36 40.458,1.334 40.594,1.333 C40.768,1.333 40.911,1.361 41.02,1.419 C41.129,1.476 41.208,1.562 41.259,1.676 C41.309,1.791 41.333,1.933 41.332,2.104 L41.332,3.966 L41.662,3.966 L41.662,2.098 C41.664,2.019 41.661,1.942 41.655,1.868 C41.65,1.794 41.638,1.721 41.617,1.65 C41.598,1.58 41.564,1.511 41.519,1.443 C41.451,1.344 41.371,1.265 41.28,1.205 C41.189,1.145 41.091,1.101 40.983,1.075 C40.877,1.048 40.766,1.034 40.648,1.035 C40.518,1.036 40.398,1.056 40.293,1.096 C40.186,1.135 40.088,1.19 39.996,1.261 C39.904,1.332 39.815,1.414 39.728,1.509 L39.728,1.112 L39.397,1.112 L39.397,3.966 L39.728,3.966 L39.728,2.429 Z M42.249,3.073 C42.257,3.21 42.284,3.336 42.336,3.453 C42.387,3.57 42.458,3.672 42.551,3.761 C42.642,3.849 42.754,3.918 42.886,3.968 C43.017,4.017 43.167,4.042 43.335,4.043 C43.504,4.043 43.658,4.026 43.8,3.99 C43.941,3.954 44.063,3.902 44.168,3.832 C44.271,3.762 44.352,3.675 44.409,3.571 C44.468,3.467 44.495,3.348 44.496,3.211 C44.495,3.075 44.47,2.962 44.418,2.869 C44.367,2.777 44.298,2.701 44.212,2.641 C44.124,2.581 44.026,2.533 43.919,2.495 C43.81,2.458 43.697,2.425 43.583,2.398 C43.467,2.37 43.354,2.343 43.245,2.315 C43.138,2.287 43.041,2.254 42.953,2.214 C42.866,2.174 42.798,2.123 42.746,2.061 C42.695,1.998 42.669,1.919 42.668,1.823 C42.668,1.725 42.692,1.639 42.741,1.566 C42.791,1.492 42.863,1.436 42.959,1.395 C43.055,1.354 43.173,1.334 43.312,1.333 C43.45,1.332 43.573,1.351 43.683,1.391 C43.791,1.43 43.88,1.493 43.948,1.582 C44.018,1.67 44.062,1.787 44.084,1.933 L44.42,1.933 C44.392,1.719 44.329,1.546 44.234,1.414 C44.139,1.281 44.014,1.185 43.859,1.125 C43.704,1.065 43.524,1.034 43.317,1.03497655 C43.105,1.036 42.926,1.072 42.776,1.142 C42.628,1.211 42.514,1.306 42.435,1.428 C42.355,1.55 42.315,1.692 42.315,1.851 C42.315,1.99 42.343,2.106 42.393,2.198 C42.444,2.29 42.515,2.365 42.601,2.423 C42.687,2.48 42.785,2.524 42.893,2.559 C43.002,2.593 43.113,2.622 43.229,2.646 C43.346,2.669 43.458,2.693 43.565,2.718 C43.675,2.743 43.771,2.774 43.858,2.813 C43.945,2.851 44.015,2.903 44.066,2.967 C44.116,3.031 44.143,3.115 44.144,3.217 C44.144,3.31 44.119,3.397 44.067,3.477 C44.017,3.557 43.939,3.621 43.835,3.67 C43.73,3.719 43.599,3.744 43.438,3.746 C43.274,3.747 43.135,3.725 43.02,3.68 C42.906,3.636 42.813,3.565 42.742,3.465 C42.673,3.367 42.618,3.236 42.585,3.073 L42.249,3.073 Z M46.081,3.707 C46.036,3.718 45.991,3.727 45.945,3.735 C45.899,3.742 45.854,3.746 45.81,3.746 C45.742,3.746 45.688,3.738 45.649,3.723 C45.61,3.707 45.582,3.682 45.563,3.65 C45.547,3.617 45.534,3.576 45.53,3.525 C45.524,3.474 45.523,3.413 45.524,3.344 L45.524,1.388 L46.059,1.388 L46.059,1.112 L45.524,1.112 L45.524,0.319 L45.193,0.319 L45.193,1.112 L44.792,1.112 L44.792,1.388 L45.193,1.388 L45.193,3.476 C45.193,3.616 45.214,3.728 45.254,3.812 C45.292,3.894 45.35,3.954 45.425,3.99 C45.501,4.027 45.592,4.044 45.7,4.043 C45.754,4.042 45.805,4.038 45.852,4.029 C45.9,4.021 45.944,4.012 45.983,4.002 C46.021,3.991 46.055,3.983 46.081,3.977 L46.081,3.707 Z M46.59,3.966 L46.921,3.966 L46.921,1.112 L46.59,1.112 L46.59,3.966 Z M46.573,0.49 L46.936,0.49 L46.936,0 L46.573,0 L46.573,0.49 Z M48.696,3.707 C48.652,3.718 48.607,3.727 48.561,3.735 C48.516,3.742 48.471,3.746 48.427,3.746 C48.358,3.746 48.305,3.738 48.267,3.723 C48.227,3.707 48.198,3.682 48.181,3.65 C48.162,3.617 48.151,3.576 48.146,3.525 C48.142,3.474 48.14,3.413 48.141,3.344 L48.141,1.388 L48.676,1.388 L48.676,1.112 L48.141,1.112 L48.141,0.319 L47.81,0.319 L47.81,1.112 L47.407,1.112 L47.407,1.388 L47.81,1.388 L47.81,3.476 C47.81,3.616 47.829,3.728 47.869,3.812 C47.908,3.894 47.966,3.954 48.042,3.99 C48.116,4.027 48.209,4.044 48.316,4.043 C48.369,4.042 48.422,4.038 48.47,4.029 C48.517,4.021 48.56,4.012 48.6,4.002 C48.639,3.991 48.672,3.983 48.696,3.977 L48.696,3.707 Z M51.091,2.666 C51.091,2.824 51.07,2.968 51.031,3.099 C50.992,3.23 50.935,3.345 50.859,3.442 C50.784,3.538 50.693,3.613 50.587,3.665 C50.478,3.718 50.356,3.745 50.221,3.746 C50.049,3.746 49.907,3.716 49.8,3.657 C49.691,3.599 49.612,3.513 49.562,3.4 C49.512,3.287 49.486,3.149 49.487,2.985 L49.487,1.112 L49.156,1.112 L49.156,2.991 C49.155,3.141 49.174,3.279 49.209,3.406 C49.242,3.534 49.301,3.645 49.379,3.74 C49.457,3.836 49.561,3.909 49.691,3.962 C49.821,4.016 49.981,4.042 50.171,4.043 C50.296,4.042 50.405,4.027 50.501,3.997 C50.597,3.967 50.68,3.928 50.753,3.881 C50.824,3.833 50.889,3.782 50.942,3.727 C50.998,3.672 51.048,3.62 51.091,3.569 L51.091,3.966 L51.421,3.966 L51.421,1.112 L51.091,1.112 L51.091,2.666 Z M53.153,3.707 C53.109,3.718 53.064,3.727 53.018,3.735 C52.973,3.742 52.928,3.746 52.884,3.746 C52.815,3.746 52.762,3.738 52.723,3.723 C52.684,3.707 52.654,3.682 52.637,3.65 C52.619,3.617 52.607,3.576 52.603,3.525 C52.598,3.474 52.597,3.413 52.598,3.344 L52.598,1.388 L53.132,1.388 L53.132,1.112 L52.598,1.112 L52.598,0.319 L52.267,0.319 L52.267,1.112 L51.864,1.112 L51.864,1.388 L52.267,1.388 L52.267,3.476 C52.267,3.616 52.286,3.728 52.326,3.812 C52.364,3.894 52.423,3.954 52.498,3.99 C52.573,4.027 52.665,4.044 52.773,4.043 C52.826,4.042 52.878,4.038 52.926,4.029 C52.974,4.021 53.018,4.012 53.057,4.002 C53.095,3.991 53.128,3.983 53.153,3.977 L53.153,3.707 Z M53.816,2.341 C53.834,2.205 53.865,2.077 53.912,1.955 C53.961,1.835 54.022,1.728 54.102,1.634 C54.182,1.541 54.277,1.468 54.389,1.414 C54.502,1.361 54.63,1.334 54.775,1.333 C54.925,1.334 55.056,1.36 55.168,1.412 C55.28,1.464 55.376,1.536 55.45,1.628 C55.526,1.72 55.584,1.827 55.623,1.949 C55.66,2.07 55.68,2.201 55.68,2.341 L53.816,2.341 Z M56.031015,2.616 C56.032,2.274 55.983,1.986 55.882,1.751 C55.781,1.516 55.639,1.338 55.45,1.217 C55.263,1.097 55.037,1.036 54.775,1.035 C54.571,1.036 54.389,1.076 54.227,1.154 C54.064,1.234 53.929,1.342 53.814,1.48 C53.701,1.619 53.614,1.78 53.555,1.963 C53.494,2.145 53.466,2.341 53.465,2.55 C53.465,2.762 53.489,2.959 53.541,3.139 C53.593,3.32 53.671,3.478 53.777,3.613 C53.884,3.748 54.019,3.853 54.185,3.928 C54.351,4.004 54.547,4.042 54.775,4.043 C54.957,4.042 55.115,4.019 55.253,3.97 C55.389,3.922 55.506,3.855 55.603,3.769 C55.701,3.683 55.784,3.582 55.85,3.467 C55.916,3.352 55.97,3.226 56.01,3.09 L55.641,3.09 C55.606,3.23 55.549,3.349 55.469,3.446 C55.387,3.544 55.287,3.618 55.169,3.668 C55.052,3.72 54.921,3.746 54.775,3.746 C54.616,3.745 54.478,3.714 54.357,3.656 C54.237,3.597 54.138,3.516 54.057,3.413 C53.976,3.309 53.916,3.189 53.876,3.053 C53.836,2.918 53.816,2.771 53.816,2.616 L56.031015,2.616 Z" id="Fill-14" fill="#878786" mask="url(#mask-4)"></path>
                </g>
            </g>
        </g>
    </g>
</svg>