<?xml version="1.0" encoding="UTF-8"?>
<svg width="103px" height="37px" viewBox="0 0 103 37" version="1.1" xmlns="http://www.w3.org/2000/svg" xmlns:xlink="http://www.w3.org/1999/xlink">
    <title>ead</title>
    <defs>
        <polygon id="path-1" points="0 0 9.17030599 0 9.17030599 8.69232106 0 8.69232106"></polygon>
        <polygon id="path-3" points="0 0 3.71619057 0 3.71619057 6.43619363 0 6.43619363"></polygon>
        <polygon id="path-5" points="0 37 103 37 103 0 0 0"></polygon>
    </defs>
    <g id="concept" stroke="none" stroke-width="1" fill="none" fill-rule="evenodd">
        <g id="00_home-d-docencia" transform="translate(-1137.000000, -2053.000000)">
            <g id="ead" transform="translate(1137.000000, 2053.000000)">
                <polygon id="Fill-1" fill="#161F2A" points="54 0 54 9 60 9 60 7.30104952 55.8045954 7.30104952 55.8045954 5.29971121 59.5681461 5.29971121 59.5681461 3.61153765 55.8045954 3.61153765 55.8045954 1.69451293 59.9310683 1.69451293 59.9310683 0"></polygon>
                <g id="Group-53">
                    <g id="Group-4" transform="translate(60.341912, 0.000000)">
                        <mask id="mask-2" fill="white">
                            <use xlink:href="#path-1"></use>
                        </mask>
                        <g id="Clip-3"></g>
                        <path d="M6.0069913,5.52474141 L4.78048737,2.4036988 C4.71864169,2.23224659 4.65618368,2.06079437 4.594338,1.72646256 C4.52759365,2.06079437 4.46574797,2.23224659 4.39410495,2.4036988 L3.18229702,5.52474141 L6.0069913,5.52474141 Z M3.57847678,-0.000306164667 L5.60591288,-0.000306164667 L9.17030599,8.69232106 L7.2328829,8.69232106 L6.59360676,7.06597435 L2.59506923,7.06597435 L1.94170942,8.69232106 L0,8.69232106 L3.57847678,-0.000306164667 L3.57847678,-0.000306164667 Z" id="Fill-2" fill="#161F2A" mask="url(#mask-2)"></path>
                    </g>
                    <path d="M73.7641999,1.63847083 L72.3613439,1.63847083 L72.3613439,7.05391146 L73.7641999,7.05391146 C75.5007776,7.05391146 76.4407095,6.13296814 76.4407095,4.34864046 C76.4407095,2.55941415 75.5007776,1.63847083 73.7641999,1.63847083 M78.3536392,4.34864046 C78.3536392,6.87266198 76.8797526,8.69434175 73.7641999,8.69434175 L70.4863789,8.69434175 L70.4863789,0.00171452213 L73.7641999,0.00171452213 C76.8797526,0.00171452213 78.3536392,1.81972031 78.3536392,4.34864046" id="Fill-5" fill="#161F2A"></path>
                    <path d="M55.4910671,10.5136334 C56.2968979,10.5136334 57.1131384,10.7046802 57.6954675,11.0341134 L57.6954675,12.3842995 C57.1180371,11.9783252 56.3544573,11.7731949 55.6006748,11.7872784 C54.8560773,11.7970757 54.4892895,11.9973074 54.4892895,12.4173653 C54.4892895,13.5765048 58.21044,13.1472619 58.21044,15.5426942 C58.21044,17.059434 56.9845484,17.5370509 55.5578114,17.5370509 C54.6178795,17.5370509 53.744692,17.3129384 53.0435702,16.9259462 L53.0435702,15.5426942 C53.8212337,16.0527646 54.6748266,16.2578949 55.4531024,16.2578949 C56.2399509,16.2578949 56.7218573,16.0956276 56.7218573,15.6186231 C56.7218573,14.3498767 53.0049932,14.8268813 53.0049932,12.4314489 C53.0049932,11.1290244 54.1506691,10.5136334 55.4910671,10.5136334" id="Fill-7" fill="#161F2A"></path>
                    <path d="M60.072791,16.0132693 C60.072791,16.3573984 60.3924291,16.581511 60.8026925,16.581511 C61.1798899,16.581511 61.5374926,16.4761903 61.8473334,16.2043161 L61.8473334,15.4787058 C61.6422017,15.4266578 61.3323609,15.3690989 61.0555862,15.3690989 C60.5546974,15.3690989 60.072791,15.5362648 60.072791,16.0132693 M63.5269641,16.5141547 C63.6035058,16.5141547 63.6941311,16.5000712 63.7798578,16.4761903 L63.7798578,17.3493719 C63.5655411,17.4301994 63.2930527,17.4877584 63.030974,17.4877584 C62.5588649,17.4877584 62.1957511,17.3156938 62.0004167,16.9678908 C61.54729,17.3205925 61.0127229,17.5349077 60.3256847,17.5349077 C59.4524972,17.5349077 58.693816,17.0346347 58.693816,16.1136914 C58.693816,14.9447547 59.8100999,14.5724584 60.7408468,14.5724584 C61.1131456,14.5724584 61.5185103,14.6202201 61.8473334,14.6967613 L61.8473334,14.5295954 C61.8473334,14.071573 61.4799333,13.7470385 60.7500318,13.7470385 C60.1107557,13.7470385 59.5382239,13.928288 59.0997931,14.1052511 L59.0997931,12.9406007 C59.4812769,12.8162979 60.1872974,12.6350484 60.9074015,12.6350484 C62.3053588,12.6350484 63.198141,13.2081887 63.198141,14.7298271 L63.198141,16.2043161 C63.198141,16.4425122 63.350612,16.5141547 63.5269641,16.5141547" id="Fill-9" fill="#161F2A"></path>
                    <path d="M67.166613,12.6376814 C68.3882182,12.6376814 69.0556617,13.4631014 69.0556617,14.5322284 L69.0556617,17.394868 L67.7103651,17.394868 L67.7103651,14.7036806 C67.7103651,14.0791047 67.3288813,13.7925345 66.8090102,13.7925345 C66.3313901,13.7925345 65.96399,14.1029855 65.7686557,14.3840447 L65.7686557,17.394868 L64.4184604,17.394868 L64.4184604,12.7717815 L65.6161846,12.7717815 L65.6161846,13.3534944 C65.9737874,12.9432338 66.4985572,12.6376814 67.166613,12.6376814" id="Fill-11" fill="#161F2A"></path>
                    <path d="M71.7962214,12.7692098 L73.270108,12.7692098 L73.270108,13.8952834 L71.7962214,13.8952834 L71.7962214,15.7083906 C71.7962214,16.1951924 72.0393178,16.4095077 72.5451052,16.4095077 C72.8549459,16.4095077 73.117637,16.3568473 73.389513,16.2515267 L73.389513,17.330451 C73.0270116,17.4547538 72.6020522,17.5355813 72.1348418,17.5355813 C71.2328746,17.5355813 70.4552111,17.1161357 70.4552111,15.9710799 L70.4552111,13.8952834 L69.6677502,13.8952834 L69.6677502,12.7692098 L70.4552111,12.7692098 L70.4552111,11.4190236 L71.7962214,11.0993877 L71.7962214,12.7692098" id="Fill-13" fill="#161F2A"></path>
                    <path d="M79.7448609,10.5136334 C80.4221017,10.5136334 81.1042412,10.6520199 81.6865703,10.9428763 L81.6865703,12.3267406 C81.2475272,11.9875101 80.6180484,11.7970757 79.9879572,11.7970757 C78.790233,11.7970757 77.5925087,12.474312 77.5925087,14.101271 C77.5833237,15.584945 78.8000303,16.243199 79.9879572,16.243199 C80.6890791,16.243199 81.3240689,16.0478659 81.7343323,15.685367 L81.7343323,17.0980108 C81.1520032,17.3790699 80.479661,17.5370509 79.7638432,17.5370509 C77.9507238,17.5370509 76.0947411,16.4489417 76.0947411,14.101271 C76.1045384,11.6348084 77.9317415,10.5136334 79.7448609,10.5136334" id="Fill-15" fill="#161F2A"></path>
                    <path d="M87.1969591,17.3963988 L86.0041335,17.3963988 L86.0041335,16.814686 C85.6459185,17.2249466 85.1119637,17.5353976 84.4537052,17.5353976 C83.1935229,17.5353976 82.5591455,16.7044667 82.5591455,15.635952 L82.5591455,12.7684137 L83.9093408,12.7684137 L83.9093408,15.4596012 C83.9093408,16.0798908 84.2485735,16.3756458 84.8015106,16.3756458 C85.2883157,16.3756458 85.6459185,16.0700935 85.8510502,15.7933206 L85.8510502,12.7684137 L87.1969591,12.7684137 L87.1969591,17.3963988" id="Fill-17" fill="#161F2A"></path>
                    <path d="M90.6825449,13.7654696 C89.9146788,13.7654696 89.4609397,14.3575921 89.4609397,15.0819777 C89.4609397,15.8075879 89.9146788,16.408283 90.6825449,16.408283 C91.2740591,16.408283 91.7131022,16.0463964 91.8943529,15.6600165 L91.8943529,14.5290443 C91.7131022,14.1285809 91.2740591,13.7654696 90.6825449,13.7654696 M90.3629069,12.6393959 C91.217112,12.6393959 91.7516792,13.0312867 92.0517226,13.446446 L92.0517226,12.7685974 L93.2347508,12.7685974 L93.2347508,17.272892 C93.2347508,19.0425238 91.9231325,19.6530161 90.5588536,19.6530161 C89.8283397,19.6530161 89.1510989,19.4956475 88.5834658,19.2237733 L88.5834658,18.0450393 C89.1131343,18.3505916 89.7377144,18.5226562 90.3818892,18.5226562 C91.2073147,18.5226562 91.8943529,18.245271 91.8943529,17.3292263 L91.8943529,16.9097807 C91.5936971,17.2294166 91.1026057,17.5343566 90.3629069,17.5343566 C88.8792229,17.5343566 88.0819647,16.3519487 88.0819647,15.0819777 C88.0819647,13.8230285 88.8792229,12.6393959 90.3629069,12.6393959" id="Fill-19" fill="#161F2A"></path>
                    <path d="M95.4179646,16.0132693 C95.4179646,16.3573984 95.7376026,16.581511 96.147866,16.581511 C96.5250635,16.581511 96.8826662,16.4761903 97.1925069,16.2043161 L97.1925069,15.4787058 C96.9922739,15.4266578 96.6824332,15.3690989 96.4007598,15.3690989 C95.9047697,15.3690989 95.4179646,15.5362648 95.4179646,16.0132693 M98.8721376,16.5141547 C98.953578,16.5141547 99.0393047,16.5000712 99.1250314,16.4761903 L99.1250314,17.3493719 C98.9107146,17.4301994 98.6382263,17.4877584 98.3804339,17.4877584 C97.9040384,17.4877584 97.5458234,17.3156938 97.350489,16.9678908 C96.8973622,17.3205925 96.3578964,17.5349077 95.6708583,17.5349077 C94.7976708,17.5349077 94.0389896,17.0346347 94.0389896,16.1136914 C94.0389896,14.9447547 95.1552735,14.5724584 96.0860204,14.5724584 C96.4583191,14.5724584 96.8636839,14.6202201 97.1925069,14.6967613 L97.1925069,14.5295954 C97.1925069,14.071573 96.8251069,13.7470385 96.100104,13.7470385 C95.4559292,13.7470385 94.8833974,13.928288 94.449253,14.1052511 L94.449253,12.9406007 C94.8264504,12.8162979 95.5373696,12.6350484 96.2531874,12.6350484 C97.6505324,12.6350484 98.5433146,13.2081887 98.5433146,14.7298271 L98.5433146,16.2043161 C98.5433146,16.4425122 98.7006843,16.5141547 98.8721376,16.5141547" id="Fill-21" fill="#161F2A"></path>
                    <g id="Group-25" transform="translate(99.283809, 11.099388)">
                        <mask id="mask-4" fill="white">
                            <use xlink:href="#path-3"></use>
                        </mask>
                        <g id="Clip-24"></g>
                        <path d="M2.12296013,1.66982209 L3.59745911,1.66982209 L3.59745911,2.79589574 L2.12296013,2.79589574 L2.12296013,4.6090029 C2.12296013,5.09580472 2.36605651,5.31011998 2.87184396,5.31011998 C3.18168469,5.31011998 3.44437575,5.25745966 3.71625181,5.15213902 L3.71625181,6.2310633 C3.35864906,6.35536616 2.92879097,6.43619363 2.46158053,6.43619363 C1.56022567,6.43619363 0.786848504,6.01674803 0.786848504,4.87169218 L0.786848504,2.79589574 L0,2.79589574 L0,1.66982209 L0.786848504,1.66982209 L0.786848504,0.319635912 L2.12296013,0 L2.12296013,1.66982209" id="Fill-23" fill="#161F2A" mask="url(#mask-4)"></path>
                    </g>
                    <polygon id="Fill-26" fill="#161F2A" points="57.2021717 21.5296218 54.0247733 21.5296218 54.0247733 23.3806934 56.958463 23.3806934 56.958463 24.0346612 54.0247733 24.0346612 54.0247733 25.9243095 57.2499337 25.9243095 57.2499337 26.5874621 53.3328365 26.5874621 53.3328365 20.8805528 57.2021717 20.8805528"></polygon>
                    <path d="M59.5384688,22.5670914 C60.0632386,22.5670914 60.5641274,22.7146628 60.9315274,22.9057096 L60.9315274,23.5217129 C60.602092,23.3159702 60.0534413,23.1586016 59.5764335,23.1586016 C59.1520864,23.1586016 58.703246,23.3012743 58.703246,23.6784692 C58.703246,24.52777 61.2034035,24.1701696 61.2034035,25.5822011 C61.2034035,26.3935374 60.4306387,26.6745966 59.5764335,26.6745966 C59.022884,26.6745966 58.4221849,26.5270252 58.0547848,26.2980141 L58.0547848,25.6636409 C58.4552509,25.9257178 59.0565624,26.0739015 59.5476538,26.0739015 C60.1061019,26.0739015 60.545145,25.9832768 60.545145,25.5962847 C60.545145,24.771477 58.0351902,25.0960116 58.0351902,23.6931651 C58.0351902,22.886115 58.79877,22.5670914 59.5384688,22.5670914" id="Fill-28" fill="#161F2A"></path>
                    <path d="M63.9464737,22.5670914 C64.3904155,22.5670914 64.8245599,22.6717998 65.1631803,22.886115 L65.1631803,23.5217129 C64.8625246,23.3012743 64.4473625,23.1775838 64.0273017,23.1775838 C63.2692329,23.1775838 62.4719747,23.5976417 62.4719747,24.6232933 C62.4719747,25.6299628 63.2447396,26.0739015 64.0132181,26.0739015 C64.4381775,26.0739015 64.8723219,25.9495987 65.201145,25.7640629 L65.201145,26.4125197 C64.8288463,26.5845842 64.4142965,26.6745966 63.9225927,26.6745966 C62.8920355,26.6745966 61.8186149,26.0304261 61.8186149,24.6428879 C61.8186149,23.2161605 62.9208152,22.5670914 63.9464737,22.5670914" id="Fill-30" fill="#161F2A"></path>
                    <path d="M67.9057607,23.1925859 C67.1042162,23.1925859 66.46494,23.7167398 66.46494,24.6235995 C66.46494,25.5298469 67.1042162,26.0552255 67.9057607,26.0552255 C68.7073052,26.0552255 69.3465813,25.5298469 69.3465813,24.6235995 C69.3465813,23.7167398 68.7073052,23.1925859 67.9057607,23.1925859 M67.9057607,22.5673976 C68.9791813,22.5673976 70.0048398,23.2923955 70.0048398,24.6235995 C70.0048398,25.9597021 68.9791813,26.6749028 67.9057607,26.6749028 C66.8415251,26.6749028 65.8066816,25.9597021 65.8066816,24.6235995 C65.8066816,23.2923955 66.8415251,22.5673976 67.9057607,22.5673976" id="Fill-32" fill="#161F2A"></path>
                    <mask id="mask-6" fill="white">
                        <use xlink:href="#path-5"></use>
                    </mask>
                    <g id="Clip-35"></g>
                    <polygon id="Fill-34" fill="#161F2A" mask="url(#mask-6)" points="70.9645501 26.5848904 71.6228085 26.5848904 71.6228085 20.6293753 70.9645501 20.6293753"></polygon>
                    <path d="M74.0443425,26.1154787 C74.5452312,26.1154787 75.04612,25.909736 75.3896391,25.5472371 L75.3896391,24.8314241 C75.1079657,24.7744775 74.7074996,24.7175308 74.3878615,24.7175308 C73.8153297,24.7175308 73.1901373,24.888983 73.1901373,25.4566123 C73.1901373,25.909736 73.610198,26.1154787 74.0443425,26.1154787 M76.3485533,26.067717 C76.448976,26.067717 76.5487863,26.0389375 76.649209,26.010158 L76.649209,26.5447216 C76.4961257,26.6016682 76.3197736,26.6353463 76.1581176,26.6353463 C75.8378672,26.6353463 75.5519074,26.5018585 75.4374011,26.1577294 C75.04612,26.4871626 74.5452312,26.6733107 73.9059551,26.6733107 C73.2091196,26.6733107 72.5220815,26.3108118 72.5220815,25.4902904 C72.5220815,24.4787224 73.4528283,24.17317 74.2972362,24.17317 C74.6407553,24.17317 75.0602037,24.2209317 75.3896391,24.288288 L75.3896391,24.1541878 C75.3896391,23.5626777 74.9842743,23.1762979 74.2635578,23.1762979 C73.65796,23.1762979 73.1760536,23.3238693 72.8325345,23.4622557 L72.8325345,22.8278825 C73.1423753,22.7329715 73.681841,22.5651932 74.3303022,22.5651932 C75.3804541,22.5651932 76.0436112,23.1432321 76.0436112,24.230729 L76.0436112,25.7621647 C76.0436112,26.0009731 76.1770999,26.067717 76.3485533,26.067717" id="Fill-36" fill="#161F2A" mask="url(#mask-6)"></path>
                    <path d="M80.9261746,23.1764204 C80.1674934,23.1764204 79.5423009,23.7293537 79.5423009,24.6264162 C79.5423009,25.5234787 80.1674934,26.0721258 80.9261746,26.0721258 C81.6370937,26.0721258 82.1569648,25.6190021 82.3810789,25.113218 L82.3810789,24.1396144 C82.1569648,23.6295441 81.6370937,23.1764204 80.9261746,23.1764204 M83.035051,26.5821961 L82.4435369,26.5821961 L82.4435369,25.9239421 C82.0951192,26.3299164 81.6083141,26.6734332 80.8545316,26.6734332 C79.733349,26.6734332 78.8889411,25.7953529 78.8889411,24.6264162 C78.8889411,23.4476823 79.733349,22.5653157 80.8545316,22.5653157 C81.6083141,22.5653157 82.0951192,22.9235283 82.3810789,23.2572478 L82.3810789,20.88141 L83.035051,20.88141 L83.035051,26.5821961" id="Fill-37" fill="#161F2A" mask="url(#mask-6)"></path>
                    <polygon id="Fill-38" fill="#161F2A" mask="url(#mask-6)" points="84.494058 20.8790219 85.1902811 20.8790219 84.574886 22.7545867 84.0409312 22.7545867"></polygon>
                    <path d="M88.9038999,24.5673264 L87.715973,21.8002102 C87.6822946,21.7285676 87.6584136,21.6618237 87.6253476,21.5803839 C87.5916693,21.6618237 87.5677883,21.7285676 87.5347223,21.8002102 L86.3559804,24.5673264 L88.9038999,24.5673264 Z M87.2481502,20.8798792 L88.0068314,20.8798792 L90.5020903,26.5855639 L89.7630038,26.5855639 L89.1714896,25.2016996 L86.0847166,25.2016996 L85.4925902,26.5855639 L84.7479927,26.5855639 L87.2481502,20.8798792 L87.2481502,20.8798792 Z" id="Fill-39" fill="#161F2A" mask="url(#mask-6)"></path>
                    <path d="M93.4605182,22.5916458 L93.4605182,23.2407149 C92.687141,23.1500902 92.0674595,23.5223864 91.8286495,24.1469624 L91.8286495,26.5846454 L91.1752897,26.5846454 L91.1752897,22.6730856 L91.7619051,22.6730856 L91.7619051,23.3650178 C92.0766445,22.8445379 92.77348,22.5346992 93.4605182,22.5916458" id="Fill-40" fill="#161F2A" mask="url(#mask-6)"></path>
                    <path d="M95.0831406,22.6735143 L96.65745,22.6735143 L96.65745,23.2748217 L95.0831406,23.2748217 L95.0831406,25.2930592 C95.0831406,25.8845693 95.3550167,26.0658188 95.9275485,26.0658188 C96.2373892,26.0658188 96.5337586,25.9898899 96.7958373,25.8845693 L96.7958373,26.4950616 C96.5000803,26.6003823 96.1136978,26.6665139 95.7413991,26.6665139 C94.9784316,26.6665139 94.4340671,26.2617642 94.4340671,25.4075647 L94.4340671,23.2748217 L93.6943683,23.2748217 L93.6943683,22.6735143 L94.4340671,22.6735143 L94.4340671,21.4574282 L95.0831406,21.2902623 L95.0831406,22.6735143" id="Fill-41" fill="#161F2A" mask="url(#mask-6)"></path>
                    <path d="M53.2185086,35.1152503 L53.9891179,35.1152503 L53.9891179,31.2024659 L53.2185086,31.2024659 L53.2185086,35.1152503 Z M53.6034548,30.3727596 C53.3353544,30.3727596 53.1009458,30.2343732 53.1009458,29.9527017 C53.1009458,29.6900124 53.3353544,29.542441 53.6034548,29.542441 C53.872272,29.542441 54.1009458,29.6900124 54.1009458,29.9527017 C54.1009458,30.2343732 53.872272,30.3727596 53.6034548,30.3727596 L53.6034548,30.3727596 Z" id="Fill-42" fill="#161F2A" mask="url(#mask-6)"></path>
                    <path d="M59.1605366,30.0591858 L57.9628123,30.0591858 L57.9628123,34.462446 L59.1605366,34.462446 C60.7109649,34.462446 61.4984258,33.6327398 61.4984258,32.2586727 C61.4984258,30.8882797 60.7109649,30.0591858 59.1605366,30.0591858 M62.1952613,32.2586727 C62.1952613,33.904614 61.188585,35.1164137 59.1605366,35.1164137 L57.2757742,35.1164137 L57.2757742,29.4095043 L59.1605366,29.4095043 C61.188585,29.4095043 62.1952613,30.6170178 62.1952613,32.2586727" id="Fill-43" fill="#161F2A" mask="url(#mask-6)"></path>
                    <path d="M63.165642,35.1152503 L63.9362513,35.1152503 L63.9362513,31.2024659 L63.165642,31.2024659 L63.165642,35.1152503 Z M63.551305,30.3727596 C63.2832047,30.3727596 63.053814,30.2343732 63.053814,29.9527017 C63.053814,29.6900124 63.2832047,29.542441 63.551305,29.542441 C63.8194054,29.542441 64.053814,29.6900124 64.053814,29.9527017 C64.053814,30.2343732 63.8194054,30.3727596 63.551305,30.3727596 L63.551305,30.3727596 Z" id="Fill-44" fill="#161F2A" mask="url(#mask-6)"></path>
                    <path d="M66.3079377,31.1044319 C66.8327075,31.1044319 67.3335963,31.2428184 67.7009964,31.4430501 L67.7009964,32.0590534 C67.371561,31.8441258 66.8229102,31.6910434 66.3508011,31.6910434 C65.9215553,31.6910434 65.4727149,31.8300422 65.4727149,32.2066247 C65.4727149,33.0559255 67.9728724,32.7026115 67.9728724,34.1103566 C67.9728724,34.9259793 67.2001076,35.2125494 66.3508011,35.2125494 C65.792353,35.2125494 65.1910415,35.0643657 64.8242538,34.8255573 L64.8242538,34.1911841 C65.2247198,34.4630583 65.8260313,34.6014448 66.3122241,34.6014448 C66.8755709,34.6014448 67.314614,34.51082 67.314614,34.1244402 C67.314614,33.3039189 64.8095578,33.6333521 64.8095578,32.2305056 C64.8095578,31.4234555 65.5731376,31.1044319 66.3079377,31.1044319" id="Fill-45" fill="#161F2A" mask="url(#mask-6)"></path>
                    <path d="M70.1269391,31.1044319 C70.6517089,31.1044319 71.147699,31.2428184 71.5199977,31.4430501 L71.5199977,32.0590534 C71.1911747,31.8441258 70.6419116,31.6910434 70.1649038,31.6910434 C69.7405567,31.6910434 69.2917163,31.8300422 69.2917163,32.2066247 C69.2917163,33.0559255 71.7918738,32.7026115 71.7918738,34.1103566 C71.7918738,34.9259793 71.019109,35.2125494 70.1649038,35.2125494 C69.607068,35.2125494 69.0106552,35.0643657 68.6432551,34.8255573 L68.6432551,34.1911841 C69.0437212,34.4630583 69.640134,34.6014448 70.1367364,34.6014448 C70.6945722,34.6014448 71.1336153,34.51082 71.1336153,34.1244402 C71.1336153,33.3039189 68.6242728,33.6333521 68.6242728,32.2305056 C68.6242728,31.4234555 69.3872403,31.1044319 70.1269391,31.1044319" id="Fill-46" fill="#161F2A" mask="url(#mask-6)"></path>
                    <path d="M74.4048844,31.7053719 C73.7319299,31.7053719 73.1067375,32.110734 73.0595878,32.8743086 L75.6117937,32.8743086 C75.6687407,32.4548631 75.406662,31.7053719 74.4048844,31.7053719 M74.3669197,31.1046769 C75.8793834,31.1046769 76.4372192,32.3305602 76.1892241,33.4425503 L73.0595878,33.4425503 C73.1404158,34.2679702 73.889912,34.6010774 74.6816591,34.6010774 C75.1684642,34.6010774 75.6405733,34.4731005 75.9791937,34.2918511 L75.9791937,34.9262242 C75.6166923,35.1111477 75.1017199,35.2127944 74.5861351,35.2127944 C73.4220892,35.2127944 72.4056156,34.553928 72.4056156,33.1559801 C72.4056156,31.7868118 73.4312742,31.1046769 74.3669197,31.1046769" id="Fill-47" fill="#161F2A" mask="url(#mask-6)"></path>
                    <path d="M79.1737987,31.1044319 C80.1180169,31.1044319 80.8148524,31.7486024 80.8148524,32.7026115 L80.8148524,35.1121274 L80.1565939,35.1121274 L80.1565939,32.783439 C80.1565939,32.0492561 79.7083658,31.705127 79.1021557,31.705127 C78.5198265,31.705127 78.0856821,32.0921192 77.822991,32.4882962 L77.822991,35.1121274 L77.1647326,35.1121274 L77.1647326,31.2042416 L77.756859,31.2042416 L77.756859,31.7773819 C78.0189378,31.4430501 78.5437075,31.1044319 79.1737987,31.1044319" id="Fill-48" fill="#161F2A" mask="url(#mask-6)"></path>
                    <path d="M85.5270645,31.2030782 L83.5896415,35.6975755 C83.1842767,36.6472983 82.6833879,37 82.1108561,37 C81.9675701,37 81.8291827,36.9810178 81.6816104,36.9430534 L81.6816104,36.3797104 C81.7961167,36.4133885 81.9106231,36.4323707 82.0251295,36.4323707 C82.4684589,36.4323707 82.788097,36.1078362 83.0409907,35.4777493 L83.1891754,35.1195366 L81.3233953,31.2030782 L82.0202308,31.2030782 L83.5039148,34.3712702 L84.8302291,31.2030782 L85.5270645,31.2030782" id="Fill-49" fill="#161F2A" mask="url(#mask-6)"></path>
                    <path d="M27.8187992,35.2538204 L27.8187992,28.2977592 C33.7351652,28.2977592 38.5444322,23.5117931 38.5444322,17.6340439 C38.5444322,11.7562946 33.7351652,6.97522714 27.8187992,6.97522714 L27.8187992,0.0142672735 C37.594703,0.0142672735 45.5434037,7.9200513 45.5434037,17.6340439 C45.5434037,27.3480364 37.594703,35.2538204 27.8187992,35.2538204" id="Fill-50" fill="#00A9A9" mask="url(#mask-6)"></path>
                    <path d="M28.1590729,21.0356558 C30.1436457,21.0356558 31.7516334,19.4374762 31.7516334,17.4614894 C31.7516334,15.4959123 30.1436457,13.8879355 28.1590729,13.8879355 L21.0878461,13.8879355 L21.0878461,21.1017873 L28.1590729,21.0356558" id="Fill-51" fill="#00A9A9" mask="url(#mask-6)"></path>
                    <polygon id="Fill-52" fill="#00A9A9" mask="url(#mask-6)" points="21.1555089 7.01429375 21.1555089 0.0104708316 0 0.0104708316 0 35.2647199 21.1555089 35.2647199 21.1555089 28.255386 7.0516322 28.255386 7.0516322 21.0513314 13.4070412 21.0513314 13.4070412 13.9562714 7.0516322 13.9562714 7.0516322 7.01429375"></polygon>
                </g>
            </g>
        </g>
    </g>
</svg>