<?xml version="1.0" encoding="UTF-8"?>
<svg width="182px" height="62px" viewBox="0 0 182 62" version="1.1" xmlns="http://www.w3.org/2000/svg" xmlns:xlink="http://www.w3.org/1999/xlink">
    <title>Logo-Elisava-UVic-UCC-vertical-negro</title>
    <g id="concept" stroke="none" stroke-width="1" fill="none" fill-rule="evenodd">
        <g id="00_home-d-docencia" transform="translate(-500.000000, -2040.000000)">
            <g id="Logo-Elisava-UVic-UCC-vertical-negro" transform="translate(500.000000, 2040.000000)">
                <text id="----" font-family="LucidaGrande, Lucida Grande" font-size="52.7199" font-weight="normal"></text>
                <text id="--" font-family="LucidaGrande, Lucida Grande" font-size="26.36" font-weight="normal"></text>
                <path d="M17,14.7439228 C17,20.1516051 13.7958503,23 8.95257503,23 C4.11411634,23 1,20.1204305 1,14.8574875 L1,7 L6.94701741,7 L6.94701741,14.7676749 C6.94701741,16.7168306 7.76435717,17.3095194 8.99962949,17.3095194 C10.2760282,17.3095194 11.0611338,16.7227686 11.0611338,14.8786417 L11.0611338,7 L17,7 L17,14.7439228" id="Fill-1" fill="#000000"></path>
                <path d="M26,22.7912234 L35.7665198,22.7912234 L35.7665198,21.1447176 L27.953304,21.1447176 L27.953304,15.1379923 L33.9253725,15.1379923 L33.9253725,13.4911042 L27.953304,13.4911042 L27.953304,7.85566477 L35.3623113,7.85566477 L35.3623113,6.20877663 L26,6.20877663 L26,22.7912234 Z M38.9317087,22.7912234 L48.226652,22.7912234 L48.226652,21.1447176 L40.8850127,21.1447176 L40.8850127,6.20877663 L38.9317087,6.20877663 L38.9317087,22.7912234 Z M51.2796842,22.7912234 L53.2329881,22.7912234 L53.2329881,6.20877663 L51.2796842,6.20877663 L51.2796842,22.7912234 Z M62.7970335,23 C65.9851721,23 68.3423143,20.8896736 68.3423143,18.1063677 C68.3423143,14.975483 66.4563784,13.8623901 62.886981,13.2823275 C59.608895,12.7722396 59.0251618,11.9375155 59.0251618,10.3139522 C59.0251618,8.75998111 60.1700489,7.62356328 62.3706158,7.62356328 C64.5930219,7.62356328 65.7604884,8.48161227 66.1421175,10.5689962 L67.8933172,10.5689962 C67.5790562,7.62356328 65.5809636,6 62.3706158,6 C59.3394227,6 57.206594,7.94819946 57.206594,10.4994039 C57.206594,13.4448368 59.2046866,14.5349873 62.5723499,15.0684001 C65.6257523,15.578488 66.4563784,16.3669448 66.4563784,18.2455521 C66.4563784,20.1241593 64.8624942,21.3764367 62.7970335,21.3764367 C59.5641064,21.3764367 58.8008483,19.7066061 58.5535853,17.7354641 L56.6680195,17.7354641 C56.9597011,20.5650375 58.5087966,23 62.7970335,23 Z M70.1386728,22.7912234 L71.9798201,22.7912234 L73.5289156,18.013833 L80.1517153,18.013833 L81.7233903,22.7912234 L83.6541148,22.7912234 L78.2209908,6.20877663 L75.6617443,6.20877663 L70.1386728,22.7912234 Z M76.8514201,7.87860726 L79.6353502,16.4135945 L74.06749,16.4135945 L76.8514201,7.87860726 Z M89.3570813,22.7912234 L91.6920142,22.7912234 L97.237295,6.20877663 L95.3965179,6.20877663 L90.6141251,20.8430239 L85.8321024,6.20877663 L83.9013778,6.20877663 L89.3570813,22.7912234 Z M97.484558,22.7912234 L99.3253351,22.7912234 L100.874431,18.013833 L107.497601,18.013833 L109.069275,22.7912234 L111,22.7912234 L105.566876,6.20877663 L103.007259,6.20877663 L97.484558,22.7912234 Z M104.197305,7.87860726 L106.981235,16.4135945 L101.413375,16.4135945 L104.197305,7.87860726 L104.197305,7.87860726 Z" id="Fill-2" fill="#000000"></path>
                <path d="M3.53059376,51 C5.34237492,51 6.1989755,49.9811681 6.1989755,48.3238056 L6.1989755,44.1047364 L5.34237492,44.1047364 L5.34237492,48.2096791 C5.34237492,49.8764317 4.67285233,50.3145186 3.55038445,50.3145186 C2.37825315,50.3145186 1.85660057,49.7619441 1.85660057,48.3335569 L1.85660057,44.1047364 L1,44.1047364 L1,48.4285419 C1,50.0859044 1.91559922,51 3.53059376,51 Z M8.01113007,50.9144051 L8.82814927,50.9144051 L8.82814927,45.0762563 L12.3833777,50.9144051 L13.3680576,50.9144051 L13.3680576,44.1047364 L12.550665,44.1047364 L12.550665,49.7334124 L9.12388931,44.1047364 L8.01113007,44.1047364 L8.01113007,50.9144051 Z M15.2881274,50.9144051 L16.144728,50.9144051 L16.144728,44.1047364 L15.2881274,44.1047364 L15.2881274,50.9144051 Z M19.8668704,50.9144051 L20.8911316,50.9144051 L23.3235188,44.1047364 L22.5158348,44.1047364 L20.4183957,50.1144361 L18.3209565,44.1047364 L17.4740646,44.1047364 L19.8668704,50.9144051 Z M24.6031919,50.9144051 L28.8869416,50.9144051 L28.8869416,50.2383139 L25.4601659,50.2383139 L25.4601659,47.7715922 L28.0792576,47.7715922 L28.0792576,47.0951398 L25.4601659,47.0951398 L25.4601659,44.7808276 L28.7095723,44.7808276 L28.7095723,44.1047364 L24.6031919,44.1047364 L24.6031919,50.9144051 Z M30.2752768,50.9144051 L31.1318774,50.9144051 L31.1318774,47.9525333 L32.2151373,47.9525333 L34.3125765,50.9144051 L35.267757,50.9144051 L33.1113192,47.89547 C34.0762085,47.7141678 34.8543931,47.1619544 34.8543931,46.038025 L34.8543931,46.0001032 C34.8543931,44.6381694 33.7416339,44.1047364 32.3925066,44.1047364 L30.2752768,44.1047364 L30.2752768,50.9144051 Z M31.1318774,47.2952224 L31.1318774,44.7714374 L32.4515053,44.7714374 C33.4066859,44.7714374 33.9974191,45.0762563 33.9974191,46.0001032 L33.9974191,46.038025 C33.9974191,46.876277 33.4559759,47.2952224 32.4515053,47.2952224 L31.1318774,47.2952224 Z M38.7341141,51 C40.132158,51 41.1661279,50.1335775 41.1661279,48.9905067 C41.1661279,47.7047776 40.3390266,47.2475493 38.7733221,47.0095449 C37.3356969,46.8000722 37.0795382,46.4569704 37.0795382,45.7906305 C37.0795382,45.152461 37.5817735,44.6854814 38.5470361,44.6854814 C39.521634,44.6854814 40.0339513,45.0379734 40.2012386,45.8953668 L40.9693413,45.8953668 C40.8315533,44.6854814 39.955162,44.0187803 38.5470361,44.0187803 C37.2176996,44.0187803 36.2819363,44.8191105 36.2819363,45.866474 C36.2819363,47.0763595 37.1583275,47.5238365 38.6355341,47.7430606 C39.9745793,47.9525333 40.3390266,48.2761325 40.3390266,49.0475699 C40.3390266,49.8190073 39.6400047,50.3336601 38.7341141,50.3336601 C37.3159062,50.3336601 36.9813316,49.6478176 36.873043,48.8380972 L36.0455683,48.8380972 C36.1736476,50.0003096 36.8532523,51 38.7341141,51 Z M42.7811224,50.9144051 L43.6380964,50.9144051 L43.6380964,44.1047364 L42.7811224,44.1047364 L42.7811224,50.9144051 Z M47.0055,50.9144051 L47.862474,50.9144051 L47.862474,44.7808276 L49.9106232,44.7808276 L49.9106232,44.1047364 L44.9573509,44.1047364 L44.9573509,44.7808276 L47.0055,44.7808276 L47.0055,50.9144051 Z M49.9595398,50.9144051 L50.7672238,50.9144051 L51.4468284,48.9525849 L54.3515781,48.9525849 L55.0408914,50.9144051 L55.8877833,50.9144051 L53.5046862,44.1047364 L52.3822183,44.1047364 L49.9595398,50.9144051 Z M52.9038709,44.7905789 L54.1249188,48.295274 L51.682823,48.295274 L52.9038709,44.7905789 Z M57.9852225,50.9144051 L58.8418231,50.9144051 L58.8418231,44.7808276 L60.8899722,44.7808276 L60.8899722,44.1047364 L55.9370733,44.1047364 L55.9370733,44.7808276 L57.9852225,44.7808276 L57.9852225,50.9144051 Z M67.8126043,51 C69.3880175,51 70.5108588,50.2285626 70.7569354,48.6571561 L69.9593335,48.6571561 C69.7819641,49.7619441 68.9843622,50.3239088 67.832395,50.3239088 C66.3159805,50.3239088 65.4097165,49.2761841 65.4097165,47.542978 L65.4097165,47.4667733 C65.4097165,45.7523475 66.3846877,44.6569497 67.8421036,44.6569497 C69.0433608,44.6569497 69.6639668,45.1903828 69.8409628,46.2287174 L70.6878547,46.2287174 C70.5403581,44.7522959 69.2995195,44 67.832395,44 C65.9220338,44 64.5236166,45.45728 64.5236166,47.4761635 L64.5236166,47.5523682 C64.5236166,49.6478176 65.7741638,51 67.8126043,51 Z M72.1553526,50.9144051 L76.4387289,50.9144051 L76.4387289,50.2383139 L73.0119532,50.2383139 L73.0119532,47.7715922 L75.6314184,47.7715922 L75.6314184,47.0951398 L73.0119532,47.0951398 L73.0119532,44.7808276 L76.2613596,44.7808276 L76.2613596,44.1047364 L72.1553526,44.1047364 L72.1553526,50.9144051 Z M77.8270641,50.9144051 L78.6444567,50.9144051 L78.6444567,45.0762563 L82.1993118,50.9144051 L83.1839917,50.9144051 L83.1839917,44.1047364 L82.3665991,44.1047364 L82.3665991,49.7334124 L78.9398234,44.1047364 L77.8270641,44.1047364 L77.8270641,50.9144051 Z M86.5024787,50.9144051 L87.3590793,50.9144051 L87.3590793,44.7808276 L89.4072285,44.7808276 L89.4072285,44.1047364 L84.4543296,44.1047364 L84.4543296,44.7808276 L86.5024787,44.7808276 L86.5024787,50.9144051 Z M90.6775664,50.9144051 L91.5341669,50.9144051 L91.5341669,47.9525333 L92.6174269,47.9525333 L94.714866,50.9144051 L95.6700466,50.9144051 L93.5136088,47.89547 C94.478498,47.7141678 95.2566827,47.1619544 95.2566827,46.038025 L95.2566827,46.0001032 C95.2566827,44.6381694 94.1439234,44.1047364 92.7947962,44.1047364 L90.6775664,44.1047364 L90.6775664,50.9144051 Z M91.5341669,47.2952224 L91.5341669,44.7714374 L92.8537948,44.7714374 C93.8089754,44.7714374 94.3997087,45.0762563 94.3997087,46.0001032 L94.3997087,46.038025 C94.3997087,46.876277 93.8582654,47.2952224 92.8537948,47.2952224 L91.5341669,47.2952224 Z M96.4280672,50.9144051 L97.2357511,50.9144051 L97.9153558,48.9525849 L100.820106,48.9525849 L101.509419,50.9144051 L102.356311,50.9144051 L99.9732136,44.1047364 L98.8507457,44.1047364 L96.4280672,50.9144051 Z M99.3723983,44.7905789 L100.593446,48.295274 L98.1513504,48.295274 L99.3723983,44.7905789 Z M103.695356,50.9144051 L107.772237,50.9144051 L107.772237,50.2383139 L104.55233,50.2383139 L104.55233,44.1047364 L103.695356,44.1047364 L103.695356,50.9144051 Z M112.626929,50.2383139 L112.626929,44.7714374 L113.581736,44.7714374 C115.52197,44.7714374 116.30949,45.8762254 116.30949,47.4476318 L116.30949,47.5238365 C116.30949,49.1905892 115.4036,50.2383139 113.591818,50.2383139 L112.626929,50.2383139 Z M111.769955,50.9144051 L113.611609,50.9144051 C116.073122,50.9144051 117.195963,49.4192034 117.195963,47.5332267 L117.195963,47.4476318 C117.195963,45.552265 116.053705,44.1047364 113.631026,44.1047364 L111.769955,44.1047364 L111.769955,50.9144051 Z M118.722087,50.9144051 L123.005836,50.9144051 L123.005836,50.2383139 L119.578687,50.2383139 L119.578687,47.7715922 L122.198152,47.7715922 L122.198152,47.0951398 L119.578687,47.0951398 L119.578687,44.7808276 L122.828467,44.7808276 L122.828467,44.1047364 L118.722087,44.1047364 L118.722087,50.9144051 Z M130.046466,51 C131.621879,51 132.744347,50.2285626 132.990797,48.6571561 L132.193195,48.6571561 C132.015826,49.7619441 131.218224,50.3239088 130.065883,50.3239088 C128.549468,50.3239088 127.643578,49.2761841 127.643578,47.542978 L127.643578,47.4667733 C127.643578,45.7523475 128.618549,44.6569497 130.075965,44.6569497 C131.277222,44.6569497 131.897455,45.1903828 132.074824,46.2287174 L132.921716,46.2287174 C132.773846,44.7522959 131.533381,44 130.065883,44 C128.155522,44 126.757478,45.45728 126.757478,47.4761635 L126.757478,47.5523682 C126.757478,49.6478176 128.008025,51 130.046466,51 Z M133.709609,50.9144051 L134.51692,50.9144051 L135.196525,48.9525849 L138.101274,48.9525849 L138.790588,50.9144051 L139.63748,50.9144051 L137.254382,44.1047364 L136.131915,44.1047364 L133.709609,50.9144051 Z M136.65394,44.7905789 L137.874988,48.295274 L135.432893,48.295274 L136.65394,44.7905789 Z M141.734919,50.9144051 L142.591519,50.9144051 L142.591519,44.7808276 L144.640042,44.7808276 L144.640042,44.1047364 L139.68677,44.1047364 L139.68677,44.7808276 L141.734919,44.7808276 L141.734919,50.9144051 Z M144.688958,50.9144051 L145.496642,50.9144051 L146.175874,48.9525849 L149.080997,48.9525849 L149.77031,50.9144051 L150.617202,50.9144051 L148.234105,44.1047364 L147.111637,44.1047364 L144.688958,50.9144051 Z M147.63329,44.7905789 L148.854337,48.295274 L146.412242,48.295274 L147.63329,44.7905789 Z M151.956247,50.9144051 L156.033128,50.9144051 L156.033128,50.2383139 L152.812848,50.2383139 L152.812848,44.1047364 L151.956247,44.1047364 L151.956247,50.9144051 Z M159.597692,51 C161.409473,51 162.266447,49.9811681 162.266447,48.3238056 L162.266447,44.1047364 L161.409473,44.1047364 L161.409473,48.2096791 C161.409473,49.8764317 160.73995,50.3145186 159.617483,50.3145186 C158.445725,50.3145186 157.923699,49.7619441 157.923699,48.3335569 L157.923699,44.1047364 L157.067098,44.1047364 L157.067098,48.4285419 C157.067098,50.0859044 157.982697,51 159.597692,51 Z M164.078228,50.9144051 L164.895621,50.9144051 L164.895621,45.0762563 L168.450476,50.9144051 L169.435156,50.9144051 L169.435156,44.1047364 L168.617763,44.1047364 L168.617763,49.7334124 L165.190987,44.1047364 L164.078228,44.1047364 L164.078228,50.9144051 Z M172.999719,50.9144051 L173.85632,50.9144051 L173.85632,47.9525333 L176.081838,44.1047364 L175.225238,44.1047364 L173.452665,47.2666907 L171.611384,44.1047364 L170.646122,44.1047364 L172.999719,47.942782 L172.999719,50.9144051 Z M176.07213,50.9144051 L176.87944,50.9144051 L177.559045,48.9525849 L180.463795,48.9525849 L181.153108,50.9144051 L182,50.9144051 L179.616903,44.1047364 L178.494435,44.1047364 L176.07213,50.9144051 Z M179.016461,44.7905789 L180.237509,48.295274 L177.795413,48.295274 L179.016461,44.7905789 L179.016461,44.7905789 Z" id="Fill-3" fill="#000000"></path>
                <path d="M3.51844443,40 C5.32152726,40 6.17401532,38.9808595 6.17401532,37.3239437 L6.17401532,33.1047309 L5.32152726,33.1047309 L5.32152726,37.2094619 C5.32152726,38.8761286 4.65521904,39.3141928 3.5381401,39.3141928 C2.37163618,39.3141928 1.85248805,38.7620079 1.85248805,37.3333333 L1.85248805,33.1047309 L1,33.1047309 L1,37.4286746 C1,39.0859516 1.91120344,40 3.51844443,40 Z M7.97746977,39.9144095 L8.79056648,39.9144095 L8.79056648,34.0762008 L12.3287263,39.9144095 L13.3086788,39.9144095 L13.3086788,33.1047309 L12.4952105,33.1047309 L12.4952105,38.7334778 L9.08488668,33.1047309 L7.97746977,33.1047309 L7.97746977,39.9144095 Z M15.2195304,39.9144095 L16.0720185,39.9144095 L16.0720185,33.1050921 L15.2195304,33.1050921 L15.2195304,39.9144095 Z M19.7762909,39.9144095 L20.7956347,39.9144095 L23.216344,33.1047309 L22.4125377,33.1047309 L20.3251683,39.1144818 L18.2377989,33.1047309 L17.3949729,33.1047309 L19.7762909,39.9144095 Z M24.4898735,39.9144095 L28.7530569,39.9144095 L28.7530569,39.2379921 L25.3427331,39.2379921 L25.3427331,36.7713976 L27.9492506,36.7713976 L27.9492506,36.0953413 L25.3427331,36.0953413 L25.3427331,33.7811484 L28.5765391,33.7811484 L28.5765391,33.1047309 L24.4898735,33.1047309 L24.4898735,39.9144095 Z M30.1347268,39.9144095 L30.9872148,39.9144095 L30.9872148,36.9523294 L32.065274,36.9523294 L34.1526434,39.9144095 L35.1032382,39.9144095 L32.9571534,36.8952691 C33.9174102,36.7143373 34.6918588,36.1621524 34.6918588,35.038281 L34.6918588,35 C34.6918588,33.6381365 33.5844419,33.1047309 32.2417918,33.1047309 L30.1347268,33.1047309 L30.1347268,39.9144095 Z M30.9872148,36.2954135 L30.9872148,33.7713976 L32.3005072,33.7713976 C33.251102,33.7713976 33.8389992,34.0762008 33.8389992,35 L33.8389992,35.038281 C33.8389992,35.8761286 33.3001554,36.2954135 32.3005072,36.2954135 L30.9872148,36.2954135 Z M38.5529534,40 C39.9442852,40 40.9732911,39.1332611 40.9732911,37.9906103 C40.9732911,36.7049476 40.1501607,36.2477429 38.5919731,36.0097508 C37.1612499,35.7999278 36.906321,35.4572048 36.906321,34.7905381 C36.906321,34.1524016 37.4061451,33.6858072 38.3667735,33.6858072 C39.3366924,33.6858072 39.8465501,34.038281 40.0130342,34.8952691 L40.7774492,34.8952691 C40.6403228,33.6858072 39.768139,33.0191405 38.3667735,33.0191405 C37.0438191,33.0191405 36.1125484,33.8190683 36.1125484,34.8667389 C36.1125484,36.0762008 36.9847321,36.5240159 38.4548466,36.7428675 C39.7874631,36.9523294 40.1501607,37.276273 40.1501607,38.0476706 C40.1501607,38.8190683 39.4544948,39.3333333 38.5529534,39.3333333 C37.1415542,39.3333333 36.8085859,38.6475262 36.7008172,37.8382087 L35.8773152,37.8382087 C36.0047796,39 36.6811215,40 38.5529534,40 Z M42.580532,39.9144095 L43.4333917,39.9144095 L43.4333917,33.1050921 L42.580532,33.1050921 L42.580532,39.9144095 Z M46.7846285,39.9144095 L47.6374882,39.9144095 L47.6374882,33.7811484 L49.6758042,33.7811484 L49.6758042,33.1047309 L44.7463125,33.1047309 L44.7463125,33.7811484 L46.7846285,33.7811484 L46.7846285,39.9144095 Z M49.724486,39.9144095 L50.5282923,39.9144095 L51.2046341,37.9523294 L54.0954382,37.9523294 L54.7814421,39.9144095 L55.6242681,39.9144095 L53.2526122,33.1047309 L52.1355332,33.1047309 L49.724486,39.9144095 Z M52.6546814,33.7905381 L53.869867,37.2954135 L51.4394957,37.2954135 L52.6546814,33.7905381 Z M57.7116375,39.9144095 L58.5641256,39.9144095 L58.5641256,33.7811484 L60.6024416,33.7811484 L60.6024416,33.1047309 L55.6733215,33.1047309 L55.6733215,33.7811484 L57.7116375,33.7811484 L57.7116375,39.9144095 Z M65.4141309,39.2379921 L65.4141309,33.7713976 L66.3647257,33.7713976 C68.295273,33.7713976 69.0793836,34.8761286 69.0793836,36.4478151 L69.0793836,36.5240159 C69.0793836,38.1906826 68.1778422,39.2379921 66.3747593,39.2379921 L65.4141309,39.2379921 Z M64.5616429,39.9144095 L66.3940834,39.9144095 C68.8441504,39.9144095 69.961601,38.4192849 69.961601,36.5334056 L69.961601,36.4478151 C69.961601,34.552546 68.8244547,33.1047309 66.4137791,33.1047309 L64.5616429,33.1047309 L64.5616429,39.9144095 Z M71.4803972,39.9144095 L75.7432091,39.9144095 L75.7432091,39.2379921 L72.3328853,39.2379921 L72.3328853,36.7713976 L74.9397744,36.7713976 L74.9397744,36.0953413 L72.3328853,36.0953413 L72.3328853,33.7811484 L75.5670629,33.7811484 L75.5670629,33.1047309 L71.4803972,33.1047309 L71.4803972,39.9144095 Z M81.6136336,39.9144095 L82.6326058,39.9144095 L85.0533151,33.1047309 L84.2495088,33.1047309 L82.1621394,39.1144818 L80.07477,33.1047309 L79.231944,33.1047309 L81.6136336,39.9144095 Z M86.3762695,39.9144095 L87.2287576,39.9144095 L87.2287576,33.1050921 L86.3762695,33.1050921 L86.3762695,39.9144095 Z M92.0698046,40 C93.6376542,40 94.7551048,39.2286024 95,37.657277 L94.2062273,37.657277 C94.0297095,38.7620079 93.2359369,39.3239437 92.0895003,39.3239437 C90.580366,39.3239437 89.6788246,38.276273 89.6788246,36.5427952 L89.6788246,36.4665944 C89.6788246,34.7526183 90.6487434,33.657277 92.0991623,33.657277 C93.2946523,33.657277 93.9122788,34.1906826 94.0884249,35.2286024 L94.931251,35.2286024 C94.7844625,33.7526183 93.5495811,33 92.0895003,33 C90.1883107,33 88.7966072,34.4572048 88.7966072,36.4763453 L88.7966072,36.552546 C88.7966072,38.6475262 90.0411506,40 92.0698046,40 L92.0698046,40 Z" id="Fill-4" fill="#000000"></path>
            </g>
        </g>
    </g>
</svg>