<?xml version="1.0" encoding="UTF-8"?>
<svg width="130px" height="31px" viewBox="0 0 130 31" version="1.1" xmlns="http://www.w3.org/2000/svg" xmlns:xlink="http://www.w3.org/1999/xlink">
    <title>esart</title>
    <g id="concept" stroke="none" stroke-width="1" fill="none" fill-rule="evenodd">
        <g id="00_home-d-docencia" transform="translate(-739.000000, -2158.000000)">
            <g id="esart" transform="translate(739.000000, 2158.000000)">
                <path d="M48,27.5192712 L48,27.4996496 C48,25.6825508 49.3046218,24 51.342437,24 C52.4054622,24 53.0623249,24.3188507 53.7387955,24.8801682 L53.5266106,25.1310441 C52.9369748,24.6384022 52.3186275,24.2999299 51.3235294,24.2999299 C49.5266106,24.2999299 48.3382353,25.8276104 48.3382353,27.4905396 L48.3382353,27.5094604 C48.3382353,29.2592852 49.4684874,30.7098809 51.3718487,30.7098809 C52.3186275,30.7098809 53.140056,30.2943238 53.6806723,29.8395235 L53.6806723,27.7610371 L51.2752101,27.7610371 L51.2752101,27.4421864 L54,27.4421864 L54,29.9656622 C53.3718487,30.5360897 52.4537815,31 51.3620448,31 C49.2366947,31 48,29.4141556 48,27.5192712" id="Fill-1" fill="#000000"></path>
                <path d="M56,24 L59.1356665,24 C60.101455,24 60.8391663,24.2500518 61.3055446,24.6704287 C61.6531656,25.0002071 61.8592214,25.4503003 61.8592214,25.9699731 L61.8592214,25.9902671 C61.8592214,27.1702216 60.8714117,27.8602195 59.4722768,27.9696625 L62,31 L61.5336217,31 L59.0593787,28.0095258 L59.0271333,28.0095258 L56.3688557,28.0095258 L56.3688557,31 L56,31 L56,24 Z M59.0381439,27.7000414 C60.6008651,27.7000414 61.4903657,26.9998965 61.4903657,26.0098364 L61.4903657,25.9902671 C61.4903657,24.9400497 60.6110893,24.3102092 59.1144318,24.3102092 L56.3688557,24.3102092 L56.3688557,27.7000414 L59.0381439,27.7000414 Z" id="Fill-3" fill="#000000"></path>
                <path d="M64,27.9185442 L64,24 L64.3584713,24 L64.3584713,27.8985625 C64.3584713,29.729738 65.4124841,30.6945662 67.016051,30.6945662 C68.6081529,30.6945662 69.6415287,29.7697013 69.6415287,27.9185442 L69.6415287,24 L70,24 L70,27.8885717 C70,29.9466816 68.7870064,31 67.0053503,31 C65.2336306,31 64,29.9566724 64,27.9185442" id="Fill-5" fill="#000000"></path>
                <path d="M72,24 L74.427164,24 C76.0197044,24 77,24.7900186 77,26.1200041 L77,26.1395734 C77,27.5398633 75.9028853,28.3095879 74.3497537,28.3095879 L72.3300493,28.3095879 L72.3300493,31 L72,31 L72,24 Z M74.3596059,27.9899565 C75.7677692,27.9899565 76.6699507,27.3101056 76.6699507,26.1497204 L76.6699507,26.1301512 C76.6699507,24.979913 75.7966221,24.3102092 74.398311,24.3102092 L72.3300493,24.3102092 L72.3300493,27.9899565 L74.3596059,27.9899565 Z" id="Fill-7" fill="#000000"></path>
                <path d="M82,29.9112051 L82.2237861,29.6680761 C82.9415904,30.3488372 83.7382125,30.6990839 84.7283603,30.6990839 C85.9028853,30.6990839 86.6699507,30.0570825 86.6699507,29.2015504 L86.6699507,29.1818182 C86.6699507,28.384778 86.2139338,27.957012 84.572836,27.6166314 C82.9127375,27.286117 82.2624912,26.7610994 82.2624912,25.7794221 L82.2624912,25.7596899 C82.2624912,24.7871741 83.1843772,24 84.4658691,24 C85.398311,24 86.1358198,24.2917548 86.7769177,24.7970402 L86.572836,25.0599013 C85.9514426,24.5637773 85.2427868,24.3016209 84.4468684,24.3016209 C83.3300493,24.3016209 82.5925405,24.9725159 82.5925405,25.7307963 L82.5925405,25.7498238 C82.5925405,26.5377026 83.0485574,26.9753347 84.6988037,27.3150106 C86.3884588,27.6553911 87,28.2001409 87,29.1529246 L87,29.1726568 C87,30.2219873 86.0971147,31 84.7093596,31 C83.6502463,31 82.7670654,30.6208598 82,29.9112051" id="Fill-9" fill="#000000"></path>
                <polygon id="Fill-11" fill="#000000" points="91.3357813 24.3102092 89 24.3102092 89 24 94 24 94 24.3102092 91.6546988 24.3102092 91.6546988 31 91.3357813 31"></polygon>
                <path d="M96,27.9185442 L96,24 L96.3584713,24 L96.3584713,27.8985625 C96.3584713,29.729738 97.4132484,30.6945662 99.016051,30.6945662 C100.608153,30.6945662 101.641529,29.7697013 101.641529,27.9185442 L101.641529,24 L102,24 L102,27.8885717 C102,29.9466816 100.787006,31 99.0053503,31 C97.2336306,31 96,29.9566724 96,27.9185442" id="Fill-13" fill="#000000"></path>
                <path d="M104,27.5192712 L104,27.4996496 C104,25.5956552 105.414988,24 107.353396,24 C108.613817,24 109.302342,24.4646111 109.961358,25.0735809 L109.728806,25.3153469 C109.166042,24.773651 108.47822,24.2999299 107.344262,24.2999299 C105.618735,24.2999299 104.339344,25.7407148 104.339344,27.4905396 L104.339344,27.5094604 C104.339344,29.2592852 105.637705,30.7000701 107.353396,30.7000701 C108.410773,30.7000701 109.166042,30.2361598 109.767447,29.6173791 L110,29.8395235 C109.359953,30.4877365 108.536534,31 107.334426,31 C105.414988,31 104,29.4435879 104,27.5192712" id="Fill-15" fill="#000000"></path>
                <path d="M111,27.5098118 L111,27.4901882 C111,25.6434722 112.380603,24 114.501541,24 C116.621753,24 117.99293,25.6434722 117.99293,27.4901882 C118.002357,27.4901882 118.002357,27.5 117.99293,27.5098118 C117.99293,29.3565278 116.612327,31 114.491389,31 C112.370452,31 111,29.3565278 111,27.5098118 M117.642704,27.5196235 L117.642704,27.5 C117.642704,25.7885463 116.352013,24.29996 114.491389,24.29996 C112.620614,24.29996 111.350227,25.7696235 111.350227,27.4810773 L111.350227,27.5 C111.350227,29.2114537 112.640917,30.7007409 114.511692,30.7007409 C116.372316,30.7007409 117.642704,29.2310773 117.642704,27.5196235" id="Fill-17" fill="#000000"></path>
                <polygon id="Fill-19" fill="#000000" points="120 24 120.341596 24 123.505035 28.2595776 126.65763 24 127 24 127 31 126.635941 31 126.635941 24.5899772 123.505035 28.7893974 123.484121 28.7893974 120.35244 24.5899772 120.35244 31 120 31"></polygon>
                <path d="M44,9.56803619 L44,9.5 C44,4.29057671 47.7305662,0 53.0683781,0 C59.193618,0 62,4.73317 62,9.90893328 C62,10.3178666 61.9654511,10.7941199 61.9316219,11.2710893 L49.1672265,11.2710893 C49.681142,13.6201282 51.3229367,14.8462118 53.649952,14.8462118 C55.3953935,14.8462118 56.6614683,14.3012062 58.0988484,12.9727101 L61.0758157,15.595326 C59.3649232,17.7058801 56.9011516,19 53.5815739,19 C48.0724568,19 44,15.1527328 44,9.56803619 L44,9.56803619 Z M56.9357006,8.03614776 C56.6269194,5.72076894 55.2586372,4.15450433 53.0683781,4.15450433 C50.9126679,4.15450433 49.5091171,5.68639276 49.0988484,8.03614776 L56.9357006,8.03614776 Z" id="Fill-21" fill="#000000"></path>
                <path d="M64,16.2220282 L66.2411876,12.7926649 C68.2415744,14.2332283 70.3449543,14.9877748 72.0690005,14.9877748 C73.5863353,14.9877748 74.2760988,14.438817 74.2760988,13.6157409 L74.2760988,13.5472114 C74.2760988,12.4153916 72.4831488,12.0381184 70.4479474,11.420631 C67.8622407,10.6660845 64.9305643,9.46573522 64.9305643,5.89859144 L64.9305643,5.83006189 C64.9305643,2.0919549 67.9652338,0 71.6903921,0 C74.0345728,0 76.5861902,0.788450587 78.5873024,2.12585899 L76.5861902,5.72762823 C74.7584256,4.66361669 72.930661,4.01222522 71.5859485,4.01222522 C70.3101397,4.01222522 69.6551908,4.56118304 69.6551908,5.28110407 L69.6551908,5.34963362 C69.6551908,6.3790197 71.4140515,6.8587266 73.4144384,7.54474354 C76.0001451,8.40244504 79,9.63669843 79,12.9982535 L79,13.0667831 C79,17.1482592 75.9312412,19 71.9304676,19 C69.3454862,19 66.4486243,18.1430199 64,16.2220282" id="Fill-23" fill="#000000"></path>
                <path d="M90.4073119,1 L86.5926881,1 L79,19 L83.38934,19 L84.965788,15.0981806 L91.9355013,15.0981806 L93.5119492,19 L98,19 L90.468732,1.14677922 L90.4073119,1 Z M90.3853762,11.2369284 L86.5166442,11.2369284 L88.4506446,6.47434847 L90.3853762,11.2369284 Z" id="Fill-25" fill="#C12726"></path>
                <path d="M113.296699,7.07253972 L113.296699,7.02277698 C113.296699,5.32044564 112.78118,3.87658345 111.807108,2.84716319 C110.662838,1.63874562 108.936234,1 106.811562,1 L99,1 L99,19 L103.108683,19 L103.108683,13.3953786 L105.622281,13.3953786 L109.17606,19 L114,19 L109.864591,12.6162575 C112.080692,11.6380854 113.296699,9.68025583 113.296699,7.07253972 M109.139488,7.22257066 L109.139488,7.2723334 C109.139488,8.67163194 108.180889,9.50720033 106.57455,9.50720033 L103.108683,9.50720033 L103.108683,4.96319373 L106.502813,4.96319373 C108.79698,4.96319373 109.139488,6.37883227 109.139488,7.22257066" id="Fill-27" fill="#C12726"></path>
                <polygon id="Fill-29" fill="#C12726" points="115 1 115 5.03878528 120.330081 5.03878528 120.330081 19 124.669919 19 124.669919 5.03878528 130 5.03878528 130 1"></polygon>
                <path d="M25.815101,12.6789043 C26.7041701,14.8626627 24.1994579,17.9126284 22.2974802,18.6672518 C19.0819423,19.9418857 17.9731115,17.2924783 16.5636293,15.1523522 C14.6473348,12.2390054 13.0860952,9.46299292 11.0924904,6.5596601 C10.1361327,5.16628924 8.97576168,3.38595039 7.83543403,2.78368229 C4.93701178,1.25297713 0.318434256,4.72925146 2.36286349,8.38220064 C4.33499322,7.40369379 6.13245884,8.66831375 6.01076662,10.5952856 C5.89909612,12.349159 3.76447148,12.8798988 2.75299441,12.6789043 C0.677784212,12.2647556 -0.133974453,10.0209135 0.0177828984,7.86075949 C0.310560054,3.67850105 5.22764142,0.446138148 8.48612947,0.0498714856 C12.3308877,-0.417208172 13.5714324,2.49327748 15.0002422,4.73711957 C16.6867532,7.3822353 18.1542181,9.80990507 19.9523996,12.6789043 C20.7920759,14.0193443 21.9094967,15.95633 23.0784578,15.933441 C25.0419975,15.8933852 24.6368341,13.7260783 25.815101,12.6789043" id="Fill-31" fill="#000000"></path>
                <path d="M35,16.5 C35,17.8809082 33.8809082,19 32.5,19 C31.1190918,19 30,17.8809082 30,16.5 C30,15.1190918 31.1190918,14 32.5,14 C33.8809082,14 35,15.1190918 35,16.5" id="Fill-33" fill="#000000"></path>
                <path d="M43,16.5 C43,17.8809082 41.8809082,19 40.5,19 C39.1190918,19 38,17.8809082 38,16.5 C38,15.1190918 39.1190918,14 40.5,14 C41.8809082,14 43,15.1190918 43,16.5" id="Fill-35" fill="#C12726"></path>
            </g>
        </g>
    </g>
</svg>