<?xml version="1.0" encoding="UTF-8"?>
<svg width="106px" height="50px" viewBox="0 0 106 50" version="1.1" xmlns="http://www.w3.org/2000/svg" xmlns:xlink="http://www.w3.org/1999/xlink">
    <title>Group 3</title>
    <defs>
        <polygon id="path-1" points="0 0 106 0 106 50 0 50"></polygon>
    </defs>
    <g id="concept" stroke="none" stroke-width="1" fill="none" fill-rule="evenodd">
        <g id="00_home-d-docencia" transform="translate(-943.000000, -2047.000000)">
            <g id="Group-3" transform="translate(943.000000, 2047.000000)">
                <mask id="mask-2" fill="white">
                    <use xlink:href="#path-1"></use>
                </mask>
                <g id="Clip-2"></g>
                <path d="M104.321321,33.360501 L104.321321,37.794269 L103.523949,37.794269 L103.523949,33.360501 L102.219547,33.360501 L102.219547,32.6475635 L105.619728,32.6475635 L105.619728,33.360501 L104.321321,33.360501 Z M23.6154132,10.1269732 C18.6110662,9.79924502 14.2533532,11.0398078 9.91705181,12.4991421 C6.3173136,13.8280714 3.05673702,16.1642073 0,18.762011 C2.75183414,12.8551819 8.88671989,10.7910089 14.5359878,9.87817433 C17.6149931,9.43891558 20.5132833,9.39172958 23.5597427,10.0677763 L23.6154132,10.1269732 Z M30.2718884,9.67656143 C28.9023949,12.0367193 26.4914353,13.6616335 24.238066,14.716884 C19.8683624,16.709849 15.2494263,17.0890528 10.3024628,17.3618737 C7.93603956,17.4330817 5.63813387,17.3979067 3.37363046,16.8762869 C11.0724282,17.1019218 18.4757442,15.8201784 25.2461297,12.9263898 C27.0233024,12.0959163 28.7439482,11.1470487 30.2718884,9.67656143 L30.2718884,9.67656143 Z M30.2718884,14.657687 C28.2454833,17.3266987 25.2238615,18.4171242 22.3367053,19.3900137 C17.5250638,20.861359 11.9888497,20.5996911 6.98535923,19.7228895 C11.0604376,20.1020933 15.4763905,19.8764585 19.3698975,18.9275909 C23.2197246,18.0387783 26.9102485,16.781057 30.2718884,14.657687 L30.2718884,14.657687 Z M30.2718884,18.5363761 C28.6985553,20.4461222 26.5590963,21.3949897 24.4307715,22.1422443 C21.577874,22.983871 18.1708413,22.842313 15.1141043,22.4862732 C18.2607705,22.4150652 21.6463915,22.2134523 24.5892182,21.1221688 C26.5813645,20.5173301 28.4493229,19.5684626 30.2718884,18.5363761 L30.2718884,18.5363761 Z M10.3812579,25.7729925 L10.3812579,40.5739533 C10.4043825,42.5068634 10.9251155,44.6774194 12.6911541,45.6614619 C14.2079603,46.6111874 16.4270709,46.7055594 17.9884134,45.8047358 C19.891487,44.7254633 20.2246534,42.4184969 20.2760415,40.2539465 L20.2760415,25.7807138 L23.5588863,25.7850034 L23.5597427,41.4284489 C23.5597427,44.4526424 22.0189554,47.6664379 19.1891826,48.8881263 C16.5401248,50.1810226 12.8264762,49.9914207 10.4377848,48.1769046 C8.04909344,46.4567605 7.11040367,43.7525738 7.11040367,40.8227522 L7.11040367,25.7755662 L10.3812579,25.7729925 Z M24.7879189,34.009094 C24.7879189,33.6161633 25.0928218,33.2970144 25.4679551,33.2970144 C25.842232,33.2970144 26.1462784,33.6161633 26.1462784,34.009094 C26.1462784,34.4020247 25.842232,34.7203157 25.4679551,34.7203157 C25.0928218,34.7203157 24.7879189,34.4020247 24.7879189,34.009094 L24.7879189,34.009094 Z M4.4938916,33.9902196 C4.4938916,33.5972889 4.79793801,33.27814 5.17307133,33.27814 C5.54734818,33.27814 5.85225106,33.5972889 5.85225106,33.9902196 C5.85225106,34.3831503 5.54734818,34.7014413 5.17307133,34.7014413 C4.79793801,34.7014413 4.4938916,34.3831503 4.4938916,33.9902196 L4.4938916,33.9902196 Z M13.4559807,25.7738504 C14.3792541,25.7721345 15.1320901,25.7575498 15.9808507,25.7815717 C16.4793155,25.8527797 16.9435215,26.1959506 17.2372903,26.5991764 C17.6672376,27.1920041 17.781148,28.0825326 17.5653179,28.8177763 C17.384603,29.410604 16.8981287,30.0154427 16.3097347,30.2170556 C15.7538864,30.3114276 15.2648428,30.3706246 14.6653146,30.3826356 L14.6584629,33.4282773 C14.6584629,33.4462938 13.4559807,33.4282773 13.4559807,33.4282773 L13.4559807,25.7738504 Z M14.6490417,29.245024 C15.2382922,29.2201441 15.9011991,29.3505491 16.3097347,28.8769732 C16.5692447,28.5097804 16.6369057,27.9040837 16.4450567,27.4776939 C16.0827704,26.7064173 15.272551,27.0144132 14.6490417,26.9440631 L14.6490417,29.245024 Z M14.5479784,37.4519561 L17.0248861,37.4519561 L17.0248861,38.596431 L14.5514043,38.5904255 L14.5514043,42.1268016 L13.4302867,42.1250858 L13.4302867,34.6053535 L17.0360202,34.6053535 L17.0300249,35.7249485 L14.5522608,35.7206589 L14.5479784,37.4519561 Z M34.0206522,25.8150309 L37.4054168,25.8150309 L37.4054168,10.3251544 L34.0206522,10.3251544 L34.0206522,25.8150309 Z M33.5735755,3.63332189 C33.5735755,2.42964997 34.5311076,1.42587509 35.7130345,1.42587509 C36.8949614,1.42587509 37.8208041,2.36273164 37.8208041,3.63332189 C37.8208041,4.905628 36.8949614,5.87508579 35.7130345,5.87508579 C34.5311076,5.87508579 33.5735755,4.83785175 33.5735755,3.63332189 L33.5735755,3.63332189 Z M52.7464852,0.489018531 L56.1312498,0.489018531 L56.1312498,25.8150309 L52.7464852,25.8150309 L52.7464852,23.8074811 C51.532869,25.5808167 49.9364112,26.449897 47.860331,26.449897 C43.7415727,26.449897 41.1233477,23.3399108 41.1233477,18.0533631 C41.1233477,13.0688058 43.8691865,9.78980782 47.7652629,9.78980782 C50.1924954,9.78980782 51.9482564,10.8939602 52.7464852,12.8680508 L52.7464852,0.489018531 Z M52.8424097,18.019046 C52.8424097,14.7743651 51.3093307,12.9349691 48.7870302,12.9349691 C46.2321838,12.9349691 44.6674154,14.8747426 44.6674154,18.1528826 C44.6674154,21.4661977 46.1679487,23.3055937 48.722795,23.3055937 C51.0857923,23.3055937 52.8424097,21.2989019 52.8424097,18.019046 L52.8424097,18.019046 Z M60.3930384,25.8150309 L60.3930384,0.512182567 L80.3830193,0.512182567 L80.3830193,6.99725463 L67.8348954,6.99725463 L67.8348954,10.1509952 L79.2336382,10.1509952 L79.2336382,16.1762183 L67.8348954,16.1762183 L67.8348954,19.3299588 L80.7555832,19.3299588 L80.7555832,25.8150309 L60.3930384,25.8150309 Z M105.898937,9.99399451 L98.6849003,9.99399451 C98.5504347,9.07601235 97.8763938,6.28603294 94.8093791,6.28603294 C91.3372548,6.28603294 90.2247019,9.8172615 90.2247019,13.20779 C90.2247019,16.5983185 91.3372548,20.129547 94.8093791,20.129547 C97.3034162,20.129547 98.2815035,18.2927248 98.719159,15.9274194 L106,15.9274194 C106,21.0123542 102.055961,26.41558 95.0115058,26.41558 C87.2253482,26.41558 82.8102518,20.6588881 82.8102518,13.20779 C82.8102518,5.26252574 87.5961992,0 95.0115058,0 C101.617449,0.0351750172 105.258298,3.67278655 105.898937,9.99399451 L105.898937,9.99399451 Z M34.8719822,47.4811256 L34.8719822,49.7915237 L34.1234285,49.7915237 L34.1234285,44.6448181 L35.1734592,44.6448181 C35.8329401,44.6448181 36.2320546,44.658545 36.561795,44.9107756 C36.863272,45.141558 37.0559775,45.566232 37.0559775,46.0629719 C37.0559775,46.5597117 36.863272,46.9912491 36.561795,47.2220316 C36.2320546,47.4665408 35.8329401,47.4811256 35.3319059,47.4811256 L34.8719822,47.4811256 Z M34.9199444,46.7973576 L35.1263534,46.7973576 C35.8603471,46.7973576 36.2320546,46.7107069 36.2320546,46.1127316 C36.2320546,45.4941661 35.8680553,45.3646191 35.1263534,45.3646191 L34.9199444,45.3646191 L34.9199444,46.7973576 Z M44.4849876,47.228895 C44.4849876,47.9632807 44.2177693,48.6247426 43.7158786,49.1360673 C43.2148444,49.6473919 42.5622152,49.928792 41.8616237,49.928792 C41.1610323,49.928792 40.4946996,49.6473919 40.0005171,49.1360673 C39.4986264,48.6247426 39.2382599,47.9632807 39.2382599,47.228895 C39.2382599,46.4945093 39.4986264,45.8321894 40.0005171,45.3140014 C40.5015513,44.8035347 41.1541805,44.5298559 41.8616237,44.5298559 C42.5690669,44.5298559 43.2148444,44.8035347 43.7158786,45.3140014 C44.2177693,45.8321894 44.4849876,46.5022306 44.4849876,47.228895 L44.4849876,47.228895 Z M43.6542129,47.228895 C43.6542129,46.7107069 43.4683591,46.2285518 43.1249152,45.861359 C42.7891794,45.4941661 42.335251,45.3002745 41.8616237,45.3002745 C41.38714,45.3002745 40.9340681,45.4941661 40.5906241,45.861359 C40.2480366,46.2285518 40.0690346,46.7107069 40.0690346,47.228895 C40.0690346,47.747083 40.2480366,48.2223747 40.5906241,48.5895676 C40.9340681,48.9559025 41.3811448,49.150652 41.8616237,49.150652 C42.3421027,49.150652 42.7814712,48.9559025 43.1249152,48.5895676 C43.4683591,48.2223747 43.6542129,47.747083 43.6542129,47.228895 L43.6542129,47.228895 Z M51.4163893,47.2503432 C51.395834,47.1568291 51.3752788,46.9260467 51.3273165,46.545127 C51.286206,46.7896362 51.2108368,47.0204187 51.1012088,47.2572066 L49.8165056,50 L48.5326589,47.1997255 C48.435878,46.9912491 48.3528005,46.7759094 48.2919912,46.545127 C48.2851395,46.7896362 48.2508807,47.0272821 48.2029185,47.2572066 L47.6736208,49.7915237 L46.9387706,49.7915237 L48.0992857,44.4432052 L49.5484309,47.6750172 L49.8165056,48.3733699 C49.9132866,48.0859643 50.0220581,47.8551819 50.0974274,47.6750172 L51.5131702,44.4432052 L52.7010924,49.7915237 L51.9593905,49.7915237 L51.4163893,47.2503432 Z M56.3813387,47.4811256 L56.3813387,49.7915237 L55.6319285,49.7915237 L55.6319285,44.6448181 L56.6828157,44.6448181 C57.3422966,44.6448181 57.7405546,44.658545 58.0702951,44.9107756 C58.3726286,45.141558 58.5644776,45.566232 58.5644776,46.0629719 C58.5644776,46.5597117 58.3726286,46.9912491 58.0702951,47.2220316 C57.7405546,47.4665408 57.3422966,47.4811256 56.8412624,47.4811256 L56.3813387,47.4811256 Z M56.4284445,46.7973576 L56.6348534,46.7973576 C57.3697036,46.7973576 57.7405546,46.7107069 57.7405546,46.1127316 C57.7405546,45.4941661 57.3765554,45.3646191 56.6348534,45.3646191 L56.4284445,45.3646191 L56.4284445,46.7973576 Z M61.4404997,49.7915237 L61.4404997,44.6448181 L64.1811997,44.6448181 L64.1811997,45.3577557 L62.2370156,45.3577557 L62.2370156,46.6455045 L64.1811997,46.6455045 L64.1811997,47.3798902 L62.2370156,47.3798902 L62.2370156,49.0425532 L64.1811997,49.0425532 L64.1811997,49.7915237 L61.4404997,49.7915237 Z M67.366407,44.6448181 L68.1560712,44.6448181 L68.1560712,47.7685312 C68.1560712,48.6976664 68.5680327,49.1652368 69.3782522,49.1652368 C70.1884716,49.1652368 70.6004331,48.6976664 70.6004331,47.7685312 L70.6004331,44.6448181 L71.396949,44.6448181 L71.396949,47.8483185 C71.396949,49.2373027 70.7306163,49.928792 69.3782522,49.928792 C68.0250315,49.928792 67.366407,49.2373027 67.366407,47.8483185 L67.366407,44.6448181 Z M77.3982257,49.7915237 L77.3982257,44.6448181 L80.1380692,44.6448181 L80.1380692,45.3577557 L78.1947416,45.3577557 L78.1947416,46.638641 L80.1380692,46.638641 L80.1380692,47.3730268 L78.1947416,47.3730268 L78.1947416,49.7915237 L77.3982257,49.7915237 Z M86.0091626,49.7915237 L85.4533144,48.466884 L83.5091303,48.466884 L82.9395786,49.7915237 L82.1019521,49.7915237 L84.4777965,44.4432052 L86.8536408,49.7915237 L86.0091626,49.7915237 Z M83.804612,47.7685312 L85.1715361,47.7685312 L84.6705019,46.5957447 C84.6148315,46.4584763 84.5531657,46.2714482 84.4846482,46.0123542 C84.4229825,46.2714482 84.3613167,46.4584763 84.3065027,46.5957447 L83.804612,47.7685312 Z M89.466727,49.7915237 L89.466727,44.6448181 L90.7026114,44.6448181 C91.2242009,44.6448181 91.6156071,44.6662663 91.9179406,44.9039121 C92.2194176,45.1346946 92.3984196,45.530199 92.3984196,45.990906 C92.3984196,46.5382636 92.1509001,46.9191833 91.6918328,47.063315 C92.2613846,47.1568291 92.6116803,47.6389842 92.6116803,48.3304736 C92.6116803,48.7542896 92.4609418,49.1437886 92.2134223,49.4028826 C91.8631266,49.7700755 91.3954947,49.7915237 90.7086067,49.7915237 L89.466727,49.7915237 Z M90.248683,49.0931709 L90.5236095,49.0931709 C90.9698297,49.0931709 91.2858666,49.0717227 91.4777157,48.9353123 C91.6704211,48.7980439 91.7869009,48.5603981 91.7869009,48.2798559 C91.7869009,47.9564173 91.6567176,47.7041867 91.4091982,47.5677763 C91.2242009,47.4665408 91.0040884,47.4519561 90.7642772,47.4519561 L90.248683,47.4519561 L90.248683,49.0931709 Z M90.248683,46.8188058 L90.5510165,46.8188058 C91.2721631,46.8188058 91.5950519,46.6455045 91.5950519,46.1058682 C91.5950519,45.4649966 91.2584596,45.342313 90.5510165,45.342313 L90.248683,45.342313 L90.248683,46.8188058 Z M96.1874374,47.487989 L96.1874374,49.7915237 L95.4388837,49.7915237 L95.4388837,44.6448181 L96.5514366,44.6448181 C97.0798778,44.6448181 97.4712841,44.6877145 97.7736175,44.9322237 C98.0690993,45.1775909 98.2481012,45.5808167 98.2481012,46.0629719 C98.2481012,46.8908717 97.8626903,47.358442 97.1218448,47.4519561 L98.8108012,49.7915237 L97.911509,49.7915237 L96.2765101,47.487989 L96.1874374,47.487989 Z M96.2353996,46.8402539 C97.0798778,46.8402539 97.4301736,46.7536033 97.4301736,46.1350377 C97.4301736,45.5018874 97.0935813,45.3646191 96.3801429,45.3646191 L96.2353996,46.8402539 Z M104.817217,49.7915237 L104.261368,48.466884 L102.318041,48.466884 L101.747633,49.7915237 L100.910006,49.7915237 L103.28585,44.4432052 L105.661695,49.7915237 L104.817217,49.7915237 Z M102.612666,47.7685312 L103.97959,47.7685312 L103.478556,46.5957447 C103.422885,46.4584763 103.362076,46.2714482 103.292702,46.0123542 C103.231036,46.2714482 103.169371,46.4584763 103.114557,46.5957447 L102.612666,47.7685312 Z M34.1028732,32.6475635 L34.8925374,32.6475635 L34.8925374,35.7712766 C34.8925374,36.7004118 35.3044989,37.1679822 36.1155748,37.1679822 C36.9249378,37.1679822 37.3377557,36.7004118 37.3377557,35.7712766 L37.3377557,32.6475635 L38.1342717,32.6475635 L38.1342717,35.8510638 C38.1342717,37.240048 37.467939,37.9306795 36.1155748,37.9306795 C34.7623542,37.9306795 34.1028732,37.240048 34.1028732,35.8510638 L34.1028732,32.6475635 Z M42.4585825,37.794269 L42.4585825,32.4468085 L45.5752723,35.5919698 C45.7748295,35.7935827 45.9469797,36.002059 46.1114217,36.2182567 L46.1114217,32.6475635 L46.8462719,32.6475635 L46.8462719,37.9967399 L43.6670599,34.7923816 C43.4880579,34.6130748 43.3304677,34.4183253 43.1925762,34.2167124 L43.1925762,37.794269 L42.4585825,37.794269 Z M51.1431757,37.794269 L51.9396917,37.794269 L51.9396917,32.6475635 L51.1431757,32.6475635 L51.1431757,37.794269 Z M57.7987945,37.9967399 L55.6079474,32.6475635 L56.4387221,32.6475635 L57.5375715,35.3903569 C57.6540513,35.6777625 57.7439805,35.9445779 57.7987945,36.2182567 C57.8604602,35.9514413 57.9503895,35.6777625 58.0668692,35.3903569 L59.1657186,32.6475635 L59.9896416,32.6475635 L57.7987945,37.9967399 Z M63.6381985,37.794269 L63.6381985,32.6475635 L66.3788985,32.6475635 L66.3788985,33.360501 L64.4355709,33.360501 L64.4355709,34.6491078 L66.3788985,34.6491078 L66.3788985,35.3826356 L64.4355709,35.3826356 L64.4355709,37.0461565 L66.3788985,37.0461565 L66.3788985,37.794269 L63.6381985,37.794269 Z M71.4029443,35.4907344 L71.4029443,37.794269 L70.6552471,37.794269 L70.6552471,32.6475635 L71.7678,32.6475635 C72.2962412,32.6475635 72.6876475,32.6913178 72.9899809,32.935827 C73.2854627,33.1803363 73.4636082,33.5835621 73.4636082,34.0657172 C73.4636082,34.893617 73.0790537,35.3611874 72.3373517,35.4555594 L74.0271646,37.794269 L73.1270159,37.794269 L71.4928735,35.4907344 L71.4029443,35.4907344 Z M71.451763,34.8429993 C72.2962412,34.8429993 72.646537,34.7563487 72.646537,34.1377831 C72.646537,33.5037749 72.3099447,33.3673644 71.5956498,33.3673644 L71.451763,34.8429993 Z M77.168692,36.7647563 L77.8076177,36.4550446 C77.9240975,36.9157515 78.2538379,37.1611187 78.7557286,37.1611187 C79.2362076,37.1611187 79.5316893,36.8582704 79.5316893,36.3975635 C79.5316893,35.8939602 79.1668337,35.7712766 78.6589477,35.5130405 C77.7870625,35.0660604 77.305727,34.7211736 77.305727,33.9438916 C77.305727,33.1151338 77.8898387,32.5326012 78.7831356,32.5326012 C79.5111341,32.5326012 80.0121683,32.842313 80.1971656,33.3819492 L79.5719434,33.7199725 C79.3800944,33.4033974 79.1531302,33.2524022 78.8448014,33.2524022 C78.4114282,33.2524022 78.1442099,33.5114962 78.1442099,33.9001373 C78.1442099,34.3968771 78.5287644,34.5478723 79.0777609,34.8138298 C79.9436508,35.2316404 80.3487605,35.5988332 80.3487605,36.3400824 C80.3487605,37.2975292 79.7372418,37.9306795 78.7214699,37.9306795 C77.882987,37.9306795 77.3339905,37.5137268 77.168692,36.7647563 L77.168692,36.7647563 Z M84.3861543,37.794269 L85.1826702,37.794269 L85.1826702,32.6475635 L84.3861543,32.6475635 L84.3861543,37.794269 Z M91.0691801,33.360501 L91.0691801,37.794269 L90.2726641,37.794269 L90.2726641,33.360501 L88.9674057,33.360501 L88.9674057,32.6475635 L92.3667302,32.6475635 L92.3667302,33.360501 L91.0691801,33.360501 Z M98.6609192,37.794269 L98.1042145,36.4704873 L96.1608868,36.4704873 L95.5904787,37.794269 L94.7528522,37.794269 L97.1286966,32.4468085 L99.5053974,37.794269 L98.6609192,37.794269 Z M96.4563686,35.7712766 L97.8224362,35.7712766 L97.321402,34.59849 C97.266588,34.4620796 97.2040658,34.2750515 97.1364048,34.0150995 C97.0738826,34.2750515 97.0122168,34.4620796 96.9574028,34.59849 L96.4563686,35.7712766 L96.4563686,35.7712766 Z" id="Fill-1" fill="#ED071B" mask="url(#mask-2)"></path>
            </g>
        </g>
    </g>
</svg>