<?xml version="1.0" encoding="UTF-8"?>
<svg width="183px" height="38px" viewBox="0 0 183 38" version="1.1" xmlns="http://www.w3.org/2000/svg" xmlns:xlink="http://www.w3.org/1999/xlink">
    <title>ied</title>
    <defs>
        <polygon id="path-1" points="0 38 183 38 183 0 0 0"></polygon>
    </defs>
    <g id="concept" stroke="none" stroke-width="1" fill="none" fill-rule="evenodd">
        <g id="00_home-d-docencia" transform="translate(-501.000000, -2155.000000)">
            <g id="ied" transform="translate(501.000000, 2155.000000)">
                <path d="M3.44335283,20.4751992 C4.29987536,18.7032127 12.5984908,1.50703293 12.5984908,1.50703293 C12.6046198,1.4848831 12.6812318,1.08143974 12.6812318,1.08143974 C12.6812318,0.638443115 12.4253476,0.244492543 12.0315617,0.0783688079 C11.5029387,-0.143129506 10.8992359,0.12108634 10.6816577,0.666921469 L0.0816168085,23.109447 C-0.100719831,23.5698471 0.0310528666,24.0840396 0.391129423,24.3814802 C0.751205979,24.6757565 1.2645066,24.69316 1.63837332,24.4162871 C1.63837332,24.4162871 6.63960685,20.9450921 12.2920427,17.0229898 C11.9656754,16.3205237 11.7113235,15.5785044 11.5259223,14.8080066 C7.91902781,17.3362517 4.86833664,19.4752925 3.44335283,20.4751992 L3.44335283,20.4751992 Z M12.7042154,24.1773853 C12.5280077,24.3640767 12.4192186,24.6314568 12.4192186,24.9209868 C12.4192186,25.2105167 12.5310722,25.4858075 12.7302635,25.6883202 C12.9263903,25.8924151 13.1868712,26 13.4642068,26 C13.7446068,26 14.0081522,25.8845045 14.2012145,25.6772453 C14.2027468,25.6724989 15.3366049,24.2897166 17.0542466,22.1918111 C16.4306247,21.8437424 15.8453088,21.4339705 15.2998311,20.9735704 C13.7645259,22.8689631 12.7042154,24.1773853 12.7042154,24.1773853 L12.7042154,24.1773853 Z M33.7480087,0.386884316 C33.3940611,-0.0434552645 32.7980195,-0.120979674 32.3552019,0.203357142 C32.3552019,0.203357142 30.9961045,1.15421776 28.8662899,2.64933137 C29.7350704,3.29325861 30.5119164,4.06059206 31.1738444,4.930764 C32.7152785,3.04802834 33.7097027,1.82978761 33.7097027,1.82978761 C34.0774404,1.44216557 34.1019563,0.815641765 33.7480087,0.386884316 L33.7480087,0.386884316 Z M22.3772507,23.5840863 C28.5506484,23.5840863 33.5534141,18.4184292 33.5534141,12.0440241 C33.5534141,9.36073027 32.6631823,6.89102408 31.1738444,4.930764 C27.536305,9.37813371 20.857268,17.5403466 17.0542466,22.1918111 C18.635519,23.0793865 20.449692,23.5840863 22.3772507,23.5840863 L22.3772507,23.5840863 Z M22.3772507,0.503961996 C16.2023208,0.503961996 11.2010873,5.67120122 11.2010873,12.0440241 C11.2010873,12.998049 11.3160054,13.9220134 11.5259223,14.8080066 C17.3545658,10.7197806 24.6357735,5.61424451 28.8662899,2.64933137 C27.0352623,1.29977379 24.798191,0.503961996 22.3772507,0.503961996 L22.3772507,0.503961996 Z M12.2920427,17.0229898 C13.0045346,18.5576567 14.0357325,19.9056321 15.2998311,20.9735704 C18.8668874,16.5720825 25.0111724,8.9873474 26.4836557,7.17264336 C23.6827198,9.11708213 17.6885943,13.2749219 12.2920427,17.0229898 L12.2920427,17.0229898 Z" id="Fill-1" fill="#D20A11"></path>
                <mask id="mask-2" fill="white">
                    <use xlink:href="#path-1"></use>
                </mask>
                <g id="Clip-4"></g>
                <polygon id="Fill-3" fill="#9D9D9C" mask="url(#mask-2)" points="40 20 45 20 45 5 40 5"></polygon>
                <polygon id="Fill-5" fill="#9D9D9C" mask="url(#mask-2)" points="58 20 46 20 46 5 58 5 58 8.45464669 50.7993528 8.45464669 50.7993528 10.6413242 56.6245955 10.6413242 56.6245955 13.986637 50.7993528 13.986637 50.7993528 16.4132415 58 16.4132415"></polygon>
                <path d="M60,5 L65.8091551,5 C68.079253,5 69.8934184,5.28396437 71.5928035,6.83741648 C73.2459576,8.32405345 74,10.3786192 74,12.5212594 C74,14.4892691 73.2666818,16.5453533 71.8223639,17.9651751 C70.2616716,19.5186273 68.3088135,20 66.1279891,20 L60,20 L60,5 Z M65.5317695,16.5453533 C66.17422,16.5453533 66.58711,16.587872 67.1865179,16.2811298 C67.6185379,16.0412027 67.966067,15.7132011 68.2163516,15.2986435 C68.7695286,14.4239725 68.9512639,13.4187082 68.9512639,12.4119255 C68.9512639,11.4066613 68.6531542,10.0946548 67.9883853,9.26402106 C67.2295605,8.36809071 66.4946481,8.41060944 65.3930767,8.41060944 L64.841494,8.41060944 L64.841494,16.5453533 L65.5317695,16.5453533 Z" id="Fill-6" fill="#9D9D9C" mask="url(#mask-2)"></path>
                <path d="M39,35.7497143 L40.9818318,35.7497143 L40.9818318,27.1257143 L39,27.1257143 L39,35.7497143 Z M47.4475579,30.9097143 C47.2323434,30.3062857 46.9211338,29.8772857 46.512381,29.6211429 C46.1036282,29.365 45.5911389,29.2377143 44.9702682,29.2377143 C44.6311892,29.2377143 44.3044966,29.2754286 43.9855455,29.3508571 C43.6681428,29.4262857 43.3801579,29.5472857 43.1246874,29.7154286 C42.8692169,29.882 42.6648405,30.1035714 42.5115582,30.3754286 C42.3582759,30.6472857 42.2824089,30.9804286 42.2824089,31.3748571 C42.2824089,31.7771429 42.3954352,32.1307143 42.6245845,32.4371429 C42.8506372,32.7435714 43.1494603,32.9635714 43.5210537,33.0971429 C43.6201453,33.1301429 43.7517513,33.1662857 43.9189684,33.204 C44.0830888,33.2417143 44.2564991,33.2794286 44.4376509,33.3171429 C44.6188027,33.3548571 44.7968579,33.3878571 44.9702682,33.4177143 C45.1452268,33.4475714 45.2845743,33.4664286 45.3914074,33.4742857 C45.4734677,33.4821429 45.5570762,33.4947143 45.6391364,33.512 C45.7227449,33.5292857 45.7986119,33.556 45.8682857,33.5937143 C45.9379595,33.6314286 45.9936985,33.6832857 46.0355028,33.7508571 C46.077307,33.8184286 46.097435,33.9064286 46.097435,34.0148571 C46.097435,34.1327143 46.0556307,34.2301429 45.9735705,34.3102857 C45.8915103,34.3904286 45.7924187,34.4532857 45.6762958,34.4988571 C45.5601728,34.5444286 45.4394049,34.5758571 45.3108955,34.5931429 C45.1823861,34.6104286 45.0786496,34.6182857 44.9950411,34.6182857 C44.8464037,34.6182857 44.6977663,34.6041429 44.5491289,34.5742857 C44.4004916,34.5444286 44.2595957,34.4988571 44.1279897,34.436 C43.9963837,34.3731429 43.8849056,34.2867143 43.7935556,34.1782857 C43.7022055,34.0698571 43.6402733,33.9315714 43.6077589,33.7634286 L42.0346799,33.9897143 C42.1167401,34.3495714 42.2514427,34.6497143 42.4372395,34.8885714 C42.6245845,35.1274286 42.844444,35.3207143 43.0999145,35.4668571 C43.355385,35.613 43.638725,35.7182857 43.9483862,35.7811429 C44.2580474,35.844 44.5785468,35.8754286 44.9083359,35.8754286 C45.2551565,35.8754286 45.5957838,35.8377143 45.930218,35.7622857 C46.2646521,35.6868571 46.5758616,35.5485714 46.8653948,35.3474286 C47.1301552,35.1541429 47.3376282,34.9152857 47.4847172,34.6308571 C47.6333546,34.3464286 47.7076733,34.0352857 47.7076733,33.7005714 C47.7076733,33.2228571 47.614775,32.8504286 47.4289782,32.5817143 C47.2431815,32.313 47.0109356,32.1118571 46.7291439,31.9782857 C46.4489005,31.8447143 46.1454325,31.7535714 45.8187399,31.708 C45.4920473,31.6624286 45.1885793,31.6184286 44.9083359,31.576 C44.6280926,31.5335714 44.3942983,31.4754286 44.2085016,31.4 C44.0227049,31.3245714 43.9298065,31.1862857 43.9298065,30.9851429 C43.9298065,30.8672857 43.9607726,30.773 44.0227049,30.7022857 C44.0846371,30.6315714 44.1636007,30.575 44.2580474,30.5325714 C44.3524941,30.4901429 44.4562306,30.4618571 44.5677086,30.4445714 C44.6791867,30.4272857 44.7798265,30.4194286 44.8711766,30.4194286 C45.1684514,30.4194286 45.4270185,30.487 45.6453296,30.6205714 C45.8636408,30.7541429 46.0153748,30.9725714 46.097435,31.2742857 L47.4475579,30.9097143 Z M52.3665263,29.3508571 L51.0148551,29.3508571 L51.0148551,27.352 L49.4293897,27.4777143 L49.2699141,29.3508571 L48.1659719,29.3508571 L48.1659719,30.8217143 L49.1940471,30.8217143 L49.1940471,33.6377143 C49.1940471,33.7964286 49.1955954,33.9598571 49.2002404,34.128 C49.2064336,34.2961429 49.223465,34.4611429 49.2559794,34.6245714 C49.2884938,34.788 49.3411362,34.9404286 49.41081,35.0834286 C49.4804838,35.2264286 49.578027,35.3521429 49.7018915,35.4605714 C49.9078162,35.6287143 50.164835,35.7387143 50.4698513,35.7937143 C50.7748676,35.8471429 51.059756,35.8754286 51.3245163,35.8754286 C51.490185,35.8754286 51.6759818,35.8628571 51.8819065,35.8377143 C52.0878312,35.8125714 52.2829177,35.778 52.4640696,35.7371429 L52.4640696,34.3417143 C52.3572364,34.359 52.248855,34.3715714 52.1420219,34.3794286 C52.0351888,34.3872857 51.9391938,34.392 51.8571336,34.392 C51.6604987,34.392 51.5041198,34.3778571 51.3926418,34.348 C51.2811637,34.3181429 51.1991035,34.2662857 51.1449128,34.1908571 C51.0907221,34.1154286 51.0566593,34.0101429 51.039628,33.8765714 C51.0225966,33.743 51.0148551,33.5701429 51.0148551,33.3611429 L51.0148551,30.8217143 L52.3665263,30.8217143 L52.3665263,29.3508571 Z M53.4921448,28.7851429 L55.3129527,28.7851429 L55.3129527,27 L53.4921448,27 L53.4921448,28.7851429 Z M53.4921448,35.7497143 L55.3129527,35.7497143 L55.3129527,29.3634286 L53.4921448,29.3634286 L53.4921448,35.7497143 Z M60.292305,29.3508571 L58.9437304,29.3508571 L58.9437304,27.352 L57.3567167,27.4777143 L57.1956929,29.3508571 L56.093299,29.3508571 L56.093299,30.8217143 L57.1213742,30.8217143 L57.1213742,33.6377143 C57.1213742,33.7964286 57.1229225,33.9598571 57.1275674,34.128 C57.130664,34.2961429 57.1492437,34.4611429 57.1833064,34.6245714 C57.2158209,34.788 57.2684633,34.9404286 57.3381371,35.0834286 C57.4078108,35.2264286 57.5053541,35.3521429 57.6292186,35.4605714 C57.8351433,35.6287143 58.0906138,35.7387143 58.3971784,35.7937143 C58.7021947,35.8471429 58.987083,35.8754286 59.2518434,35.8754286 C59.4159638,35.8754286 59.6017605,35.8628571 59.8092335,35.8377143 C60.0151582,35.8125714 60.2086965,35.778 60.3913966,35.7371429 L60.3913966,34.3417143 C60.2830152,34.359 60.1761821,34.3715714 60.069349,34.3794286 C59.9609675,34.3872857 59.8665209,34.392 59.7860089,34.392 C59.5878258,34.392 59.4314469,34.3778571 59.3199688,34.348 C59.2084908,34.3181429 59.1248823,34.2662857 59.0737882,34.1908571 C59.0180491,34.1154286 58.9824381,34.0101429 58.966955,33.8765714 C58.9499237,33.743 58.9437304,33.5701429 58.9437304,33.3611429 L58.9437304,30.8217143 L60.292305,30.8217143 L60.292305,29.3508571 Z M66.7580312,35.7497143 L66.7580312,29.3634286 L64.9372232,29.3634286 L64.9372232,32.7954286 L64.9372232,33.3108571 C64.9372232,33.479 64.9031605,33.633 64.8381316,33.776 C64.7560714,33.9692857 64.6337552,34.1201429 64.4727314,34.2285714 C64.3117076,34.337 64.1274592,34.392 63.9215344,34.392 C63.7558657,34.392 63.6273563,34.3652857 63.5375545,34.3102857 C63.4462045,34.2552857 63.378079,34.1798571 63.3347264,34.084 C63.286729,33.9865714 63.2588595,33.8781429 63.246473,33.7571429 C63.2340866,33.6361429 63.2278933,33.512 63.2278933,33.3862857 L63.2278933,29.3634286 L61.4070854,29.3634286 L61.4070854,33.3862857 C61.4070854,33.6958571 61.4148269,34.0007143 61.4318583,34.2977143 C61.4473414,34.5947143 61.5433363,34.8822857 61.7182949,35.1588571 C61.8978984,35.4527143 62.1208545,35.6444286 62.3856148,35.7371429 C62.6488269,35.8282857 62.9383601,35.8754286 63.2526662,35.8754286 C63.681547,35.8754286 64.0515922,35.7717143 64.3628017,35.5674286 C64.6709146,35.3615714 64.9000639,35.0582857 65.0487013,34.656 L65.0750225,34.656 L65.0750225,35.7497143 L66.7580312,35.7497143 Z M71.6878377,29.3508571 L70.3377148,29.3508571 L70.3377148,27.352 L68.7537977,27.4777143 L68.5912255,29.3508571 L67.4888316,29.3508571 L67.4888316,30.8217143 L68.5169069,30.8217143 L68.5169069,33.6377143 C68.5169069,33.7964286 68.5184552,33.9598571 68.5231001,34.128 C68.5261967,34.2961429 68.5447764,34.4611429 68.5788391,34.6245714 C68.6113535,34.788 68.6624476,34.9404286 68.7336697,35.0834286 C68.8033435,35.2264286 68.9008868,35.3521429 69.0247512,35.4605714 C69.2306759,35.6287143 69.4861465,35.7387143 69.7927111,35.7937143 C70.0977273,35.8471429 70.3826157,35.8754286 70.647376,35.8754286 C70.8130447,35.8754286 70.9972932,35.8628571 71.2063145,35.8377143 C71.4106909,35.8125714 71.6042291,35.778 71.7884776,35.7371429 L71.7884776,34.3417143 C71.6785478,34.359 71.5717147,34.3715714 71.4664299,34.3794286 C71.3565002,34.3872857 71.2636018,34.392 71.1799933,34.392 C70.9818101,34.392 70.8269795,34.3778571 70.7155015,34.348 C70.6040234,34.3181429 70.5204149,34.2662857 70.4677725,34.1908571 C70.4135818,34.1154286 70.3779707,34.0101429 70.364036,33.8765714 C70.3454563,33.743 70.3377148,33.5701429 70.3377148,33.3611429 L70.3377148,30.8217143 L71.6878377,30.8217143 L71.6878377,29.3508571 Z M76.004515,30.5891429 C76.1485075,30.6771429 76.2584372,30.8264286 76.3327559,31.0354286 C76.4225576,31.279 76.4782966,31.5398571 76.4999729,31.8211429 C76.5201009,32.1024286 76.5309391,32.368 76.5309391,32.6194286 C76.5309391,32.8127143 76.5216492,33.0248571 76.5061662,33.2605714 C76.4891348,33.4947143 76.4457822,33.7147143 76.3761084,33.9205714 C76.3048864,34.1264286 76.1980532,34.2977143 76.0540608,34.436 C75.90852,34.5742857 75.7087885,34.6434286 75.453318,34.6434286 C75.1885577,34.6434286 74.9888262,34.557 74.8525753,34.3857143 C74.7163243,34.2144286 74.6141361,34.0085714 74.5491073,33.7697143 C74.4825301,33.5308571 74.4453708,33.281 74.4376293,33.0217143 C74.4298877,32.7624286 74.4267911,32.5392857 74.4267911,32.3554286 C74.4267911,32.1715714 74.4329843,31.9704286 74.4500157,31.752 C74.4654988,31.5335714 74.5088513,31.3292857 74.5800734,31.136 C74.6497472,30.9427143 74.755032,30.7824286 74.8897346,30.652 C75.0259856,30.5215714 75.2179755,30.4571429 75.4657045,30.4571429 C75.6793707,30.4571429 75.8589742,30.5011429 76.004515,30.5891429 L76.004515,30.5891429 Z M74.1775138,29.4954286 C73.8059204,29.6667143 73.4931626,29.8992857 73.242337,30.1931429 C72.9899631,30.487 72.7979731,30.8358571 72.6663671,31.2428571 C72.5332128,31.6498571 72.4681839,32.0835714 72.4681839,32.544 C72.4681839,33.0044286 72.5316645,33.4381429 72.6601739,33.8451429 C72.787135,34.2521429 72.9791249,34.6057143 73.2361437,34.9074286 C73.4916142,35.2091429 73.8028238,35.4464286 74.1728689,35.6177143 C74.5382691,35.789 74.9656016,35.8754286 75.453318,35.8754286 C75.9162615,35.8754286 76.3343042,35.7905714 76.7105426,35.624 C77.0852326,35.4558571 77.405732,35.2232857 77.6704923,34.9262857 C77.9337043,34.6292857 78.1365324,34.2804286 78.2774283,33.8828571 C78.4167758,33.4852857 78.4879979,33.0594286 78.4879979,32.6068571 C78.4879979,32.137 78.4214208,31.697 78.2898147,31.2868571 C78.1566604,30.8767143 77.9631222,30.52 77.7076517,30.2182857 C77.4506329,29.9165714 77.1363267,29.6777143 76.7600884,29.5017143 C76.38385,29.3257143 75.948776,29.2377143 75.453318,29.2377143 C74.9733432,29.2377143 74.5491073,29.3241429 74.1775138,29.4954286 L74.1775138,29.4954286 Z M89.3741379,28.7977143 L89.3741379,27.1257143 L83.3047781,27.1257143 L83.3047781,35.7497143 L89.3741379,35.7497143 L89.3741379,34.0777143 L85.2866099,34.0777143 L85.2866099,32.1668571 L88.5070865,32.1668571 L88.5070865,30.5451429 L85.2866099,30.5451429 L85.2866099,28.7977143 L89.3741379,28.7977143 Z M95.7407724,35.7497143 L95.7407724,29.3634286 L93.9199645,29.3634286 L93.9199645,32.7954286 L93.9199645,33.3108571 C93.9199645,33.479 93.8874501,33.633 93.8208729,33.776 C93.7388127,33.9692857 93.6164965,34.1201429 93.457021,34.2285714 C93.2944488,34.337 93.1117487,34.392 92.9042757,34.392 C92.7401553,34.392 92.6116459,34.3652857 92.5202958,34.3102857 C92.4320424,34.2552857 92.3639169,34.1798571 92.3159194,34.084 C92.2710185,33.9865714 92.2416007,33.8781429 92.2292143,33.7571429 C92.2168278,33.6361429 92.2106346,33.512 92.2106346,33.3862857 L92.2106346,29.3634286 L90.3898267,29.3634286 L90.3898267,33.3862857 C90.3898267,33.6958571 90.3991165,34.0007143 90.4145996,34.2977143 C90.4331792,34.5947143 90.5260776,34.8822857 90.6994879,35.1588571 C90.8837363,35.4527143 91.1051441,35.6444286 91.3683561,35.7371429 C91.6331164,35.8282857 91.9226497,35.8754286 92.2369558,35.8754286 C92.6658366,35.8754286 93.0343334,35.7717143 93.3439946,35.5674286 C93.6552041,35.3615714 93.8828051,35.0582857 94.0314425,34.656 L94.0562154,34.656 L94.0562154,35.7497143 L95.7407724,35.7497143 Z M97.1419894,29.3634286 L97.1419894,35.7497143 L98.961249,35.7497143 L98.961249,33.3108571 C98.961249,33.0248571 98.9782804,32.7467143 99.0123431,32.4748571 C99.0448576,32.203 99.1145313,31.9641429 99.2213645,31.7582857 C99.3312942,31.5524286 99.4861248,31.389 99.6920495,31.268 C99.8995225,31.147 100.175121,31.0935714 100.521942,31.1108571 L100.521942,29.2628571 L100.21228,29.2377143 C100.014097,29.2204286 99.8406869,29.2487143 99.6920495,29.3194286 C99.5434121,29.3901429 99.416451,29.4891429 99.3080696,29.6148571 C99.2027848,29.7405714 99.112983,29.8867143 99.041761,30.0548571 C98.9720872,30.223 98.9117032,30.3895714 98.8621575,30.5577143 L98.8373846,30.5577143 L98.8373846,29.3634286 L97.1419894,29.3634286 Z M104.493347,30.5891429 C104.637339,30.6771429 104.745721,30.8264286 104.820039,31.0354286 C104.911389,31.279 104.967128,31.5398571 104.987256,31.8211429 C105.010481,32.1024286 105.018222,32.368 105.018222,32.6194286 C105.018222,32.8127143 105.012029,33.0248571 104.993449,33.2605714 C104.977966,33.4947143 104.934614,33.7147143 104.863392,33.9205714 C104.793718,34.1264286 104.688433,34.2977143 104.541344,34.436 C104.397352,34.5742857 104.19762,34.6434286 103.940601,34.6434286 C103.677389,34.6434286 103.47611,34.557 103.339859,34.3857143 C103.205156,34.2144286 103.102968,34.0085714 103.036391,33.7697143 C102.971362,33.5308571 102.934202,33.281 102.924913,33.0217143 C102.917171,32.7624286 102.912526,32.5392857 102.912526,32.3554286 C102.912526,32.1715714 102.921816,31.9704286 102.937299,31.752 C102.95433,31.5335714 102.997683,31.3292857 103.067357,31.136 C103.140127,30.9427143 103.240767,30.7824286 103.377018,30.652 C103.513269,30.5215714 103.705259,30.4571429 103.952988,30.4571429 C104.169751,30.4571429 104.347806,30.5011429 104.493347,30.5891429 L104.493347,30.5891429 Z M102.664797,29.4954286 C102.293204,29.6667143 101.981994,29.8992857 101.72962,30.1931429 C101.478795,30.487 101.286805,30.8358571 101.15365,31.2428571 C101.022044,31.6498571 100.955467,32.0835714 100.955467,32.544 C100.955467,33.0044286 101.020496,33.4381429 101.147457,33.8451429 C101.275967,34.2521429 101.467957,34.6057143 101.723427,34.9074286 C101.980446,35.2091429 102.291655,35.4464286 102.658604,35.6177143 C103.027101,35.789 103.454433,35.8754286 103.940601,35.8754286 C104.403545,35.8754286 104.823136,35.7905714 105.199374,35.624 C105.574064,35.4558571 105.894564,35.2232857 106.157776,34.9262857 C106.424084,34.6292857 106.625364,34.2804286 106.764712,33.8828571 C106.905607,33.4852857 106.975281,33.0594286 106.975281,32.6068571 C106.975281,32.137 106.910252,31.697 106.777098,31.2868571 C106.645492,30.8767143 106.451954,30.52 106.194935,30.2182857 C105.939464,29.9165714 105.62361,29.6777143 105.247372,29.5017143 C104.872682,29.3257143 104.436059,29.2377143 103.940601,29.2377143 C103.463723,29.2377143 103.036391,29.3241429 102.664797,29.4954286 L102.664797,29.4954286 Z M108.028129,29.3634286 L108.028129,37.8994286 L109.850486,37.8994286 L109.850486,35.0457143 L109.87371,35.0457143 C110.005316,35.3301429 110.201951,35.5407143 110.462067,35.6742857 C110.722182,35.8078571 111.010167,35.8754286 111.322925,35.8754286 C111.776578,35.8754286 112.15901,35.7764286 112.468671,35.58 C112.778332,35.382 113.026061,35.1274286 113.211858,34.8131429 C113.399203,34.4988571 113.529261,34.1452857 113.608224,33.7508571 C113.687188,33.3564286 113.725896,32.9635714 113.725896,32.5691429 C113.725896,32.1747143 113.696478,31.7912857 113.639191,31.4188571 C113.581903,31.0464286 113.454942,30.6881429 113.255211,30.344 C113.039996,29.9747143 112.782977,29.6981429 112.481058,29.5142857 C112.180686,29.3304286 111.818383,29.2377143 111.398792,29.2377143 C110.993135,29.2377143 110.66025,29.3272857 110.400134,29.508 C110.140019,29.6887143 109.927901,29.9542857 109.762232,30.3062857 L109.737459,30.3062857 L109.737459,29.3634286 L108.028129,29.3634286 Z M109.850486,32.1668571 C109.850486,31.9735714 109.858227,31.7834286 109.87371,31.5948571 C109.890742,31.4062857 109.943384,31.2287143 110.034734,31.0605714 C110.118343,30.9018571 110.228272,30.7761429 110.369168,30.6834286 C110.510064,30.5907143 110.671088,30.5451429 110.85224,30.5451429 C111.082937,30.5451429 111.264089,30.6158571 111.392598,30.7588571 C111.51956,30.9018571 111.614006,31.0778571 111.675938,31.2868571 C111.737871,31.4958571 111.776578,31.7142857 111.79361,31.9405714 C111.810641,32.1668571 111.818383,32.3601429 111.818383,32.5188571 C111.818383,32.687 111.812189,32.885 111.799803,33.116 C111.787416,33.347 111.748709,33.5701429 111.682132,33.7885714 C111.615555,34.007 111.516463,34.1908571 111.384857,34.3417143 C111.253251,34.4925714 111.072099,34.568 110.839853,34.568 C110.674184,34.568 110.519354,34.524 110.375361,34.436 C110.232917,34.348 110.113698,34.2332857 110.022348,34.0902857 C109.915514,33.9142857 109.859775,33.7052857 109.855131,33.4617143 C109.850486,33.2181429 109.850486,32.9965714 109.850486,32.7954286 L109.850486,32.1668571 Z M116.265118,31.7771429 C116.282149,31.5932857 116.314663,31.4204286 116.365758,31.2617143 C116.413755,31.103 116.483429,30.9615714 116.574779,30.8405714 C116.666129,30.7195714 116.7838,30.6221429 116.927793,30.5514286 C117.073333,30.4807143 117.243647,30.4445714 117.44183,30.4445714 C117.640013,30.4445714 117.805682,30.4822857 117.937288,30.5577143 C118.068894,30.6331429 118.174179,30.7321429 118.253143,30.8531429 C118.332106,30.9741429 118.389394,31.1155714 118.428101,31.2742857 C118.463712,31.433 118.486937,31.6011429 118.496227,31.7771429 L116.265118,31.7771429 Z M120.315486,32.8708571 C120.323228,32.4355714 120.28452,32.0018571 120.197815,31.5697143 C120.11111,31.1375714 119.936151,30.7384286 119.671391,30.3691429 C119.406631,29.9998571 119.070648,29.7201429 118.655702,29.5268571 C118.242304,29.3335714 117.813424,29.2377143 117.367512,29.2377143 C116.881343,29.2377143 116.446269,29.3272857 116.066934,29.508 C115.687599,29.6887143 115.3671,29.9307143 115.106985,30.2371429 C114.846869,30.5435714 114.648686,30.9034286 114.512435,31.3182857 C114.376184,31.7331429 114.308059,32.1747143 114.308059,32.6445714 C114.308059,33.1222857 114.382377,33.5575714 114.531015,33.952 C114.679652,34.3464286 114.888674,34.6858571 115.15653,34.9702857 C115.424387,35.2547143 115.75108,35.4778571 116.13506,35.6365714 C116.51904,35.7952857 116.947921,35.8754286 117.417057,35.8754286 C117.771619,35.8754286 118.09057,35.8282857 118.370814,35.7371429 C118.651057,35.6444286 118.897238,35.525 119.107808,35.3788571 C119.318377,35.2327143 119.497981,35.0708571 119.648166,34.8948571 C119.795255,34.7188571 119.917572,34.5491429 120.012018,34.3857143 C120.108013,34.2222857 120.17459,34.0761429 120.216395,33.9457143 C120.258199,33.8152857 120.278327,33.7257143 120.278327,33.6754286 L118.59377,33.5497143 C118.59377,33.7005714 118.562804,33.8372857 118.500872,33.9582857 C118.438939,34.0792857 118.353783,34.1845714 118.246949,34.2725714 C118.140116,34.3605714 118.019348,34.4297143 117.887742,34.48 C117.756136,34.5302857 117.619885,34.5554286 117.47899,34.5554286 C117.082623,34.5554286 116.780704,34.4218571 116.574779,34.1531429 C116.368854,33.8844286 116.265118,33.5622857 116.265118,33.1851429 L116.277504,32.8708571 L120.315486,32.8708571 Z M124.559393,30.5891429 C124.701837,30.6771429 124.813315,30.8264286 124.886086,31.0354286 C124.977436,31.279 125.033175,31.5398571 125.053303,31.8211429 C125.074979,32.1024286 125.084269,32.368 125.084269,32.6194286 C125.084269,32.8127143 125.076527,33.0248571 125.059496,33.2605714 C125.042465,33.4947143 124.999112,33.7147143 124.929438,33.9205714 C124.859765,34.1264286 124.752931,34.2977143 124.607391,34.436 C124.463398,34.5742857 124.262118,34.6434286 124.006648,34.6434286 C123.741888,34.6434286 123.542156,34.557 123.405905,34.3857143 C123.269654,34.2144286 123.169014,34.0085714 123.102437,33.7697143 C123.03586,33.5308571 122.998701,33.281 122.990959,33.0217143 C122.983218,32.7624286 122.978573,32.5392857 122.978573,32.3554286 C122.978573,32.1715714 122.986314,31.9704286 123.004894,31.752 C123.020377,31.5335714 123.06373,31.3292857 123.134952,31.136 C123.204625,30.9427143 123.306814,30.7824286 123.443065,30.652 C123.579315,30.5215714 123.771305,30.4571429 124.019034,30.4571429 C124.235797,30.4571429 124.413852,30.5011429 124.559393,30.5891429 L124.559393,30.5891429 Z M122.730844,29.4954286 C122.360799,29.6667143 122.048041,29.8992857 121.795667,30.1931429 C121.543293,30.487 121.351303,30.8358571 121.219697,31.2428571 C121.088091,31.6498571 121.021514,32.0835714 121.021514,32.544 C121.021514,33.0044286 121.084994,33.4381429 121.213504,33.8451429 C121.342013,34.2521429 121.534003,34.6057143 121.789474,34.9074286 C122.044944,35.2091429 122.357702,35.4464286 122.724651,35.6177143 C123.091599,35.789 123.518932,35.8754286 124.006648,35.8754286 C124.469591,35.8754286 124.887634,35.7905714 125.265421,35.624 C125.640111,35.4558571 125.959062,35.2232857 126.223822,34.9262857 C126.490131,34.6292857 126.689862,34.2804286 126.830758,33.8828571 C126.971654,33.4852857 127.041328,33.0594286 127.041328,32.6068571 C127.041328,32.137 126.974751,31.697 126.843145,31.2868571 C126.711539,30.8767143 126.516452,30.52 126.260982,30.2182857 C126.005511,29.9165714 125.689657,29.6777143 125.313418,29.5017143 C124.93718,29.3257143 124.502106,29.2377143 124.006648,29.2377143 C123.528221,29.2377143 123.102437,29.3241429 122.730844,29.4954286 L122.730844,29.4954286 Z M135.340248,33.0845714 C135.340248,33.2432857 135.334055,33.4051429 135.315475,33.5685714 C135.298444,33.732 135.253543,33.8844286 135.179225,34.0274286 C135.104906,34.1704286 134.994976,34.2914286 134.850984,34.392 C134.706991,34.4925714 134.553709,34.5428571 134.386492,34.5428571 C134.163536,34.5428571 133.983932,34.4784286 133.84923,34.348 C133.712979,34.2175714 133.610791,34.0588571 133.544213,33.8702857 C133.477636,33.6817143 133.434284,33.4805714 133.414156,33.2668571 C133.395576,33.0531429 133.38319,32.8582857 133.38319,32.6822857 C133.38319,32.489 133.392479,32.269 133.407962,32.0222857 C133.424994,31.7755714 133.46525,31.5398571 133.531827,31.3182857 C133.598404,31.0967143 133.703689,30.9097143 133.84923,30.7588571 C133.991674,30.608 134.19605,30.5325714 134.460811,30.5325714 C134.666735,30.5325714 134.830856,30.5907143 134.950075,30.7085714 C135.070843,30.8264286 135.159097,30.9678571 135.216384,31.136 C135.273671,31.3041429 135.309282,31.4864286 135.321669,31.6828571 C135.334055,31.8792857 135.340248,32.0537143 135.340248,32.2045714 L135.340248,33.0845714 Z M137.161056,35.7497143 L137.161056,27.1257143 L135.340248,27.1257143 L135.340248,30.0422857 C135.142065,29.7484286 134.919109,29.541 134.67138,29.42 C134.425199,29.299 134.121732,29.2377143 133.767169,29.2377143 C133.304226,29.2377143 132.924891,29.343 132.627616,29.552 C132.330341,29.761 132.094999,30.0312857 131.921589,30.3628571 C131.748178,30.6944286 131.628959,31.0605714 131.562382,31.4628571 C131.495804,31.8651429 131.46329,32.2548571 131.46329,32.632 C131.46329,33.0012857 131.498901,33.3768571 131.568575,33.7634286 C131.638249,34.1484286 131.760565,34.4988571 131.933975,34.8131429 C132.107385,35.1274286 132.338083,35.382 132.627616,35.58 C132.917149,35.7764286 133.284098,35.8754286 133.73001,35.8754286 C134.134118,35.8754286 134.471649,35.7748571 134.739506,35.5737143 C135.008911,35.3725714 135.22877,35.1007143 135.402181,34.7565714 L135.426954,34.7565714 L135.426954,35.7497143 L137.161056,35.7497143 Z M138.461633,28.7851429 L140.282441,28.7851429 L140.282441,27 L138.461633,27 L138.461633,28.7851429 Z M138.461633,35.7497143 L140.282441,35.7497143 L140.282441,29.3634286 L138.461633,29.3634286 L138.461633,35.7497143 Z M147.441809,28.7097143 L148.123063,28.7097143 C148.477625,28.7097143 148.787287,28.749 149.052047,28.8291429 C149.315259,28.9092857 149.562988,29.0994286 149.795234,29.4011429 C150.001159,29.6698571 150.154441,29.9747143 150.253532,30.3188571 C150.352624,30.663 150.40217,31.0055714 150.40217,31.3497143 C150.40217,31.6687143 150.36501,31.9892857 150.290692,32.3114286 C150.216373,32.6335714 150.095605,32.9337143 149.931485,33.2102857 C149.699239,33.5874286 149.44222,33.8341429 149.157332,33.952 C148.872443,34.0698571 148.522526,34.128 148.110677,34.128 L147.441809,34.128 L147.441809,28.7097143 Z M145.461525,27.1257143 L145.461525,35.7497143 L148.259314,35.7497143 C148.861605,35.7497143 149.420544,35.668 149.937678,35.5045714 C150.453264,35.3411429 150.922401,35.0252857 151.34354,34.5554286 C151.722875,34.1201429 152.00157,33.6314286 152.179625,33.0908571 C152.356132,32.5502857 152.445934,31.9908571 152.445934,31.4125714 C152.445934,30.784 152.342197,30.1852857 152.136273,29.6148571 C151.9288,29.0444286 151.594365,28.5384286 151.134519,28.0937143 C150.900724,27.8674286 150.662285,27.6914286 150.414556,27.5657143 C150.168376,27.44 149.909808,27.3441429 149.640403,27.2765714 C149.370998,27.209 149.095399,27.1681429 148.812059,27.1508571 C148.525623,27.1335714 148.231445,27.1257143 147.92488,27.1257143 L145.461525,27.1257143 Z M155.158566,31.7771429 C155.174049,31.5932857 155.208112,31.4204286 155.259206,31.2617143 C155.307203,31.103 155.376877,30.9615714 155.468227,30.8405714 C155.558029,30.7195714 155.6757,30.6221429 155.821241,30.5514286 C155.965233,30.4807143 156.137095,30.4445714 156.335279,30.4445714 C156.533462,30.4445714 156.697582,30.4822857 156.830737,30.5577143 C156.962343,30.6331429 157.069176,30.7321429 157.146591,30.8531429 C157.224006,30.9741429 157.282842,31.1155714 157.320001,31.2742857 C157.357161,31.433 157.378837,31.6011429 157.388127,31.7771429 L155.158566,31.7771429 Z M159.208935,32.8708571 C159.216676,32.4355714 159.177969,32.0018571 159.091263,31.5697143 C159.006107,31.1375714 158.828051,30.7384286 158.564839,30.3691429 C158.300079,29.9998571 157.961,29.7201429 157.549151,29.5268571 C157.137301,29.3335714 156.706872,29.2377143 156.26096,29.2377143 C155.773244,29.2377143 155.339718,29.3272857 154.960383,29.508 C154.5795,29.6887143 154.260549,29.9307143 154.000433,30.2371429 C153.740318,30.5435714 153.542134,30.9034286 153.405884,31.3182857 C153.269633,31.7331429 153.203055,32.1747143 153.203055,32.6445714 C153.203055,33.1222857 153.275826,33.5575714 153.424463,33.952 C153.573101,34.3464286 153.782122,34.6858571 154.049979,34.9702857 C154.317836,35.2547143 154.644528,35.4778571 155.028508,35.6365714 C155.412488,35.7952857 155.839821,35.8754286 156.310506,35.8754286 C156.665068,35.8754286 156.982471,35.8282857 157.265811,35.7371429 C157.544506,35.6444286 157.790686,35.525 158.001256,35.3788571 C158.211826,35.2327143 158.391429,35.0708571 158.540066,34.8948571 C158.688704,34.7188571 158.81102,34.5491429 158.905467,34.3857143 C158.999913,34.2222857 159.069587,34.0761429 159.109843,33.9457143 C159.150099,33.8152857 159.171775,33.7257143 159.171775,33.6754286 L157.487218,33.5497143 C157.487218,33.7005714 157.457801,33.8372857 157.395868,33.9582857 C157.332388,34.0792857 157.247231,34.1845714 157.140398,34.2725714 C157.032016,34.3605714 156.912797,34.4297143 156.781191,34.48 C156.648036,34.5302857 156.511786,34.5554286 156.372438,34.5554286 C155.97762,34.5554286 155.674152,34.4218571 155.468227,34.1531429 C155.262303,33.8844286 155.158566,33.5622857 155.158566,33.1851429 L155.170952,32.8708571 L159.208935,32.8708571 Z M165.117271,30.9097143 C164.902056,30.3062857 164.590847,29.8772857 164.182094,29.6211429 C163.774889,29.365 163.260852,29.2377143 162.639981,29.2377143 C162.300902,29.2377143 161.974209,29.2754286 161.655258,29.3508571 C161.336307,29.4262857 161.049871,29.5472857 160.7944,29.7154286 C160.537381,29.882 160.333005,30.1035714 160.181271,30.3754286 C160.027989,30.6472857 159.952122,30.9804286 159.952122,31.3748571 C159.952122,31.7771429 160.065148,32.1307143 160.294297,32.4371429 C160.518802,32.7435714 160.819173,32.9635714 161.190766,33.0971429 C161.289858,33.1301429 161.421464,33.1662857 161.588681,33.204 C161.751253,33.2417143 161.924664,33.2794286 162.107364,33.3171429 C162.288515,33.3548571 162.466571,33.3878571 162.639981,33.4177143 C162.81494,33.4475714 162.952739,33.4664286 163.06112,33.4742857 C163.14318,33.4821429 163.225241,33.4947143 163.308849,33.512 C163.392458,33.5292857 163.466776,33.556 163.537998,33.5937143 C163.607672,33.6314286 163.663411,33.6832857 163.705216,33.7508571 C163.745471,33.8184286 163.767148,33.9064286 163.767148,34.0148571 C163.767148,34.1327143 163.725343,34.2301429 163.643283,34.3102857 C163.559675,34.3904286 163.460583,34.4532857 163.346009,34.4988571 C163.229886,34.5444286 163.107569,34.5758571 162.980608,34.5931429 C162.852099,34.6104286 162.748362,34.6182857 162.664754,34.6182857 C162.516116,34.6182857 162.367479,34.6041429 162.218842,34.5742857 C162.070204,34.5444286 161.929308,34.4988571 161.797702,34.436 C161.664548,34.3731429 161.55307,34.2867143 161.463268,34.1782857 C161.371918,34.0698571 161.309986,33.9315714 161.277472,33.7634286 L159.704393,33.9897143 C159.786453,34.3495714 159.921155,34.6497143 160.106952,34.8885714 C160.294297,35.1274286 160.512608,35.3207143 160.769627,35.4668571 C161.025098,35.613 161.308438,35.7182857 161.618099,35.7811429 C161.92776,35.844 162.246711,35.8754286 162.578049,35.8754286 C162.924869,35.8754286 163.267045,35.8377143 163.599931,35.7622857 C163.934365,35.6868571 164.245574,35.5485714 164.535108,35.3474286 C164.79832,35.1541429 165.007341,34.9152857 165.15443,34.6308571 C165.303067,34.3464286 165.377386,34.0352857 165.377386,33.7005714 C165.377386,33.2228571 165.284488,32.8504286 165.098691,32.5817143 C164.912894,32.313 164.680648,32.1118571 164.398857,31.9782857 C164.117065,31.8447143 163.813597,31.7535714 163.488453,31.708 C163.16176,31.6624286 162.858292,31.6184286 162.578049,31.576 C162.297805,31.5335714 162.064011,31.4754286 161.878214,31.4 C161.692418,31.3245714 161.599519,31.1862857 161.599519,30.9851429 C161.599519,30.8672857 161.630485,30.773 161.692418,30.7022857 C161.75435,30.6315714 161.831765,30.575 161.92776,30.5325714 C162.022207,30.4901429 162.125943,30.4618571 162.237421,30.4445714 C162.348899,30.4272857 162.449539,30.4194286 162.540889,30.4194286 C162.838164,30.4194286 163.095183,30.487 163.315042,30.6205714 C163.533354,30.7541429 163.683539,30.9725714 163.767148,31.2742857 L165.117271,30.9097143 Z M166.455007,28.7851429 L168.275815,28.7851429 L168.275815,27 L166.455007,27 L166.455007,28.7851429 Z M166.455007,35.7497143 L168.275815,35.7497143 L168.275815,29.3634286 L166.455007,29.3634286 L166.455007,35.7497143 Z M174.004547,36.6297143 C173.868297,36.713 173.707273,36.7711429 173.523024,36.8057143 C173.335679,36.8387143 173.145238,36.8575714 172.951699,36.8622857 C172.756613,36.8654286 172.606427,36.8685714 172.499594,36.8685714 C172.301411,36.8685714 172.07381,36.8622857 171.818339,36.8497143 C171.56132,36.8371429 171.335268,36.801 171.138633,36.7428571 C171.005479,36.7004286 170.895549,36.6422857 170.810392,36.5668571 C170.722139,36.4914286 170.680334,36.3782857 170.680334,36.2274286 C170.680334,36.1017143 170.715945,35.9948571 170.790264,35.9068571 C170.864583,35.8188571 170.959029,35.7528571 171.075152,35.712 C171.281077,35.7292857 171.505581,35.7418571 171.750214,35.7497143 C171.993298,35.7575714 172.230189,35.7654286 172.456241,35.7748571 C172.683842,35.7827143 172.892864,35.789 173.08795,35.7937143 C173.281489,35.7968571 173.431674,35.8031429 173.540056,35.8125714 C173.605085,35.8204286 173.677855,35.8314286 173.756819,35.844 C173.834234,35.8565714 173.908552,35.8785714 173.97513,35.9131429 C174.040159,35.9461429 174.094349,35.9901429 174.140798,36.0451429 C174.185699,36.0985714 174.208924,36.1677143 174.208924,36.2525714 C174.208924,36.4191429 174.140798,36.5448571 174.004547,36.6297143 L174.004547,36.6297143 Z M173.112723,30.4885714 C173.331034,30.6441429 173.440964,30.8798571 173.440964,31.1988571 C173.440964,31.5257143 173.332583,31.7708571 173.118916,31.9342857 C172.903702,32.0977143 172.648231,32.1794286 172.350957,32.1794286 C172.044392,32.1794286 171.801308,32.0977143 171.620156,31.9342857 C171.437456,31.7708571 171.347654,31.5304286 171.347654,31.2114286 C171.347654,30.9097143 171.442101,30.6755714 171.632543,30.5074286 C171.821436,30.3392857 172.061423,30.256 172.350957,30.256 C172.638942,30.256 172.892864,30.333 173.112723,30.4885714 L173.112723,30.4885714 Z M169.786962,32.2045714 C169.985145,32.4638571 170.257647,32.6618571 170.604467,32.7954286 C170.44654,32.863 170.293258,32.9352857 170.139976,33.0154286 C169.986693,33.0955714 169.851991,33.1914286 169.737416,33.3045714 C169.621293,33.4177143 169.526846,33.5481429 169.454076,33.6942857 C169.378209,33.8404286 169.34105,34.0148571 169.34105,34.216 C169.34105,34.5004286 169.415368,34.733 169.564006,34.9137143 C169.714191,35.0944286 169.90773,35.2421429 170.146169,35.36 C169.856636,35.4275714 169.602713,35.5548571 169.384402,35.7434286 C169.164543,35.932 169.056161,36.1897143 169.056161,36.5165714 C169.056161,36.7585714 169.113449,36.9644286 169.229572,37.1325714 C169.344146,37.2991429 169.492784,37.4374286 169.675484,37.5474286 C169.856636,37.6558571 170.065657,37.7391429 170.300999,37.7988571 C170.536342,37.857 170.773233,37.901 171.01322,37.9308571 C171.251659,37.9591429 171.485454,37.978 171.714603,37.9874286 C171.939107,37.9952857 172.135742,38 172.301411,38 C172.673004,38 173.064726,37.978 173.478123,37.9371429 C173.889973,37.8947143 174.270856,37.802 174.619225,37.6605714 C174.97998,37.5097143 175.292738,37.2897143 175.552854,37.0005714 C175.812969,36.7114286 175.943027,36.3531429 175.943027,35.9257143 C175.943027,35.5737143 175.871805,35.2908571 175.732457,35.0771429 C175.591561,34.8634286 175.410409,34.6952857 175.187453,34.5742857 C174.964497,34.4532857 174.712123,34.3684286 174.43188,34.3228571 C174.150088,34.2772857 173.87449,34.2458571 173.601988,34.2285714 L172.810803,34.1908571 C172.717905,34.1908571 172.614169,34.1861429 172.493401,34.1782857 C172.372633,34.1704286 172.248768,34.161 172.121807,34.1531429 C171.993298,34.1452857 171.870982,34.1342857 171.756407,34.1217143 C171.640284,34.1091429 171.541193,34.0902857 171.460681,34.0651429 C171.219145,33.9897143 171.099925,33.8262857 171.099925,33.5748571 C171.099925,33.4664286 171.129343,33.3737143 171.18663,33.2982857 C171.243918,33.2228571 171.318236,33.16 171.409587,33.1097143 C171.573707,33.1348571 171.747117,33.1552857 171.929817,33.1725714 C172.110969,33.1898571 172.290573,33.1977143 172.462435,33.1977143 C172.759709,33.1977143 173.074016,33.1662857 173.403805,33.1034286 C173.733594,33.0405714 174.03861,32.9352857 174.314209,32.7891429 C174.589807,32.643 174.817408,32.4434286 174.995463,32.192 C175.17197,31.9405714 175.26332,31.6262857 175.26332,31.2491429 C175.26332,30.9804286 175.221516,30.7541429 175.144101,30.5702857 C175.066685,30.3864286 174.941273,30.1978571 174.766314,30.0045714 C174.791087,29.8112857 174.876244,29.6714286 175.020236,29.5834286 C175.164229,29.4954286 175.325253,29.4514286 175.497115,29.4514286 C175.580723,29.4514286 175.659687,29.4577143 175.73865,29.4702857 C175.816066,29.4828571 175.896577,29.497 175.980186,29.5142857 L175.980186,28.32 C175.822259,28.287 175.653493,28.2697143 175.472342,28.2697143 C175.003205,28.2697143 174.661029,28.3561429 174.45046,28.5274286 C174.23989,28.6987143 174.105187,29.0287143 174.0479,29.5142857 C173.510638,29.3304286 172.953248,29.2377143 172.375729,29.2377143 C172.069165,29.2377143 171.747117,29.2691429 171.409587,29.332 C171.072056,29.3948571 170.759298,29.5032857 170.47441,29.6588571 C170.189521,29.8144286 169.954179,30.0187143 169.768382,30.2748571 C169.584134,30.531 169.489687,30.8515714 169.489687,31.2365714 C169.489687,31.6215714 169.590327,31.9452857 169.786962,32.2045714 L169.786962,32.2045714 Z M176.551511,35.7497143 L178.370771,35.7497143 L178.370771,32.3177143 C178.370771,32.1165714 178.383157,31.9232857 178.40793,31.7394286 C178.432703,31.5555714 178.491538,31.3701429 178.58134,31.1862857 C178.655659,31.0432857 178.760944,30.9285714 178.897195,30.8405714 C179.033446,30.7525714 179.183631,30.7085714 179.3493,30.7085714 C179.581546,30.7085714 179.753408,30.7604286 179.869531,30.8657143 C179.984106,30.971 180.064617,31.1045714 180.111067,31.268 C180.155967,31.4314286 180.179192,31.609 180.179192,31.8022857 L180.179192,32.3177143 L180.179192,35.7497143 L182,35.7497143 L182,31.8022857 C182,31.6592857 181.996903,31.5052857 181.993807,31.3371429 C181.989162,31.169 181.976775,31.0024286 181.956647,30.8342857 C181.934971,30.6661429 181.900908,30.5058571 181.851363,30.3502857 C181.801817,30.1947143 181.73524,30.058 181.653179,29.9417143 C181.462738,29.6824286 181.23204,29.5001429 180.959538,29.3948571 C180.687036,29.2895714 180.402148,29.2377143 180.104873,29.2377143 C179.64193,29.2377143 179.271885,29.3367143 178.996286,29.5331429 C178.719139,29.7295714 178.486894,30.0344286 178.298,30.4445714 L178.271679,30.4445714 L178.271679,29.3634286 L176.551511,29.3634286 L176.551511,35.7497143 Z" id="Fill-7" fill="#000000" mask="url(#mask-2)"></path>
            </g>
        </g>
    </g>
</svg>