<?xml version="1.0" encoding="UTF-8"?>
<svg width="130px" height="58px" viewBox="0 0 130 58" version="1.1" xmlns="http://www.w3.org/2000/svg" xmlns:xlink="http://www.w3.org/1999/xlink">
    <title>Group</title>
    <g id="concept" stroke="none" stroke-width="1" fill="none" fill-rule="evenodd">
        <g id="00_home-d-docencia" transform="translate(-739.000000, -2042.000000)" fill-rule="nonzero">
            <g id="Group" transform="translate(739.000000, 2042.000000)">
                <path d="M21.5317109,25 L15.0836932,25 L15.0836932,10.0438195 C15.0836932,6.6353274 13.8226883,5.20703331 10.8976336,5.20703331 C7.78332305,5.20703331 6.44871867,6.67207477 6.44871867,10.0798735 L6.44871867,25 L3.64153152e-13,25 L3.64153152e-13,10.5201487 C3.64153152e-13,7.55054497 0.298603712,5.93851402 1.14885325,4.39859112 C2.7799585,1.42829409 5.96646666,0 10.7861829,0 C14.4170919,0 16.934896,0.734254098 18.7889026,2.41908645 C19.9006056,3.48060016 20.6793585,4.80350556 21.1237593,6.33996173 C21.4195592,7.47635688 21.5317109,8.54133733 21.5317109,10.4827079 L21.5317109,25 Z M59.7340604,11.2176554 L64.6610217,11.2176554 C67.2923793,11.2176554 68.4769809,10.3391852 68.4769809,8.3922678 C68.4769809,6.48833791 67.3281276,5.60917436 64.8103236,5.60917436 L59.7340604,5.60917436 L59.7340604,11.2176554 Z M59.7340604,20.1611338 L64.1794706,20.1611338 C66.5115236,20.1611338 67.5517299,19.427573 67.5517299,17.741354 C67.5517299,16.2388718 66.4035776,15.3964556 64.3273706,15.4318163 L59.7340604,15.4318163 L59.7340604,20.1611338 Z M53.282538,25 L53.282538,0.586571262 L65.9199237,0.586571262 C68.9206808,0.586571262 70.8854371,1.10034113 72.4429429,2.38233907 C74.1462457,3.70316443 75,5.5710403 75,7.88057797 C75,10.814821 73.6646947,12.7936323 70.9968878,13.7837313 L70.5910391,13.9314141 C72.7394437,15.0275952 73.8132956,16.6784536 73.8132956,18.8798292 C73.8132956,21.1491527 72.6272921,23.09191 70.6260865,24.082009 C69.3671844,24.7053277 67.7003308,25 65.1418718,25" id="path80" fill="#1D1D1B" transform="translate(37.500000, 12.500000) scale(-1, 1) rotate(-180.000000) translate(-37.500000, -12.500000) "></path>
                <path d="M39.5140786,23.8220537 C39.5140786,23.8220537 40.2433398,16.7561482 40.0882511,16.0590697 C40.0882511,16.0590697 39.9290268,14.348317 42.427677,8.19102708 C44.9201236,2.03302726 43.3106482,6.26305849 45.3881466,1.39273725 L46.3235034,0 L47.260928,7.70903493 C47.4139487,10.49167 47.3656989,15.0439758 47.3656989,15.0439758 C47.519409,15.1518739 48.0915137,22.697642 47.987432,23.2868224 C47.882661,23.8767126 47.9364251,25.9097399 47.9364251,25.9097399 C40.295036,26.2313046 38.5787218,25.5903047 38.5787218,25.5903047 C32.965892,25.9651086 26.6748079,25.9651086 26.6748079,25.9651086 C26.3108665,24.6249007 26.1027031,22.6436929 26.1550886,22.0034029 C26.2067848,21.3588538 26.3108665,20.3962892 26.2067848,18.7387757 C26.1027031,17.0784228 26.4652659,12.259921 26.4652659,12.259921 L26.1027031,12.3642698 C26.3625628,7.81622317 26,0.857505911 26,0.857505911 L31.0931106,0.857505911 C31.3536595,1.17765092 36.3950739,13.811666 36.3950739,13.811666 C38.2154698,17.6661835 39.5140786,23.8220537 39.5140786,23.8220537 M35.4604064,10.6535171 L40.1365009,11.7779289 L41.0739256,10.8671838 L40.5548956,9.15501137" id="path82" fill="#A04F17" transform="translate(37.000000, 13.000000) scale(-1, 1) rotate(-180.000000) translate(-37.000000, -13.000000) "></path>
                <path d="M9,37.5322433 C9,35.1559696 7.50296668,34 4.99379279,34 C2.47220447,34 1,35.145019 1,37.5322433 L1,43 L3.06152442,43 L3.06152442,37.5322433 C3.06152442,36.5726996 3.32514833,35.6241065 4.99379279,35.6241065 C6.465267,35.6241065 6.93701506,36.2277567 6.93701506,37.5322433 L6.93701506,43 L9,43" id="path84" fill="#1D1D1B" transform="translate(5.000000, 38.500000) scale(-1, 1) rotate(-180.000000) translate(-5.000000, -38.500000) "></path>
                <path d="M10,42.8145938 L11.6701811,42.8145938 L11.6701811,41.8655779 L11.7066239,41.8655779 C12.1535641,42.6306533 12.9195508,43 13.6621591,43 C15.5296814,43 16,41.8802345 16,40.1917923 L16,36 L14.2445565,36 L14.2445565,39.8480946 C14.2445565,40.9693258 13.9337612,41.5233459 13.116892,41.5233459 C12.1666285,41.5233459 11.7568187,40.9568677 11.7568187,39.5718174 L11.7568187,36 L10,36" id="path86" fill="#1D1D1B" transform="translate(13.000000, 39.500000) scale(-1, 1) rotate(-180.000000) translate(-13.000000, -39.500000) "></path>
                <path d="M18.0000626,40.5159627 L20,40.5159627 L20,34 L18.0000626,34 L18.0000626,40.5159627 Z M19.9999374,41.5249706 L18,41.5249706 L18,43 L19.9999374,43 L19.9999374,41.5249706 Z" id="path88" fill="#1D1D1B" transform="translate(19.000000, 38.500000) scale(-1, 1) rotate(-180.000000) translate(-19.000000, -38.500000) "></path>
                <polyline id="path90" fill="#1D1D1B" transform="translate(24.000000, 39.500000) scale(-1, 1) rotate(-180.000000) translate(-24.000000, -39.500000) " points="24.9420163 36 23.0815259 36 21 43 22.7519346 43 24.0349864 38.2199161 24.0585286 38.2199161 25.3409264 43 27 43"></polyline>
                <path d="M32.0612469,40.2121367 C31.8854725,41.1373789 31.4637648,41.6257012 30.5275586,41.6257012 C29.3069449,41.6257012 28.9531328,40.726874 28.926729,40.2121367 L32.0612469,40.2121367 Z M28.926729,39.0570117 C28.9802911,37.9018868 29.5777732,37.3750127 30.648262,37.3750127 C31.4237818,37.3750127 32.0469134,37.8240694 32.16988,38.2345742 L33.8657636,38.2345742 C33.3233524,36.6675166 32.16988,36 30.5826295,36 C28.3692299,36 27,37.4385518 27,39.4939317 C27,41.4843447 28.4514591,43 30.5826295,43 C32.9710492,43 34.1237673,41.0988271 33.9894847,39.0570117" id="path92" fill="#1D1D1B" transform="translate(30.500000, 39.500000) scale(-1, 1) rotate(-180.000000) translate(-30.500000, -39.500000) "></path>
                <path d="M35,42.8145938 L36.6210983,42.8145938 L36.6210983,41.548995 L36.645802,41.548995 C36.9576031,42.406407 37.7995326,43 38.6267735,43 C38.7469538,43 38.8905024,42.9728853 39,42.9340452 L39,41.1943049 C38.8437656,41.2331449 38.5907194,41.2602596 38.3870806,41.2602596 C37.1372058,41.2602596 36.7045568,40.270938 36.7045568,39.0720268 L36.7045568,36 L35,36" id="path94" fill="#1D1D1B" transform="translate(37.000000, 39.500000) scale(-1, 1) rotate(-180.000000) translate(-37.000000, -39.500000) "></path>
                <path d="M40.6913079,38.3369033 C40.7038412,37.5400857 41.3555762,37.2202162 42.0567483,37.2202162 C42.5706162,37.2202162 43.2216549,37.4258466 43.2216549,38.0670135 C43.2216549,38.620359 42.4828827,38.8124235 41.2051758,39.0958792 C40.1781362,39.3264994 39.1510967,39.6977764 39.1510967,40.8680131 C39.1510967,42.5623215 40.5785076,43 41.9683184,43 C43.3845886,43 44.6873622,42.5130559 44.8259255,40.880865 L43.1346176,40.880865 C43.0837879,41.5870053 42.5580829,41.7797838 41.9188813,41.7797838 C41.5185099,41.7797838 40.9280492,41.7033864 40.9280492,41.1636067 C40.9280492,40.5074459 41.9314146,40.4181967 42.9459209,40.1747246 C43.9854938,39.9283966 45,39.5435537 45,38.3119135 C45,36.5661975 43.5217593,36 42.0442149,36 C40.5409075,36 39.0758965,36.5776214 39,38.3369033" id="path96" fill="#1D1D1B" transform="translate(42.000000, 39.500000) scale(-1, 1) rotate(-180.000000) translate(-42.000000, -39.500000) "></path>
                <path d="M46,40.5159627 L47.9999295,40.5159627 L47.9999295,34 L46,34 L46,40.5159627 Z M48,41.5249706 L46.0000705,41.5249706 L46.0000705,43 L48,43 L48,41.5249706 Z" id="path98" fill="#1D1D1B" transform="translate(47.000000, 38.500000) scale(-1, 1) rotate(-180.000000) translate(-47.000000, -38.500000) "></path>
                <path d="M51.7470283,40.941297 L53,40.941297 L53,39.681725 L51.7470283,39.681725 L51.7470283,36.2837583 C51.7470283,35.6462245 51.8916792,35.4853653 52.4702829,35.4853653 C52.6517663,35.4853653 52.8185167,35.500123 53,35.539231 L53,34.0656719 C52.7106981,34.013282 52.3376863,34 51.9994977,34 C50.9514482,34 50.0353256,34.2649012 50.0353256,35.6322046 L50.0353256,39.681725 L49,39.681725 L49,40.941297 L50.0353256,40.941297 L50.0353256,43 L51.7470283,43" id="path100" fill="#1D1D1B" transform="translate(51.000000, 38.500000) scale(-1, 1) rotate(-180.000000) translate(-51.000000, -38.500000) "></path>
                <path d="M59.0957529,39.4296787 C58.8084942,39.1605303 58.2147821,39.1469658 57.6905681,39.0441611 C57.167016,38.9292198 56.6897959,38.7357471 56.6897959,38.0682305 C56.6897959,37.3885773 57.17893,37.2200918 57.7256481,37.2200918 C59.0480971,37.2200918 59.0957529,38.3509434 59.0957529,38.7485977 L59.0957529,39.4296787 Z M55.1892995,40.7789903 C55.2839493,42.4859765 56.7023718,43 58.0843905,43 C59.3095422,43 60.7855488,42.7044365 60.7855488,41.1116777 L60.7855488,37.6577257 C60.7855488,37.0537481 60.8451186,36.4497705 61,36.1806221 L59.2863762,36.1806221 C59.2261445,36.3855176 59.1784887,36.6039776 59.1665747,36.8224375 C58.6311087,36.21846 57.8454495,36 57.0955323,36 C55.9286266,36 55,36.6289648 55,37.9904131 C55,39.4939317 56.0471042,39.8537481 57.0955323,40.0079551 C58.1300607,40.1750127 59.0957529,40.1350331 59.0957529,40.8803672 C59.0957529,41.6642529 58.5960287,41.7799082 58.0003309,41.7799082 C57.3583012,41.7799082 56.9406509,41.4971953 56.8810811,40.7789903" id="path102" fill="#1D1D1B" transform="translate(58.000000, 39.500000) scale(-1, 1) rotate(-180.000000) translate(-58.000000, -39.500000) "></path>
                <path d="M63.7461487,40.941297 L65,40.941297 L65,39.681725 L63.7461487,39.681725 L63.7461487,36.2837583 C63.7461487,35.6462245 63.8914936,35.4853653 64.4701942,35.4853653 C64.651708,35.4853653 64.8184863,35.500123 65,35.539231 L65,34.0656719 C64.7106497,34.013282 64.3369056,34 64,34 C62.9511052,34 62.0361688,34.2649012 62.0361688,35.6322046 L62.0361688,39.681725 L61,39.681725 L61,40.941297 L62.0361688,40.941297 L62.0361688,43 L63.7461487,43" id="path104" fill="#1D1D1B" transform="translate(63.000000, 38.500000) scale(-1, 1) rotate(-180.000000) translate(-63.000000, -38.500000) "></path>
                <path d="M72.2942019,37.4787855 L74.6778812,37.4787855 L73.5182534,40.7810043 L73.4931997,40.7810043 L72.2942019,37.4787855 Z M72.488189,43 L74.5612026,43 L78,34 L75.9012169,34 L75.2054402,36.0038926 L71.7680744,36.0038926 L71.0458125,34 L69,34" id="path106" fill="#1D1D1B" transform="translate(73.500000, 38.500000) scale(-1, 1) rotate(-180.000000) translate(-73.500000, -38.500000) "></path>
                <path d="M84,36.1854062 L82.3298189,36.1854062 L82.3298189,37.1344221 L82.2940637,37.1344221 C81.8484987,36.3693467 81.0804492,36 80.3392161,36 C78.4710062,36 78,37.1212312 78,38.8082077 L78,43 L79.7568187,43 L79.7568187,39.1519054 C79.7568187,38.0306742 80.0662388,37.4773869 80.8837956,37.4773869 C81.8361219,37.4773869 82.2438689,38.0431323 82.2438689,39.4281826 L82.2438689,43 L84,43" id="path108" fill="#1D1D1B" transform="translate(81.000000, 39.500000) scale(-1, 1) rotate(-180.000000) translate(-81.000000, -39.500000) "></path>
                <path d="M88.7474883,40.941297 L90,40.941297 L90,39.681725 L88.7474883,39.681725 L88.7474883,36.2837583 C88.7474883,35.6462245 88.8921634,35.4853653 89.4701942,35.4853653 C89.6523778,35.4853653 89.8198259,35.500123 90,35.539231 L90,34.0656719 C89.7106497,34.013282 89.3375754,34 89,34 C87.9524447,34 87.0361688,34.2649012 87.0361688,35.6322046 L87.0361688,39.681725 L86,39.681725 L86,40.941297 L87.0361688,40.941297 L87.0361688,43 L88.7474883,43" id="path110" fill="#1D1D1B" transform="translate(88.000000, 38.500000) scale(-1, 1) rotate(-180.000000) translate(-88.000000, -38.500000) "></path>
                <path d="M93.4959992,35.3080172 C94.7631716,35.3080172 95.1428868,36.3200845 95.1428868,37.32197 C95.1428868,38.3353948 94.7631716,39.3488197 93.4959992,39.3488197 C92.2382833,39.3488197 91.8592954,38.3353948 91.8592954,37.32197 C91.8592954,36.3200845 92.2382833,35.3080172 93.4959992,35.3080172 M91.1769718,43 L93.2326717,43 L94.4889328,41.2657063 L93.1933908,41.2657063 L91.1769718,43 Z M93.4959992,40.6554793 C95.6266237,40.6554793 97,39.3372803 97,37.32197 C97,35.3202353 95.6266237,34 93.4959992,34 C91.3748311,34 90,35.3202353 90,37.32197 C90,39.3372803 91.3748311,40.6554793 93.4959992,40.6554793" id="path112" fill="#1D1D1B" transform="translate(93.500000, 38.500000) scale(-1, 1) rotate(-180.000000) translate(-93.500000, -38.500000) "></path>
                <path d="M98,42.8145938 L99.6691884,42.8145938 L99.6691884,41.8655779 L99.7063274,41.8655779 C100.152682,42.6306533 100.918157,43 101.661623,43 C103.530261,43 104,41.8802345 104,40.1917923 L104,36 L102.242779,36 L102.242779,39.8480946 C102.242779,40.9693258 101.933287,41.5233459 101.116919,41.5233459 C100.164374,41.5233459 99.7558459,40.9568677 99.7558459,39.5718174 L99.7558459,36 L98,36" id="path114" fill="#1D1D1B" transform="translate(101.000000, 39.500000) scale(-1, 1) rotate(-180.000000) translate(-101.000000, -39.500000) "></path>
                <path d="M108.493091,37.3757267 C109.761455,37.3757267 110.141818,38.4401836 110.141818,39.4939317 C110.141818,40.5598164 109.761455,41.6257012 108.493091,41.6257012 C107.237091,41.6257012 106.858182,40.5598164 106.858182,39.4939317 C106.858182,38.4401836 107.237091,37.3757267 108.493091,37.3757267 M108.493091,43 C110.626182,43 112,41.6135645 112,39.4939317 C112,37.3885773 110.626182,36 108.493091,36 C106.374545,36 105,37.3885773 105,39.4939317 C105,41.6135645 106.374545,43 108.493091,43" id="path116" fill="#1D1D1B" transform="translate(108.500000, 39.500000) scale(-1, 1) rotate(-180.000000) translate(-108.500000, -39.500000) "></path>
                <path d="M113,42.8145938 L114.695166,42.8145938 L114.695166,41.8926926 L114.720498,41.8926926 C115.189149,42.5903476 115.874534,43 116.721765,43 C117.543663,43 118.277602,42.6834171 118.63296,41.8655779 C119.012244,42.4599037 119.696221,43 120.608191,43 C122.00007,43 123,42.3272613 123,40.561139 L123,36 L121.202097,36 L121.202097,39.8627513 C121.202097,40.7714615 121.127507,41.5233459 120.100837,41.5233459 C119.088242,41.5233459 118.899655,40.6534757 118.899655,39.7967965 L118.899655,36 L117.100345,36 L117.100345,39.8239112 C117.100345,40.61317 117.151713,41.5233459 116.011751,41.5233459 C115.6578,41.5233459 114.796496,41.2859087 114.796496,39.9550879 L114.796496,36 L113,36" id="path118" fill="#1D1D1B" transform="translate(118.000000, 39.500000) scale(-1, 1) rotate(-180.000000) translate(-118.000000, -39.500000) "></path>
                <path d="M128.094188,39.4296787 C127.809639,39.1605303 127.214073,39.1469658 126.691298,39.0441611 C126.166538,38.9292198 125.690747,38.7357471 125.690747,38.0682305 C125.690747,37.3885773 126.178449,37.2200918 126.727032,37.2200918 C128.047204,37.2200918 128.094188,38.3509434 128.094188,38.7485977 L128.094188,39.4296787 Z M124.191905,40.7789903 C124.286534,42.4859765 125.703981,43 127.083048,43 C128.309253,43 129.78692,42.7044365 129.78692,41.1116777 L129.78692,37.6577257 C129.78692,37.0537481 129.845153,36.4497705 130,36.1806221 L128.285431,36.1806221 C128.225212,36.3855176 128.17889,36.6039776 128.166317,36.8224375 C127.630969,36.21846 126.846145,36 126.09507,36 C124.928422,36 124,36.6289648 124,37.9904131 C124,39.4939317 125.047535,39.8537481 126.09507,40.0079551 C127.130032,40.1750127 128.094188,40.1350331 128.094188,40.8803672 C128.094188,41.6642529 127.595235,41.7799082 127.000331,41.7799082 C126.357119,41.7799082 125.940223,41.4971953 125.880666,40.7789903" id="path120" fill="#1D1D1B" transform="translate(127.000000, 39.500000) scale(-1, 1) rotate(-180.000000) translate(-127.000000, -39.500000) "></path>
                <path d="M3.55215048,54.4151203 C2.3153334,54.4151203 1.88851316,53.4268041 1.88851316,52.3745704 C1.88851316,51.3738832 2.38116876,50.3230241 3.55215048,50.3230241 C4.8030223,50.3230241 5.17658248,51.337457 5.17658248,52.3876289 C5.17658248,53.4268041 4.77639226,54.4151203 3.55215048,54.4151203 M5.20173307,49.9890034 L5.17658248,49.9890034 C4.73644722,49.2969072 3.96491599,49 3.08612491,49 C1.01194124,49 0,50.6563574 0,52.4247423 C0,54.1436426 1.02303709,55.7381443 3.04691958,55.7381443 C3.85765613,55.7381443 4.65729684,55.4164948 5.09595266,54.785567 L5.08189792,54.785567 L5.1100074,54.785567 L5.1100074,58 L7,58 L7,49.1725086 L5.20173307,49.1725086" id="path122" fill="#1D1D1B" transform="translate(3.500000, 53.500000) scale(-1, 1) rotate(-180.000000) translate(-3.500000, -53.500000) "></path>
                <path d="M13.0625607,55.2125663 C12.8874953,56.1371889 12.4649235,56.625561 11.5284743,56.625561 C10.3075437,56.625561 9.95363984,55.7266422 9.92647451,55.2125663 L13.0625607,55.2125663 Z M9.92647451,54.0566095 C9.98080517,52.9013668 10.5799516,52.373725 11.6499637,52.373725 C12.4234209,52.373725 13.0482235,52.8235414 13.171222,53.2340881 L14.8675458,53.2340881 C14.3249939,51.6668707 13.171222,51 11.5835595,51 C9.37033988,51 8,52.4372705 8,54.4921461 C8,56.4841901 9.45259046,58 11.5835595,58 C13.9725992,58 15.126371,56.0979192 14.9890352,54.0566095" id="path124" fill="#1D1D1B" transform="translate(11.500000, 54.500000) scale(-1, 1) rotate(-180.000000) translate(-11.500000, -54.500000) "></path>
                <path d="M20.1011152,50.538773 L22.3472119,50.538773 C23.1762082,50.538773 23.8996283,50.7896294 23.8996283,51.7222828 C23.8996283,52.6437247 23.2840149,53.0087979 22.3881041,53.0087979 L20.1011152,53.0087979 L20.1011152,50.538773 Z M20.1011152,54.3576767 L22.2275093,54.3576767 C22.9628253,54.3576767 23.5107807,54.6729991 23.5107807,55.4290719 C23.5107807,56.286048 22.8156134,56.4633292 22.0669145,56.4633292 L20.1011152,56.4633292 L20.1011152,54.3576767 Z M18,58 L22.4951673,58 C24.3144981,58 25.5449814,57.4457334 25.5449814,55.7703208 C25.5449814,54.8874182 25.0765799,54.2686858 24.2468401,53.8909997 C25.4104089,53.5756774 26,52.7320149 26,51.6094675 C26,49.7827001 24.3546468,49 22.6282528,49 L18,49" id="path126" fill="#1D1D1B" transform="translate(22.000000, 53.500000) scale(-1, 1) rotate(-180.000000) translate(-22.000000, -53.500000) "></path>
                <path d="M31.0959629,54.4303927 C30.8100596,54.1591025 30.2144275,54.1476798 29.6909332,54.0441611 C29.1674388,53.9285059 28.6909332,53.7357471 28.6909332,53.0689444 C28.6909332,52.3871494 29.1793514,52.2200918 29.7266711,52.2200918 C31.0483124,52.2200918 31.0959629,53.3509434 31.0959629,53.7485977 L31.0959629,54.4303927 Z M27.1906023,55.7782764 C27.2859034,57.4866905 28.7028458,58 30.0833885,58 C31.3097287,58 32.7862343,57.7044365 32.7862343,56.1123916 L32.7862343,52.6584396 C32.7862343,52.054462 32.8451357,51.4497705 33,51.1799082 L31.2865652,51.1799082 C31.227002,51.3862315 31.1800132,51.6039776 31.1674388,51.8224375 C30.6307081,51.217746 29.8457975,51 29.0959629,51 C27.929186,51 27,51.6296787 27,52.991127 C27,54.4932177 28.0476506,54.8537481 29.0959629,55.0079551 C30.1317009,55.1750127 31.0959629,55.1357471 31.0959629,55.8810811 C31.0959629,56.6642529 30.595632,56.7799082 30.0013236,56.7799082 C29.3567174,56.7799082 28.9410986,56.4971953 28.882859,55.7782764" id="path128" fill="#1D1D1B" transform="translate(30.000000, 54.500000) scale(-1, 1) rotate(-180.000000) translate(-30.000000, -54.500000) "></path>
                <path d="M35,57.815346 L36.6209718,57.815346 L36.6209718,56.5491469 L36.6450159,56.5491469 C36.9582568,57.4072019 37.7984639,58 38.6279846,58 C38.748205,58 38.8918016,57.9728881 39,57.9333194 L39,56.1930284 C38.8450493,56.2340626 38.5925864,56.2611745 38.3868759,56.2611745 C37.1379195,56.2611745 36.7051261,55.2704909 36.7051261,54.0709725 L36.7051261,51 L35,51" id="path130" fill="#1D1D1B" transform="translate(37.000000, 54.500000) scale(-1, 1) rotate(-180.000000) translate(-37.000000, -54.500000) "></path>
                <path d="M44.3300992,55.4831701 C44.2241361,56.2271522 43.7878557,56.626275 43.0945165,56.626275 C42.0231113,56.626275 41.6705549,55.4439004 41.6705549,54.4671563 C41.6705549,53.5175439 42.0113376,52.374439 43.0585414,52.374439 C43.8349504,52.374439 44.2823504,52.9135047 44.3883135,53.7217462 L46,53.7217462 C45.7880737,51.9631783 44.6708819,51 43.0703151,51 C41.2349286,51 40,52.4122807 40,54.4028968 C40,56.4720522 41.1289654,58 43.1056361,58 C44.5413714,58 45.8587158,57.1781926 45.9646789,55.4831701" id="path132" fill="#1D1D1B" transform="translate(43.000000, 54.500000) scale(-1, 1) rotate(-180.000000) translate(-43.000000, -54.500000) "></path>
                <path d="M51.0616338,55.2125663 C50.8866004,56.1371889 50.4648604,56.625561 49.5293371,56.625561 C48.3071212,56.625561 47.9540366,55.7266422 47.9268762,55.2125663 L51.0616338,55.2125663 Z M47.9268762,54.0566095 C47.9827059,52.9013668 48.5794792,52.373725 49.6508043,52.373725 C50.4241199,52.373725 51.0488081,52.8235414 51.1702752,53.2340881 L52.8677973,53.2340881 C52.3245903,51.6668707 51.1702752,51 49.5836578,51 C47.3708434,51 46,52.4372705 46,54.4921461 C46,56.4841901 47.45157,58 49.5836578,58 C51.9715056,58 53.1250662,56.0979192 52.9892645,54.0566095" id="path134" fill="#1D1D1B" transform="translate(49.500000, 54.500000) scale(-1, 1) rotate(-180.000000) translate(-49.500000, -54.500000) "></path>
                <polygon id="path136" fill="#1D1D1B" transform="translate(55.000000, 53.500000) scale(-1, 1) rotate(-180.000000) translate(-55.000000, -53.500000) " points="54 49 56 49 56 58 54 58"></polygon>
                <path d="M60.4930909,52.374439 C61.7621818,52.374439 62.1418182,53.4404325 62.1418182,54.4928601 C62.1418182,55.5595675 61.7621818,56.625561 60.4930909,56.625561 C59.2370909,56.625561 58.8589091,55.5595675 58.8589091,54.4928601 C58.8589091,53.4404325 59.2370909,52.374439 60.4930909,52.374439 M60.4930909,58 C62.6261818,58 64,56.6127091 64,54.4928601 C64,52.3872909 62.6261818,51 60.4930909,51 C58.3745455,51 57,52.3872909 57,54.4928601 C57,56.6127091 58.3745455,58 60.4930909,58" id="path138" fill="#1D1D1B" transform="translate(60.500000, 54.500000) scale(-1, 1) rotate(-180.000000) translate(-60.500000, -54.500000) "></path>
                <path d="M65,57.815346 L66.6698762,57.815346 L66.6698762,56.8656966 L66.7070151,56.8656966 C67.1526823,57.6299592 67.9195323,58 68.6623109,58 C70.5302613,58 71,56.8788862 71,55.1920863 L71,51 L69.2434663,51 L69.2434663,54.8491573 C69.2434663,55.9695384 68.9339752,56.5227677 68.1176066,56.5227677 C67.1650619,56.5227677 66.7565337,55.9563488 66.7565337,54.572909 L66.7565337,51 L65,51" id="path140" fill="#1D1D1B" transform="translate(68.000000, 54.500000) scale(-1, 1) rotate(-180.000000) translate(-68.000000, -54.500000) "></path>
                <path d="M77.0953011,54.4303927 C76.8100596,54.1591025 76.2144275,54.1476798 75.6909332,54.0441611 C75.1674388,53.9285059 74.6922568,53.7357471 74.6922568,53.0689444 C74.6922568,52.3871494 75.1793514,52.2200918 75.7279947,52.2200918 C77.0476506,52.2200918 77.0953011,53.3509434 77.0953011,53.7485977 L77.0953011,54.4303927 Z M73.1925877,55.7782764 C73.2859034,57.4866905 74.7041694,58 76.0833885,58 C77.3103905,58 78.7875579,57.7044365 78.7875579,56.1123916 L78.7875579,52.6584396 C78.7875579,52.054462 78.8464593,51.4497705 79,51.1799082 L77.2865652,51.1799082 C77.2263402,51.3862315 77.1793514,51.6039776 77.1674388,51.8224375 C76.6307081,51.217746 75.8457975,51 75.0966248,51 C73.929186,51 73,51.6296787 73,52.991127 C73,54.4932177 74.0483124,54.8537481 75.0966248,55.0079551 C76.1317009,55.1750127 77.0953011,55.1357471 77.0953011,55.8810811 C77.0953011,56.6642529 76.5962938,56.7799082 76.0006618,56.7799082 C75.358041,56.7799082 74.9404368,56.4971953 74.8815354,55.7782764" id="path142" fill="#1D1D1B" transform="translate(76.000000, 54.500000) scale(-1, 1) rotate(-180.000000) translate(-76.000000, -54.500000) "></path>
            </g>
        </g>
    </g>
</svg>