<?xml version="1.0" encoding="UTF-8"?>
<svg width="130px" height="49px" viewBox="0 0 130 49" version="1.1" xmlns="http://www.w3.org/2000/svg" xmlns:xlink="http://www.w3.org/1999/xlink">
    <title>uab2</title>
    <g id="concept" stroke="none" stroke-width="1" fill="none" fill-rule="evenodd">
        <g id="00_home-d-docencia" transform="translate(-784, -2326)" fill="#008539">
            <g id="uab2" transform="translate(784, 2326)">
                <path d="M0,27.7781789 L1.8514893,27.7781789 L1.8514893,32.6077016 C1.8514893,34.1843161 2.44860859,34.5886482 3.64144875,34.5886482 C4.83428891,34.5886482 5.43140819,34.18572 5.43140819,32.6077016 L5.43140819,27.7781789 L7.27031184,27.7781789 L7.27031184,32.8646209 C7.27031184,34.980345 6.06488603,36.1048937 3.64144875,36.1048937 C1.21801147,36.1048937 0,34.9915764 0,32.8646209 L0,27.7781789 L0,27.7781789 Z M14.8818347,32.1556358 L14.8818347,35.9097473 L13.0792896,35.9097473 L13.0792896,32.4378259 C13.0792896,31.459286 12.6653615,31.0689932 11.922808,31.0689932 C10.9607048,31.0689932 10.4251154,31.6797032 10.4251154,33.1355796 L10.4251154,35.9111512 L8.62257027,35.9111512 L8.62257027,29.7970317 L10.4251154,29.7970317 L10.4251154,30.9959888 C10.8152706,30.1648616 11.5088799,29.6018853 12.6178157,29.6018853 C14.2133967,29.6018853 14.8832331,30.5551544 14.8832331,32.1570397 M16.1459936,27.7781789 L18.1065585,27.7781789 L18.1065585,28.9883674 L16.1459936,28.9883674 L16.1459936,27.7781789 Z M16.2312963,29.7956278 L18.0338414,29.7956278 L18.0338414,35.9097473 L16.2312963,35.9097473 L16.2312963,29.7956278 Z M25.6453643,29.7956278 L23.5267795,35.9097473 L20.9928681,35.9097473 L18.8742833,29.7956278 L20.713187,29.7956278 L22.3199553,34.5044124 L23.9281219,29.7956278 L25.6453643,29.7956278 L25.6453643,29.7956278 Z M30.5887288,34.063578 L32.3185568,34.063578 C32.1479513,35.0421179 31.3690393,36.1062976 29.176339,36.1062976 C26.8004475,36.1062976 25.8998741,34.5647814 25.8998741,32.842158 C25.8998741,31.1195347 26.9235072,29.6018853 29.176339,29.6018853 C31.4291707,29.6018853 32.3311425,31.1054954 32.3311425,32.8295227 C32.3311425,33.0120337 32.3311425,33.1833133 32.3059712,33.3180907 L27.6660607,33.3180907 C27.7751363,34.4791416 28.3484827,34.858203 29.2126975,34.858203 C30.0041952,34.858203 30.4181233,34.5156438 30.5887288,34.063578 M27.6786463,32.2174087 L30.6139002,32.2174087 C30.5537687,31.2880064 30.1020836,30.8233053 29.2015103,30.8233053 C28.3009369,30.8233053 27.825479,31.1784998 27.6786463,32.2174087 M37.4073556,29.6987565 L37.4073556,31.459286 L36.8102363,31.459286 C35.6048105,31.459286 35.1908824,32.1191336 35.1908824,33.5006017 L35.1908824,35.9097473 L33.3883373,35.9097473 L33.3883373,29.7956278 L35.1419382,29.7956278 L35.1419382,31.1040915 C35.434205,30.2364621 35.9823801,29.6987565 37.0060131,29.6987565 L37.4073556,29.6987565 L37.4073556,29.6987565 Z M39.5385261,33.9161653 C39.5874703,34.5030084 40.0251713,34.9677096 40.9397287,34.9677096 C41.7549993,34.9677096 42.0360789,34.6869234 42.0360789,34.2587244 C42.0360789,33.8922984 41.8654734,33.6227437 41.1830513,33.5371039 L39.8182072,33.3658243 C38.6729129,33.2198155 38.0520207,32.6077016 38.0520207,31.581428 C38.0520207,30.2238267 39.1973151,29.587846 40.816669,29.587846 C42.4360229,29.587846 43.5701301,30.2364621 43.6792057,31.581428 L42.0109076,31.581428 C41.9493777,31.0802246 41.5718081,30.726434 40.816669,30.726434 C40.0615299,30.726434 39.7203188,31.0198556 39.7203188,31.4115523 C39.7203188,31.7176093 39.8783387,31.9618933 40.4880436,32.0348977 L41.7661865,32.1823105 C43.214935,32.3662254 43.7631101,32.9895708 43.7631101,34.0776173 C43.7631101,35.2765744 43.0079709,36.1077016 40.913159,36.1077016 C38.8183471,36.1077016 37.928961,35.0800241 37.8926024,33.9189731 L39.5371277,33.9189731 L39.5385261,33.9161653 Z M44.810516,27.7781789 L46.771081,27.7781789 L46.771081,28.9883674 L44.810516,28.9883674 L44.810516,27.7781789 Z M44.8958188,29.7956278 L46.6983639,29.7956278 L46.6983639,35.9097473 L44.8958188,35.9097473 L44.8958188,29.7956278 Z M48.6337575,33.7083835 L48.6337575,31.1644605 L47.5262201,31.1644605 L47.5262201,30.2968311 L48.7805901,29.7829924 L49.5231436,28.3397513 L50.4363026,28.3397513 L50.4363026,29.7942238 L52.1899035,29.7942238 L52.1899035,31.1630566 L50.4363026,31.1630566 L50.4363026,34.4651023 L52.019298,34.4651023 L52.019298,35.9083434 L50.8740036,35.9083434 C49.1441756,35.9083434 48.6337575,35.162856 48.6337575,33.7069795 M52.9688156,34.2839952 C52.9688156,33.3054553 53.3953293,32.6694745 54.9657391,32.4013237 L56.4033002,32.1570397 C56.964061,32.0587645 57.1584394,31.9001203 57.1584394,31.5449258 C57.1584394,31.1167268 56.9151168,30.8359406 56.0984478,30.8359406 C55.2817788,30.8359406 54.8804363,31.1658644 54.8566634,31.7892098 L53.0904769,31.7892098 C53.1394211,30.4807461 54.2105999,29.587846 56.0620892,29.587846 C57.9135785,29.587846 58.8155503,30.3824709 58.8155503,31.6782992 L58.8155503,34.3190935 C58.8155503,34.8947052 58.8519088,35.3832732 58.9120403,35.9083434 L57.3416305,35.9083434 C57.2801007,35.5054152 57.2437421,35.101083 57.2437421,34.5998797 C56.964061,35.4436422 56.2326947,36.0669876 54.9909104,36.0669876 C53.749126,36.0669876 52.9688156,35.3818692 52.9688156,34.2811873 M57.1584394,32.9979944 L57.1584394,32.7284396 C56.8410013,32.9488568 56.5375472,33.0344966 56.1599776,33.1201364 L55.6481611,33.2422784 C55.0020976,33.4009226 54.7461893,33.6339751 54.7461893,34.0986763 C54.7461893,34.5872443 55.1111733,34.8329322 55.5992169,34.8329322 C56.5487344,34.8329322 57.1584394,34.1365824 57.1584394,32.9993983 M60.6642428,33.7083835 L60.6642428,31.1644605 L59.555307,31.1644605 L59.555307,30.2968311 L60.809677,29.7829924 L61.5522305,28.3397513 L62.4653895,28.3397513 L62.4653895,29.7942238 L64.2189904,29.7942238 L64.2189904,31.1630566 L62.4653895,31.1630566 L62.4653895,34.4651023 L64.0483848,34.4651023 L64.0483848,35.9083434 L62.9030905,35.9083434 C61.1732625,35.9083434 60.661446,35.162856 60.661446,33.7069795 M74.1812334,34.247493 L70.5523703,34.247493 L69.9678367,35.9097473 L68.1037617,35.9097473 L70.9537128,27.7781789 L73.7798909,27.7781789 L76.629842,35.9097473 L74.765767,35.9097473 L74.1812334,34.247493 L74.1812334,34.247493 Z M73.6820025,32.8168873 L72.3661026,29.0627758 L71.0502028,32.8168873 L73.6806041,32.8168873 L73.6820025,32.8168873 Z M83.5827157,29.7956278 L83.5827157,35.9097473 L81.7801706,35.9097473 L81.7801706,34.736061 C81.402601,35.5559567 80.720179,36.1062976 79.6238288,36.1062976 C78.0282478,36.1062976 77.3220529,35.1403931 77.3220529,33.5385078 L77.3220529,29.7970317 L79.124598,29.7970317 L79.124598,33.2689531 C79.124598,34.2348576 79.5511117,34.6265544 80.3188365,34.6265544 C81.2194099,34.6265544 81.7801706,33.9540714 81.7801706,32.5726033 L81.7801706,29.7970317 L83.5827157,29.7970317 L83.5827157,29.7956278 Z M85.5292966,33.7083835 L85.5292966,31.1644605 L84.4203608,31.1644605 L84.4203608,30.2968311 L85.6747308,29.7829924 L86.4172843,28.3397513 L87.3304433,28.3397513 L87.3304433,29.7942238 L89.0840442,29.7942238 L89.0840442,31.1630566 L87.3304433,31.1630566 L87.3304433,34.4651023 L88.9134387,34.4651023 L88.9134387,35.9083434 L87.7681443,35.9083434 C86.0383163,35.9083434 85.5278982,35.162856 85.5278982,33.7069795 M89.6573906,32.8407541 C89.6573906,31.153229 90.6069081,29.6004813 93.0303454,29.6004813 C95.4537827,29.6004813 96.4046986,31.1658644 96.4046986,32.8407541 C96.4046986,34.5156438 95.4663683,36.1048937 93.0303454,36.1048937 C90.5943225,36.1048937 89.6573906,34.552146 89.6573906,32.8407541 M91.6794854,27.5703971 L94.7615718,28.6345768 L94.6147392,29.1119134 L91.3270871,28.7202166 L91.6794854,27.5703971 L91.6794854,27.5703971 Z M93.0317438,34.6869234 C94.1406796,34.6869234 94.6021535,34.2095868 94.6021535,32.8533895 C94.6021535,31.4971921 94.1392812,31.0198556 93.0317438,31.0198556 C91.9242064,31.0198556 91.4725213,31.4971921 91.4725213,32.8533895 C91.4725213,34.2095868 91.9353937,34.6869234 93.0317438,34.6869234 M103.746329,32.1556358 L103.746329,35.9097473 L101.943784,35.9097473 L101.943784,32.4378259 C101.943784,31.459286 101.529856,31.0689932 100.787302,31.0689932 C99.8251993,31.0689932 99.2896098,31.6797032 99.2896098,33.1355796 L99.2896098,35.9111512 L97.4870647,35.9111512 L97.4870647,29.7970317 L99.2896098,29.7970317 L99.2896098,30.9959888 C99.6797651,30.1648616 100.373374,29.6018853 101.48231,29.6018853 C103.077891,29.6018853 103.747728,30.5551544 103.747728,32.1570397 M104.744791,32.8407541 C104.744791,31.153229 105.694308,29.6004813 108.117746,29.6004813 C110.541183,29.6004813 111.490701,31.1658644 111.490701,32.8407541 C111.490701,34.5156438 110.55237,36.1048937 108.117746,36.1048937 C105.683121,36.1048937 104.744791,34.552146 104.744791,32.8407541 M108.117746,34.6869234 C109.225283,34.6869234 109.688156,34.2095868 109.688156,32.8533895 C109.688156,31.4971921 109.225283,31.0198556 108.117746,31.0198556 C107.010208,31.0198556 106.558523,31.4971921 106.558523,32.8533895 C106.558523,34.2095868 107.021396,34.6869234 108.117746,34.6869234 M122.890505,32.1556358 L122.890505,35.9097473 L121.08796,35.9097473 L121.08796,32.4125552 C121.08796,31.4957882 120.722976,31.0675892 119.99161,31.0675892 C119.078451,31.0675892 118.615578,31.6782992 118.615578,33.1341757 L118.615578,35.9097473 L116.849392,35.9097473 L116.849392,32.4125552 C116.849392,31.4957882 116.484408,31.0675892 115.753042,31.0675892 C114.839883,31.0675892 114.37701,31.6782992 114.37701,33.1341757 L114.37701,35.9097473 L112.574465,35.9097473 L112.574465,29.7956278 L114.37701,29.7956278 L114.37701,30.9075411 C114.741994,30.1255515 115.400643,29.5990774 116.459236,29.5990774 C117.51783,29.5990774 118.200252,30.1129162 118.468746,31.0170477 C118.83373,30.1732852 119.503566,29.5990774 120.64886,29.5990774 C122.195497,29.5990774 122.890505,30.5523466 122.890505,32.1542318 M124.056775,34.2839952 C124.056775,33.3054553 124.483289,32.6694745 126.053699,32.4013237 L127.49126,32.1570397 C128.052021,32.0587645 128.246399,31.9001203 128.246399,31.5449258 C128.246399,31.1167268 128.003076,30.8359406 127.186407,30.8359406 C126.369738,30.8359406 125.968396,31.1658644 125.944623,31.7892098 L124.178437,31.7892098 C124.227381,30.4807461 125.29856,29.587846 127.150049,29.587846 C129.001538,29.587846 129.902112,30.3824709 129.902112,31.6782992 L129.902112,34.3190935 C129.902112,34.8947052 129.93847,35.3832732 130,35.9083434 L128.428192,35.9083434 C128.36806,35.5054152 128.330303,35.101083 128.330303,34.5998797 C128.050622,35.4436422 127.319256,36.0669876 126.077472,36.0669876 C124.835687,36.0669876 124.055377,35.3818692 124.055377,34.2811873 M128.245001,32.9979944 L128.245001,32.7284396 C127.928961,32.9488568 127.624109,33.0344966 127.246539,33.1201364 L126.734722,33.2422784 C126.088659,33.4009226 125.834149,33.6339751 125.834149,34.0986763 C125.834149,34.5872443 126.199133,34.8329322 126.687177,34.8329322 C127.636694,34.8329322 128.246399,34.1365824 128.246399,32.9993983 M33.0485247,40.2464902 L33.0485247,48.8048536 L31.2459796,48.8048536 L31.2459796,47.8993181 C30.8194658,48.5970718 30.1132709,49 29.0658649,49 C27.0801287,49 26.2648581,47.5090253 26.2648581,45.7358604 C26.2648581,43.9626955 27.0801287,42.4955876 29.0658649,42.4955876 C30.1132709,42.4955876 30.8194658,42.9111512 31.2459796,43.6089049 L31.2459796,40.2464902 L33.0485247,40.2464902 L33.0485247,40.2464902 Z M31.2459796,45.7484958 C31.2459796,44.5018051 30.7593344,43.9149619 29.6266256,43.9149619 C28.4939169,43.9149619 28.0674032,44.4765343 28.0674032,45.7484958 C28.0674032,47.0204573 28.4813313,47.5820297 29.6266256,47.5820297 C30.77192,47.5820297 31.2459796,46.9951865 31.2459796,45.7484958 M38.7358411,46.9586843 L40.4656691,46.9586843 C40.2950636,47.9372242 39.5161516,49 37.3234513,49 C34.9475598,49 34.0469864,47.4598877 34.0469864,45.7358604 C34.0469864,44.0118331 35.0706195,42.4955876 37.3234513,42.4955876 C39.576283,42.4955876 40.4782548,43.9991978 40.4782548,45.723225 C40.4782548,45.90714 40.4782548,46.0784196 40.4530835,46.211793 L35.813173,46.211793 C35.9222486,47.372844 36.495595,47.7519053 37.3598098,47.7519053 C38.1513075,47.7519053 38.5652356,47.4093462 38.7358411,46.9572804 M35.8257586,45.1111111 L38.7610124,45.1111111 C38.700881,44.1817088 38.2491959,43.7170076 37.3486226,43.7170076 C36.4480492,43.7170076 35.9725912,44.0722022 35.8257586,45.1111111 M51.5941826,46.5922583 C51.5941826,47.9610911 50.7047965,48.8048536 48.9763669,48.8048536 L44.5434205,48.8048536 L44.5434205,40.6732852 L49.0616697,40.6732852 C50.7914977,40.6732852 51.485107,41.5774168 51.485107,42.6780987 C51.485107,43.8770558 50.7425535,44.4147613 49.8168088,44.6099077 C50.8278562,44.7685519 51.5941826,45.2950261 51.5941826,46.5908544 M46.3935114,42.0786201 L46.3935114,44.0230646 L48.4519648,44.0230646 C49.2560481,44.0230646 49.5483149,43.6313678 49.5483149,43.0445247 C49.5483149,42.4211793 49.279821,42.0786201 48.5134946,42.0786201 L46.3949098,42.0786201 L46.3935114,42.0786201 Z M49.6699762,46.333935 C49.6699762,45.6853189 49.3413509,45.2697553 48.4519648,45.2697553 L46.3935114,45.2697553 L46.3935114,47.3854793 L48.5610404,47.3854793 C49.3888967,47.3854793 49.6699762,46.9334136 49.6699762,46.333935 M52.6765487,47.1791015 C52.6765487,46.2005616 53.1030625,45.5645808 54.6734722,45.29643 L56.1110334,45.052146 C56.6703957,44.9538708 56.8661726,44.7952266 56.8661726,44.4400321 C56.8661726,44.0118331 56.62285,43.7310469 55.806181,43.7310469 C54.989512,43.7310469 54.5881695,44.0609707 54.5643966,44.6843161 L52.79821,44.6843161 C52.8471542,43.3758524 53.9183331,42.4829523 55.7698224,42.4829523 C57.6213117,42.4829523 58.5218851,43.2775772 58.5218851,44.5734055 L58.5218851,47.2141998 C58.5218851,47.7884075 58.5582436,48.2783795 58.6197735,48.8034497 L57.0479653,48.8034497 C56.9878339,48.4005215 56.9514753,47.9961893 56.9514753,47.494986 C56.6703957,48.3387485 55.9404279,48.9620939 54.6986435,48.9620939 C53.4568592,48.9620939 52.6765487,48.2769755 52.6765487,47.1762936 M56.8661726,45.8931007 L56.8661726,45.6235459 C56.5501328,45.8439631 56.2452804,45.9296029 55.8677108,46.0152427 L55.3558943,46.1373847 C54.7098308,46.2960289 54.4553209,46.5290814 54.4553209,46.9937826 C54.4553209,47.4823506 54.8203049,47.7280385 55.3069501,47.7280385 C56.2564676,47.7280385 56.8661726,47.0316887 56.8661726,45.8945046 M64.1113131,42.5938628 L64.1113131,44.3543923 L63.5141938,44.3543923 C62.308768,44.3543923 61.8948399,45.0142399 61.8948399,46.395708 L61.8948399,48.8048536 L60.0922948,48.8048536 L60.0922948,42.6907341 L61.8458957,42.6907341 L61.8458957,43.9991978 C62.1381625,43.1315684 62.6863376,42.5938628 63.7085722,42.5938628 L64.1099147,42.5938628 L64.1113131,42.5938628 Z M67.9709132,42.4955876 C70.0783107,42.4955876 71.113131,43.669274 71.1620752,45.1728841 L69.4084743,45.1728841 C69.3469445,44.4147613 68.9330164,43.913558 68.0072717,43.913558 C67.0325829,43.913558 66.4480492,44.3782591 66.4480492,45.7470919 C66.4480492,47.1159246 67.00881,47.5806258 67.9821004,47.5806258 C68.9553909,47.5806258 69.3707174,47.0190533 69.4434345,46.2847974 L71.1970354,46.2847974 C71.1606768,47.7154031 70.1496294,48.9985961 68.0058733,48.9985961 C65.6313802,48.9985961 64.6315201,47.4584838 64.6315201,45.7456879 C64.6315201,44.0328921 65.6062089,42.4927798 67.9695148,42.4927798 M76.6536149,46.9586843 L78.3834429,46.9586843 C78.2128374,47.9372242 77.4339253,49 75.241225,49 C72.8667319,49 71.9647602,47.4598877 71.9647602,45.7358604 C71.9647602,44.0118331 72.9883932,42.4955876 75.241225,42.4955876 C77.4940568,42.4955876 78.3960285,43.9991978 78.3960285,45.723225 C78.3960285,45.90714 78.3960285,46.0784196 78.3722556,46.211793 L73.7323451,46.211793 C73.8414208,47.372844 74.4147672,47.7519053 75.278982,47.7519053 C76.0704797,47.7519053 76.4844078,47.4093462 76.6550133,46.9572804 M73.7449308,45.1111111 L76.6801846,45.1111111 C76.6200531,44.1817088 76.1683681,43.7170076 75.2677947,43.7170076 C74.3672214,43.7170076 73.8917634,44.0722022 73.7449308,45.1111111 M79.4294504,40.2464902 L81.2319955,40.2464902 L81.2319955,48.8048536 L79.4294504,48.8048536 L79.4294504,40.2464902 Z M82.3143616,45.7358604 C82.3143616,44.0483353 83.2638792,42.4955876 85.6873165,42.4955876 C88.1107537,42.4955876 89.0602713,44.0609707 89.0602713,45.7358604 C89.0602713,47.4107501 88.121941,49 85.6873165,49 C83.2526919,49 82.3143616,47.4472523 82.3143616,45.7358604 M85.6873165,47.5820297 C86.7948539,47.5820297 87.2577262,47.1046931 87.2577262,45.7484958 C87.2577262,44.3922984 86.7948539,43.9149619 85.6873165,43.9149619 C84.5797791,43.9149619 84.128094,44.3922984 84.128094,45.7484958 C84.128094,47.1046931 84.5909663,47.5820297 85.6873165,47.5820297 M96.4046986,45.0507421 L96.4046986,48.8048536 L94.6021535,48.8048536 L94.6021535,45.3329322 C94.6021535,44.3543923 94.1882254,43.9626955 93.4456719,43.9626955 C92.4835687,43.9626955 91.9479793,44.5734055 91.9479793,46.029282 L91.9479793,48.8048536 L90.1454342,48.8048536 L90.1454342,42.6907341 L91.9479793,42.6907341 L91.9479793,43.8896911 C92.3381345,43.058564 93.0317438,42.4955876 94.1406796,42.4955876 C95.7362607,42.4955876 96.406097,43.4488568 96.406097,45.0507421 M97.5723675,47.1791015 C97.5723675,46.2005616 97.9988813,45.5645808 99.569291,45.29643 L101.006852,45.052146 C101.567613,44.9538708 101.761991,44.7952266 101.761991,44.4400321 C101.761991,44.0118331 101.518669,43.7310469 100.702,43.7310469 C99.8853307,43.7310469 99.4839883,44.0609707 99.4602154,44.6843161 L97.6940288,44.6843161 C97.742973,43.3758524 98.8141519,42.4829523 100.665641,42.4829523 C102.51713,42.4829523 103.417704,43.2775772 103.417704,44.5734055 L103.417704,47.2141998 C103.417704,47.7884075 103.454062,48.2783795 103.515592,48.8034497 L101.943784,48.8034497 C101.883653,48.4005215 101.845896,47.9961893 101.845896,47.494986 C101.566215,48.3387485 100.834848,48.9620939 99.5930639,48.9620939 C98.3512795,48.9620939 97.5709691,48.2769755 97.5709691,47.1762936 M101.760593,45.8931007 L101.760593,45.6235459 C101.443155,45.8439631 101.139701,45.9296029 100.762131,46.0152427 L100.250315,46.1373847 C99.6042512,46.2960289 99.3497413,46.5290814 99.3497413,46.9937826 C99.3497413,47.4823506 99.7147252,47.7280385 100.202769,47.7280385 C101.152286,47.7280385 101.761991,47.0316887 101.761991,45.8945046 M33.1226402,0.00561572403 L37.9093833,0.00561572403 L37.9093833,12.493582 C37.9093833,16.5720016 39.4532233,17.6151223 42.5381066,17.6151223 C45.6229898,17.6151223 47.1668298,16.5720016 47.1668298,12.493582 L47.1668298,0.00561572403 L51.9214096,0.00561572403 L51.9214096,13.1562375 C51.9214096,18.6259527 48.804363,21.5348977 42.5381066,21.5348977 C36.2718501,21.5348977 33.1226402,18.6582431 33.1226402,13.1562375 L33.1226402,0.00561572403 L33.1226402,0.00561572403 Z M96.8787582,15.3070598 C96.8787582,18.8477738 94.5797791,21.0294826 90.1090757,21.0294826 L78.6463432,21.0294826 L78.6463432,0.00561572403 L90.3286254,0.00561572403 C94.8007272,0.00561572403 96.5948818,2.34456478 96.5948818,5.19033293 C96.5948818,8.28880866 94.6734722,9.68010429 92.2807999,10.1855195 C94.8944204,10.5968712 96.8787582,11.9558765 96.8787582,15.3070598 M83.4330863,3.64179703 L83.4330863,8.66787004 L88.7554188,8.66787004 C90.8334499,8.66787004 91.5899874,7.65563578 91.5899874,6.13798636 C91.5899874,4.52627357 90.8977765,3.6403931 88.9134387,3.6403931 L83.4344847,3.6403931 L83.4330863,3.64179703 Z M91.9032303,14.6444043 C91.9032303,12.9695146 91.0529996,11.8941035 88.7540204,11.8941035 L83.4316879,11.8941035 L83.4316879,17.3638187 L89.0364984,17.3638187 C91.1774577,17.3638187 91.9018319,16.1943442 91.9018319,14.6444043" id="Shape" fill-rule="nonzero"></path>
                <path d="M68.463152,0 L61.7172423,0 L53.3757516,21.0266747 L58.0827856,21.0266747 C58.1499091,20.8455676 58.2450007,20.5900521 58.3135226,20.4243883 C58.6966858,19.4991978 59.2770242,18.7256318 59.9860159,18.0573606 C61.1480912,16.9594866 62.5660747,16.4933815 64.0330024,16.3726434 C65.0272689,16.2912154 66.1907426,16.2701564 67.1906027,16.2673486 L70.2670955,16.2673486 L72.0920151,21.0266747 L76.8018459,21.0266747 L68.463152,0 Z M66.8172284,12.5834336 C66.6913718,12.5834336 66.5725073,12.5834336 66.4620333,12.5862415 C63.979863,12.6087044 61.9409873,13.1955475 59.9706335,16.0806258 L65.0901972,3.3188929 L68.8057614,12.5820297 L66.81583,12.5820297" id="Shape"></path>
            </g>
        </g>
    </g>
</svg>