<svg id="Layer_1" data-name="Layer 1" xmlns="http://www.w3.org/2000/svg" xmlns:xlink="http://www.w3.org/1999/xlink" viewBox="0 0 185.47 258.79"><defs><style>.cls-1{fill:#fff;}.cls-1,.cls-3{fill-rule:evenodd;}.cls-2{mask:url(#mask);}</style><mask id="mask" x="0" y="185.36" width="68.43" height="73.43" maskUnits="userSpaceOnUse"><g id="mask-2"><polygon id="path-1" class="cls-1" points="0 185.37 68.43 185.37 68.43 258.79 0 258.79 0 185.37"/></g></mask></defs><g id="concept"><g id="silhouette"><g id="Group-36"><g id="Group-3"><g class="cls-2"><path id="Fill-1" class="cls-3" d="M7.15,257.48A3.8,3.8,0,0,0,6,256.7a1.3,1.3,0,0,1-.77-1.85,2.36,2.36,0,0,0,0-1.15,33.75,33.75,0,0,1-.9-11.41c.08-.89.14-1.79.21-2.68l.18-.06c.43.78,1.13.38,1.65.31a1.15,1.15,0,0,0,.9-1.17c0-1.8-.13-3.61-.14-5.41,0-1,.14-1.93.18-2.9.07-1.81.13-3.62.17-5.43a18.74,18.74,0,0,1,0-2.37c.4-2.5.87-5,1.34-7.49a21.47,21.47,0,0,1,.86-3.58A11.55,11.55,0,0,0,9.92,210c.8-3.37,1.63-6.74,2.39-10.13.55-2.42,1-4.86,1.56-7.27.12-.51.67-.93,1-1.39.83.51,1.27-.6,2.12-.49a5.63,5.63,0,0,0,2.23-.67,19.49,19.49,0,0,1,2.28-.83c1.06-.24,2.15-.32,3.22-.47a1.3,1.3,0,0,0,.41-.07c1.54-.91,3.23-.57,4.89-.61,1.15,0,2.29-.26,3.43-.4a1.38,1.38,0,0,1,.4,0c1.23.32,2.48.6,3.68,1,.47.16.82.65,1.25,1a33,33,0,0,0,6.26,3.41,14,14,0,0,1,2.69,2.06c.34.27.67.57,1,.81a12.48,12.48,0,0,1,4,3.7,35.78,35.78,0,0,1,3.57,6.93c.41,1.13.67,2.31,1,3.46.27.84.6,1.66.9,2.49,1.11,3.08,2.32,6.12,3.31,9.24.92,2.93,1.67,5.93,2.37,8.94a34.52,34.52,0,0,1,.59,4.55c.25,2.8.56,5.6.64,8.4.06,2.37-.17,4.74-.27,7.1a11.81,11.81,0,0,0,0,1.19,1.44,1.44,0,0,1-.57,1.32,2.47,2.47,0,0,0-.53,1.23c-.27,1.08-.49,2.17-.77,3.25l3.09.2a3.83,3.83,0,0,1,1.12-.73,1.9,1.9,0,0,0,1.12-2.28,20.53,20.53,0,0,1-.33-3c0-1.24.1-2.49.12-3.73,0-1.43,0-2.86,0-4.29,0-1.67-.11-3.34-.23-5-.07-1-.31-1.92-.42-2.89-.14-1.35-.13-2.73-.36-4.07a44.3,44.3,0,0,0-1.19-5.22c-.94-3.11-1.94-6.2-3-9.25a21,21,0,0,0-1.75-3.22,18,18,0,0,1-2.26-6.7,22.42,22.42,0,0,0-.53-2.26,2.61,2.61,0,0,0-.06-.27,18.52,18.52,0,0,0-.89-2.82,33.08,33.08,0,0,0-2.27-3.75,8.24,8.24,0,0,0-1.77-1.95,57.13,57.13,0,0,0-5.54-3.86,31.93,31.93,0,0,1-5.37-3.79c-.78-.71-1.72-1.24-2.55-1.9a4,4,0,0,0-3.11-.9,5.31,5.31,0,0,1-1.38,0,63.55,63.55,0,0,0-7-.69,27.68,27.68,0,0,0-8.51,1.27,45.86,45.86,0,0,0-5.72,2.7c0-.18-.11-.46-.2-.83l-.61.46c-.34-.66-.67-.71-1.11-.15-.22.3-.43.61-.67.9a5.54,5.54,0,0,0-1,1.11,16.18,16.18,0,0,0-.71,2.4c-.45,1.87-.86,3.75-1.32,5.63C7.8,202,7,205.2,6.24,208.39q-.9,4.05-1.6,8.14c-.53,3.11-1,6.24-1.4,9.38-.24,1.93-.23,3.89-.35,5.84a.83.83,0,0,1-.23.55,7,7,0,0,0-2.11,4.34,20.33,20.33,0,0,0-.18,2.71c-.08,2.29-.13,4.58-.21,6.88,0,.8-.09,1.6-.13,2.41a3.19,3.19,0,0,0,0,.69A46.73,46.73,0,0,1,.58,255a3.17,3.17,0,0,0,2.8,3.25l2.68.54,2.27-.46a2.72,2.72,0,0,1-1.18-.85"/></g></g><path id="Fill-4" class="cls-3" d="M175.85,47.56c-.3.79-1.18,1.37-1.84,2-.06.06-.43-.09-.56-.23a.56.56,0,0,1-.08-.53c.26-.55.63-1,.85-1.59s.2-1.21,1-1.47c.23-.08.31-.57.47-.87l.15,0c-.24,1-.48,1.94-.71,2.91,1-1.47.65-3.38,1.84-4.77a34,34,0,0,1-1.08,4.51Zm-9.7-2-.94.36c.13-.5.23-.86.37-1.4l.57,1Zm6.7-7.68a3.5,3.5,0,0,1-1.15,2.35c-.41.43-.7,1-1.1,1.41s-.93.88-1.4,1.32l-.35.34c-.91.94-1.21,1-2.38.36a2.73,2.73,0,0,0-.36-.14c.43-1.08.85-2.14,1.29-3.18q.76-1.83,1.59-3.63a1.68,1.68,0,0,1,.45-.57c.29-.21.9-.44.88-.55a2,2,0,0,0-.63-1.22,16,16,0,0,0-2.52-1.07.69.69,0,0,0-.94.48c-.92,2.25-1.85,4.51-2.78,6.76-.31.77-.64,1.54-1,2.31a3.11,3.11,0,0,0,.54,3.25A6,6,0,0,0,165,47.29c.18.09.52-.14.79-.19.63-.12,1.26-.22,1.89-.33,0,0,0,.11,0,.17l-1.53.23a1.1,1.1,0,0,0,0,.18l4-.41a15.55,15.55,0,0,1-1.23,1.42,39.22,39.22,0,0,1-3.67,3.29A58.59,58.59,0,0,1,160,55c-1.5.86-3.09,1.58-4.66,2.32-.22.1-.54,0-.81,0a3,3,0,0,1,.36-.54c.63-.64,1.28-1.24,1.91-1.87a15.42,15.42,0,0,0,1.45-1.58c.57-.77,1-1.61,1.57-2.41a2.55,2.55,0,0,1,.77-.93,5.88,5.88,0,0,0,2.14-2.32c.25-.38.12-.77-.26-1.21a2.71,2.71,0,0,0-1.78-.74c-.32-.07-.73.24-1.15.39.46-.85.95-1.71,1.38-2.6.5-1.06,1-2.15,1.41-3.24s1.06-2.32,1.47-3.52a8.08,8.08,0,0,0-.09-5.69,7.87,7.87,0,0,1,.08-5.33c.3-.89.95-.64,1.68.1,1.31,1.34,2.5,2.8,3.81,4.14A34.58,34.58,0,0,0,172,32.33a2.2,2.2,0,0,1,1,1.7c0,1.27-.06,2.54-.09,3.81ZM170.14,57c-2.8,2.83-8.15,5.35-11,5.07,1.06-1,1.64-1.64,1.13-3.16,3.55-.41,6.53-2.4,9.91-3.38,0,.43-.05.88-.08,1.47ZM159.2,65.45c-.95.57-1.89,1.16-2.89,1.64a4.86,4.86,0,0,1-4.82-.56c-.16-.09-.22-.36-.29-.48l3.34-1.78a1.48,1.48,0,0,1,.64-.24c1.83.08,3.65.18,5.54.42-.5.34-1,.7-1.52,1Zm-10-.65a12.66,12.66,0,0,1-5.64,1.35,18.28,18.28,0,0,1-6.95-1.85,41.17,41.17,0,0,0-4.35-1.61c-1.27-.43-2.54-.86-3.83-1.19-1.52-.4-3.1-.62-4.6-1.06a7.84,7.84,0,0,1-4.47-3.15,24.78,24.78,0,0,1-1.15-2.44c-.53-1-1.11-2.06-1.67-3.09a2.4,2.4,0,0,1-.28-.61c-.24-1.07-.41-2.17-.7-3.23a8.24,8.24,0,0,0-.78-1.46c-.72-1.34-1.43-2.69-2.14-4l.15-.13a13.22,13.22,0,0,0,1.44,1.27c1.47,1,3,1.86,4.48,2.81a3.56,3.56,0,0,1,.75.75,4.52,4.52,0,0,1,.56.88c.14.3.21.63.33,1a3.06,3.06,0,0,0,.33.81,33.44,33.44,0,0,0,2.5,2.94c1.65,1.62,3.36,3.18,5.11,4.7a20.34,20.34,0,0,0,2.9,2.15,16.86,16.86,0,0,0,6,2.06c.73.12,1.48.16,2.2.32a6.67,6.67,0,0,1,1.11.54,13.37,13.37,0,0,0,4.79,1c2.11.17,4.23.17,6.42.33-.82.34-1.65.68-2.46,1Zm-37-31a.84.84,0,0,1-.17-.64,17.78,17.78,0,0,1,1.76-6c.2.59.41,1.18.6,1.78.76,2.43,1.64,4.83,2.24,7.3a34,34,0,0,0,2.81,6.86,7.66,7.66,0,0,1,.27.72,1.37,1.37,0,0,1-1.8,0,10.38,10.38,0,0,1-4.68-6.49c-.12-.46-.09-1-.18-1.44a3.27,3.27,0,0,0-.85-2.15ZM110,19.63a4.05,4.05,0,0,1-.85-2.5,15.61,15.61,0,0,1,1.67-6.7,11.12,11.12,0,0,1,3.13-3.24,42.28,42.28,0,0,1,3.44-2.48,1.39,1.39,0,0,1,.35-.16C114.91,9.46,112,14.2,110,19.63Zm9.36,14,2.32.59c.36,1,.8,2.27,1.23,3.52.59,1.71,1.15,3.43,1.77,5.13a1.41,1.41,0,0,0,.68.61c.44.21.75.52.6,1a7.62,7.62,0,0,0,0,3.91,5.73,5.73,0,0,0,.69,1.64c0,.1.42,0,.64.07a1.62,1.62,0,0,1,.64.12c1,.63,1.35.5,1.59-.56l7,9.87c-.5-.14-1-.26-1.49-.42a16.87,16.87,0,0,1-6.09-3.92q-2-1.86-3.85-3.73A3.19,3.19,0,0,1,124,48.09l.87.07c-1.18-.48-1.22-1.48-1.45-2.49a14.64,14.64,0,0,0-1.3-3.34A27.07,27.07,0,0,1,119.28,34a1.48,1.48,0,0,1,0-.38Zm15.46,8.49c-.14.64-.28,1.27-.47,2.08a8.54,8.54,0,0,1-.06-1.37,3.23,3.23,0,0,1,.38-.8ZM138.05,13V14.5h-.29l.13-1.46ZM126.76,23.21c-.42-.41-.9-.76-1.48-1.23a11,11,0,0,1,.56-1A57.37,57.37,0,0,1,134.25,11a27.9,27.9,0,0,1,2.95-2.2,1.89,1.89,0,0,1,1.1-.35c1.91.08,2.34.44,1.58,2.31-.49-.08-1-.19-1.48-.25a4.58,4.58,0,0,0-1.17,0c-.12,0-.26.29-.29.47-.18,1.21-.33,2.43-.49,3.65,0,.16-.06.37,0,.48.65.85.13,1.72.12,2.58a5.2,5.2,0,0,0,.35,1.68c.52,1.64,2,2.14,3.38,2.66s1.45.63,1.07,2c-.13.47-.08.95-.23,1.4-.24.7-.47,1.41-.76,2.08a9.25,9.25,0,0,0-.84,3.88,2.74,2.74,0,0,1-.25,1.19,2.71,2.71,0,0,0-.34,1.87,6.36,6.36,0,0,1-.2,2.19c-.18,1.09-.39,2.17-.59,3.26,0,0,0,0,0,.07.3,1.38-.45,2.73-.06,4.14.33,1.15.45,2.37.8,3.52a11.84,11.84,0,0,0,1,1.76c.27.53.41,1.13.71,1.65a5.42,5.42,0,0,0,.86,1,8.05,8.05,0,0,1,.89,1,6.19,6.19,0,0,0,5,2.77,10.36,10.36,0,0,0,2.89,0c.41-.09.7,0,.75.47s0,.86-.56,1a1.35,1.35,0,0,1-.74-.1,5,5,0,0,0-3.06-.2,3.5,3.5,0,0,0-.76.29l0,.22,2.88,1.32a3.88,3.88,0,0,1-3.22,1.16c-.15,0-.38-.17-.4-.29a2.32,2.32,0,0,0-1.53-1.85c-.19.34-.39.7-.65,1.15a15.23,15.23,0,0,1-1.8-1.62A52.48,52.48,0,0,1,138,53a12.76,12.76,0,0,1-1.83-7.32c0-2.81-.09-5.62,0-8.43a35.52,35.52,0,0,1,.49-4.47c.19-1.35.44-2.7.74-4,.2-.9.53-1.76.8-2.64.2-.61.1-1.31.66-1.83.15-.14,0-.57,0-.8l-.9-.31c-.29.86-1-.12-1.56.33l.86,1.44c-.47.26-.48.71-.46,1.26a5.35,5.35,0,0,1-.4,1.52c-.07.21-.22.4-.27.62-.28,1.24-.58,2.47-.79,3.72-.23,1.41-.38,2.84-.56,4.27l-.39,3.24.19,0c0-.12.09-.24.16-.46.06.42.1.73.14,1.05-.89.26-.18,1-.55,1.61-.1-1-.19-1.92-.3-3-.13.14-.33.25-.34.37-.16,1.71-.38,3.42-.42,5.13a17.15,17.15,0,0,0,1.21,8c-.77-1.18-1.53-2.36-2.32-3.53s-1.78-2.56-2.63-3.86a2,2,0,0,1-.35-1.08c.06-2.65,0-5.3.3-7.94a41,41,0,0,1,1.11-5.66,34.17,34.17,0,0,1,3.1-7.51,4.72,4.72,0,0,1,.75-1.25c.54-.51.29-1,0-1.42s-.68-.79-1.29-.52a.29.29,0,0,1-.13,0c-1.69-.57-2.08.74-2.63,1.81s-1.29,2.43-1.83,3.7a25.7,25.7,0,0,0-1.47,4.16c-.52,2.25-.87,4.55-1.22,6.84a9.33,9.33,0,0,0,.07,1.9l-.23,0a7.57,7.57,0,0,0-.23-1.45,17.19,17.19,0,0,1-1.07-5,12.16,12.16,0,0,1,1-5.43c.37-.84.93-1.59,1.37-2.39a.65.65,0,0,0,0-.61ZM143,25.32l-.34,1.39-.16-.79-.66,2.13-.3-.09c.26-1.19.51-2.37.77-3.55l.25,0v1.38l.44-.5Zm-3.33,14.14a2.23,2.23,0,0,1,.07-.76c.77.28.77.28.42,2.17a13.43,13.43,0,0,1-.49-1.41Zm.3,3.26c0-.38.08-.87.13-1.37h.1c.07,1.18.15,2.36.22,3.58l-.49-.25.2,0c-.05-.61-.1-1.21-.16-1.91Zm1-9c.24.35-.23,1.4-.65,1.73-.09.06-.11.24-.15.37s-.11.4-.16.6l-.21-.06a44.82,44.82,0,0,1,1.62-8l.32.06c0,.27-.07.55-.13.82-.25,1-.51,2.07-.75,3.11a1.55,1.55,0,0,0,.11,1.4Zm17.33,10.47c.11-.36.24-.71.33-1.08.12-.54.32-1,1-1.09a2.43,2.43,0,0,1-1.31,2.17Zm-3.94,15.33c.86-.43,1.61,0,2.41.18a3.83,3.83,0,0,0,1.2-.1c.15,0,.41,0,.42,0a1.5,1.5,0,0,1,0,.52s0,0,0,.06a6.26,6.26,0,0,1-3.62,1.74,40.84,40.84,0,0,1-5.16-.56c.72-.52,1.44-1,2.12-1.55a3,3,0,0,1,2.11-.35c.18,0,.41.11.54,0Zm-.1-6.58a2.74,2.74,0,0,1-1.74,1.39c.32-.67.54-1.21.83-1.7.81-1.41,1.68-2.78,2.49-4.18.24-.43.29-1,.54-1.4.6-1,1.27-1.89,1.91-2.84.41.88-.25,1.57-.65,2.11a12.46,12.46,0,0,0-1.35,3,14.91,14.91,0,0,1-.79,1.47c-.41.71-.83,1.42-1.24,2.14Zm-2.57-18.24c-.19.63-.39,1.25-.58,1.88l-.26-.1.64-1.86Zm2.82-7.37a7.43,7.43,0,0,1-.23,1.58,7,7,0,0,1-.95,1.38,4.67,4.67,0,0,1,1.18-3Zm1.49-2.7a6,6,0,0,1-1.46,2.65l1.22-2.76.24.11Zm-14.86-8.3a1.28,1.28,0,0,0,.29-.92,3.68,3.68,0,0,0-.34-1c-.17-.43,0-.61.41-.55,1.77.26,3.53.53,5.29.84.89.16,1.76.43,2.64.65a18.87,18.87,0,0,1,5.28,2.27c.74.45,1.48.92,2.19,1.42a.55.55,0,0,1,.09.52c-.27.61-.58,1.21-.87,1.81,0,.06-.08.15-.13.16-.79,0-.69.62-.86,1.18a31.91,31.91,0,0,1-1.41,3.25c-.19.44-.31.92-.49,1.36s-.46,1-.7,1.48l0,.06-1,2.4c-.39.95-.82,1.89-1.15,2.85-.8,2.32-1.67,4.62-2.31,7-.71,2.61-1.19,5.28-1.78,7.93-.06.27-.2.52-.26.78a5.67,5.67,0,0,0-.07.82l.78-.21.4.56c-.38.38-.33.63.26.75a1.27,1.27,0,0,0,1.64-.67,6.33,6.33,0,0,0,.63-1.47c.36-1.44.58-2.92,1-4.34.66-2.34,1.42-4.66,2.15-7,.37-1.15.68-2.32,1.15-3.43,1.3-3.08,2.67-6.12,4-9.18.15-.33.32-.49.7-.34a8.13,8.13,0,0,1,.79.26c.17.09.4.35.37.48-.39,1.63.18,3.13.63,4.64a7.15,7.15,0,0,1-.26,4.7c-.69,1.81-1.41,3.63-2.24,5.39-1.18,2.53-2.48,5-3.72,7.52l-2.48,5.1c-.2.4-.39.8-.62,1.17a.56.56,0,0,1-.37.25,15,15,0,0,1-3.49-.07,6.35,6.35,0,0,1-2.55-1.48c-1.95-1.7-2.63-4.12-3.28-6.49a11.47,11.47,0,0,1-.19-3.42,46.53,46.53,0,0,1,.36-6.14c.4-2.6,1.12-5.16,1.69-7.74.39-1.81.79-3.62,1.12-5.45a3,3,0,0,0-2.57-3.62c-.46-.07-.93-.09-1.38-.17-.85-.16-1.16-.46-1.14-1.31,0-1.09.11-2.17.19-3.26,0-.44.08-.88.12-1.31l.14-.09c.11.4.23.8.34,1.21.07.26,0,.64.2.78s.69.24.82.11Zm19,5.21c.79.67.87.94.45,1.62s-.86.47-1.49.23c.36-.63.69-1.22,1-1.85ZM103.15,10.63l-.18,0,.1-.84.2.09.75-.45.12.1-1,1.14Zm-2.76,5.7a2.29,2.29,0,0,1,.59-2.49,4.62,4.62,0,0,0,.71-1.55l.67-.6.1,0Zm-1.16,4c-.43-.35-.21-1.94.46-3.64l.54.16c-.34,1.18-.67,2.32-1,3.48ZM94,49.27a.27.27,0,0,0-.08-.07c.33-.61.62-1.24,1-1.83a1.1,1.1,0,0,1,1.86-.27L94,49.27Zm-2-1.1a18,18,0,0,0-.94,2.39,4.69,4.69,0,0,1-2.16,3c-.51.35-1,.78-1.56,1.27l-1-2.33a2.7,2.7,0,0,1,.59.16c.78.47,1.46,0,2.16-.25a.75.75,0,0,0,.38-.57c0-.14-.27-.33-.46-.44a17.84,17.84,0,0,1-2.2-1.29,6.65,6.65,0,0,1-2.06-3.69c-.15-.55-.21-1-.95-1.17-.58-.1-1.37-1.56-1.34-2.19,0-1.37.07-2.74.15-4.1A3.31,3.31,0,0,1,83,37.81a1.12,1.12,0,0,0-.43-1.48,2.61,2.61,0,0,0-3.13.82c-1-.88-.81-2.26-1.44-3.27,1.19,1.28,2.91,1.2,4.35,1.78a1.65,1.65,0,0,1,.73.56c1.4,2.16,2.8,4.33,4.15,6.54.76,1.24,1.39,2.57,2.13,3.83a5.19,5.19,0,0,0,1,1.17c.25.23.59.43.83-.11,0-.1.46-.11.64,0a.58.58,0,0,1,.15.54Zm-2.7,9.07c-.37-.42-.94-.89-.87-1A6,6,0,0,1,89.57,55l.25.13c-.15.64-.29,1.27-.48,2.1Zm-.68,3.13c-.23.79-.89.39-1.37.74a7.22,7.22,0,0,1-.54-.67,3.65,3.65,0,0,1-.56-1.09,1.25,1.25,0,0,1,.29-.88c.07-.1.46,0,.66.06s.53.37.81.52c.54.28.93.56.71,1.32ZM87.08,66a3.28,3.28,0,0,1-1.14-2.28l2-.67c-.26,1-.52,1.9-.81,3Zm-6.79-7.79,1.13,2.28c-.56-.31-1.39-1.67-1.13-2.28Zm4.92,13.34c-.35.75-.59,1.55-.87,2.3-1.69-.75-2-2.43-3-3.66l.91-.69A17.79,17.79,0,0,1,79.41,64a.6.6,0,0,1,.19,0l3.85,2.73a.91.91,0,0,0,.43.21c.89,0,1,.67,1.35,1.3a3.58,3.58,0,0,1,0,3.32ZM78.52,56.23A25.18,25.18,0,0,0,77.18,54c-1-1.28-1.19-2.81-1.71-4.26-.26-.75-.67-1.45-1-2.19a2.61,2.61,0,0,1-.1-.69l.29-.12a14.42,14.42,0,0,1,1.45,2c1.14,2.34,2.2,4.71,3.27,7.08.11.24.41.58-.08.83s-.63-.09-.8-.39ZM76.23,68.15c-.2-.73-.41-1.46-.61-2.18,0,0,0-.1,0-.13-.93-1.38-.65-3.21-1.53-4.52-1.24-1.85-1.22-3.88-1.43-5.91,0-.14,0-.27,0-.41l0-.33.15-.06c.14.23.29.46.44.69.72,1.19,1.44,2.39,2.14,3.59.1.16.22.42.16.55A4,4,0,0,0,75.71,63c.55,1.2,1.12,2.38,1.71,3.56a5.23,5.23,0,0,0,.7.88l-1.89.7Zm-1.43-30c.37-.2.78-.16.94.27a33.43,33.43,0,0,0,3.71,6.29.88.88,0,0,1,.14.38l.48,3.16-.17.09-.63-.85C78,45.72,76.65,44,75.41,42.2a14.45,14.45,0,0,1-1.16-2.37,2,2,0,0,1,.55-1.7Zm3.09-11.08a20.09,20.09,0,0,1,.69-3.84,14,14,0,0,1,1.09-2.28c.14-.27.25-.55.41-.8s.38-.56.58-.84l.17.09c0,.5.06,1,.14,1.49.16.91.37,1.81.53,2.71s.3,2,.46,2.93a.66.66,0,0,1-.63.87c-.59.09-.66.39-.56.92.35,1.82.65,3.64,1,5.47-1.12-.67-2.35-1.4-3.57-2.15a.48.48,0,0,1-.19-.35,39.67,39.67,0,0,1-.08-4.22Zm9.84,6.83c-.47-1-.94-2.09-1.46-3.23,1.54.69,1.25,2.07,1.46,3.23Zm.08-13.67c-.23,2.54-.47,5.11-.71,7.63a4.44,4.44,0,0,1,.71-7.63Zm2.2,22c-.39-.71-.77-1.43-1.2-2.22.78.33.89.53,1.2,2.22Zm8.06,41.87a1.44,1.44,0,0,1,.24-.64,9.59,9.59,0,0,1,3.52-3.23c.64-.34,1.08-1,1.69-1.44a12.21,12.21,0,0,1,3.2-2,11.7,11.7,0,0,0,1.86-1.13,6.29,6.29,0,0,1,3.21-.49c1.25,0,2.49.06,3.74,0a17.58,17.58,0,0,1,4.94.73.75.75,0,0,1,.44.3c.28.46.69.52,1.18.65a2.53,2.53,0,0,1,1.35,1c1.18,1.77,2.45,3.52,2.73,5.72a20.84,20.84,0,0,1-.89,9.69,22.35,22.35,0,0,1-1,2.82c-1.64,3.21-4.1,5.29-7.89,5.41-.63,0-1.25.1-1.87.14a1,1,0,0,0,0,.16c-2.22-.16-4.47-.14-6.65-.51a10.34,10.34,0,0,1-9.53-8.41A12.27,12.27,0,0,1,97.92,90c0-2,.08-3.93.15-5.9ZM106.66,75l-7.5,5.5c.43-2.34,4.69-5.39,7.5-5.5Zm8.8-2.27c.07.41.09.59.14.92l-1.86-.2c.56-.24,1.3.34,1.72-.72Zm-14.39,27c1.62,1.57,3.81,2,5.89,3l-.55.35,1.36.54c-1.47.46-5.68-2.21-6.7-3.86Zm27.32-14.53.59.64c-.18.28-.33.54-.56.92-.08-.58-.15-1-.21-1.47l.18-.09Zm12.93-.11a19.08,19.08,0,0,1,4.15-5.55A10.22,10.22,0,0,1,150.06,77c1.1-.25,2.14-.78,3.23-1.08a15,15,0,0,1,2.06-.36c2.94.23,5.49.31,7.85,1.37a6.1,6.1,0,0,1,2.21,1.5A11.6,11.6,0,0,1,166.7,81a27.71,27.71,0,0,1,1.85,6.54,13.24,13.24,0,0,1-.42,5.24,18.25,18.25,0,0,1-.95,3,14.24,14.24,0,0,1-3.86,5.38,8,8,0,0,1-1.57,1.36,12.08,12.08,0,0,1-2.56.87c-1,.25-2,.35-2.93.62a6.58,6.58,0,0,1-5.48-.8,38.48,38.48,0,0,1-7.2-5.71,4.26,4.26,0,0,1-.87-2.28c-.34-1.34-.64-2.69-.94-4s-.71-2.93-.91-4.41a3.36,3.36,0,0,1,.46-1.76ZM160,74.37c-1.39-.13-2.63-.3-3.87-.34s-2.41.07-3.61.12a7.9,7.9,0,0,1,7.48.22Zm-84,26.3-.29.07c-.26-1.07-.51-2.13-.76-3.2l.15,0Zm2.62,37a1.18,1.18,0,0,0,.1-.4c-.12-1.65,1-3,1-4.65,0-.06.06-.11.17-.32l.67,2.13.18,0v-.93c.51,0,.69.23.68.69a9.31,9.31,0,0,0,.09,1.58A3.24,3.24,0,0,0,83,138c0-.76-.07-1.46-.1-2.22.52.1,1,.6,1.32-.18l.19,0a36.5,36.5,0,0,0,.94,3.91A18.56,18.56,0,0,0,87,143a2.26,2.26,0,0,1,.3,1.76c-.13.64-.21,1.28-.28,1.93-.1.84.77.73,1.16,1.08.12.11.57-.13.89-.23.17.14.53.59.67.53a4.48,4.48,0,0,0,1-.92c.06.13.26.36.25.57,0,.77.61.89,1.06,1.12.22.12.61-.08.79-.11a3.36,3.36,0,0,0,1,.49c.5,0,.6-.2,1.06-1.63l.21,3.05c.15,1.92.27,3.84.46,5.76a6.12,6.12,0,0,0,.49,1.52c.36,1,.72,2,1.14,2.94a4.88,4.88,0,0,0,3,2.78,5.24,5.24,0,0,0,1.39,0c-.17-.54-.33-1.12-.52-1.69-.25-.75-.53-1.49-.75-2.25a32.5,32.5,0,0,1-.86-3.22,22.94,22.94,0,0,1,0-2.35c-.11-1.59-.26-3.19-.34-4.79a2.58,2.58,0,0,0,.92,2,4,4,0,0,0,1.07.44c.45.12.59.26.45.79a19.77,19.77,0,0,0-.74,7.09,10,10,0,0,0,1,2.85c.1.22.51.32.78.47.07,0,.19.05.23.11.55.87,1.37.36,2.15.46.27.92.53,1.93.87,2.91a7.28,7.28,0,0,0,2.58,3.72,8.67,8.67,0,0,0,1.32.84c.17.09.45-.06.83-.13l.59.25.09-.13-.64-1,1.52.24.17-.09c-2-2.59-2.3-5.61-2.49-8.65l.26-.13.61,1,.68,1.12c0-.26.07-.41.1-.62a3,3,0,0,1,1,1.89,31.39,31.39,0,0,0,2,7.52,11.51,11.51,0,0,0,1.52,2.15,1.57,1.57,0,0,1,.25.48c.47,1.44.85,2.9,1.41,4.3a20.84,20.84,0,0,0,1.53,2.87c.31.54.69,1,1.18,1.75-1.47,0-2.75.05-4,0-3.24-.14-6.16-1.49-9.16-2.53a32.1,32.1,0,0,1-6.88-3c-2.13-1.35-4.3-2.67-6.41-4.05a11.12,11.12,0,0,1-1.51-1.41l.1-.14c.86.49,1.69,1,2.57,1.46,1.43.71,2.9,1.35,4.35,2l5.89,2.66a4.39,4.39,0,0,0,1.12.34c1.89.34,3.49,1.39,5.22,2.1a13.14,13.14,0,0,0,5.63,1,.79.79,0,0,0,.57-.27c.06-.11-.09-.41-.22-.55a4.68,4.68,0,0,0-3.42-1.44,7.59,7.59,0,0,1-3.13-.83c-1.91-.89-3.87-1.68-5.8-2.53-1.08-.48-2.15-1-3.21-1.5-1.3-.62-2.62-1.21-3.88-1.9s-2.67-1.57-4-2.41A24.35,24.35,0,0,1,91,168.69c-1.26-1.1-2.33-2.41-3.58-3.52a19.53,19.53,0,0,1-4.24-5.73c-1.23-2.35-2.84-4.55-3.49-7.18a3.36,3.36,0,0,0-2.27-1.54H76.28a4.76,4.76,0,0,1-.3-1c-.11-1.61-.27-3.24-.22-4.86,0-.61.56-1.2.81-1.82.15-.37.61-.73.14-1.18.86-.37.94-1.21,1.21-1.91s.48-1.48.7-2.23Zm.47-29.43c.78,1.44,2.11,1.88,3.5,2.31l.54-1c.34,1.06.74,1.94.16,3-.8,1.45-1.45,3-2.18,4.48-.18.36-.41.83-.94.51-.74-.43-1.06-1.17-.69-1.58.15-.16.45-.18.68-.27l1.3-.47c0-.1,0-.21,0-.32a9.09,9.09,0,0,1-1.3-.71,2.72,2.72,0,0,1-.76-.92,6.55,6.55,0,0,1-.29-5ZM89,116.5a6.41,6.41,0,0,1,.21-.75.51.51,0,0,1,.28-.28,1.19,1.19,0,0,1,.45.06,1,1,0,0,1-.08.44c-.3.49-.64,1-1,1.46l-.19-.06c.09-.29.2-.58.29-.87Zm2.63,23.38L93.31,142a.39.39,0,0,1,0,.33c-.46,1-.94,2-1.42,2.95l-.19,0a11.43,11.43,0,0,0,0-1.31,7.48,7.48,0,0,0-.26-1.56,3.24,3.24,0,0,1,.15-2.46Zm4.92-8.7-1.65,5c-.62-2.23-.16-3.53,1.65-5Zm8.06,30.61-.22,0a6,6,0,0,1-.19-4.72Zm.05-22,.21.07c-.28,1.37-.57,2.73-.86,4.1l-.28,0c0-.58.09-1.15.14-1.78l-.56.17c.49-.9.92-1.71,1.35-2.51Zm6.17,5.6c.25-1.15.32-2.48,1.36-3.36a47.25,47.25,0,0,0-.54,19.38c-2-5.26-2-10.63-.82-16Zm4.8,8.73c0,.53.07,1.06.11,1.59l-.3,0c0-.53-.06-1.06-.08-1.59l.27,0Zm27.32,15,.2,0-.22,1.92-.17,0c.06-.64.13-1.28.19-1.92Zm14.83-22.62c.26.74.56,1.63.87,2.51-1.38-.64-1.44-.85-.87-2.51Zm.92-7.23h-.17c0-.87-.09-1.75-.14-2.67.49.62.56,1.27.31,2.66ZM163,167.56a56.1,56.1,0,0,1,2.24,23.13H165c0-1.24,0-2.49,0-3.73-.06-2.33-.06-4.66-.26-7a33.25,33.25,0,0,0-.9-4.14c-.55-2.57-1.07-5.14-1.62-7.71-.13-.6.3-.49.71-.57ZM68.2,43.06c0,.15-.46.21-.7.3l-.22-.24.66-1.4.3.07a5.37,5.37,0,0,1,0,1.27ZM101.83,2.33l.17.25-1.34.74-.1-.17,1.27-.82Zm78.68,45.53a13.61,13.61,0,0,0,1.24-1.28,9.13,9.13,0,0,0,2.44-4.06c.29-1.53.56-3.06.79-4.6s.36-2.86.48-4.29A1.35,1.35,0,0,0,183.83,32a.5.5,0,0,1-.27,0c-1.08-.5-1.27-.39-1.34.82a25.61,25.61,0,0,1-.16,2.78c-.27,1.73-.59,3.45-1,5.16a12.82,12.82,0,0,1-1,2.69A8.93,8.93,0,0,1,178.88,45c-.14-.21-.16-.32-.14-.42.16-.91.33-1.81.5-2.71s.37-2,.58-3.06c.38-1.84.8-3.67,1.15-5.51.13-.71-.32-1.06-1-.92a1.28,1.28,0,0,0-1.07,1c-.18.74-.32,1.49-.47,2.24l-1.2,6.15c0,.26-.13.5-.22.83-.14-.47-.13-.93-.36-1.15-1-.93-.75-2.05-.65-3.18s.19-2.11.23-3.17a4.1,4.1,0,0,0-1.52-3.47c-1-.82-2-1.65-2.87-2.53s-1.88-2-2.82-3c-.66-.7-1.3-1.41-2-2.16l3.67-2v2.9l.1,0c.16-.31.33-.61.56-1.05.23.59.42,1,.6,1.49-.84.45,0,.83,0,1.39.3-.24.56-.36.65-.55.22-.48.32-1,.52-1.49a6.55,6.55,0,0,0,.39-3.13,3.37,3.37,0,0,0-1.57-2.83,1.79,1.79,0,0,0-2-.2c-.52.34-1,.79-1.46,1.18a1.41,1.41,0,0,1-1.54.4c1.31-1.73,2.55-3.4,3.82-5,.31-.4.53-.68.27-1.23s-.51-.72-1.06-.51a.42.42,0,0,1-.24,0c-.14-.35-.18-.76-.35-.82a1.48,1.48,0,0,0-1.14-.06,7,7,0,0,0-1.56,1.55c-1.42,1.92-2.78,3.88-4.15,5.83-.2.27-.38.38-.68.14s-.52-.38-.26-.79c1.19-1.85,2.33-3.75,3.58-5.56a1.25,1.25,0,0,0-.45-1.86c-.52-.38-.83-.31-1.5.47.12-.42.18-.67.26-.95-.53,0-1-.71-1.53.09-.93,1.52-1.92,3-2.8,4.56-.74,1.3-.7,1.34-1.87.52l-.41-.26a22.17,22.17,0,0,0-6-2.77c-2.11-.51-4.21-1.1-6.33-1.59-1-.23-2-.31-3.07-.46a2.22,2.22,0,0,1,0-.62c.46-1.71.91-3.44,1.44-5.13a6.94,6.94,0,0,1,.93-1.71c.34-.5.67-.49.93.06a14.28,14.28,0,0,1,.57,1.71c.13.36.28.7.45,1.14.23-.19.41-.27.45-.39a4.92,4.92,0,0,0,.11-3.6,1.78,1.78,0,0,0-2.86-.91A8,8,0,0,0,142.2,3a3.57,3.57,0,0,0-.67,1.26c-.28.91-.48,1.84-.73,2.85-.46-.21-.76-.32-1-.47a7.08,7.08,0,0,0-3.54-1.06c-1.67.09-2.83,1.13-4,2.11a44.18,44.18,0,0,0-3.69,3.68c-1,1.07-1.83,2.24-2.74,3.37-.14.18-.25.38-.4.55-.54.62-1.14,1.19-1.63,1.85s-.73,1.35-1.21,1.92a15.27,15.27,0,0,0-2.84,5.37c-.13.42.09,1-.12,1.34a14.24,14.24,0,0,0-1.39,4.92c-.45-1.22-.86-2.45-1.21-3.7-.27-1-.49-1.94-1.79-2.12-.61-.09-.62-.64-.25-1.42s.6-1.39.86-2.1a16.36,16.36,0,0,1,2.38-4.83c.11-.13.14-.54.06-.59-.71-.5-.36-1-.06-1.49C119.6,12.2,121,10,122.42,7.73a2.3,2.3,0,0,1,.92-.8,1.11,1.11,0,0,0,.48-1.69c-.65-1.16-1.84-1.23-2.9-1.59-.35-.13-.71-.23-1.06-.34,0-.08,0-.16,0-.25a6.37,6.37,0,0,0,1.16-.3,7.38,7.38,0,0,1,3.2-.66,3.36,3.36,0,0,0,.94-.28A7.1,7.1,0,0,0,123,.39,4,4,0,0,0,121.12,0a9.26,9.26,0,0,0-1.39.17,7.35,7.35,0,0,0-.82.11,11.79,11.79,0,0,0-3.46,1.55c-1.24,1-2.63,1.87-4,2.77-.15.1-.56.09-.6,0a1.7,1.7,0,0,0-1.53-.79c-.78-.07-1.56-.53-2.34.21s-1.94,1.36-2.72,2.22c-.58.65-1.54,1.19-1.42,2.12-.39.4-.69.68-1,1s-.18.85-.33,1.16A21.74,21.74,0,0,1,99.92,13a1.55,1.55,0,0,0-.3.62c-.08.67-.1,1.35-.15,2-.1,0-.27-.07-.3,0a15.48,15.48,0,0,0-.88,1.34c-.31.54.16,1.31-.49,1.78,0,0,0,0,0,.06a6.1,6.1,0,0,1-.85,3.3,4.7,4.7,0,0,0-.53,1.78c-.09,2.06-.14,4.12-.09,6.18a39,39,0,0,0,.46,4.15c.18,1.38.36,2.76.63,4.13.3,1.54.71,3.07,1.06,4.61a5.83,5.83,0,0,1,.08.84l-.19.1a2.32,2.32,0,0,1-.45-.5c-.71-1.43-1.34-2.89-2.1-4.29C95,37.49,94,36,93.08,34.41a3.35,3.35,0,0,1-.48-1.26c-.14-1.45-.2-2.91-.27-4.37a7.54,7.54,0,0,1,0-.92l.95-.45c-.14-.29-.29-.58-.42-.88s-.45-.7-.41-1a37.6,37.6,0,0,1,1-5.06,35.65,35.65,0,0,1,2.12-5.35,19.07,19.07,0,0,1,2.11-2.88.82.82,0,0,0-1-.46c-.26.06-.56-.11-.85-.17a2.46,2.46,0,0,1,.28-.73C97.13,9.47,98.15,8,99.35,6.73a11.64,11.64,0,0,1,4.8-3.46c.43-.14.53-.5.18-.72a16.56,16.56,0,0,0-1.93-1,1.65,1.65,0,0,0,.07-.24l-2.09.44c0,.14-.13.33-.19.48-.24,0-.5-.11-.63,0a13.49,13.49,0,0,0-2.31,1.67c-1,1-2.31,1.88-2.82,3.36,0,.09-.16.15-.24.22-.24.2-.57.35-.71.61-.73,1.3-1.41,2.64-2.1,4-.09.16-.17.33-.27.48a15,15,0,0,0-1.38,2.15,36.42,36.42,0,0,0-1.28,3.73c-.34,1.12-.31,1.12-1.4.67A2.11,2.11,0,0,0,86.3,19a2.61,2.61,0,0,0-2.18.6c.22-1.23.55-2.38.85-3.54.08-.32.19-.79,0-1a2.22,2.22,0,0,0-1.25-.82c-.55,0-1.31,0-1.58.72-.36,1-.71,2-1.05,3-.11.35-.16.71-.23,1a10.07,10.07,0,0,0-1-.87,4.1,4.1,0,0,0-1.19-.62A2.78,2.78,0,0,0,76,19.05c-.41,1-.76,2-1.19,3-.1.25-.48.62-.55.58-.66-.33-1.08.08-1.54.49a2.87,2.87,0,0,1-.13-.38c-.08-.46-.51-.69-.79-.36a6.56,6.56,0,0,0-2,3.52c0,.27.33.83.48.82.57,0,.74.42,1.08.67a4.3,4.3,0,0,0,.59.34c1,.48,1.85.93,1.7,2.29a8.23,8.23,0,0,0,.22,2.08c.18,1.28.19,1.28-1,1.82a3,3,0,0,1,.36-.56c.14-.18.4-.46.34-.56-.15-.28-.43-.7-.67-.72a17.28,17.28,0,0,0-3,.09,3.07,3.07,0,0,0-2.4,2.78,2,2,0,0,1-.55,1.1c-.81.85-1.73,1.6-2.53,2.46a8.93,8.93,0,0,0-2.08,7.32,9.94,9.94,0,0,0,3.3,6.13,1.65,1.65,0,0,1,.42.88,25.34,25.34,0,0,1,.26,2.61,1.82,1.82,0,0,1-.22,1c-.58,1-1.26,2-1.81,3a10.49,10.49,0,0,0-.54,1.78c-.24.75-.64,1.53.45,2,0,0,0,0,0,.06a10,10,0,0,0,5.73,4,.51.51,0,0,1,.32.22c.38,1.14.78,2.27,1.09,3.43.2.71.19,1.48.4,2.19.3,1,.59,2.16,2,2.46a6.76,6.76,0,0,1-2.32.08c-2.32-.49-3.81-2.11-5.08-4-.63-.92-1.13-1.92-1.77-2.83a1.79,1.79,0,0,0-1.1-.67A9.87,9.87,0,0,0,61,68.12a1.54,1.54,0,0,0-1,.58,2.08,2.08,0,0,0-.13,1.18,2,2,0,0,0,.35.75,14.08,14.08,0,0,0,5.88,5.69,6,6,0,0,1,.86.67c.42.3.8.77,1.26.87a11.29,11.29,0,0,0,4.56.08c1.57-.32,3.18-.43,4.75-.73a5.21,5.21,0,0,0,2-.76A2,2,0,0,1,81,76.1a2.54,2.54,0,0,1,.68.1c.37.17.94.34,1,.62a1.23,1.23,0,0,1-.5,1.09c-1.33.53-2.09,1.67-3,2.64S77.7,82.29,77,83.16a4.65,4.65,0,0,1-.67.73,2.09,2.09,0,0,0-1.11,1.81.76.76,0,0,1-.29-.44c0-.42,0-.84-.05-1.25s-.34-1.07-.18-1.46c.32-.77.67-1.63,1.56-1.9l1.08,1.16.28-.16c-.15-.75-.25-1.53-.47-2.27s-.81-1-1.59-.57c-.44.27-.82.62-1.26.88a2,2,0,0,0-1.12,2.14c.21,1.89.45,3.78.63,5.67a5.59,5.59,0,0,1,0,2.45,13.33,13.33,0,0,0-1,2.49,3.23,3.23,0,0,0,.82,3,2,2,0,0,1,.5,1.07,17.51,17.51,0,0,0,1.23,5.28,6.08,6.08,0,0,1,.88,3.25c-.14,1.22-.59,2.36-.67,3.58,0,.11-.4.3-.6.28a3,3,0,0,0-2,.24c-1.07.66-2.11,1.36-3.16,2-.35.23-.79.5-.63.93s.55.44.85.65l.13,0c1.87.75,3.72,1.18,5.46-.33a.77.77,0,0,1,.25-.07,10.51,10.51,0,0,1,.48,1.36,1.07,1.07,0,0,1-.18.75c-.48.7-1,1.34-1.5,2-.14.2-.19.71-.08.78a1.76,1.76,0,0,0,1,.24c.41,0,1.55.22,1.65.52a5.66,5.66,0,0,1,.41,1.68c0,2.41,0,4.83-.27,7.23-.25,2.58-.68,5.16-1.17,7.71a44.88,44.88,0,0,1-1.46,5.58,20.76,20.76,0,0,1-3.41,6c-.54.69-1,1.47-2.06,1.45-.14,0-.28.14-.43.21-2.29,1.12-4.57,2.27-6.89,3.35a19.11,19.11,0,0,0-4.64,2.51c-1.41,1.21-2.8,2.45-4.26,3.59a15.35,15.35,0,0,0-3.91,4.2,5.69,5.69,0,0,1-3.29,2.54c-2.94.93-5.86,2-8.82,2.82-3.21.92-6,2.7-9,4a20.63,20.63,0,0,0-4.65,3.16c-2.59,2.13-5.52,3.85-7.73,6.47A17.57,17.57,0,0,0,12.81,185a1.44,1.44,0,0,0,.13,1.16,5.09,5.09,0,0,0,1.1,1l.47-.87.66.87c.75-.93,1.44-1.8,2.15-2.66.14-.16.48-.23.53-.4.21-.86.93-1.29,1.51-1.84,1.3-1.23,2.57-2.51,3.93-3.67s2.6-1.91,3.74-3.09a9.68,9.68,0,0,1,4-2.69,10.33,10.33,0,0,0,1.67-.82,32.77,32.77,0,0,1,3.57-1.86c2.49-1,5-1.78,7.56-2.63,1.18-.4,2.39-.71,3.57-1.11a9.54,9.54,0,0,0,2.55-1A17.62,17.62,0,0,0,52.44,163c.48-.52.82-1.18,1.33-1.68s1.13-.78,1.64-1.24c.83-.73,1.61-1.5,2.38-2.29a20.35,20.35,0,0,1,4.74-3.47c1.33-.72,2.76-1.25,4.07-2,1.79-1,3.51-2.14,5.26-3.21l.2.31,1.48-1.6a17.15,17.15,0,0,0,1.18,5.45c.37.95.69,1.93,1.07,2.87a15.28,15.28,0,0,0,1,2.2c.92,1.48,2,2.88,2.88,4.36,1.59,2.52,3.8,4.52,5.8,6.67,1.72,1.85,3.65,3.51,5.5,5.23a14.09,14.09,0,0,0,2,1.65c1.91,1.22,3.86,2.41,5.83,3.53a39.4,39.4,0,0,0,4.36,2.18c1.84.77,3.73,1.42,5.63,2a37.75,37.75,0,0,0,5.9,1.63,38,38,0,0,0,6.32.12,2.5,2.5,0,0,1,2.19.75.49.49,0,0,0,.3.16c1,.13,1.91.24,2.86.36a2.29,2.29,0,0,0-.08-.28l.59-.8-1-.17,0-.2a14.6,14.6,0,0,0,9.71-3.61c.08.22.12.29.14.38.2.77.37,1.56.61,2.32.05.17.47.4.56.35a8.75,8.75,0,0,0,1-.87l.7.62a6,6,0,0,0,.73-.63,2.12,2.12,0,0,0,.56-.93c.11-.74,0-1.5.11-2.24.14-1,.38-2.07.58-3.11s.46-2.24.62-3.38c.1-.71,0-1.47.67-1.82.37,0,.81.13.86,0a5.62,5.62,0,0,0,.33-1.15,1.34,1.34,0,0,1,.46,1.89,20.49,20.49,0,0,0-.64,2.06c-.56,1.7-1,3.44-1.73,5.07a7.24,7.24,0,0,0-.32,3.51c.87-.07.67-1,1.18-1.33,0,.12.07.24.09.34a4.56,4.56,0,0,0,2.24-2.9l.26.4c.55-.94,1-1.83,1.58-2.71.24-.39.2-.95.73-1.18.12-.06.16-.32.23-.49.14-.36.29-.71.44-1.07s.29-.62.39-1c.45-1.46.74-3,1.88-4.14a13.65,13.65,0,0,1,1.17-.93q.11.24.21.51c.32-1.29,1.57-2.13,1.53-3.55,0-.38.4-.75.57-1.15A13.45,13.45,0,0,0,154,163c.1-.43,0-.93.08-1.36.22-.82.54-1.61.82-2.4.18-.53.38-1.06.56-1.58a.54.54,0,0,0,0-.18c0-.3-.06-.73.11-.89a2.31,2.31,0,0,0,.58-1.65c.07-.76.26-1.5.39-2.25.56,2.42,1,4.8,1.39,7.17.38,2.1.67,4.22,1.16,6.3q1.35,5.76,2.9,11.48c.8,2.94.62,6,.79,8.94A77.58,77.58,0,0,0,164.24,198a22.69,22.69,0,0,1,.68,4.65,138.87,138.87,0,0,1-1.29,20.79c-.19,1.24-.45,2.46-.68,3.69-.17-.57-.2-1.11-.32-1.64-.08-.33-.4-.64-.41-1,0-.58.17-1.17.21-1.75.15-2.08.35-4.16.38-6.24.05-2.57,0-5.15-.09-7.72-.07-2.35-.19-4.7-.31-7,0-.93-.22-1.86-.23-2.79s.15-2.11.14-3.17a24.69,24.69,0,0,0-.56-6.3,3.43,3.43,0,0,0-.7-1.4,2.43,2.43,0,0,0-1.24-.79,1.51,1.51,0,0,0-1.73,1.95,45.8,45.8,0,0,1,.77,5.71c.16,2.72.09,5.44.18,8.16.12,3.39.37,6.77.42,10.16a59.52,59.52,0,0,1-.36,6.25,23.83,23.83,0,0,0,.76,8.61,18.59,18.59,0,0,1,.52,3.5c.09,1.33,0,2.68,0,4a5.32,5.32,0,0,1-.18,1.7c-1.45,4-3,7.88-4.45,11.8a10.44,10.44,0,0,1-.84,1.67c-.28.46-.69.83-1,1.29a13.66,13.66,0,0,0-1.07,2.17,1.55,1.55,0,0,0,.05,1.27,1.68,1.68,0,0,0,1.26.64c1-.1,1.47-.74,1.64-1.78a6.34,6.34,0,0,1,.48-1.73,78.69,78.69,0,0,0,4-9.89c.33-1,.78-1.93,1.17-2.89a13.37,13.37,0,0,1,.49,2,21.49,21.49,0,0,0,1,3.74c1,2.32,2.3,4.54,3.4,6.84a14.81,14.81,0,0,1,1.19,5.55l1.86.41,1.14-.44a29.53,29.53,0,0,0-.38-3.53c-.51-2.64-1.84-5-3-7.41-.62-1.32-1.17-2.68-1.69-4.05a5.25,5.25,0,0,1,0-1.26,12.2,12.2,0,0,0-1.15-4.28c-.65-1.3-.4-2.72-.57-4.07a9.86,9.86,0,0,1,.5-2.88c.7-3.82,1.41-7.63,2.07-11.45a42.41,42.41,0,0,0,.57-4.63c.19-3,.23-5.94.41-8.91a88.31,88.31,0,0,0-.35-10.29c0-.65,0-1.19.63-1.56a.9.9,0,0,0,.39-1.07,2.27,2.27,0,0,1,.17-1.54,2.51,2.51,0,0,0,.43-1.69c0-.58-.05-1.17,0-1.75,0-1.26.15-2.53.14-3.8s-.12-2.74-.19-4.11a2.56,2.56,0,0,1,.07-.28c.09.28.14.45.2.62l.17,0c-.25-1.71-.48-3.42-.76-5.13-.16-1-.4-1.9-.57-2.86-.24-1.34-.4-2.7-.68-4-.2-.95-.57-1.87-.8-2.82a32.17,32.17,0,0,0-2.66-8,2.88,2.88,0,0,1-.27-1.2c0-1.07,0-2.14-.07-3.21-.11-1.42,0-2.9-1-4.13a1,1,0,0,1-.17-.58c.07-1.48.15-3,.29-4.45a1,1,0,0,1,.55-.74,1,1,0,0,0,.77-.95c.2-1.47.42-2.94.57-4.42.12-1.21.18-2.44.2-3.66,0-.8-.17-1.61-.17-2.41a11.8,11.8,0,0,0-1.61-6.06c-.75-1.27-1.07-1.39-2.46-1-.92.24-1,.45-.64,1.36a26.62,26.62,0,0,1,1,3.37,18,18,0,0,1,.23,2.56c.06.9.09,1.81.14,2.84-1-.77-1.73-.75-2.28,0-.11-.34-.21-.68-.32-1l-1.56-4.53a1.57,1.57,0,0,0-.27-.63,6.24,6.24,0,0,0-1.34-1.13c-.2-.11-.68.09-.92.29-.46.38-.21.91-.05,1.34.25.64.59,1.25.9,1.89l-1.84.33-.09-.18a7.39,7.39,0,0,0-2.73-3.75,1.56,1.56,0,0,0-1.84.1c-.17.2,0,.7,0,1.06,0,0,0,.08,0,.11a2.13,2.13,0,0,0-1.94-.46c-.1,0-.39-.16-.45-.31a17.88,17.88,0,0,1-.65-1.91,3.32,3.32,0,0,0-1.67-1.88c-.67-.42-1.16.23-1.92.24.39,1.39.75,2.69,1.11,4l-.22.12A6.19,6.19,0,0,1,142,127a2.29,2.29,0,0,0-2.18-1.52,1.58,1.58,0,0,1-.92-.43c-.38-.34-1.26-.69-1.64-.47-.53.32-.45.82-.35,1.36.24,1.34.42,2.69.63,4,.08.49.17,1,.27,1.48s.42.53.87.43c.22-.06.64,0,.72.15.34.67.76.73,1.17.38l1.31.52a6,6,0,0,0,.43.77,1.21,1.21,0,0,0,.56.45,10.57,10.57,0,0,0,1.26.15c0,.07,0,.15,0,.22l.32-.5c1.4.87,1.51-.47,2-1a5.64,5.64,0,0,0,1.05,3.48c.31.39.62.47.9,0,0-.05.12-.05.2-.09,0,.21.09.4.13.6l.64-.36a9.84,9.84,0,0,0,.68,1.16.79.79,0,0,0,.68.21,3.9,3.9,0,0,0,1.19-.59c.7-.49,1.86-.6,1.58-2.08.93,1.8.93,1.8,2,1.41l.87,4.43-.18,0a2.51,2.51,0,0,0-.36-.48c-.83-.61-1.38-1.7-2.63-1.6-.23,0-.6.08-.66.22a1.87,1.87,0,0,0-.07,1,3.8,3.8,0,0,0,.36.81c-.23.13-.39.29-.56.3-.8,0-.75.43-.55,1a40.33,40.33,0,0,1,1.16,4c.27,1.26.36,2.56.53,3.9l-.76-.27c.39-.51.56-1,.1-1.42-.69-.66-1.41-1.32-2.48-1-.66.17-1.47-.06-2,.64l.74,1.5a3,3,0,0,1-.78,0c-.54-.15-1,.14-.9.7,0,.25.17.48.21.73a6.3,6.3,0,0,1,.07,1.3,6.07,6.07,0,0,1-.8.1c-.11,0-.21.12-.31.13a1.39,1.39,0,0,1-.68-.05c-.28-.16-.47-.53-.76-.64a3.25,3.25,0,0,0-1.66-.33c-.59.14-.47.8-.33,1.32,0,.21.08.42.13.63-.32-.32-.5-.72-.8-1-.71-.64-1.34-1.45-2.49-1.38a.85.85,0,0,0-.79,1.18,14.82,14.82,0,0,0,.78,1.54c1.11,1.82,1.15,3.87,1.41,5.94a32.86,32.86,0,0,1-1.43-3.66,3.66,3.66,0,0,0-1.12-2c-.85-.77-1.83-.71-2.34.27a.79.79,0,0,1-.26.31,1,1,0,0,0-.41,1.5,2.1,2.1,0,0,1,.09.55c-.8-.3-1.09-.1-1.14.67a3,3,0,0,0,0,.42,17.62,17.62,0,0,1,.2,6,62.45,62.45,0,0,1-1.1,6.23c-.28,1.17,0,1.77,1.22,1.94-.18.86-.32,1.73-.54,2.58-.17.63.26.94.63,1.19a3,3,0,0,0,1.13.19c0-.11,0,0,0,.07-.14,1.24-.26,2.5-.45,3.73a1.12,1.12,0,0,1-.58.7c-1.63.78-3.26,1.58-4.94,2.24-2.24.88-4.62.75-7,.71a1.32,1.32,0,0,1-.86-.59c-.73-1.13-1.4-2.29-2.09-3.45a10.26,10.26,0,0,1-.67-1.27,3.36,3.36,0,0,1-.21-1,2.15,2.15,0,0,1,0-.8,1,1,0,0,0-.37-1.26,1.34,1.34,0,0,1-.49-.94,7.79,7.79,0,0,1,.07-2.59c.18-.53-.19-1.22-.26-1.84s-.48-1.34-.06-2c.93.13,1.11,0,1.14-1,0-1.31.09-2.62.13-3.93,0-.8,0-1.61,0-2.42a31.86,31.86,0,0,0-.07-4,5.73,5.73,0,0,0-1-2.56c-.74-1-1.67-2-3.21-1.73v-.88l2.34.11c.07-.25.1-.31.11-.38.08-.87-.63-1.63-.37-2.54,0-.13-.21-.34-.16-.45.18-.5.43-1,.65-1.46a.88.88,0,0,1-.21-1.42c.12-.16.31-.4.26-.52-.35-.85.11-1.58.33-2.34.37-1.32,1.16-2.45,1.47-3.85a27.79,27.79,0,0,1,2-4.92c.28-.62.62-.65,1.17-.25s.88.39,1.24-.27c.11-.2.2-.41.29-.59l1,.59.49-1.13.17.07c-.16.42-.31.85-.46,1.28-.24.68.08,1.37.75,1.3a1.71,1.71,0,0,1,1.3.49l2-4c.27.68.46,1.18.66,1.67s.45.94,1.14.67c.12,0,.3,0,.46.06s.73.18.78.1a3.11,3.11,0,0,0,.24-1,3,3,0,0,1,.09-.86c.28-.64.65-1.24,1-1.86a30.1,30.1,0,0,1-.83,3.74c-.14.48-.15.91.28,1.18a3.19,3.19,0,0,0,1,.24c.68.43.71.42,1.11-.35a13.36,13.36,0,0,0,.64-1.32c.35-.95.64-1.92.95-2.89a.51.51,0,0,0,0-.27,9.25,9.25,0,0,0-1.22-3.95,1.34,1.34,0,0,0-1.4-.78c-.38,0-.74.26-1.12.33-.59.12-1.19.18-1.78.26-.61-.56-.68-1.86-2.07-1.43-.85.27-1.93-.09-2.53,1.06-.81-.47-1.62-.62-2.27.13-.3.35-.5.51-.88.2-.07-.06-.19-.12-.25-.09-.73.32-1.67.25-2.1,1.14-.22.46-.51.88-.78,1.34-.45-.14-.9-.29-1.36-.41a3.42,3.42,0,0,0-.84-.13c-.84,0-.87.79-1.2,1.29a1.36,1.36,0,0,1-.54.5c-1,.35-2,.64-2.92,1-.43.17-.74.58-1.31.34-.19-.08-.59.15-.79.33-.57.53-1.39.85-1.53,1.77,0,.09-.21.16-.32.22a2.78,2.78,0,0,0-1.44,1.71c-.17.63-.39,1.24-.61,1.85-.27.78-.55,1.55-.78,2.2l-1.86-.93c1.47-2.29,2.58-4.76,4.82-6.44.78-.58.57-1.37-.34-1.67l-.32-.13a2.23,2.23,0,0,0-2.19.3c-.71.79-1.36,1.63-2,2.45-.37.45-.67,1.11-1.15,1.28a2.34,2.34,0,0,0-1.61,1.53,8.42,8.42,0,0,1-.6,1.14c-.07-.16-.12-.26-.23-.48-.07.7-.13,1.28-.19,1.86l-.19,0c0-.1-.08-.2-.14-.37l-.35.67-.34-.22a33.37,33.37,0,0,1,.93-4,11,11,0,0,1,1.58-2.53c.53-.74.4-1.1-.43-1.32a2.69,2.69,0,0,1-.91-.7c-.33-.3-.62-.67-1-.95a1.09,1.09,0,0,0-1.26-.05A2.53,2.53,0,0,0,98.17,130a.78.78,0,0,1-.45.44.57.57,0,0,1-.45-.31c-.07-.78-.61-.84-1.2-.87l-1.29-.12c.11-.68.23-1.33.31-2a29.64,29.64,0,0,0,.33-3.1,1.24,1.24,0,0,0-.66-.86c-.17-.08-.65.2-.82.44-.33.48-.63.33-1.06.11.25-.52.52-1,.73-1.51.11-.26.24-.72.12-.83a.86.86,0,0,1-.22-1.06.8.8,0,0,0-.1-.46,1.62,1.62,0,0,0-2.47-.53c-.51.44-1,.89-1.49,1.34l-.17-.11c.16-.37.3-.75.46-1.12a23.92,23.92,0,0,0,1.15-2.6A3.56,3.56,0,0,1,92,115a1,1,0,0,0,.34-.68c-.06-.82-.41-1-1.31-.72l-.65-.57a2.78,2.78,0,0,1,.4-.49,1.21,1.21,0,0,0,.17-1.8,18.92,18.92,0,0,0-1.36-1.48,4.44,4.44,0,0,1-.87-1.08,1.52,1.52,0,0,0-1.15-1l-.7-.18c.09-.27.16-.52.24-.75.38-1,.64-2-.56-2.83-1.43.84-1.8,2.62-3,3.77-.05-.37-.08-.65-.12-.93l-.24-.09a4.62,4.62,0,0,0-.46,1c-.29,1.25-.64,1.44-1.74.87a1.79,1.79,0,0,1-.32-.13c-.8-.61-1.62-1.22-1.6-2.36,0-.38.27-.75.27-1.12a23.85,23.85,0,0,0-.14-3.59,9.25,9.25,0,0,0-2.9-6c-.1-.08-.23-.22-.23-.33A22.43,22.43,0,0,1,76,91a21.84,21.84,0,0,1,1-3.67,7.3,7.3,0,0,1,.77-1.39L78,86a3.28,3.28,0,0,0,.24.54,2.56,2.56,0,0,0,.65.85,6.84,6.84,0,0,0,1.38.48c-.26,1.68,0,2.17,1,2.22-.09.63-.15,1.27-.28,1.89-.27,1.22-.59,2.43-.88,3.65a1.16,1.16,0,0,0,1.22,1.56c.18,0,.37.19.66.36.46,0,.62-.38.7-.87.15-.92.41-1.75,1.45-1.87,0-.23-.11-.39-.14-.57s0-.52-.07-.66c-.54-.64-.27-1.3-.17-2a13.33,13.33,0,0,0,.19-2.81c-.11-1.43-.39-2.84-.59-4.24.68.56,1.37,1.18,2.1,1.74,2.3,1.78,4.59,3.57,7,5.26.43.31,1.12.86,1.8.22,0,0,.13,0,.2,0l1.78.22a21,21,0,0,0,.56,2.43c.42,1.27,1,2.5,1.44,3.76a11.37,11.37,0,0,0,3.74,4.85,12.33,12.33,0,0,0,6.48,2.86,11.18,11.18,0,0,0,5.53-.5c1.59-.64,3.22-1.17,4.86-1.67a11,11,0,0,0,3.23-1.21c1.65-1.14,3.31-2.11,4.09-4.22a29.2,29.2,0,0,0,2.05-6.81c0-.43.13-.86.21-1.36l1.89.36a6.64,6.64,0,0,0-.15-6c-.2-.34-.2-.56.2-.83a6.43,6.43,0,0,1,2.88-1c1.44-.2,2.76-1.14,4.49-.56,0,.53.1,1.19.17,1.86,0,.29.07.59.1.89s0,.79.07,1.19a10.19,10.19,0,0,1,.26,2.23A10.77,10.77,0,0,0,139.1,94c.6,1.45,1.18,2.91,1.76,4.37.09.24.13.49.2.74.65,2.52,1.33,5,2,7.56.16.65,1.17,1.27,1.71.93a1.8,1.8,0,0,0,1-1.54,15.4,15.4,0,0,0-.24-1.81c1.65,1,3.32,2,5.1,2.94,5.12,2.56,8.5,1.41,12.19-1.11a17.93,17.93,0,0,1,3.75-2.32c1.73-.62,2.65-2,3.68-3.24a11.63,11.63,0,0,0,1.65-2.94c.46-1.08.69-2.23-.37-3.19a.56.56,0,0,1-.11-.43c.06-.79.15-1.57.21-2.36a7.23,7.23,0,0,0,.12-2.21c-.64-2.61-1.38-5.19-2.14-7.77a11.78,11.78,0,0,0-3-4.43A6.67,6.67,0,0,0,163,75c-.21,0-.54-.09-.6-.23-.57-1.28-1.77-1.69-2.91-2.2a9.16,9.16,0,0,0-5.5-.69,8.64,8.64,0,0,0-3,1.08c-1.52,1-3.32,1.31-4.79,2.45a19.18,19.18,0,0,0-3,2.56c-.82,1-1.68,1.91-2.55,2.9-.16-.19-.26-.35-.38-.47-.56-.55-1-1.39-1.69-1.56a11,11,0,0,0-4.25-.48,20.19,20.19,0,0,0-4.74,1.54,13,13,0,0,0-2.15,1.41c-.14-.22-.26-.38-.36-.55a34.73,34.73,0,0,0-1.84-3.19,12.1,12.1,0,0,0-2.34-2.65,16.88,16.88,0,0,0-7.25-3.22,14,14,0,0,0-6.89.24c-1.79.53-3.53,1.28-5.27,2a8.75,8.75,0,0,0-4,2.45,27.63,27.63,0,0,0-2.3,3.8,14,14,0,0,0-1.6,6.57V89.6a35.61,35.61,0,0,0-12.21-8.83c.37-.51.69-1,1.08-1.46.53-.6,1.12-1.15,1.65-1.76a.64.64,0,0,0,.08-.58,1.52,1.52,0,0,1-.05-1.33c.49-2.12,1.67-4,2.11-6.16.54-2.72,1.46-5.37,2.22-8a4.17,4.17,0,0,1,.26-.57l2,.62c.41.12.88.15,1-.3a1.13,1.13,0,0,0-.3-.93,13.71,13.71,0,0,0-1.8-1.42.71.71,0,0,1-.37-.91,26.54,26.54,0,0,0,.9-3.67c.18-1.52,1.23-2.4,2.15-3.36s1.85-1.5,2.71-2.32c.54-.53,1-.91,1.82-.57s2.1-.27,2-.75c-.19-.88.57-1,.82-1.55a1.7,1.7,0,0,0,.25-.64,25.49,25.49,0,0,0,0-2.9c-.1-1-.34-2-.52-3l.15-.08c.41,1,1.9,1,1.93,2.31.48-.06.59-.36.29-.76-.12-.16-.31-.28-.39-.46-.37-.83-.39-1.83-1.39-2.33-.28-.14-.33-.73-.46-1.12s-.13-.54-.2-.81a20.31,20.31,0,0,1-.65-2.61c-.16-1.51-.2-3-.27-4.55,0-1.12-.14-2.25-.07-3.37a30.31,30.31,0,0,1,.55-4.76,29.22,29.22,0,0,1,2.49-6.92,23.46,23.46,0,0,1,4.33-6,5.58,5.58,0,0,1,.65-.5c-.55,1-1.12,1.93-1.58,2.9a10.81,10.81,0,0,0-.75,6.73c.46,2.47,1,4.92,1.38,7.39a17,17,0,0,1,0,2.58c-.46-.1-.8-.15-1.14-.23-.91-.24-1.15,0-1.17,1a21.75,21.75,0,0,0,1.12,7c.16.5.49,1.21.29,1.52-.45.67,0,1,.2,1.48l.67,1.22c.66,1.27,1.31,2.55,2,3.81s1.54,2.79,2.34,4.18a.8.8,0,0,0,.42.37,1.94,1.94,0,0,1,1.39,1.62,23.94,23.94,0,0,0,1.17,3.4c.55,1.28,1.25,2.49,1.85,3.75a20.27,20.27,0,0,0,.89,2,10.53,10.53,0,0,0,3.17,2.92,13.74,13.74,0,0,0,5.68,1.88c1.25.23,2.57,0,3.84.14a9.35,9.35,0,0,1,2.9.92c1.16.58,2.19,1.43,3.34,2.05a22.68,22.68,0,0,0,3,1.27,12,12,0,0,0,2.94.83,10.7,10.7,0,0,0,5.36-.65,1.74,1.74,0,0,1,1.29,0,15.87,15.87,0,0,1,1.82,1.15,8.28,8.28,0,0,0,7.38,1,17.5,17.5,0,0,0,5.27-2.9c1.08-.85.76-.82,2.14-.25a5.73,5.73,0,0,0,1.82.27c.11,0,.33-.23.35-.38a.54.54,0,0,0-.24-.45,13.27,13.27,0,0,0-1.42-.31c-.23,0-.47,0-.71-.07-.07-.1-.14-.2-.2-.3a6.17,6.17,0,0,0,.7-.42,3.43,3.43,0,0,0,.88-.76,1.46,1.46,0,0,1,1.92-.56,4.9,4.9,0,0,0,4.95-1.41,30.64,30.64,0,0,0,2.6-3.06c.38-.47.81-.42,1.52-.32-1.14,1.24-1.25,2.9-2.55,3.83a1.42,1.42,0,0,0-.29.39c-.83,1.23-1.59,2.53-3.12,3.06a2.18,2.18,0,0,0-.77.59c-.38.41-.27.75.26.91a1.82,1.82,0,0,0,1.79-.22,25.37,25.37,0,0,0,2.39-2.11,20,20,0,0,0,2.48-3,34,34,0,0,1,3.59-5.37c.81-.85,1.61-1.71,2.39-2.59a1.65,1.65,0,0,0,.3-1.6c-.15-.7-.72-.89-1.13-1.29a1.21,1.21,0,0,0-2,.1l-.47.61-1.89,2.29c-1-.76-1.89-1.59-3.28-1.24a12.81,12.81,0,0,1,1.8-2.15c1-1,2.13-1.86,3.18-2.8Z"/><path id="Fill-6" class="cls-3" d="M132.23,168.72c0-.9,0-1.8.14-2.7.21-2,.53-4,.68-6.08a40.26,40.26,0,0,0,0-4.53,2.37,2.37,0,0,0-.52-1.28,2.74,2.74,0,0,0-2.43-.76c-.07,1.41-.13,2.79-.2,4.12l-1.81.23a16.45,16.45,0,0,1,.36,1.71c.2,1.72.41,3.44.52,5.17a8,8,0,0,1-.29,1.92c-.32,1.75-.65,3.5-1,5.38-.25-1.32-.49-2.5-.7-3.68s-.37-2.26-.51-3.4c-.22-1.68-.4-3.37-.61-5a10.79,10.79,0,0,1,.1-4.56,9.1,9.1,0,0,0,.39-1.76,1.17,1.17,0,0,0-.43-.82,16.78,16.78,0,0,1-1.74-1.35,3.82,3.82,0,0,0-2.13-1.18c-.42-.11-.87-.12-1.29-.22-.65-.17-1.1.17-.83.79a7.43,7.43,0,0,1,.4,2.55c.08,1.49.26,3,.42,4.44.25,2.33.47,4.66.79,7,.22,1.68.63,3.33.86,5a20.22,20.22,0,0,0,3,8.58,2.91,2.91,0,0,0,1.62,1.18,5.11,5.11,0,0,0,.7.17c0-.13,0-.26,0-.46.44.27.8.51,1.18.72.15.08.37.18.49.12s.19-.29.2-.46c.05-.72.06-1.45.08-2.18,0-1.33.25-1.57,1.4-1.74.23-1.27.47-2.5.69-3.74,0-.06-.05-.13-.05-.2,0-.84-.37-1.73.4-2.46.09-.09.07-.31.08-.47"/><path id="Fill-8" class="cls-3" d="M172.78,119a24,24,0,0,0-1.7-3.11,1.91,1.91,0,0,0-2.49-.24c-.7.53-.05,1.07.14,1.6a1.82,1.82,0,0,1,0,.25c-.3,0-.6.06-.89,0-.74,0-1.06.39-.93,1.08a30.94,30.94,0,0,1,.49,3.16,14,14,0,0,1-.15,2.13L167,124a4.6,4.6,0,0,0-4.56-2,1.31,1.31,0,0,0,.45,1.49,4.42,4.42,0,0,1,1.26,1.37,15.16,15.16,0,0,1,1.69,6.93.42.42,0,0,0,.07.26,2.68,2.68,0,0,1,.6,1.85c.15,1.61.41,3.21.57,4.82.11,1.06.12,2.13.2,3.19,0,.53.1,1.09.87,1l.4-1.24.21,0c0,.35-.07.69-.12,1.19.44-.18,1.09-.26,1.16-.51a14.64,14.64,0,0,0,.73-3.56,21.27,21.27,0,0,0-.44-3.22c-.17-1.28-.36-2.57-.42-3.86s-.7-2.28-.23-3.49a14.27,14.27,0,0,0,.5-1.76c.21-.87.41-1.74.62-2.63.07.05.12.08.13.11.2,2.29.37,4.58.62,6.87.16,1.43-.3,2.95.65,4.38a4.51,4.51,0,0,0,.43-.74.79.79,0,0,1,1-.58c.44.13.51-.07.58-.35a20.14,20.14,0,0,0,.58-2.62,25.69,25.69,0,0,0,0-3,22.52,22.52,0,0,0-1.8-8.88"/><path id="Fill-10" class="cls-3" d="M140.85,117.92c-.2.19-.53.46-.74.41-.93-.21-1.52.47-2.18.84a21.61,21.61,0,0,0-2.63,2,5.11,5.11,0,0,0-1-.63,4.91,4.91,0,0,0-1.56-.26,2.31,2.31,0,0,1-1.73-.56c-.76-.64-1.51-1.3-2.26-2a1.61,1.61,0,0,0-1.55-.55.85.85,0,0,1-.52-.06,3.48,3.48,0,0,0-3.65.63.84.84,0,0,0,.18,1.52,6.61,6.61,0,0,1,1.37.79,1.46,1.46,0,0,0,1.88.22,1.91,1.91,0,0,1,2.26.09c1,.75,2,1.35,3,2.07a2.05,2.05,0,0,0,2.16.27,1.49,1.49,0,0,1,1.57.37c1,.81,1.06.88,2.2.36.92-.42,1.69-1.22,2.82-1.11a5,5,0,0,1,1.18.12c.42.14.67.15.94-.26a12.81,12.81,0,0,1,1.2-1.62,1.75,1.75,0,0,0,0-2.48c-1.13-.9-1.83-1.22-3-.14"/><path id="Fill-12" class="cls-3" d="M142.12,141.46a.59.59,0,0,0-.07-.56c-.58-.52-.51-1.28-.6-1.91s-.28-.9-.82-1-.83-.11-1.24-.17c-.15,0-.39-.05-.42-.13-.21-.63-.7-.5-1.15-.45-1.7.19-3.4.4-5.09.6,0-.07,0-.14,0-.21-1.81.07-3.62.11-5.43.23a23.08,23.08,0,0,0-3.31.44,1.81,1.81,0,0,0-.92.82c-.09.15.1.63.29.76.38.25.82.66,1.33.12a1,1,0,0,1,.66-.16c.8,0,1.6.12,2.4.11,2.08,0,4.17-.12,6.25-.13,1.52,0,3,.08,4.56.1a.72.72,0,0,1,.78.54c.37,1.08,1.37,1.13,2.26,1.32a.7.7,0,0,0,.54-.31"/><path id="Fill-14" class="cls-3" d="M175.7,69.63a1.3,1.3,0,0,0-1,.15c-.18.09-.26.39-.39.6l-.25.18-.28-.87-.11.19v4.3h.16l.51-1.66a8.59,8.59,0,0,1,.24,1.45c.08.61,0,1.07-.7,1.31a2.59,2.59,0,0,0-1.13.78,22,22,0,0,0-1.58,2.54c-.29.55.19,1.09.85,1.06a5.55,5.55,0,0,1,.81.1l.43-.4c0,.37,0,.63,0,1l.31-.33c0,.49.34.77.72.57a1.56,1.56,0,0,0,.67-.93c.08-.4-.86-.83-1.66-.79.41-.76.78-1.49,1.2-2.21.07-.13.29-.18.44-.27s.3-.08.35-.18a5.2,5.2,0,0,0,.79-1.58,31.77,31.77,0,0,0,.32-4.13c0-.3-.46-.7-.79-.86"/><path id="Fill-16" class="cls-3" d="M135.26,145.24l-.12-.32a8.86,8.86,0,0,0-1.64.12,6.76,6.76,0,0,1-4.31,0c-1.34-.52-2.68-1-4-1.53a2.76,2.76,0,0,0-1-.24,1,1,0,0,0-.75.33c-.1.16,0,.54.15.75a3.55,3.55,0,0,0,2.09,1.49,41.37,41.37,0,0,0,4.61,1.26,5.22,5.22,0,0,0,4.31-1,4.76,4.76,0,0,0,.69-.84"/><path id="Fill-18" class="cls-3" d="M84.11,96.3c-1.12,1.2-2.2,2.44-3.26,3.7a1,1,0,0,0-.06.87c.19.32.28.93,1,.69.17,0,.43.11.69.2a1,1,0,0,0,1.43-.72,7.82,7.82,0,0,1,2.31-3.46.94.94,0,0,0-.1-1.57,1.44,1.44,0,0,0-2,.29"/><path id="Fill-20" class="cls-3" d="M136,148.44a15.74,15.74,0,0,0,2.26-1.2,4.68,4.68,0,0,1,2.51-1.29.47.47,0,0,0,.19-.06,1.43,1.43,0,0,0,.67-1.6c-.26-.51-.91-.55-1.58-.18a5.59,5.59,0,0,1-1,.3c-.27.09-.76.25-.75.35.06.76-.55.84-1,1-.73.28-1.51.45-2.26.68-.6.18-.85.67-.47,1a10,10,0,0,0,1.46,1"/><path id="Fill-22" class="cls-3" d="M169.43,105.87a2.77,2.77,0,0,0,.5,2.33l.32-.34c.28.26.51.63.8.69.65.15,1.33-.64,1.26-1.33a2.07,2.07,0,0,0-1.63-1.85c-.42,0-1.19.24-1.25.5"/><path id="Fill-24" class="cls-3" d="M171.88,103.08a1.47,1.47,0,0,0,.16.35c.15.2.41.57.48.54a3.58,3.58,0,0,0,1-.67c0-.06-.14-.46-.3-.62a1.83,1.83,0,0,0-2.07.14c-.39.4-.24.62.23.79l.5-.53"/><path id="Fill-26" class="cls-3" d="M105.37,42.22c.1,0,.4-.14.4-.16a2.05,2.05,0,0,0-.36-1c-.23-.23-.59-.69-.93-.28a7.39,7.39,0,0,0,.39,1,1.23,1.23,0,0,0,.5.43"/><path id="Fill-28" class="cls-3" d="M178.07,34.49l-.28-.06L177,38.76l.23.05c.3-1.44.59-2.88.89-4.32"/><path id="Fill-30" class="cls-3" d="M104.49,30.8c-.4-.34-.81-.65-1.22-1,0,.75.47,1.06.94,1.37a.31.31,0,0,0,.3-.05c0-.1,0-.3,0-.35"/><path id="Fill-32" class="cls-3" d="M76.64,124.86c-.1,0-.28.08-.28.12,0,.3,0,.61.06.92l.34,0-.12-1"/><path id="Fill-34" class="cls-3" d="M95.08,156.29l-.25-1.41-.14,0c0,.47,0,.95.07,1.43l.32,0"/></g></g></g></svg>