<svg id="Layer_1" data-name="Layer 1" xmlns="http://www.w3.org/2000/svg" xmlns:xlink="http://www.w3.org/1999/xlink" viewBox="0 0 29 36.37"><defs><style>.cls-1{fill:none;}.cls-2{clip-path:url(#clip-path);}.cls-3{fill:#fff;}</style><clipPath id="clip-path" transform="translate(0 0)"><rect class="cls-1" width="29" height="36.37"/></clipPath></defs><g class="cls-2"><path d="M2.62,20a9.4,9.4,0,0,1,4.09,5.46,10.5,10.5,0,0,0,3.46,5.36l.12.09,0,.14a5,5,0,0,0,.91,3.73l0,0c1,1.51,3.63,2,8,1.25s6.66-2.32,6.66-4.82a8.48,8.48,0,0,0-.18-2.58,2.56,2.56,0,0,0-.18-.47L25.45,28l.1-.12.55-.7,0,0a11.93,11.93,0,0,0,1-1.64l.31-.6A14.41,14.41,0,0,0,29,18.83a12.21,12.21,0,0,0-1-5.29v0a4.46,4.46,0,0,0-4.3-2.84,2.17,2.17,0,0,0-.48.05l-.13,0-.09-.1a3.2,3.2,0,0,0-2.48-1.14,3.3,3.3,0,0,0-1.23.3l0,0a2.19,2.19,0,0,0-.5.27l-.13.1-.14-.09a3.26,3.26,0,0,0-1.77-.47,3.12,3.12,0,0,0-.52,0l-.26,0,0-.26A10.91,10.91,0,0,1,15.88,8v0h0a13.53,13.53,0,0,1,.2-2.29c.59-3.17,0-4.93-1.86-5.41a3.07,3.07,0,0,0-3.93,1.45L10.1,2A10.21,10.21,0,0,0,8.91,7.56a25.6,25.6,0,0,0,.42,3.85h0c.11.66.25,1.31.42,2l.13.51a26.72,26.72,0,0,1,.76,3.69l.12,1-.57-.84a12.36,12.36,0,0,0-4.18-4l-.3-.16A3.44,3.44,0,0,0,.78,14.73l-.3.43C-.58,16.85.11,18.42,2.62,20Z" transform="translate(0 0)"/><path class="cls-3" d="M2.33,15.85c-.5.81-.11,1.63,1.29,2.5a11.17,11.17,0,0,1,4.92,6.53,8.59,8.59,0,0,0,3.13,4.65h0a7.41,7.41,0,0,0,4.4.46,1.2,1.2,0,0,1,1.42.93,1.14,1.14,0,0,1-.17.9,1.16,1.16,0,0,1-.75.53,9.33,9.33,0,0,1-4.42-.13,3.22,3.22,0,0,0,.56,1.39l0,0c.76.85,2.83,1,6.19.51s4.88-1.54,5-3c0-.38,0-.71,0-1a12.33,12.33,0,0,1-1.37.94l-1.65,1,.53-.54a1.28,1.28,0,0,1-.32-.06,1.22,1.22,0,0,1-.71-.59,1.22,1.22,0,0,1,.5-1.63l.41-.23,0,0a10.34,10.34,0,0,0,2-1.54l0-.05h0a14.38,14.38,0,0,0,1.11-1.34l0,0a10,10,0,0,0,.78-1.3h0l0-.06a13.31,13.31,0,0,0,1.75-5.89,11,11,0,0,0-.74-4.37l-.05-.1a2.9,2.9,0,0,0-1.55-1.57,21.34,21.34,0,0,1,.61,3,1.22,1.22,0,0,1-1,1.36,1.12,1.12,0,0,1-.88-.23,1.14,1.14,0,0,1-.48-.79,11.81,11.81,0,0,0-.9-3.54L22,12.4a3,3,0,0,0-.25-.32l-.13-.15a1.48,1.48,0,0,0-1-.5l-.16,0a16.42,16.42,0,0,1,1.2,4.31,1.21,1.21,0,0,1-1,1.4,1.14,1.14,0,0,1-.89-.2,1.18,1.18,0,0,1-.5-.78,11.34,11.34,0,0,0-1.15-3.9L18,12.13l-.1-.11a1.56,1.56,0,0,0-1.08-.46c.17.78.38,1.68.64,2.7a1.2,1.2,0,0,1-2.32.6c-.33-1.29-.6-2.4-.79-3.38h0a.24.24,0,0,0,0-.08v-.07A15.5,15.5,0,0,1,14,7.93h0a14.2,14.2,0,0,1,.23-2.57v0c.35-1.86.13-2.92-.55-3.24a1.49,1.49,0,0,0-1.88.9l-.07.12h0a8.55,8.55,0,0,0-.87,4.41,24.71,24.71,0,0,0,.4,3.63v0c.13.76.31,1.53.52,2.3h0a22.92,22.92,0,0,1,.92,5.49h0a2.55,2.55,0,0,1-.24,1.29,1.32,1.32,0,0,1-1.8.7c-.52-.12-1.15-.78-2-2a10.4,10.4,0,0,0-3.82-3.6l0,0a1.73,1.73,0,0,0-2.45.52Z" transform="translate(0 0)"/></g></svg>