<?xml version="1.0" encoding="UTF-8"?>
<svg width="156px" height="40px" viewBox="0 0 156 40" version="1.1" xmlns="http://www.w3.org/2000/svg" xmlns:xlink="http://www.w3.org/1999/xlink">
    <title>Group 24</title>
    <defs>
        <polygon id="path-1" points="0 0 25.5664643 0 25.5664643 36.0338178 0 36.0338178"></polygon>
        <polygon id="path-3" points="0 0 5.77004698 0 5.77004698 36.4705893 0 36.4705893"></polygon>
    </defs>
    <g id="concept" stroke="none" stroke-width="1" fill="none" fill-rule="evenodd">
        <g id="00_home-d-publicaciones" transform="translate(-478.000000, -1779.000000)">
            <g id="Group-23" transform="translate(478.000000, 1779.000000)">
                <g id="Group-3" transform="translate(0.000000, 1.226531)">
                    <mask id="mask-2" fill="white">
                        <use xlink:href="#path-1"></use>
                    </mask>
                    <g id="Clip-2"></g>
                    <path d="M15.4399447,13.5534768 C15.3063263,13.5509675 15.172708,13.5490855 15.0390896,13.5472036 C13.611318,17.2144939 12.1829191,20.8817842 10.7049622,24.6745378 C13.1006827,25.0352446 15.2567683,24.86336 17.6230049,24.4223567 C16.8764987,20.7061357 16.158849,17.1298062 15.4399447,13.5534768 M18.7960862,29.246418 C17.2008212,29.3392608 15.7924964,29.540002 14.3967179,29.4722519 C12.8271728,29.3957193 11.2946394,29.4314763 9.7338768,29.6522916 C8.78286549,29.7871646 8.28477645,30.2193854 7.95104425,31.0154496 C7.81554395,31.3403994 7.6737705,31.6634672 7.55207116,31.9934355 C6.91158135,33.7223189 5.6525578,34.534066 3.82957702,34.5045822 C3.07428835,34.4926632 2.30896262,34.5321841 1.56559296,34.4280496 C0.248856324,34.2429913 -0.325765287,33.2530864 0.184870075,32.012255 C1.27702753,29.355571 2.40368736,26.712688 3.55481253,24.0810967 C5.59672666,19.4144917 7.48432102,14.6983288 9.01371784,9.82721871 C9.91517117,6.95411065 11.2174795,4.20019267 12.4476465,1.44062885 C13.1903889,-0.223013634 15.0453628,-0.456375249 16.4078935,0.795747824 C16.7780101,1.13575319 17.1939207,1.42431863 17.5772109,1.75052303 C18.4046409,2.45311714 19.1793764,3.28744765 19.2333255,4.37333194 C19.313622,5.98616181 19.958503,7.40891488 20.4383999,8.88185324 C21.9596416,13.5522221 22.8403935,18.3530728 23.567453,23.1953263 C23.7681941,24.5333917 24.2142159,25.8325634 24.4927443,27.1605918 C24.7719,28.4898747 24.9971065,29.8304494 25.2166672,31.171024 C25.3559314,32.0160189 25.4600658,32.8679143 25.5447535,33.7204369 C25.6501426,34.7755827 25.3885518,35.1733012 24.3911191,35.5151885 C23.9632895,35.6613532 23.5247955,35.7843071 23.0837922,35.8846777 C21.0192947,36.3557922 19.9566211,35.7924623 19.5589026,33.0128243 C19.474215,32.4156193 19.4880159,31.8021041 19.3700805,31.2136815 C19.242108,30.5819742 19.0118829,29.9697136 18.7960862,29.246418" id="Fill-1" fill="#000000" mask="url(#mask-2)"></path>
                </g>
                <path d="M33.0923707,15.6394939 C34.7911429,14.3403222 36.469841,13.0725162 38.126583,11.7783629 C38.5606858,11.4396122 38.9113555,10.9960997 39.33103,10.6366475 C40.793304,9.38326979 41.7035398,9.55703637 42.5773912,11.2671002 C42.8935586,11.8850067 43.2003162,12.5192233 43.4041939,13.1791599 C43.584861,13.762564 43.5641595,14.3679241 43.0428598,14.8509575 C42.0109247,15.8076147 41.1000616,16.9342745 39.9533277,17.7203017 C37.3512202,19.5025069 35.2221091,21.7834285 32.9493427,23.9194401 C32.4148693,24.4225476 32.3339455,24.9959146 32.2812509,25.6765526 C32.0271879,28.9875274 31.7699883,32.3003841 31.3973624,35.5988125 C31.2367695,37.0215656 30.6125899,37.4387308 29.4432726,37.3226773 C27.807232,37.1608298 26.9998761,36.5416687 26.9873298,35.2199135 C26.9565913,32.0983883 27.0143044,28.9762357 27.0224595,25.8540831 C27.0255961,24.8008193 26.9296167,23.7437915 26.9816839,22.6930369 C27.0450429,21.3944925 27.2093997,20.0997119 27.3411361,18.8049313 C27.4734998,17.5019956 27.6635766,16.2015692 27.7419911,14.895497 C27.7884125,14.1251527 28.1290452,13.5461399 28.6321528,13.0417777 C29.6954537,11.9740856 30.3415893,12.0386991 31.2775451,13.2594564 C31.8220555,13.9683237 32.3615474,14.6809548 33.0923707,15.6394939" id="Fill-4" fill="#000000"></path>
                <path d="M53.6002145,16.269884 C54.7306383,16.269884 55.7249344,16.2592196 56.7192305,16.2717659 C59.0597472,16.2999951 59.5785376,16.8764987 59.2297498,19.2069783 C59.1143237,19.9760679 58.7943924,20.7156737 58.5986698,21.3680825 C56.9525921,21.5142471 55.5223113,21.6058353 54.1033221,21.7821111 C53.230098,21.8906368 52.9735257,22.2538529 52.9691345,23.4407351 C52.960352,26.0108494 52.9910905,32.3461154 53.0519402,34.9162298 C53.0902065,36.5196499 53.0983616,36.6582868 52.414587,37.8363865 C51.3757514,37.9687502 50.4065479,37.7661271 49.4197796,37.2780751 C48.5672569,36.8565187 48.2435618,36.2925614 48.2228603,35.3904808 C48.1670292,32.9765682 48.0660313,26.8000132 47.9775797,24.3867279 C47.9581329,23.8403355 47.918612,23.2939431 47.8903828,22.77578 C46.8622116,22.4985062 45.9174734,22.3134479 45.0273118,21.980343 C44.3297362,21.7193795 43.6509801,21.3411079 43.0531478,20.8944588 C42.3825468,20.3944878 42.3819195,19.7533706 42.8473881,19.0583043 C43.5054428,18.0790638 44.3999956,17.5646645 45.5762134,17.3946619 C48.2385432,17.0094897 48.246071,16.9806332 48.3495782,14.3684887 C48.4474395,11.9012542 48.5409096,9.43401967 48.5879584,6.96490323 C48.6042686,6.0948157 48.8840516,5.38532112 49.5126224,4.8144634 C50.4510874,3.96319536 51.4554206,4.08364006 52.2245102,5.10051957 C53.0751509,6.22592478 53.4540499,7.51756877 53.4898069,8.89766435 C53.5450107,11.0136018 53.5349737,13.1307939 53.5563024,15.2473586 C53.5588117,15.4945212 53.5770038,15.7404291 53.6002145,16.269884" id="Fill-6" fill="#000000"></path>
                <path d="M66.371368,23.4711599 C66.1706269,28.2989852 65.9987422,32.2203385 65.8481864,36.1429465 C65.7835728,37.8329363 65.0238929,38.3724282 63.4079265,37.9834922 C62.1445117,37.6786165 61.524096,36.9082723 61.3848318,35.6900243 C61.2932436,34.89396 61.1652711,34.0815856 61.2342759,33.2924219 C61.7536937,27.3178627 61.8841755,21.3370303 61.4914756,15.3530614 C61.403024,14.0099775 62.0698611,13.2816634 63.1124605,12.7346437 C63.849557,12.3482169 64.5477599,12.4460783 64.958652,13.1524363 C65.4034192,13.9165074 65.86136,14.7803217 65.934756,15.6328444 C66.1856824,18.5385729 66.2697428,21.4581023 66.371368,23.4711599" id="Fill-8" fill="#000000"></path>
                <path d="M67.9892792,3.95083723 C67.7634453,4.45833601 67.641746,4.77763994 67.4817804,5.07686976 C67.1988608,5.60695192 66.850073,6.10566827 66.6029104,6.65080602 C65.7453692,8.54969207 64.9700064,8.41419177 62.9381294,7.61624561 C62.6250986,7.49329164 62.3829546,7.19280719 62.1019169,6.98328359 C61.538587,6.56235444 61.3535287,6.00780695 61.7041985,5.40244685 C62.5297465,3.97969378 63.3690956,2.56133192 64.2862318,1.19691925 C64.5421768,0.817392968 65.0615946,0.505616832 65.5151442,0.403364297 C65.8720871,0.323067827 66.5420608,0.495579773 66.6756791,0.757797932 C67.2088979,1.80667057 67.5865422,2.93521235 67.9892792,3.95083723" id="Fill-10" fill="#000000"></path>
                <path d="M78.1029332,36.6031457 C77.7089786,36.5849535 77.4066122,36.5673887 77.1036185,36.5573516 C74.8534354,36.4776824 72.8673524,35.8773409 71.3630483,34.0261309 C69.7201072,32.0049182 68.5288338,29.8375408 68.7051096,27.151373 C68.9234157,23.8184422 70.0613672,20.7113452 72.3542078,18.3727105 C74.5968631,16.0867704 77.2842856,14.1082152 80.8135663,14.2675535 C83.2011317,14.3741972 85.0360315,15.4964659 86.1350894,17.6719983 C86.7021832,18.7955216 86.6733267,19.6863105 86.124425,20.0275705 C85.6056346,20.3500111 84.5542527,20.0250613 83.8322117,19.3124301 C83.6170423,19.1003972 83.421947,18.8670356 83.2042683,18.657512 C82.324771,17.8137718 81.3461578,17.5678638 80.154257,17.9900476 C75.6419718,19.5897039 73.2249226,23.8686274 73.0825219,27.8313837 C72.9909337,30.3939702 74.9701162,32.5814217 77.4963184,32.8831608 C78.1945213,32.9665938 78.9052706,32.9772582 79.6103739,32.9766309 C80.2401994,32.9753763 80.7677723,32.7671073 81.1585902,32.2000135 C81.6058667,31.5519959 82.189898,31.0156406 83.0631221,31.4102224 C83.9332096,31.8029224 84.4614099,32.5506832 84.5598985,33.4734653 C84.7223734,34.9884339 84.3597846,35.4833863 82.9088023,35.835938 C81.300991,36.226756 79.7258001,36.8741463 78.1029332,36.6031457" id="Fill-12" fill="#000000"></path>
                <path d="M102.347135,34.9993492 C101.919305,35.3951857 101.53727,35.7182535 101.190364,36.0758237 C99.7770205,37.5330792 98.1315702,38.1321661 96.1341955,37.491049 C95.4642218,37.2765069 94.7942481,37.0613374 94.1217652,36.8574597 C91.9274132,36.1918772 90.7217116,34.5671283 90.1364256,32.4932211 C89.1916874,29.1433527 88.5060309,25.7320074 88.4721558,22.2328378 C88.4583548,20.8282769 88.6245936,19.4205794 88.7281008,18.0153912 C88.7500569,17.717416 88.8403904,17.4206955 88.9282146,17.13213 C89.2525371,16.0732203 90.1884928,15.2119152 91.0159229,15.1962323 C91.8954201,15.1786675 92.704658,15.9370927 93.1099042,17.0637526 C93.6148937,18.4658042 93.714637,19.8728744 93.5960743,21.3658869 C93.3162912,24.8625472 93.9241606,28.2920847 94.6756854,31.6946476 C94.8544705,32.5026308 95.446657,32.8256986 96.1850081,32.9781365 C96.9045397,33.1274377 97.371263,32.725328 97.6617103,32.1732898 C98.1522716,31.241098 98.7137196,30.3038876 98.9690372,29.2982998 C99.7870575,26.0782859 100.501571,22.8319247 101.201655,19.5830543 C101.369149,18.8045549 101.335901,17.9808888 101.380441,17.1772968 C101.451955,15.8850255 102.804448,14.2941517 104.046534,14.13795 C104.751638,14.0494984 105.277956,14.332418 105.604788,15.0450491 C106.265979,16.4859944 106.71451,17.9953171 106.68879,19.5617256 C106.651778,21.8746403 106.430336,24.1844184 106.300481,26.4960785 C106.171254,28.8058566 105.998115,31.1156348 105.957339,33.4266675 C105.923464,35.3544101 105.321241,35.9089576 103.46313,35.4309427 C103.125634,35.3450004 102.808212,35.1806435 102.347135,34.9993492" id="Fill-14" fill="#000000"></path>
                <g id="Group-18" transform="translate(110.491553, 0.000000)">
                    <mask id="mask-4" fill="white">
                        <use xlink:href="#path-3"></use>
                    </mask>
                    <g id="Clip-17"></g>
                    <path d="M0.000278807186,23.8724541 C0.190355606,20.4887107 0.461356191,16.6231884 0.601875013,12.753275 C0.675898321,10.7000692 0.604384278,8.63180775 0.445045971,6.58236583 C0.310800311,4.8509732 0.205411194,3.1591015 1.00273005,1.55442673 C1.17649662,1.203757 1.39480265,0.840540935 1.6839954,0.587105202 C2.58858532,-0.204567803 3.56719854,-0.294274015 4.13241041,0.934011044 C4.82371283,2.43643327 5.50686014,3.92944575 5.54387179,5.63762768 C5.60095756,8.30058482 5.74837686,10.9622873 5.76970561,13.6252445 C5.77974267,14.8253003 5.56582786,16.0253561 5.47298506,17.2272939 C5.16183625,21.2358442 4.83625915,25.2443945 4.56400394,29.2554541 C4.43791339,31.1116827 4.44104997,32.9766936 4.35259839,34.8360588 C4.28484824,36.253166 3.46870991,36.7694472 2.10429724,36.3039786 C2.05599389,36.2876684 2.0095725,36.2688489 1.96252378,36.2506567 C0.00843391738,35.5141875 0.000906123355,35.5047778 0.000278807186,33.4264793 C-0.000348508983,30.4046973 0.000278807186,27.3835427 0.000278807186,23.8724541" id="Fill-16" fill="#000000" mask="url(#mask-4)"></path>
                </g>
                <path d="M135.04599,23.4840199 C134.990159,22.6214602 134.660191,21.2714758 133.800768,20.0940033 C133.071199,19.0940614 132.857284,19.0005912 131.643427,19.4328121 C130.633448,19.7928916 129.555719,19.777836 128.711979,19.3462425 C127.742148,18.8506627 127.072174,19.1022165 126.354525,19.6003055 C125.086719,20.4785481 124.178992,21.6284187 123.642009,23.1101395 C123.051078,24.7424161 123.165249,26.4016674 123.395474,28.0308075 C123.487062,28.6788251 124.063566,29.3996114 124.622505,29.8130127 C125.842635,30.7150934 127.266642,31.2602311 128.790393,31.4647362 C130.49042,31.6918247 131.921956,31.253958 133.137694,29.9447491 C134.711003,28.2516228 134.928682,26.1858706 135.04599,23.4840199 M140.227682,25.1639726 C140.118469,26.3376812 140.120351,27.6694734 139.838686,28.9379067 C139.603442,29.9949344 139.226425,31.1253582 138.577153,31.9634526 C137.185138,33.7582041 135.508322,35.3264945 133.256884,36.0021141 C132.525434,36.222302 131.674793,36.1808992 130.898803,36.091193 C128.329943,35.7925905 125.884665,35.0843505 123.548539,33.9250702 C121.065622,32.6923939 119.483531,30.8455751 118.512445,28.2221389 C115.842588,21.0130215 121.810246,14.345278 128.262193,14.1206988 C128.806704,14.1018793 129.374425,14.039775 129.884433,13.8628718 C132.352294,13.0065853 134.734841,13.710434 136.247301,15.8282534 C137.123661,17.0559111 137.967402,18.3074069 138.80926,19.5589026 C139.923373,21.21439 140.23264,23.0812829 140.227682,25.1639726" id="Fill-19" fill="#000000"></path>
                <path d="M154.365948,13.7091794 C154.128823,13.2148542 153.835866,12.7475037 153.552946,12.2952087 L153.508407,12.2236947 C152.731162,10.9853726 151.527342,10.3574291 149.929568,10.3574291 L149.927059,10.3574291 C148.696892,10.3574291 147.54263,10.7407192 146.399033,11.5273737 C144.716571,12.6853994 143.154553,13.8973742 142.522219,15.9819458 C142.006565,17.6832273 141.539842,19.9415655 142.512182,22.3190938 C143.622531,25.0316089 144.679559,27.2196877 145.837585,29.204516 C146.620475,30.5476 147.131738,32.0255569 147.399602,33.7230744 C147.489308,34.2958141 147.559568,34.8108407 147.517537,35.3089297 C147.484917,35.686574 147.342516,35.9651024 147.115428,36.091193 C146.884575,36.2191654 146.565271,36.1934455 146.217111,36.0184243 C145.426693,35.6213331 145.489424,35.1778206 145.509498,35.0316559 C145.599832,34.3867749 145.762307,33.7218198 145.992532,33.0562373 L146.033935,32.9383019 C146.333164,32.0769968 146.643059,31.1862078 145.811865,30.182502 C145.28931,29.5514219 144.789339,29.242155 144.283723,29.2383911 L144.274313,29.2383911 C143.808217,29.2383911 143.365959,29.4905722 142.923701,30.00999 C141.615747,31.5425234 141.089429,33.4376456 141.314008,35.8057641 C141.372976,36.4161427 141.691652,37.002056 141.948852,37.3847189 C143.086176,39.0797272 144.791221,40 146.690107,40 C147.195097,40 147.714515,39.9347591 148.240833,39.8011408 C149.018078,39.6041635 149.842998,39.279841 150.693639,38.8363285 C151.076929,38.6355873 151.442027,38.1167969 151.524206,37.6550922 C152.100709,34.39493 151.729338,31.6265838 150.387509,29.1913424 C149.605873,27.7704713 148.842429,26.3069427 148.105333,24.8917174 C147.752154,24.2148432 147.399602,23.5385964 147.043286,22.8636042 C146.298662,21.4527701 146.171317,20.0149615 146.641804,18.3381454 C147.062733,16.8332139 147.853152,15.8044154 149.129113,15.0986847 C149.600854,14.8370938 150.174221,14.549783 150.438949,14.6746189 C150.70054,14.7963183 150.851723,15.4305349 150.942056,15.8972582 C151.095122,16.6839126 151.166636,17.5094607 151.236268,18.3067796 C151.267633,18.6674864 151.298372,19.0281932 151.337266,19.3876453 C151.280807,20.7363751 151.556199,21.1096282 152.871681,21.4803721 C152.988989,21.5129925 153.106924,21.5462403 153.227996,21.5644324 C153.761843,21.6472382 154.161443,21.5744695 154.45189,21.3436171 C154.738574,21.1159014 154.896658,20.752058 154.935551,20.2307583 C154.966917,19.8029286 154.980091,19.373217 154.99201,18.9441328 C155.00832,18.3764117 155.025885,17.789871 155.089871,17.2246592 C155.215961,16.1168188 154.986364,14.9995687 154.365948,13.7091794" id="Fill-21" fill="#000000"></path>
            </g>
        </g>
    </g>
</svg>