<?xml version="1.0" encoding="UTF-8"?>
<svg width="231px" height="40px" viewBox="0 0 231 40" version="1.1" xmlns="http://www.w3.org/2000/svg" xmlns:xlink="http://www.w3.org/1999/xlink">
    <title>Group 30</title>
    <defs>
        <polygon id="path-1" points="0 0 34.0143581 0 34.0143581 34.4850578 0 34.4850578"></polygon>
        <polygon id="path-3" points="0 0 14.7075266 0 14.7075266 31.4563101 0 31.4563101"></polygon>
    </defs>
    <g id="concept" stroke="none" stroke-width="1" fill="none" fill-rule="evenodd">
        <g id="00_home-d-conferencias" transform="translate(-478.000000, -104.000000)">
            <g id="Group-29" transform="translate(478.000000, 104.000000)">
                <g id="Group-3" transform="translate(0.000000, 2.766386)">
                    <mask id="mask-2" fill="white">
                        <use xlink:href="#path-1"></use>
                    </mask>
                    <g id="Clip-2"></g>
                    <path d="M19.0954117,34.4260797 C13.9621793,34.2183805 9.79421552,33.5393639 6.18810474,30.8446 C2.6179419,28.1757984 0.515653205,24.7807153 0.0942634829,20.2293069 C-0.222610937,16.8155842 0.25203499,13.6961019 1.61539384,10.5606429 C2.28509062,9.02153855 3.05331137,7.77134914 4.38072228,6.76480686 C6.2540093,5.34419759 8.09800539,3.87565774 9.85279735,2.31391953 C11.8698761,0.518519715 14.2244661,-0.0872696175 16.8220375,0.00992295664 C19.3929808,0.105784126 21.9253133,0.451949458 24.4370091,1.06506152 C26.7663024,1.6329058 28.8858993,2.65875345 30.8530504,3.92358832 C31.9807505,4.64920412 32.8847746,5.8148493 33.6849491,6.9299011 C34.4698124,8.02431611 33.7774818,9.27117701 32.3974803,9.49884729 C30.7239041,9.77511385 29.2254076,9.685244 28.2827728,7.89716692 C27.9565785,7.27939494 27.2875475,6.76414116 26.6617871,6.39467624 C24.1141434,4.88885704 21.3534748,4.14127306 18.3744559,4.38292309 C17.1222693,4.48410988 15.9426444,4.86755456 14.9906897,5.71166541 C13.1939585,7.30668875 11.3313227,8.84845588 9.70700849,10.6072421 C8.90883112,11.471324 8.49875834,12.738156 8.06338886,13.8805016 C7.49088466,15.378998 7.13007387,16.9134424 7.50419871,18.5743703 C7.73719461,19.6055436 7.69126113,20.7019557 7.74917725,21.7704083 C7.95421364,25.5482704 10.2628701,28.2044236 13.8583297,29.2801989 C18.698653,30.7267706 22.5237799,28.8608063 26.1205709,25.949689 C26.2037837,25.8824531 26.3129589,25.8178799 26.3495726,25.7286758 C27.0858396,23.9239561 28.553048,24.2434933 29.8684763,24.6762 C31.3536587,25.1654914 32.4261055,26.2153043 32.5585804,27.8942062 C32.5865399,28.2543513 32.373515,28.7423113 32.1059026,28.9966096 C29.8664792,31.1255264 27.3068528,32.767149 24.3211768,33.6199139 C22.3660084,34.1784384 20.3728949,34.6557471 19.0954117,34.4260797" id="Fill-1" fill="#000000" mask="url(#mask-2)"></path>
                </g>
                <path d="M50.8359102,23.8770834 C50.7766627,22.962408 50.4265031,21.5291504 49.5144906,20.2796267 C48.7402785,19.2184968 48.513274,19.1193071 47.2251395,19.5779762 C46.1533584,19.9600895 45.0096814,19.9441126 44.1143114,19.4861092 C43.0851353,18.9602042 42.3741649,19.2278167 41.6126012,19.7557188 C40.2672163,20.6883681 39.3039447,21.9079352 38.7341033,23.4803246 C38.1070115,25.2124827 38.2281694,26.973266 38.4724822,28.7020955 C38.5696748,29.390432 39.1814554,30.1553242 39.7745964,30.5933565 C41.0693879,31.5506368 42.5805327,32.1291323 44.1975243,32.3461514 C46.0015782,32.5871357 47.5207114,32.1224753 48.810843,30.7338197 C50.480425,28.9364228 50.7114238,26.7442643 50.8359102,23.8770834 M56.3346769,25.6598348 C56.2187811,26.9053643 56.2207782,28.3186509 55.9218778,29.6647014 C55.6722393,30.7864103 55.2721521,31.986672 54.5831499,32.8753849 C53.105956,34.7799599 51.326533,36.4442163 48.9373265,37.1618437 C48.1611173,37.3948396 47.2584246,37.3515689 46.4349506,37.2557078 C43.7088986,36.9388333 41.11399,36.1879208 38.6349136,34.9577025 C36.0000629,33.6489313 34.321161,31.6891029 33.2906535,28.9058005 C30.4574234,21.2555467 36.7902518,14.1791284 43.6370027,13.9408069 C44.2148325,13.9208358 44.8172933,13.8549313 45.3585095,13.6672031 C47.9773834,12.7585191 50.5057217,13.5054374 52.1107306,15.753515 C53.0407171,17.0556292 53.936087,18.3837058 54.8294599,19.7117824 C56.0117476,21.4685715 56.339939,23.450368 56.3346769,25.6598348" id="Fill-4" fill="#000000"></path>
                <path d="M79.0710853,30.4658745 C78.9838782,32.1714044 78.9892039,33.8882513 78.7861646,35.5798016 C78.5105637,37.8851295 77.9087686,38.3085164 75.6180861,38.1141312 C75.1960307,38.0781833 74.7686496,37.9943047 74.3645682,37.8651585 C73.1583151,37.4830452 72.7582279,36.843305 72.9313105,35.576473 C73.3766656,32.3211875 73.2508478,29.0632392 72.9978808,25.8039594 C72.8713973,24.1749852 72.3501522,22.6671689 71.549312,21.2545481 C70.9641595,20.2220434 70.2685003,19.9271372 69.304563,20.5761972 C66.9373247,22.167892 64.6146884,23.8547823 64.2858314,27.0454947 C63.9902594,29.9133413 63.6594052,32.7798566 63.4477118,35.6543602 C63.3232255,37.3572274 63.0316477,37.7313522 61.3274492,37.6414824 C60.9007338,37.6188485 60.4653644,37.5982117 60.0552916,37.4930307 C58.4469542,37.0809608 58.053524,36.6096434 57.9470116,34.9440556 C57.7399781,31.7240523 57.9476773,28.5140346 58.480905,25.3432932 C59.2271576,20.9110456 61.9012848,17.7636039 65.6864696,15.6266986 C67.764793,14.4523993 70.1533337,14.7086948 72.4074026,15.3757288 C72.9266506,15.5295061 73.4212676,16.0088119 73.7647701,16.4614897 C74.9284182,17.9912741 76.0634411,19.5463553 77.1259024,21.14737 C78.2802306,22.8855194 78.7475538,24.8513391 78.7994786,26.9296625 C78.8287695,28.1059589 78.9079881,29.2815896 78.9645729,30.4572203 C79.0005208,30.4598831 79.0351373,30.462546 79.0710853,30.4658745" id="Fill-6" fill="#000000"></path>
                <path d="M166.666226,29.7858593 C166.578353,31.492055 166.583678,33.2082362 166.381305,34.9004521 C166.105038,37.2057801 165.503909,37.6285012 163.213226,37.434116 C162.791171,37.3988338 162.36379,37.3142896 161.959708,37.185809 C160.75279,36.8036957 160.353368,36.1639556 160.525785,34.8971236 C160.971806,31.6411723 160.845988,28.3838897 160.593021,25.12461 C160.466538,23.4956358 159.945293,21.9878195 159.144452,20.5751986 C158.5593,19.542694 157.862975,19.2477877 156.899038,19.8968477 C154.532465,21.4885426 152.209829,23.1754329 151.880972,26.3661452 C151.5854,29.2339919 151.25388,32.1005071 151.042852,34.9750108 C150.918366,36.6772122 150.626122,37.0513371 148.921924,36.9621329 C148.495874,36.939499 148.060505,36.9188623 147.650432,36.8136813 C146.042094,36.4016114 145.648664,35.930294 145.542152,34.2647061 C145.335118,31.0440371 145.542818,27.8346851 146.076045,24.6639438 C146.822298,20.2316961 149.496425,17.0842544 153.28161,14.9473492 C155.359933,13.7730499 157.748474,14.0293453 160.002543,14.6963793 C160.521791,14.8494909 161.015742,15.3294624 161.35991,15.7821402 C162.523559,17.3119247 163.658581,18.8670059 164.721043,20.4680205 C165.874705,22.2061699 166.342694,24.1719896 166.393953,26.2496473 C166.42391,27.4266094 166.503128,28.6022401 166.559713,29.7778709 C166.595661,29.7805337 166.630278,29.7831965 166.666226,29.7858593" id="Fill-8" fill="#000000"></path>
                <path d="M87.3696003,15.0278992 C88.2057227,14.9852942 88.8261575,14.9133983 89.4425981,14.9347008 C89.8426853,14.9493463 90.4398205,14.9666545 90.5989234,15.2103017 C91.1421367,16.0470898 91.6207768,16.9544424 91.9456397,17.8957458 C92.1333678,18.4389591 91.9795905,19.1006675 91.9795905,19.8728824 C91.1747561,19.8123035 90.6055804,19.7783527 90.0390676,19.7237651 C89.5604274,19.6778316 89.0851158,19.5653279 88.6071413,19.5593365 C87.1346073,19.5393655 86.8124072,19.8209576 86.7811192,21.3121314 C86.6972407,25.3130038 86.6153593,29.3118791 87.3296581,33.284792 C87.5346945,34.4244748 87.5260404,35.6313935 87.4208594,36.789716 C87.3023643,38.094493 85.8185133,38.8986617 84.6661822,38.3201662 C84.3100313,38.1410922 84.0211164,37.6118586 83.9139383,37.1891375 C82.6444435,32.1917084 82.1491608,27.1090693 82.1904343,21.9538686 C82.2097397,19.4894378 82.3541972,19.7397419 80.0322266,19.3163551 C79.2000984,19.1652406 78.3726301,18.9082794 77.5890982,18.5900736 C76.788258,18.264545 76.5792274,17.5415921 76.9693291,16.7527345 C77.4745974,15.7315468 78.2434839,15.048536 79.4330943,14.9553376 C80.2805337,14.8887674 81.1279731,14.8248599 82.1511579,14.746307 C82.2483505,13.9894032 82.3648484,13.2711101 82.4274245,12.5481571 C82.5831989,10.740109 82.6610861,8.92340669 82.8674539,7.12134985 C83.1197551,4.92253428 84.4604801,3.21567291 85.9822761,1.84033142 C87.3649404,0.590807708 89.2828294,0.152775421 91.1940615,0.0156406935 C92.6313133,-0.0868775011 93.9354247,0.325858088 95.2089137,0.922993287 C97.0622296,1.79040373 97.8337789,3.47529691 98.4149372,5.25871408 C98.6998579,6.13344725 98.1253566,6.76120476 97.1940387,6.54684854 C96.0164109,6.27524189 94.8194777,5.91975672 93.7563507,5.36322938 C92.2398802,4.57104333 89.9145812,5.12024794 88.9859261,6.58146507 C88.1637834,7.87425945 87.6651722,9.22763276 87.6179073,10.76474 C87.5772995,12.0848282 87.4667929,13.4035849 87.3696003,15.0278992" id="Fill-10" fill="#000000"></path>
                <path d="M104.131791,21.1973643 L100.336621,21.0342671 C99.8320182,21.0136303 99.3686893,20.9823423 99.2382116,20.8405477 C99.1064025,20.6954245 99.1170537,20.215453 99.141019,19.6948736 C99.2222347,17.9653783 100.04238,15.9749277 101.08487,14.924449 C102.175291,15.864421 103.838882,19.1103867 104.131791,21.1973643 M108.797035,20.6395055 C107.737902,16.7864191 105.602328,13.5910468 103.653151,10.97417 C102.38765,9.27529706 100.118936,8.91515197 98.3747953,10.1380476 C97.7743316,10.5594373 97.3149969,10.9761671 96.9694972,11.4141994 C95.1274982,13.7474869 94.190189,16.0508177 94.1049791,18.454004 C94.0557171,19.8692876 94.0696969,21.3158593 94.1475841,22.7531111 L94.2035031,23.8169038 C94.4165279,27.9342742 94.5050663,29.6391385 95.9995686,34.0301126 C96.4189612,35.2616623 96.9628402,36.4652525 97.4894109,37.6282349 L97.7616833,38.2306957 C97.9194548,38.5808553 98.2589631,38.9942566 98.6623788,39.1287285 C99.0691231,39.2632004 99.8739575,39.5308128 100.786636,39.5308128 C101.773207,39.5308128 102.885596,39.2179326 103.754338,38.0875697 C104.363456,37.2947179 104.970576,36.4139934 105.609651,35.3974656 C106.85984,33.4090121 106.653472,30.9059704 105.071097,28.8662578 C104.806148,28.5247524 104.478622,28.3316986 104.123803,28.3070676 C103.782963,28.2857651 103.432138,28.4242313 103.13124,28.7198032 C102.72849,29.1145648 102.421601,29.5692397 102.267158,30.0006149 C102.078764,30.5278514 101.954944,31.0777217 101.836449,31.609618 C101.786521,31.8332941 101.735928,32.0563045 101.680674,32.2786491 C101.65338,32.3898214 101.628084,32.5029909 101.603453,32.6161603 C101.489618,33.1314141 101.387765,33.5914146 101.045594,33.9801849 C99.7647823,30.4233361 99.6336389,29.4600645 99.5044926,25.4432152 L100.214132,25.4405524 C100.905796,25.4378896 101.540211,25.4345611 102.175291,25.4465437 C102.753121,25.4578607 103.326957,25.4219127 103.88415,25.3872962 C104.944614,25.322723 105.946496,25.2608127 106.971013,25.4818259 C107.502909,25.593664 108.010174,25.4864859 108.402939,25.1769342 C108.829654,24.8400887 109.082621,24.2922155 109.095935,23.6744435 C109.121898,22.4402309 109.027368,21.4762936 108.797035,20.6395055" id="Fill-12" fill="#000000"></path>
                <path d="M138.851641,20.9965218 L135.056471,20.8334247 C134.551869,20.8127879 134.08854,20.7814999 133.958062,20.6397052 C133.826253,20.4945821 133.836904,20.0146105 133.860869,19.4940311 C133.942085,17.7645359 134.762231,15.7740852 135.804721,14.7236065 C136.895142,15.6635786 138.558732,18.9095443 138.851641,20.9965218 M143.516885,20.438663 C142.457752,16.5855766 140.322178,13.3902043 138.373001,10.7733275 C137.107501,9.0744546 134.838786,8.71430951 133.094646,9.93720512 C132.494182,10.3585948 132.034847,10.7753246 131.689348,11.2133569 C129.847349,13.5466444 128.910039,15.8499753 128.824829,18.2531615 C128.775567,19.6684452 128.789547,21.1150168 128.867434,22.5522687 L128.923353,23.6160614 C129.136378,27.7334317 129.224917,29.438296 130.719419,33.8292701 C131.138812,35.0608198 131.682691,36.2644101 132.209261,37.4273924 L132.481534,38.0298533 C132.639305,38.3800128 132.978813,38.7934141 133.382229,38.927886 C133.788973,39.0623579 134.593808,39.3299704 135.506486,39.3299704 C136.493057,39.3299704 137.605446,39.0170902 138.474188,37.8867272 C139.083306,37.0938755 139.690427,36.213151 140.329501,35.1966232 C141.579691,33.2081696 141.373323,30.705128 139.790948,28.6654153 C139.525998,28.3239099 139.198472,28.1308562 138.843653,28.1062252 C138.502813,28.0849227 138.151988,28.2233888 137.85109,28.5189608 C137.44834,28.9137224 137.141452,29.3683972 136.987009,29.7997725 C136.798615,30.3270089 136.674794,30.8768792 136.556299,31.4087756 C136.506371,31.6324516 136.455778,31.855462 136.400525,32.0778067 C136.373231,32.188979 136.347934,32.3021484 136.323303,32.4153179 C136.209468,32.9305716 136.107615,33.3905721 135.765444,33.7793424 C134.484633,30.2224936 134.353489,29.259222 134.224343,25.2423727 L134.933982,25.2397099 C135.625647,25.2370471 136.260061,25.2337186 136.895142,25.2457013 C137.472971,25.2570182 138.046807,25.2210703 138.604,25.1864537 C139.664464,25.1218806 140.666347,25.0599702 141.690863,25.2809835 C142.222759,25.3928215 142.730025,25.2856434 143.122789,24.9760917 C143.549504,24.6392462 143.802471,24.091373 143.815785,23.473601 C143.841748,22.2393885 143.747218,21.2754512 143.516885,20.438663" id="Fill-14" fill="#000000"></path>
                <path d="M117.365891,16.045359 C119.168614,14.666689 120.950034,13.3213041 122.708155,11.9479597 C123.168821,11.5884803 123.540948,11.1178286 123.986303,10.736381 C125.538056,9.40630732 126.503991,9.59070693 127.431314,11.4054121 C127.766828,12.0611291 128.092357,12.7341544 128.30871,13.4344735 C128.500433,14.0535769 128.478464,14.6959799 127.925266,15.2085709 C126.830185,16.2237673 125.863585,17.4193691 124.64668,18.2534944 C121.885346,20.1447554 119.625952,22.5652499 117.214111,24.8319671 C116.646933,25.3658606 116.561057,25.9743127 116.505138,26.6966 C116.235529,30.2101781 115.961925,33.7257533 115.567163,37.2260174 C115.396743,38.7358308 114.734369,39.178523 113.4935,39.0553681 C111.757347,38.8836168 110.900588,38.2265684 110.887274,36.8239331 C110.854655,33.5113971 110.915899,30.1981955 110.924553,26.8849938 C110.927216,25.7672792 110.82603,24.6455704 110.881283,23.5305186 C110.948519,22.1525143 111.122933,20.7785042 111.26273,19.4044941 C111.403194,18.0218299 111.604902,16.6418285 111.688114,15.2558357 C111.737376,14.438353 112.098853,13.8239095 112.632746,13.2886847 C113.761112,12.1556589 114.446786,12.2242263 115.440014,13.5196835 C116.017844,14.2719274 116.590348,15.0281655 117.365891,16.045359" id="Fill-16" fill="#000000"></path>
                <path d="M177.670422,37.7989876 C177.252361,37.7796822 176.931492,37.7617083 176.609958,37.7503913 C174.222083,37.6665128 172.114469,37.0294355 170.518114,35.0649472 C168.774639,32.9200535 167.51047,30.6200512 167.697532,27.7695128 C167.929196,24.2319694 169.136781,20.9347446 171.569924,18.4530054 C173.94981,16.0271853 176.80168,13.9282251 180.546923,14.0966479 C183.080587,14.210483 185.027767,15.4014249 186.194078,17.7094157 C186.796539,18.901689 186.765251,19.8476523 186.182761,20.2091288 C185.63289,20.5512999 184.516507,20.206466 183.750949,19.4508936 C183.521948,19.2258861 183.314914,18.9775791 183.083915,18.7552344 C182.1506,17.8605302 181.112104,17.5989091 179.847269,18.0475926 C175.058871,19.7444684 172.493919,24.2858913 172.342804,28.4904687 C172.245612,31.2098637 174.345903,33.5311685 177.026688,33.8513714 C177.76828,33.9405756 178.521856,33.9512268 179.270105,33.9505611 C179.938471,33.9498954 180.498327,33.7282164 180.913059,33.127087 C181.388371,32.4387506 182.007474,31.8695749 182.934132,32.2883018 C183.857462,32.7056973 184.417983,33.4985491 184.522499,34.4777975 C184.694916,36.0854692 184.310139,36.6107085 182.770369,36.9848334 C181.064174,37.3995661 179.392595,38.0865711 177.670422,37.7989876" id="Fill-18" fill="#000000"></path>
                <path d="M194.281831,26.5502786 C194.068806,31.6735255 193.885738,31.8406168 193.726635,36.003255 C193.658068,37.7966577 192.851902,38.3691619 191.136387,37.9564263 C189.795662,37.6328948 189.137948,36.8154121 188.989496,35.5226177 C188.892303,34.6785069 188.7565,33.816422 188.829727,32.9789682 C189.380929,26.6381513 189.520061,24.2862241 189.103331,17.9354217 C189.009467,16.5101525 189.717109,15.7372718 190.823506,15.1574449 C191.605041,14.7467064 192.346634,14.850556 192.782669,15.6008028 C193.254652,16.4109628 193.740615,17.3276353 193.818502,18.232325 C194.084118,21.3158593 194.173322,24.4147047 194.281831,26.5502786" id="Fill-20" fill="#000000"></path>
                <path d="M195.998079,5.83614448 C195.758426,6.37469785 195.629946,6.71354046 195.460191,7.03108058 C195.15996,7.59359925 194.789163,8.12216708 194.527542,8.70132831 C193.616861,10.7157443 192.794718,10.5719525 190.637842,9.72584455 C190.305656,9.59470115 190.049361,9.27582962 189.751126,9.05348497 C189.15266,8.60679855 188.956277,8.01831748 189.328405,7.37658021 C190.205135,5.8667668 191.09518,4.3609476 192.069103,2.91371023 C192.340043,2.51096018 192.891911,2.1794403 193.372548,2.07159649 C193.751333,1.98572086 194.462969,2.16878906 194.604098,2.44771844 C195.170611,3.56077312 195.570698,4.75770633 195.998079,5.83614448" id="Fill-22" fill="#000000"></path>
                <path d="M209.052706,26.1355459 C206.994354,27.0262559 205.15302,28.1692672 203.768359,29.6943918 C202.686592,30.8866651 202.175999,32.6248144 201.522279,34.1672473 C201.198081,34.9341366 201.610817,35.7922272 202.317127,35.9007368 C203.493424,36.0824736 204.695683,36.1490438 205.887956,36.1610845 C206.467117,36.1663521 206.899824,35.8048756 207.263963,35.2676536 C209.032069,32.6620938 209.105297,29.673755 209.299682,26.7087158 C209.308336,26.5862265 209.195832,26.4557488 209.052706,26.1355459 M207.06625,39.5747492 C205.028534,39.2911599 202.977504,39.0774694 200.95976,38.6926933 C199.999151,38.5096251 199.045865,38.0948924 198.196429,37.6002754 C197.661869,37.2873952 197.161261,36.6962513 196.933591,36.1170901 C196.378395,34.7058007 196.221955,33.2146269 196.888323,31.7747123 C198.325575,28.6678784 200.216836,25.9551405 203.378923,24.3361518 C204.827492,23.5938935 206.227464,22.7544426 207.654065,21.9689135 C208.705875,21.3897523 209.350941,20.5822551 209.243763,19.3107632 C209.203821,18.8327888 209.237771,18.3448288 209.16055,17.8735114 C208.956179,16.6246534 208.200607,16.3317442 207.27528,17.2277799 C206.495742,17.9820209 205.865988,18.8893735 205.174323,19.7334843 C204.720314,20.2860174 204.295596,20.864513 203.818952,21.3957436 C203.377592,21.8870321 202.823727,21.9116631 202.241237,21.6353965 C200.988385,21.0422556 199.721553,20.4764084 198.483346,19.8539765 C197.528063,19.3746706 197.232491,18.6044528 197.552029,17.5939163 C197.666529,17.229777 197.777702,16.8463323 197.98407,16.5321207 C199.609715,14.0457216 201.271974,11.7157627 204.587839,11.1519126 C206.639534,10.8030844 208.267843,11.3562833 209.839566,12.4387156 C210.864083,13.1443604 211.821363,13.9525233 212.78064,14.7493692 C214.450888,16.1360277 215.09662,18.0286201 215.171178,20.1056121 C215.261048,22.5946739 215.33361,25.0957185 215.186489,27.5774576 C215.087965,29.2363884 214.512133,30.8613684 214.299774,32.5209648 C214.072769,34.2930651 213.356473,35.8188553 212.379887,37.2674241 C211.523128,38.538916 210.286253,39.1460368 208.81505,39.3317678 C208.245209,39.4036636 207.665382,39.3923467 207.090881,39.4196405 C207.082226,39.4708996 207.073572,39.5228244 207.06625,39.5747492" id="Fill-24" fill="#000000"></path>
                <g id="Group-28" transform="translate(215.905155, 8.543690)">
                    <mask id="mask-4" fill="white">
                        <use xlink:href="#path-3"></use>
                    </mask>
                    <g id="Clip-27"></g>
                    <path d="M13.903957,3.55684879 C13.6523215,3.03227517 13.3414384,2.53632676 13.0412065,2.05635522 L12.9939416,1.98046512 C12.1691361,0.666368265 10.8916529,0 9.1961085,0 L9.19344569,0 C7.88800296,0 6.66311025,0.406744266 5.44953447,1.24153528 C3.6641202,2.47042221 2.00652082,3.75655956 1.33549264,5.96868918 C0.78828513,7.77407453 0.293002423,10.1706038 1.3248414,12.6936165 C2.50313493,15.5721143 3.62484375,17.8940849 4.85373068,20.0003678 C5.68452748,21.425637 6.22707507,22.9940322 6.51133006,24.7954234 C6.60652553,25.4032098 6.68108422,25.9497516 6.63648214,26.4783194 C6.60186561,26.8790724 6.45075113,27.1746443 6.2097668,27.3084505 C5.96478826,27.4442539 5.62594565,27.41696 5.25648073,27.231229 C4.4176955,26.8098393 4.48426576,26.3391876 4.50556824,26.1840789 C4.60142941,25.4997367 4.77384637,24.7940919 5.01815921,24.0877815 L5.06209558,23.9626294 C5.3796357,23.0486198 5.70849277,22.1033222 4.82643688,21.0381981 C4.27190664,20.3685013 3.7413417,20.0403099 3.20478543,20.0363157 L3.19479989,20.0363157 C2.70018289,20.0363157 2.23086258,20.3039282 1.76154228,20.8551299 C0.373552433,22.4814412 -0.184972017,24.4925287 0.0533495005,27.0055559 C0.115925541,27.6532845 0.454102443,28.2750506 0.727040494,28.6811292 C1.93395924,30.4798575 3.74333881,31.4564432 5.75842046,31.4564432 C6.29431103,31.4564432 6.84551275,31.3872101 7.4040372,31.2454155 C8.22884267,31.0363849 9.10424154,30.6922167 10.0069342,30.2215649 C10.4136785,30.0085401 10.8011174,29.4580041 10.8883244,28.968047 C11.5001051,25.5083908 11.1060091,22.5706454 9.68207137,19.986388 C8.85260597,18.4785717 8.04244596,16.9254877 7.26024544,15.4236627 C6.8854549,14.7053696 6.51133006,13.9877422 6.13321101,13.2714463 C5.34302206,11.7742812 5.20788444,10.248491 5.70716137,8.469068 C6.15384779,6.87204756 6.99263301,5.78029535 8.34667203,5.03137997 C8.84728035,4.753782 9.4557325,4.44889023 9.73665898,4.58136504 C10.0142569,4.71051133 10.1746913,5.38353662 10.2705524,5.87881933 C10.4329839,6.71361035 10.508874,7.58967492 10.5827669,8.43578287 C10.6160521,8.81856185 10.6486715,9.20134082 10.689945,9.58278839 C10.6300318,11.0140489 10.9222752,11.4101419 12.3182535,11.8035721 C12.4427399,11.8381887 12.567892,11.8734709 12.6963726,11.8927763 C13.2628855,11.980649 13.686938,11.9034275 13.9951583,11.658449 C14.2993843,11.416799 14.4671414,11.0306915 14.5084149,10.4774926 C14.5417001,10.0234835 14.5556798,9.56747723 14.5683282,9.11213668 C14.5856364,8.50967586 14.6042761,7.88724396 14.6721778,7.28744595 C14.805984,6.11181523 14.5623369,4.92619896 13.903957,3.55684879" id="Fill-26" fill="#000000" mask="url(#mask-4)"></path>
                </g>
            </g>
        </g>
    </g>
</svg>