<?xml version="1.0" encoding="UTF-8"?>
<svg width="198px" height="40px" viewBox="0 0 198 40" version="1.1" xmlns="http://www.w3.org/2000/svg" xmlns:xlink="http://www.w3.org/1999/xlink">
    <title>Group 21</title>
    <defs>
        <polygon id="path-1" points="0 0 26.2143889 0 26.2143889 26.5529554 0 26.5529554"></polygon>
        <polygon id="path-3" points="0 0 37.5655552 0 37.5655552 38.0851737 0 38.0851737"></polygon>
        <polygon id="path-5" points="-2.0895627e-14 0 19.6978918 0 19.6978918 39.410041 -2.0895627e-14 39.410041"></polygon>
        <polygon id="path-7" points="2.0895627e-14 0 19.6980068 0 19.6980068 39.410041 2.0895627e-14 39.410041"></polygon>
    </defs>
    <g id="concept" stroke="none" stroke-width="1" fill="none" fill-rule="evenodd">
        <g id="00_home-d-contact" transform="translate(-478.000000, -104.000000)">
            <g id="Group-21" transform="translate(478.000000, 104.000000)">
                <path d="M89.155366,30.1160512 C89.0583197,31.9996324 89.0642013,33.8957119 88.8407006,35.7638539 C88.5355928,38.3098498 87.8717077,38.7774367 85.3418862,38.5627585 C84.8757697,38.5230577 84.4037716,38.4304226 83.9575055,38.2877939 C82.6245887,37.8657893 82.1827338,37.1592626 82.3738857,35.7601779 C82.8664694,32.1650523 82.7267815,28.5669859 82.4474057,24.967449 C82.308453,23.1684158 81.7327917,21.5031889 80.8483467,19.9430956 C80.2021063,18.8028011 79.4330877,18.4771077 78.3685188,19.1939273 C75.7548845,20.9517893 73.1897734,22.8147849 72.8258496,26.3385961 C72.499421,29.5058356 72.1340269,32.6716048 71.9009686,35.8461963 C71.7627511,37.7268366 71.4407337,38.1400187 69.558623,38.0407668 C69.0880953,38.01577 68.6072748,37.9929788 68.1543919,37.8768173 C66.3781499,37.4217288 65.943647,36.9012076 65.826015,35.0617384 C65.597368,31.5055783 65.8267502,27.9604463 66.415645,24.458691 C67.2398037,19.5637326 70.1931002,16.0877093 74.3734446,13.7277189 C76.6687375,12.4308269 79.3066333,12.7138787 81.7960189,13.4505486 C82.3687393,13.6203797 82.9149926,14.1497234 83.2950907,14.6496591 C84.5794843,16.3391475 85.8337346,18.0565736 87.0071131,19.8247284 C88.2812138,21.7443344 88.7980591,23.9153785 88.8546694,26.2106714 C88.8870182,27.509769 88.974507,28.8081313 89.0377341,30.1064936 C89.0766997,30.1094344 89.1156653,30.1123752 89.155366,30.1160512" id="Fill-1" fill="#000000"></path>
                <path d="M57.4570919,24.1339534 C57.3916592,23.123054 57.0056794,21.5409047 55.9977209,20.1609352 C55.1426838,18.9890271 54.8919808,18.8794824 53.4693698,19.3860349 C52.2856985,19.8080394 51.0226258,19.7903946 50.0337824,19.2845774 C48.8978992,18.7037697 48.1119709,18.9993199 47.2716378,19.5823332 C45.7850644,20.6116125 44.7212307,21.9592332 44.0918999,23.6957744 C43.399342,25.6087636 43.5331483,27.5533663 43.8029665,29.4626794 C43.9103057,30.2221405 44.585954,31.0668848 45.2410168,31.5513813 C46.671715,32.6085982 48.3398827,33.2474865 50.1256824,33.4871616 C52.118073,33.7533038 53.7957983,33.2401345 55.220615,31.7065084 C57.0644954,29.7214697 57.3196096,27.3004577 57.4570919,24.1339534 M63.5299101,26.1028177 C63.4019152,27.4783759 63.4041208,29.0392045 63.0740162,30.5257779 C62.7990516,31.7645891 62.3564615,33.0901538 61.59553,34.0716452 C59.9641223,36.175051 57.998934,38.0130498 55.3610381,38.8055949 C54.5030603,39.0629147 53.5068649,39.0151267 52.5966879,38.909258 C49.5867811,38.559303 46.7202382,37.7292628 43.9823552,36.3706141 C41.0724355,34.925947 39.2182624,32.7615197 38.0801735,29.6869153 C34.9511644,21.2387377 41.9451174,13.4235668 49.5066444,13.1603654 C50.1447975,13.1383094 50.8108883,13.0655247 51.4086055,12.8581984 C54.3001452,11.8546511 57.092433,12.6795449 58.864999,15.1615785 C59.8928079,16.6003639 60.8809161,18.067087 61.868289,19.53381 C63.1732681,21.4740015 63.5357215,23.6619553 63.5299101,26.1028177" id="Fill-3" fill="#000000"></path>
                <g id="Group-7" transform="translate(171.171977, 12.441487)">
                    <mask id="mask-2" fill="white">
                        <use xlink:href="#path-1"></use>
                    </mask>
                    <g id="Clip-6"></g>
                    <path d="M20.1423761,11.6924661 C20.0769434,10.6815668 19.6902284,9.09941742 18.6830051,7.71944793 C17.8272329,6.5475399 17.577265,6.43799517 16.1539188,6.94454764 C14.9709828,7.36655216 13.7071748,7.34890737 12.7190666,6.84309011 C11.5824482,6.26228249 10.7965199,6.5578327 9.95618687,7.14084591 C8.46961345,8.17012523 7.40651495,9.51774594 6.77718417,11.2542872 C6.08462622,13.1672763 6.21769734,15.1118791 6.48825076,17.0211922 C6.59485469,17.7806533 7.27050304,18.6253975 7.92556581,19.109894 C9.35626406,20.1671109 11.025167,20.8059993 12.8109666,21.0456743 C14.8033573,21.3118166 16.4803474,20.7986473 17.905164,19.2650211 C19.7497796,17.2799824 20.0048938,14.8589704 20.1423761,11.6924661 M26.2144591,13.6613304 C26.0871994,15.0368887 26.0886698,16.5977173 25.7585652,18.0842907 C25.4836006,19.3231019 25.0417457,20.6486666 24.280079,21.6301579 C22.6494065,23.7335638 20.6842182,25.5715625 18.0455871,26.3641076 C17.1883445,26.6214275 16.191414,26.5736395 15.281237,26.4677708 C12.2713301,26.1178158 9.40552243,25.2877755 6.66763944,23.9291268 C3.75698456,22.4844598 1.90354658,20.3200324 0.765457734,17.245428 C-2.3642866,8.79725042 4.63040158,0.982079576 12.1911934,0.718878149 C12.8300818,0.696822164 13.4954373,0.624037412 14.0931545,0.416711149 C16.9854294,-0.586836189 19.7777172,0.238057667 21.549548,2.72009123 C22.5773569,4.15887668 23.5654651,5.62559971 24.552838,7.09232274 C25.8578172,9.03251426 26.2202705,11.220468 26.2144591,13.6613304" id="Fill-5" fill="#000000" mask="url(#mask-2)"></path>
                </g>
                <g id="Group-10" transform="translate(0.000000, 0.177473)">
                    <mask id="mask-4" fill="white">
                        <use xlink:href="#path-3"></use>
                    </mask>
                    <g id="Clip-9"></g>
                    <path d="M21.0891246,38.0200386 C15.4200011,37.7906563 10.8169169,37.0407528 6.83434117,34.0646652 C2.89146617,31.1172503 0.569706104,27.3677328 0.103589612,22.3411737 C-0.245630158,18.5718058 0.277831897,15.1259257 1.7842557,11.663136 C2.52386641,9.96335471 3.37155145,8.58265002 4.83827449,7.47102835 C6.90639072,5.90211259 8.94289338,4.28026246 10.8816145,2.5554844 C13.109269,0.572651307 15.7096697,-0.0963802515 18.5784182,0.0109588776 C21.4177587,0.116827608 24.2144577,0.499131355 26.9883655,1.17625011 C29.5608286,1.80337529 31.9017038,2.93631775 34.0734832,4.33319682 C35.3189112,5.1345643 36.3180473,6.42189865 37.2017571,7.65335783 C38.0685574,8.86202584 37.3039499,10.2390545 35.7798813,10.4904928 C33.9315897,10.7956006 32.2766556,10.6963486 31.2348779,8.72160273 C30.8753653,8.03933758 30.1364898,7.47029315 29.4454022,7.06225742 C26.6310585,5.39923612 23.5829213,4.57360707 20.2921683,4.84048449 C18.909258,4.95223482 17.6072197,5.37644494 16.5558844,6.30794272 C14.5715809,8.06948076 12.5144926,9.77220284 10.7198706,11.7146 C9.83910159,12.6688889 9.38621869,14.0679736 8.904663,15.329576 C8.27312662,16.9845101 7.87464848,18.679145 8.28783061,20.5134677 C8.54515044,21.6522918 8.49442167,22.8631654 8.55838403,24.0431606 C8.78482548,28.2154179 11.3337622,31.1488639 15.30531,32.3369463 C20.6509457,33.9345349 24.8754021,31.8737706 28.847685,28.6587432 C28.939585,28.584488 29.0601577,28.5131737 29.1005937,28.4146569 C29.9137243,26.421531 31.5341041,26.7744268 32.9868583,27.2523065 C34.6270884,27.7926781 35.8114948,28.9520878 35.9570643,30.806261 C35.9886779,31.2040039 35.7534141,31.7429051 35.4578639,32.0237513 C32.9839175,34.3749194 30.1578106,36.1879214 26.8604408,37.129712 C24.7011598,37.7465444 22.4999724,38.2736824 21.0891246,38.0200386" id="Fill-8" fill="#000000" mask="url(#mask-4)"></path>
                </g>
                <g id="Group-13" transform="translate(87.774370, 0.000000)">
                    <mask id="mask-6" fill="white">
                        <use xlink:href="#path-5"></use>
                    </mask>
                    <g id="Clip-12"></g>
                    <path d="M12.9855325,14.0881872 C14.310362,14.0881872 15.4756532,14.0756888 16.6409445,14.0903928 C19.3832386,14.1234768 19.9912486,14.7991251 19.5824777,17.5303913 C19.447201,18.4324811 19.0722492,19.2985461 18.842867,20.0631536 C16.9137035,20.2351903 15.2374486,20.3417943 13.5744273,20.5483853 C12.5517648,20.6755748 12.250333,21.1019906 12.2459218,22.492988 C12.2348938,25.5043652 12.2709185,32.9291451 12.3429681,35.9412576 C12.3878153,37.8204275 12.3973729,37.9836418 11.5952702,39.3636113 C10.3777798,39.5187384 9.24189654,39.281269 8.0854277,38.7092837 C7.08629156,38.2152297 6.70692861,37.5550205 6.68266703,36.4963332 C6.61723427,33.6687559 6.49886715,26.4292462 6.39593922,23.6016689 C6.37241283,22.9605749 6.32683046,22.3202161 6.29301128,21.7136765 C5.08875448,21.3879832 3.98080881,21.1710993 2.9382959,20.7814436 C2.12001884,20.4748654 1.32453296,20.0315401 0.623887825,19.5088132 C-0.162040456,18.922124 -0.162775656,18.1714853 0.383477584,17.3568842 C1.15396668,16.2085026 2.20309638,15.6063742 3.58086027,15.4071351 C6.70178221,14.9549874 6.71060461,14.9219034 6.83191253,11.8605327 C6.94586845,8.96825776 7.05541318,6.07671807 7.11055314,3.18297278 C7.13040353,2.16325105 7.45756731,1.3324756 8.19497243,0.663444042 C9.2948309,-0.334956899 10.4718853,-0.193798592 11.3725047,0.997959821 C12.3694353,2.31690775 12.814231,3.83068355 12.8554022,5.44885768 C12.9200997,7.92795045 12.9090717,10.4092488 12.9333333,12.889812 C12.9362741,13.1794806 12.9575949,13.468414 12.9855325,14.0881872" id="Fill-11" fill="#000000" mask="url(#mask-6)"></path>
                </g>
                <g id="Group-16" transform="translate(151.715802, 0.000000)">
                    <mask id="mask-8" fill="white">
                        <use xlink:href="#path-7"></use>
                    </mask>
                    <g id="Clip-15"></g>
                    <path d="M12.9849167,14.0881872 C14.3097463,14.0881872 15.4750375,14.0756888 16.6403287,14.0903928 C19.3833581,14.1234768 19.9913681,14.7991251 19.5825972,17.5303913 C19.4473205,18.4324811 19.0723687,19.2985461 18.8429865,20.0631536 C16.913823,20.2351903 15.2375681,20.3417943 13.5745468,20.5483853 C12.551149,20.6755748 12.2504524,21.1019906 12.245306,22.492988 C12.2350132,25.5043652 12.271038,32.9291451 12.3423524,35.9412576 C12.3871995,37.8204275 12.3967571,37.9836418 11.5953897,39.3636113 C10.3778993,39.5187384 9.24201602,39.281269 8.08554718,38.7092837 C7.08641104,38.2152297 6.70704809,37.5550205 6.6827865,36.4963332 C6.61735375,33.6687559 6.49898663,26.4292462 6.39532349,23.6016689 C6.37253231,22.9605749 6.32621474,22.3202161 6.29313076,21.7136765 C5.08813876,21.3879832 3.98092829,21.1710993 2.93768018,20.7814436 C2.12013832,20.4748654 1.32465244,20.0315401 0.624007304,19.5088132 C-0.161920977,18.922124 -0.162656177,18.1714853 0.382861863,17.3568842 C1.15408615,16.2085026 2.20248066,15.6063742 3.58097975,15.4071351 C6.70116649,14.9549874 6.70998889,14.9219034 6.83129681,11.8605327 C6.94598793,8.96825776 7.05553266,6.07671807 7.11067262,3.18297278 C7.12978781,2.16325105 7.45768679,1.3324756 8.19435671,0.663444042 C9.29421518,-0.334956899 10.4712696,-0.193798592 11.3726242,0.997959821 C12.3695548,2.31690775 12.8136153,3.83068355 12.8555216,5.44885768 C12.9202192,7.92795045 12.908456,10.4092488 12.9334528,12.889812 C12.9363936,13.1794806 12.9577144,13.468414 12.9849167,14.0881872" id="Fill-14" fill="#000000" mask="url(#mask-8)"></path>
                </g>
                <path d="M121.391439,25.1577922 C119.118202,26.1414891 117.08464,27.4038267 115.555425,29.0881688 C114.35999,30.4049111 113.796828,32.3245171 113.074862,34.0279743 C112.716084,34.8749242 113.172643,35.8225964 113.951955,35.9424339 C115.251052,36.1424081 116.578823,36.2159281 117.895565,36.229961 C118.535924,36.2357785 119.013068,35.8365651 119.415222,35.2432591 C121.367912,32.364953 121.448784,29.0653776 121.664198,25.7900638 C121.67302,25.6555223 121.548771,25.510688 121.391439,25.1577922 M119.196868,40 C116.946422,39.686805 114.681273,39.450806 112.452883,39.0251254 C111.392725,38.8229456 110.339184,38.3656515 109.401805,37.8193982 C108.810705,37.4738545 108.25857,36.8209973 108.006396,36.1813737 C107.393975,34.6227507 107.221203,32.9759038 107.957138,31.3856673 C109.544434,27.9544912 111.6324,24.9585531 115.125333,23.1698127 C116.725127,22.3508004 118.270517,21.4237139 119.846049,20.5561784 C121.0084,19.9165549 121.720808,19.0247578 121.601706,17.6205268 C121.557594,17.0919183 121.595089,16.5537523 121.510541,16.033231 C121.284835,14.6532615 120.450383,14.3305089 119.427721,15.3200875 C118.567537,16.1530685 117.871303,17.1551455 117.107431,18.0866433 C116.606025,18.6975941 116.137703,19.3364824 115.6113,19.9231717 C115.123863,20.4657489 114.512177,20.4929513 113.868142,20.1878435 C112.484496,19.5327807 111.085412,18.9078611 109.718676,18.2204496 C108.663665,17.6911059 108.337236,16.8404801 108.689397,15.723712 C108.816586,15.3222931 108.939364,14.8988182 109.166541,14.551804 C110.962633,11.8058338 112.798427,9.23263551 116.45972,8.60992152 C118.725605,8.22467697 120.523903,8.83562777 122.259709,10.0310622 C123.391916,10.8103737 124.448398,11.7021707 125.507821,12.5822045 C127.352436,14.1143603 128.066315,16.2045325 128.147922,18.4976198 C128.247174,21.247266 128.328046,24.0094106 128.164832,26.7502343 C128.056022,28.5823515 127.420075,30.3769736 127.185546,32.2098259 C126.934843,34.166927 126.144503,35.8520043 125.065966,37.4517985 C124.119029,38.8560296 122.753763,39.5257963 121.128237,39.7316522 C120.499642,39.8110537 119.859283,39.7985553 119.22407,39.8286985 C119.214513,39.8853089 119.20569,39.9426544 119.196868,40" id="Fill-17" fill="#000000"></path>
                <path d="M150.525851,15.8615619 C149.207639,13.2523389 146.943959,11.8025254 143.978165,11.6694543 C139.400077,11.4334553 136.137262,14.1919238 133.784623,16.5908799 C131.196721,19.2295109 129.681475,22.8672781 129.403569,27.1130553 C129.168306,30.7059753 130.98866,33.4423879 132.600217,35.425221 C134.229419,37.4308453 136.454133,38.4167478 139.600787,38.527763 C139.848549,38.5365854 140.094841,38.5476134 140.379363,38.5623173 L140.745492,38.5792269 C141.071921,38.6328965 141.396144,38.6564229 141.718896,38.6564229 C142.931976,38.6564229 144.116382,38.3248479 145.270645,38.0013601 C145.680151,37.8874042 146.091128,37.7719779 146.503575,37.6712555 C148.387156,37.2132262 148.924587,36.4442075 148.717261,34.5069568 C148.58713,33.287996 147.870311,32.2984175 146.748396,31.791865 C145.254471,31.1176871 144.356792,32.418255 144.063448,32.8454059 C143.705406,33.3637216 143.239289,33.5945742 142.550407,33.5953094 C141.651258,33.5857518 140.871947,33.5798702 140.117632,33.4901759 C137.298877,33.1527193 135.168269,30.7177385 135.268256,27.9460364 C135.418972,23.7370191 137.964233,18.6420865 143.311339,16.7467421 C144.539122,16.307828 145.556638,16.5327991 146.507986,17.4466521 C146.639587,17.5731064 146.763836,17.7076479 146.888084,17.8414542 C147.003511,17.9664381 147.118937,18.0914221 147.24098,18.2119948 C148.214384,19.1729005 149.623026,19.5691731 150.379547,19.1001158 C151.215469,18.5803297 151.272079,17.339313 150.525851,15.8615619" id="Fill-19" fill="#000000"></path>
            </g>
        </g>
    </g>
</svg>