<?xml version="1.0" encoding="UTF-8"?>
<svg width="119px" height="40px" viewBox="0 0 119 40" version="1.1" xmlns="http://www.w3.org/2000/svg" xmlns:xlink="http://www.w3.org/1999/xlink">
    <title>Group 18</title>
    <defs>
        <polygon id="path-1" points="0 0 23.0130841 0 23.0130841 23.3098821 0 23.3098821"></polygon>
    </defs>
    <g id="concept" stroke="none" stroke-width="1" fill="none" fill-rule="evenodd">
        <g id="00_home-d-design" transform="translate(-478.000000, -104.000000)">
            <g id="Group-18" transform="translate(478.000000, 104.000000)">
                <path d="M10.7725395,5.48102221 C10.9822961,14.0707193 11.0003675,22.4842207 10.0722749,31.02164 C12.0781941,31.2339783 13.8917825,31.6676905 15.6705191,31.5528084 C17.9346003,31.4082376 20.2251432,30.9441913 21.8238117,29.0150754 C22.9126102,27.7023213 24.1143546,26.4702429 24.6235792,24.7650825 C24.8307543,24.0725628 25.1650742,23.4187674 25.4335627,22.744319 C26.4926725,20.0820228 26.9547826,17.318398 26.2822705,14.5173396 C25.2664028,10.2821911 22.8984113,7.24491447 18.3825115,6.31101323 C17.5221865,6.13352681 16.7025219,5.75725561 15.8428423,5.5791238 C14.1893143,5.23705907 12.5228782,4.72525279 10.7725395,5.48102221 M2.83147457,30.6105169 C2.91537724,27.3331496 3.04639448,24.1267768 3.06704745,20.9191133 C3.09286365,16.9259916 3.02767774,12.9322246 2.9986345,8.93845757 C2.99476207,8.42148805 2.96313722,7.90387312 2.96249182,7.3862582 C2.96184641,5.96120364 2.64237086,4.85562463 1.11017905,4.18117625 C-0.169013941,3.61773756 -0.119317745,2.45923533 1.00885045,1.60859135 C1.33671626,1.36140118 1.70911503,1.09162183 2.09635811,1.01933646 C4.23071292,0.621121481 6.38184827,-0.0359009549 8.51749389,0.00153254347 C11.0836247,0.0454200932 13.6445923,0.670172272 16.1991059,1.09549426 C18.3980012,1.46079357 20.5762436,1.90225069 22.6208871,2.8690676 C26.9799534,4.92984622 30.0972603,8.21624921 32.1322227,12.528201 C32.9002548,14.1565582 32.8324873,15.9766007 32.7008246,17.7385567 C32.2993826,23.1121999 30.163737,27.7242651 26.5346239,31.6935067 C24.8088105,33.5813168 22.6705833,34.620419 20.2193345,35.0915648 C18.1217678,35.494943 16.0151654,35.5246317 13.8704841,35.3994231 C10.612479,35.2103193 7.34027491,35.2858317 4.07387947,35.2238729 C3.20000091,35.2077377 2.31644127,35.1644956 1.45611621,35.021861 C0.697765167,34.8947162 0.105283245,34.4590678 0.0097632835,33.6051968 C-0.0883382983,32.7306728 0.568684138,31.4050106 1.26894872,31.1048972 C1.69233449,30.9241838 2.14863593,30.8228552 2.83147457,30.6105169" id="Fill-1" fill="#000000"></path>
                <path d="M39.8510746,25.824515 C39.6445449,30.791553 39.4677039,30.9535497 39.3128067,34.9892681 C39.24633,36.7279895 38.4647443,37.283038 36.8021807,36.8828868 C35.5023347,36.5692199 34.864029,35.7766624 34.7207491,34.5232856 C34.6265199,33.7042664 34.4948573,32.8684668 34.5658519,32.0565471 C35.1002473,25.9097085 35.235137,23.6288467 34.830468,17.4723271 C34.7401113,16.0905147 35.4255315,15.3411993 36.4981949,14.778406 C37.2565459,14.3808364 37.9748818,14.4815196 38.3982676,15.2082458 C38.8552145,15.9943493 39.3263602,16.8830722 39.402518,17.7601778 C39.6600347,20.7496944 39.746519,23.7534099 39.8510746,25.824515" id="Fill-3" fill="#000000"></path>
                <path d="M41.515639,5.74131411 C41.2832931,6.26344687 41.1580845,6.59195809 40.9941516,6.89981634 C40.7024285,7.44582909 40.3435833,7.95828078 40.0892936,8.51913785 C39.2070248,10.4727792 38.409304,10.3333717 36.3188368,9.51241636 C35.9967796,9.38591695 35.7482986,9.07676789 35.4591571,8.86120257 C34.8789379,8.42813572 34.6885434,7.85759757 35.0493249,7.23478161 C35.898678,5.77100274 36.7622301,4.31174171 37.7064578,2.90798553 C37.9691377,2.51751542 38.5041786,2.19674906 38.9701611,2.09154802 C39.3373966,2.00893616 40.0266893,2.18642258 40.1641606,2.45620193 C40.712755,3.53596473 41.1012889,4.69640318 41.515639,5.74131411" id="Fill-5" fill="#000000"></path>
                <path d="M55.2670282,12.9510704 C55.0230651,12.4424912 54.7216609,11.9616643 54.4305832,11.4963272 L54.3847594,11.422751 C53.5851024,10.1487213 52.34657,9.50267074 50.7027231,9.50267074 L50.7001414,9.50267074 C49.4345019,9.50267074 48.2469565,9.89701329 47.0703829,10.7063513 C45.3394063,11.8977692 43.7323475,13.144692 43.0817791,15.2893733 C42.5512561,17.039712 42.0710747,19.3631705 43.0714526,21.809256 C44.2138197,24.5999879 45.3013274,26.851161 46.4927453,28.8932229 C47.2982109,30.2750353 47.8242161,31.7956098 48.0998041,33.5420761 C48.192097,34.131331 48.2643824,34.6612087 48.2211403,35.1736603 C48.1875792,35.5621942 48.0410722,35.8487541 47.8074356,35.9784805 C47.5699265,36.1101432 47.2414153,36.0836816 46.8832154,35.9036136 C46.0700049,35.4950721 46.1345454,35.0387707 46.1551984,34.8883913 C46.2481368,34.2249148 46.4152967,33.5407853 46.6521604,32.8560105 L46.6947571,32.7346743 C47.0026154,31.848533 47.3214455,30.9320577 46.4662837,29.8994095 C45.9286612,29.2501319 45.4142733,28.9319472 44.8940768,28.9280748 L44.8843957,28.9280748 C44.4048597,28.9280748 43.949849,29.1875276 43.4948384,29.7219231 C42.1491687,31.2986479 41.6076738,33.2484168 41.8387288,35.6848212 C41.8993969,36.3128004 42.2272627,36.9156088 42.4918788,37.309306 C43.6619983,39.0531907 45.4162095,40 47.3698509,40 C47.889402,40 48.4237975,39.9328779 48.9652924,39.7954066 C49.7649494,39.5927494 50.6136571,39.2590749 51.4888265,38.8027735 C51.8831691,38.5962438 52.2587949,38.0624938 52.3433429,37.5874756 C52.9364703,34.233305 52.5543904,31.3851321 51.1738688,28.8796694 C50.369694,27.4178267 49.5842359,25.9120965 48.8258849,24.4560625 C48.4625218,23.7596704 48.0998041,23.0639236 47.733214,22.3694677 C46.9671181,20.9179515 46.8361008,19.4386829 47.3201547,17.713515 C47.7532215,16.165188 48.566432,15.1067236 49.8791861,14.3806428 C50.3645308,14.1115089 50.9544311,13.8159133 51.226792,13.9443489 C51.495926,14.0695575 51.6514686,14.7220621 51.744407,15.2022436 C51.9018858,16.0115816 51.975462,16.8609348 52.047102,17.6812447 C52.0793722,18.0523527 52.1109971,18.4234606 52.1510122,18.7932778 C52.0929257,20.1808988 52.3762586,20.5649149 53.7296732,20.9463493 C53.8503639,20.9799104 53.9717001,21.0141169 54.0962633,21.0328336 C54.6455031,21.1180271 55.0566262,21.0431601 55.3554487,20.805651 C55.6503989,20.571369 55.813041,20.197034 55.8530561,19.6607023 C55.8853264,19.220536 55.8988799,18.7784335 55.9111426,18.3369764 C55.9279231,17.7528847 55.9459944,17.1494309 56.0118258,16.5679209 C56.1415522,15.4281354 55.9053339,14.2786688 55.2670282,12.9510704" id="Fill-7" fill="#000000"></path>
                <path d="M66.9731931,20.8598005 L63.2937384,20.7016763 C62.8045213,20.6816687 62.3553193,20.6513347 62.2288199,20.5138634 C62.1010297,20.373165 62.1113562,19.9078279 62.1345907,19.4031211 C62.2133302,17.7263585 63.0084693,15.7965972 64.0191738,14.7781478 C65.0763474,15.6894599 66.6892148,18.8364554 66.9731931,20.8598005 M71.4961924,20.318951 C70.4693528,16.583346 68.3988931,13.4854013 66.5091468,10.9483137 C65.2822316,9.3012398 63.0826909,8.95207562 61.3917294,10.1376849 C60.809574,10.5462263 60.3642444,10.9502499 60.0292792,11.3749265 C58.2434431,13.6370716 57.3347127,15.8701734 57.2521008,18.2000859 C57.2043408,19.5722173 57.2178944,20.9746826 57.2934068,22.3681123 L57.3476208,23.3994698 C57.5541504,27.3913006 57.6399893,29.0441831 59.0889239,33.3012755 C59.4955291,34.495275 60.0228251,35.6621675 60.5333406,36.7896903 L60.7973113,37.3737819 C60.9502723,37.713265 61.2794289,38.1140616 61.6705444,38.2444335 C62.064887,38.3748053 62.8451818,38.6342582 63.7300323,38.6342582 C64.6865227,38.6342582 65.7649947,38.3309178 66.6072484,37.2350198 C67.1977941,36.4663423 67.7864036,35.6124713 68.4059925,34.6269376 C69.6180634,32.6991125 69.4179878,30.2723891 67.8838598,28.2948678 C67.6269885,27.9637749 67.3094492,27.7766074 66.9654482,27.7527275 C66.6350008,27.7320745 66.2948723,27.8663188 66.0031492,28.1528786 C65.6126791,28.5356039 65.3151473,28.9764156 65.1654133,29.3946381 C64.9827636,29.905799 64.8627183,30.4389037 64.7478362,30.9545824 C64.6994308,31.1714385 64.65038,31.3876492 64.5968114,31.6032145 C64.5703498,31.7109972 64.5458244,31.8207161 64.5219444,31.9304349 C64.4115801,32.4299785 64.3128331,32.8759535 63.9810949,33.2528701 C62.7393354,29.8044704 62.6121905,28.8705692 62.4869819,24.9761945 L63.1749838,24.9736129 C63.8455598,24.9710313 64.4606309,24.9678043 65.0763474,24.9794216 C65.6365591,24.9903934 66.1928983,24.9555416 66.7331024,24.9219805 C67.7612328,24.8593762 68.7325675,24.7993535 69.725846,25.013628 C70.2415248,25.1220561 70.7333235,25.0181459 71.1141125,24.7180325 C71.5278172,24.3914575 71.7730712,23.860289 71.7859793,23.2613531 C71.8111501,22.0647719 71.7195025,21.1302253 71.4961924,20.318951" id="Fill-9" fill="#000000"></path>
                <path d="M93.5318729,28.5416707 C93.4473249,30.1951987 93.4524881,31.8596985 93.2556395,33.499673 C92.9884418,35.734711 92.4049955,36.1451887 90.1841564,35.9567304 C89.7749696,35.9218785 89.3606195,35.8405575 88.9688586,35.7153489 C87.7993844,35.3448863 87.411496,34.724652 87.5793013,33.496446 C88.0117227,30.3404148 87.8890958,27.1818021 87.6438418,24.0218985 C87.5212148,22.4425921 87.0158626,20.9807494 86.2394402,19.6111997 C85.6721291,18.6101763 84.9976807,18.3242619 84.0631341,18.9535319 C81.7680734,20.4966956 79.5162548,22.1321522 79.1974247,25.2255791 C78.9108648,28.0059844 78.5900984,30.785099 78.3848596,33.5719584 C78.2641688,35.2229047 77.9814814,35.5856224 76.3292442,35.4984927 C75.9155395,35.476549 75.4934446,35.4565414 75.095875,35.3545674 C73.5365762,34.9550616 73.1557871,34.4981148 73.0518769,32.8833111 C72.8511559,29.7614864 73.0525223,26.6493428 73.5694918,23.5752781 C74.292991,19.2781707 76.8855835,16.2266952 80.5553571,14.1549446 C82.570312,13.01645 84.8860256,13.2649309 87.0713674,13.9116269 C87.5747835,14.0607155 88.0543195,14.5254072 88.3873485,14.9642827 C89.5155167,16.4474237 90.6159325,17.9550901 91.6459991,19.5072895 C92.7651316,21.1924423 93.218206,23.0983237 93.2685476,25.1132786 C93.2969455,26.2537095 93.3737487,27.3934949 93.4286081,28.5332804 C93.46346,28.5358621 93.4970211,28.5384437 93.5318729,28.5416707" id="Fill-11" fill="#000000"></path>
                <g id="Group-15" transform="translate(95.312221, 13.025808)">
                    <mask id="mask-2" fill="white">
                        <use xlink:href="#path-1"></use>
                    </mask>
                    <g id="Clip-14"></g>
                    <path d="M17.6820376,10.2643944 C17.6245965,9.37696231 17.2851134,7.98805044 16.4009084,6.77662498 C15.6503022,5.74784918 15.4302191,5.65168382 14.1813601,6.09636796 C13.1422578,6.46683051 12.0334518,6.45134079 11.1653819,6.00730205 C10.1675855,5.49743199 9.47829282,5.75688486 8.73994934,6.26869114 C7.43558554,7.17225834 6.5016843,8.35528597 5.9492175,9.87973291 C5.34124585,11.5590771 5.45870959,13.2661737 5.69557328,14.9422909 C5.78980243,15.6089944 6.38292975,16.3505649 6.95798574,16.7758869 C8.21329874,17.7039795 9.67836842,18.2648365 11.2460575,18.4752386 C12.9951055,18.7088753 14.46792,18.2583825 15.7187152,16.9120674 C17.3373913,15.1694735 17.5613468,13.0441543 17.6820376,10.2643944 M23.0131457,11.9927894 C22.9007836,13.2003424 22.9027198,14.5705375 22.6129329,15.8755467 C22.370906,16.9630544 21.9830175,18.1267198 21.3150232,18.9883357 C19.8828691,20.8348398 18.1577012,22.4483527 15.8419875,23.1440994 C15.0887997,23.3699912 14.2136304,23.3280399 13.4152642,23.2351016 C10.7723301,22.9278887 8.25654089,22.1992263 5.85305213,21.0065176 C3.29853857,19.7382965 1.6708268,17.8382237 0.671739637,15.1391394 C-2.07510465,7.72278892 4.06463448,0.862132247 10.7026264,0.631077206 C11.262838,0.611715051 11.8469297,0.547819942 12.3716441,0.365815692 C14.9106679,-0.51516233 17.3619167,0.208982242 18.9179885,2.38787001 C19.8196194,3.65092787 20.6876894,4.93851113 21.5538231,6.2260944 C22.7000626,7.92931857 23.0182473,9.85004428 23.0131457,11.9927894" id="Fill-13" fill="#000000" mask="url(#mask-2)"></path>
                </g>
                <path d="M84.9197158,11.7151196 C83.3752613,11.7151196 83.121617,11.7325455 81.5771625,11.7086655 C80.4857824,11.691885 79.3937569,11.623472 78.3030222,11.5686126 C77.576296,11.5331153 77.4213988,11.3995165 77.2955448,10.643747 C77.2361675,10.2784477 77.2032519,9.25548057 77.2245502,8.88824505 C77.2658562,8.19830695 77.4426972,7.99823135 78.121018,7.93562706 C78.9387463,7.85946925 79.7622833,7.82913521 80.583884,7.80654603 C82.3497125,7.75749524 82.8253761,7.67940121 84.5905591,7.69876337 C86.731368,7.72328876 88.8715315,7.81751791 91.0110495,7.92078274 C91.8281324,7.96079786 92.1024296,8.37837498 91.9585043,9.17351412 C91.7268038,10.4591612 90.9329555,11.7435174 89.6337549,11.7312547 C88.0621934,11.7177012 86.4912773,11.7286731 84.9197158,11.7286731 L84.9197158,11.7151196 Z" id="Fill-16" fill="#000000"></path>
            </g>
        </g>
    </g>
</svg>