<svg id="Layer_1" data-name="Layer 1" xmlns="http://www.w3.org/2000/svg" viewBox="0 0 105.26 30.37"><path d="M64.2,39.18a8.88,8.88,0,0,1-2.65-1.76,21.77,21.77,0,0,1-4.15-7.66,2.29,2.29,0,0,1,.29-2.21c.93-1.23,1.89-1.37,2.9-.18a8.4,8.4,0,0,1,1.79,2.76,19.08,19.08,0,0,0,3.24,5.73,4.81,4.81,0,0,1,.62,1C66.75,38.1,66.08,39.13,64.2,39.18Z" transform="translate(-43.87 -8.82)"/><path d="M57.19,20.26c-2.47-.08-3.37-1.25-2.64-3.3a64.91,64.91,0,0,1,2.6-6.14c1-2,2.05-2.45,3.47-1.57s1.57,2.37.69,4.07a44.24,44.24,0,0,0-2.18,5.27C58.72,19.71,58.06,20.31,57.19,20.26Z" transform="translate(-43.87 -8.82)"/><path d="M52.29,23.92a20.76,20.76,0,0,1,2.43,2.3c.57.74.09,1.5-.52,2.09-1.52,1.49-3,3-4.59,4.45-1,.91-3.51.42-4.17-.81a1.86,1.86,0,0,1,.07-1.53A9.31,9.31,0,0,1,47,28.61c1-1.09,2.07-2.18,3.16-3.2A22.18,22.18,0,0,1,52.29,23.92Z" transform="translate(-43.87 -8.82)"/><path d="M57.54,23.12a9.7,9.7,0,0,1,1.94-2.06,12.35,12.35,0,0,1,5.9-1.57,4.3,4.3,0,0,1,3.7,2.13,2,2,0,0,1,.22,1.74,2,2,0,0,1-1.56.68,13,13,0,0,0-5.8.92C60.37,25.66,59.1,24.54,57.54,23.12Z" transform="translate(-43.87 -8.82)"/><path d="M43.87,19.58c1.25-2.39,1.33-2.48,3.51-2a20.44,20.44,0,0,1,4.36,1.16A6.73,6.73,0,0,1,54.34,21c.76,1.1.06,2.31-1.21,2-2.81-.73-5.81-.83-8.38-2.4A5.29,5.29,0,0,1,43.87,19.58Z" transform="translate(-43.87 -8.82)"/><path d="M103.74,39.18a8.88,8.88,0,0,1-2.65-1.76,21.61,21.61,0,0,1-4.15-7.66,2.29,2.29,0,0,1,.28-2.21c.94-1.23,1.9-1.37,2.91-.18a8.37,8.37,0,0,1,1.78,2.76,19.32,19.32,0,0,0,3.25,5.73,5.22,5.22,0,0,1,.61,1C106.29,38.1,105.62,39.13,103.74,39.18Z" transform="translate(-43.87 -8.82)"/><path d="M96.72,20.26c-2.47-.08-3.36-1.25-2.63-3.3a64.83,64.83,0,0,1,2.59-6.14c1-2,2.06-2.45,3.48-1.57s1.57,2.37.68,4.07a44.18,44.18,0,0,0-2.17,5.27C98.26,19.71,97.59,20.31,96.72,20.26Z" transform="translate(-43.87 -8.82)"/><path d="M91.82,23.92a20.76,20.76,0,0,1,2.43,2.3c.57.74.1,1.5-.51,2.09-1.53,1.49-3,3-4.59,4.45-1,.91-3.52.42-4.17-.81a1.86,1.86,0,0,1,.07-1.53,9,9,0,0,1,1.52-1.81c1-1.09,2.06-2.18,3.16-3.2A21.91,21.91,0,0,1,91.82,23.92Z" transform="translate(-43.87 -8.82)"/><path d="M97.07,23.12a10,10,0,0,1,2-2.06,12.35,12.35,0,0,1,5.9-1.57c1.81,0,2.79,1,3.7,2.13a2,2,0,0,1,.22,1.74,2,2,0,0,1-1.56.68,13,13,0,0,0-5.8.92C99.9,25.66,98.64,24.54,97.07,23.12Z" transform="translate(-43.87 -8.82)"/><path d="M83.41,19.58c1.24-2.39,1.33-2.48,3.51-2a20.51,20.51,0,0,1,4.35,1.16A6.59,6.59,0,0,1,93.87,21c.77,1.1.06,2.31-1.2,2-2.81-.73-5.82-.83-8.38-2.4A5.29,5.29,0,0,1,83.41,19.58Z" transform="translate(-43.87 -8.82)"/><path d="M143.92,39.18a8.75,8.75,0,0,1-2.65-1.76,21.79,21.79,0,0,1-4.16-7.66,2.29,2.29,0,0,1,.29-2.21c.93-1.23,1.9-1.37,2.9-.18a8.4,8.4,0,0,1,1.79,2.76,19.11,19.11,0,0,0,3.25,5.73,5.22,5.22,0,0,1,.61,1C146.46,38.1,145.8,39.13,143.92,39.18Z" transform="translate(-43.87 -8.82)"/><path d="M136.9,20.26c-2.47-.08-3.36-1.25-2.63-3.3a62.32,62.32,0,0,1,2.59-6.14c1-2,2-2.45,3.48-1.57s1.57,2.37.68,4.07a44.18,44.18,0,0,0-2.17,5.27C138.44,19.71,137.77,20.31,136.9,20.26Z" transform="translate(-43.87 -8.82)"/><path d="M132,23.92a20.76,20.76,0,0,1,2.43,2.3c.57.74.1,1.5-.51,2.09-1.53,1.49-3,3-4.59,4.45-1,.91-3.52.42-4.18-.81a1.9,1.9,0,0,1,.07-1.53,9.67,9.67,0,0,1,1.52-1.81c1-1.09,2.07-2.18,3.17-3.2A20.7,20.7,0,0,1,132,23.92Z" transform="translate(-43.87 -8.82)"/><path d="M137.25,23.12a10,10,0,0,1,1.94-2.06,12.35,12.35,0,0,1,5.91-1.57c1.8,0,2.79,1,3.7,2.13a2,2,0,0,1,.21,1.74,2,2,0,0,1-1.56.68,13,13,0,0,0-5.79.92C140.08,25.66,138.82,24.54,137.25,23.12Z" transform="translate(-43.87 -8.82)"/><path d="M123.58,19.58c1.25-2.39,1.34-2.48,3.51-2a20.44,20.44,0,0,1,4.36,1.16,6.66,6.66,0,0,1,2.6,2.26c.76,1.1.06,2.31-1.2,2-2.81-.73-5.82-.83-8.38-2.4A5.31,5.31,0,0,1,123.58,19.58Z" transform="translate(-43.87 -8.82)"/></svg>