<?xml version="1.0" encoding="UTF-8"?>
<svg width="174px" height="40px" viewBox="0 0 174 40" version="1.1" xmlns="http://www.w3.org/2000/svg" xmlns:xlink="http://www.w3.org/1999/xlink">
    <title>docencia</title>
    <defs>
        <polygon id="path-1" points="0 -4.92891007e-15 19.6114229 -4.92891007e-15 19.6114229 29.7255408 0 29.7255408"></polygon>
    </defs>
    <g id="concept" stroke="none" stroke-width="1" fill="none" fill-rule="evenodd">
        <g id="00_home-d-docencia" transform="translate(-478.000000, -104.000000)">
            <g id="docencia" transform="translate(478.000000, 104.000000)">
                <g id="Group-20" transform="translate(0.000000, -0.000000)">
                    <path d="M11.5783417,5.89101095 C11.8037885,15.1232303 11.8232116,24.1660744 10.8256962,33.3421055 C12.9816612,33.570327 14.9309088,34.0364816 16.8426976,33.9136998 C19.2761355,33.7576212 21.7380144,33.2588636 23.4562658,31.1854468 C24.6265081,29.7744968 25.9181447,28.450257 26.4654602,26.6175481 C26.6881322,25.8739205 27.0474597,25.1705265 27.3360316,24.4456284 C28.4743645,21.5841884 28.9710411,18.6138403 28.248224,15.6032586 C27.1563678,11.0513145 24.611247,7.78684501 19.7575511,6.78308655 C18.8328725,6.59232388 17.9518958,6.18790703 17.0279108,5.99645068 C15.2506964,5.62879899 13.4596084,5.07870883 11.5783417,5.89101095 M3.04327314,32.9002298 C3.13345186,29.3777104 3.27426939,25.9314961 3.29646723,22.4838945 C3.32421453,18.1920814 3.2541526,13.8995745 3.22293689,9.60706769 C3.2187748,9.05142807 3.18478436,8.49509477 3.18409068,7.93876146 C3.18339699,6.40711067 2.84002419,5.21883268 1.19322212,4.49393455 C-0.181656439,3.88904348 -0.128242893,2.64318985 1.08431398,1.72891641 C1.43670465,1.46323605 1.83695941,1.17327679 2.25316887,1.09558436 C4.54717664,0.667582306 6.85922015,-0.0385864005 9.15461529,0.00164718003 C11.9126966,0.0495112672 14.6652285,0.72030217 17.4108235,1.17743889 C19.7741995,1.57006314 22.1153777,2.0452356 24.3129636,3.08367819 C28.9980947,5.29860616 32.3485808,8.83083706 34.5357615,13.4653293 C35.3612435,15.2154901 35.2884069,17.1716745 35.1468957,19.0654275 C34.7154252,24.8417211 32.4200301,29.798082 28.5194538,34.0642289 C26.664547,36.0939436 24.3663771,37.2107723 21.7317713,37.7171605 C19.4773034,38.1500183 17.213124,38.1826214 14.9080173,38.048047 C11.4063084,37.8441044 7.88933855,37.9252652 4.37861181,37.8593654 C3.43936581,37.8420234 2.48971457,37.7948529 1.5650359,37.6415491 C0.749959055,37.5055874 0.11315859,37.0366581 0.0104935918,36.1196099 C-0.0949461364,35.1796702 0.61122257,33.7541528 1.363868,33.4315905 C1.81892367,33.2373594 2.30935714,33.1284513 3.04327314,32.9002298" id="Fill-1" fill="#000000"></path>
                    <path d="M54.2398107,22.9783513 C54.178073,22.024538 53.813196,20.5317334 52.8628511,19.2289978 C52.0554047,18.1239617 51.8195527,18.0199094 50.4765835,18.4985503 C49.3604485,18.8960303 48.1680084,18.8800756 47.2356993,18.4028221 C46.1632662,17.8541193 45.4217197,18.1329796 44.6288407,18.6830698 C43.2262149,19.6549188 42.2231501,20.925745 41.6286642,22.5649166 C40.9759091,24.3698783 41.1014656,26.2046683 41.356047,28.0054679 C41.4573247,28.7227355 42.0948188,29.5197766 42.7128899,29.9762196 C44.0627959,30.9744286 45.637455,31.5772387 47.3224096,31.8026854 C49.2022889,32.0537985 50.7845785,31.5703018 52.1289351,30.1225866 C53.8693843,28.2503378 54.1100921,25.9660415 54.2398107,22.9783513 M59.969,24.8360329 C59.8482331,26.1339127 59.8503141,27.6059068 59.5388507,29.0085326 C59.2794135,30.1780812 58.8618167,31.4280969 58.1438554,32.3548566 C56.6052677,34.3387884 54.7510546,36.0729944 52.2614284,36.8207841 C51.4525947,37.0642666 50.5119613,37.0184836 49.6531825,36.919287 C46.8132467,36.5884005 44.1092726,35.8059267 41.5259992,34.5240016 C38.7797105,33.1609156 37.0309371,31.1187146 35.9564231,28.2177347 C33.0041107,20.2459363 39.6038052,12.8720921 46.7376353,12.6237538 C47.3404453,12.6029433 47.9682279,12.5342688 48.5321917,12.3386503 C51.2604447,11.3917738 53.8957442,12.1707792 55.5675188,14.512651 C56.5372869,15.8701876 57.469596,17.254084 58.4012115,18.6379804 C59.6324978,20.4679146 59.9744833,22.5330072 59.969,24.8360329" id="Fill-3" fill="#000000"></path>
                    <path d="M72.8228691,37.3045582 C72.3865429,37.2844414 72.0528816,37.265712 71.717833,37.2539194 C69.2289005,37.1665154 67.0333956,36.5026613 65.3692515,34.4556045 C63.5531909,32.2205597 62.2351943,29.823887 62.4308127,26.8535388 C62.6715205,23.1673104 63.9298605,19.7315014 66.4659634,17.1454533 C68.9458781,14.6176746 71.9176136,12.4304939 75.8195772,12.6059955 C78.4604262,12.7246152 80.4894473,13.9656131 81.7040852,16.3706101 C82.3318678,17.6129953 82.2999584,18.598718 81.6929863,18.9753875 C81.1193109,19.3319403 79.9560055,18.9726128 79.1582707,18.1852833 C78.9196439,17.9508186 78.7046024,17.6920751 78.4632009,17.4610788 C77.4913518,16.528076 76.4092072,16.2554588 75.0912106,16.7230007 C70.1008593,18.4911972 67.4287946,23.2234987 67.2713287,27.6047969 C67.170051,30.4384896 69.3586191,32.8580539 72.1513845,33.1910214 C72.9241467,33.2839749 73.7100889,33.2950738 74.489788,33.2943801 C75.1862451,33.2936864 75.769632,33.0626902 76.2017962,32.436295 C76.6963918,31.7190273 77.3415164,31.1259289 78.3071223,31.5622551 C79.2699536,31.997194 79.8533405,32.8233698 79.9622486,33.8437766 C80.1419124,35.5190197 79.7409639,36.0663351 78.1371702,36.4561846 C76.3585684,36.8890424 74.6167319,37.604229 72.8228691,37.3045582" id="Fill-5" fill="#000000"></path>
                    <path d="M94.0202085,20.8959861 L90.065525,20.7260339 C89.5397137,20.7045297 89.0569108,20.6719267 88.920949,20.5241723 C88.7835999,20.3729495 88.7946988,19.8728045 88.8196714,19.3303448 C88.9043006,17.5281579 89.7589174,15.4540475 90.845224,14.3594166 C91.9814758,15.3388962 93.7149882,18.7212917 94.0202085,20.8959861 M98.8815349,20.3146802 C97.7778862,16.2996463 95.552553,12.9699707 93.5214508,10.2431051 C92.2027605,8.47282756 89.8386908,8.09754537 88.0212429,9.37183998 C87.3955414,9.81094095 86.9169005,10.2451862 86.5568793,10.7016292 C84.63746,13.1329861 83.6607552,15.5331273 83.5719638,18.0373208 C83.5206313,19.5120896 83.5351987,21.0194615 83.6163595,22.5171219 L83.6746288,23.6256264 C83.8966072,27.9160522 83.988867,29.6925729 85.546184,34.2681021 C85.9832039,35.5514146 86.5499425,36.8055924 87.0986453,38.0174556 L87.3823614,38.6452382 C87.5467641,39.0101152 87.9005422,39.440892 88.3209137,39.5810158 C88.7447537,39.7211397 89.5834157,40 90.5344543,40 C91.5624917,40 92.721635,39.6739693 93.6268906,38.4960965 C94.26161,37.6699207 94.8942483,36.7521789 95.5601835,35.6929258 C96.8629191,33.6208964 96.6478775,31.0126505 94.9989944,28.8872076 C94.7229088,28.5313485 94.381617,28.3301806 94.0118843,28.3045143 C93.6567189,28.2823165 93.2911483,28.4266025 92.9776038,28.7345975 C92.5579259,29.1459511 92.2381383,29.6197362 92.077204,30.0692424 C91.8808919,30.6186389 91.751867,31.1916206 91.6283915,31.7458728 C91.5763653,31.9789501 91.5236454,32.2113338 91.4660698,32.4430237 C91.4376288,32.5588686 91.4112689,32.6767947 91.3856026,32.7947207 C91.266983,33.3316309 91.1608495,33.8109654 90.8042968,34.216076 C89.4696518,30.5097308 89.3329964,29.5059723 89.198422,25.3202926 L89.9378874,25.3175178 C90.6586235,25.3147431 91.3197028,25.3112747 91.9814758,25.323761 C92.5835922,25.3355536 93.1815464,25.2980947 93.7621586,25.2620232 C94.8671947,25.194736 95.9111868,25.1302236 96.978764,25.3605261 C97.5330163,25.4770648 98.0616023,25.3653819 98.4708749,25.0428196 C98.9155253,24.6918163 99.1791247,24.1209157 99.1929983,23.4771784 C99.2200519,22.1910912 99.121549,21.186639 98.8815349,20.3146802" id="Fill-7" fill="#000000"></path>
                    <path d="M122.676576,29.7552818 C122.585704,31.5331898 122.591253,33.3215031 122.380374,35.0841501 C122.092496,37.4870661 121.4661,37.9275544 119.079139,37.7249991 C118.639345,37.688234 118.193307,37.6001363 117.772935,37.4662556 C116.515289,37.0680819 116.098386,36.4014531 116.278743,35.0813754 C116.74351,31.6885747 116.611711,28.2943866 116.348111,24.8974238 C116.216312,23.2006766 115.673852,21.6294859 114.839352,20.1574918 C114.229605,19.0808966 113.504014,18.7735953 112.499561,19.4499357 C110.03352,21.109224 107.612569,22.8670153 107.26989,26.1911415 C106.961895,29.180219 106.617134,32.1672156 106.397237,35.1625363 C106.266825,36.9362822 105.962992,37.3261317 104.187165,37.2324846 C103.743208,37.2095931 103.288846,37.1880889 102.862231,37.0784871 C101.186295,36.6490977 100.776328,36.1579705 100.665339,34.4223771 C100.449604,31.0663415 100.665339,27.7220986 101.221673,24.4180892 C101.999291,19.7995516 104.785813,16.5198211 108.730091,14.2924069 C110.895768,13.0694448 113.3847,13.3358188 115.733509,14.0315823 C116.273887,14.1911292 116.789293,14.6912743 117.147927,15.1629783 C118.359791,16.7563668 119.543213,18.3775027 120.65033,20.0458089 C121.852482,21.85632 122.34014,23.9054579 122.393554,26.0704407 C122.424076,27.2968713 122.506624,28.5219144 122.566281,29.7469576 C122.603046,29.7497323 122.639811,29.752507 122.676576,29.7552818" id="Fill-9" fill="#000000"></path>
                    <path d="M134.144048,38.1052758 C133.708416,38.085159 133.374061,38.0657359 133.039012,38.054637 C130.550774,37.9665393 128.354575,37.3026853 126.691125,35.2556284 C124.87437,33.0205837 123.557067,30.6239109 123.751992,27.6535628 C123.993394,23.9680281 125.251733,20.532219 127.787143,17.9461709 C130.267057,15.4183922 133.238793,13.2305178 137.14145,13.4067132 C139.781606,13.5246392 141.810627,14.765637 143.025958,17.1713277 C143.653047,18.4137129 143.621138,19.3987419 143.014166,19.7761052 C142.44049,20.1326579 141.277878,19.7733304 140.47945,18.9860009 C140.241517,18.7508425 140.025782,18.4927927 139.785074,18.2611028 C138.812531,17.3280999 137.730387,17.0561764 136.41239,17.5230247 C131.422732,19.2919148 128.749974,24.0235226 128.592508,28.4055145 C128.49123,31.2385135 130.679798,33.6580778 133.473258,33.9917391 C134.245326,34.0839988 135.031268,34.0957914 135.810967,34.0950977 C136.507424,34.0937104 137.090811,33.8634078 137.522976,33.2363189 C138.017571,32.519745 138.663389,31.9266465 139.628995,32.3629727 C140.591133,32.7972179 141.175213,33.6240874 141.284122,34.6444942 C141.463092,36.3197373 141.062143,36.8670527 139.45835,37.2569022 C137.680441,37.6890664 135.937911,38.4049466 134.144048,38.1052758" id="Fill-11" fill="#000000"></path>
                    <path d="M151.452882,26.3837771 C151.230903,31.722357 151.040834,31.8964713 150.874351,36.2340675 C150.802901,38.1028479 149.962852,38.6994148 148.175926,38.2693317 C146.778849,37.9322021 146.092798,37.0803601 145.9388,35.7332288 C145.837522,34.8529458 145.696011,33.9546271 145.772316,33.0819746 C146.346685,26.4753432 146.491665,24.0238695 146.056726,17.4068329 C145.959611,15.9216588 146.696301,15.1162935 147.849201,14.5114024 C148.664278,14.084094 149.436347,14.1923085 149.891403,14.9733949 C150.38253,15.8183001 150.889612,16.7735008 150.970772,17.7162152 C151.247552,20.9293522 151.340505,24.1577502 151.452882,26.3837771" id="Fill-13" fill="#000000"></path>
                    <path d="M153.241958,4.7983224 C152.992232,5.35951148 152.857658,5.71259583 152.681463,6.04348235 C152.367918,6.63033768 151.982231,7.18112152 151.70892,7.78462523 C150.760656,9.88370824 149.903264,9.73387284 147.656427,8.8515088 C147.31028,8.71554704 147.043212,8.38327316 146.732442,8.15158323 C146.108822,7.68612232 145.904185,7.07290706 146.291954,6.40350352 C147.20484,4.83023179 148.132987,3.26181583 149.147844,1.75305656 C149.430173,1.3333787 150.005236,0.988618531 150.506075,0.875548296 C150.90078,0.786756946 151.641633,0.977519613 151.789387,1.26747887 C152.379017,2.42800956 152.796614,3.67525056 153.241958,4.7983224" id="Fill-15" fill="#000000"></path>
                    <g id="Group-19" transform="translate(153.712711, 10.229439)">
                        <mask id="mask-2" fill="white">
                            <use xlink:href="#path-1"></use>
                        </mask>
                        <g id="Clip-18"></g>
                        <path d="M13.1326372,15.7214801 C10.9877712,16.6503208 9.06904559,17.8413736 7.62618615,19.4306 C6.49895221,20.6729852 5.96689779,22.48419 5.28570165,24.0907585 C4.94718463,24.8905743 5.37796142,25.784731 6.11395847,25.8978012 C7.33969531,26.0864828 8.59179208,26.1558511 9.8341773,26.1690915 C10.4383747,26.1745805 10.8885746,25.7979109 11.2687126,25.2381092 C13.1111331,22.5223425 13.1874381,19.4090958 13.3899934,16.3187406 C13.3983176,16.1917968 13.2810853,16.0551413 13.1326372,15.7214801 M11.0619952,29.7255408 C8.93932698,29.4307258 6.80209143,29.2080537 4.69954001,28.8064116 C3.69855627,28.6156489 2.70450936,28.1841785 1.82006427,27.6680788 C1.2623436,27.3427417 0.741388101,26.7267517 0.504148712,26.123248 C-0.0743824283,24.6526413 -0.237397798,23.0987926 0.456978308,21.5983576 C1.95463866,18.3609417 3.92539042,15.5341858 7.22038193,13.8464565 C8.72983488,13.0736943 10.1879553,12.1989607 11.6752105,11.3797218 C12.7712287,10.7769118 13.4434069,9.9347813 13.3317241,8.61054155 C13.2901031,8.11178389 13.3247873,7.60400836 13.2450138,7.1128812 C13.0320533,5.81083929 12.2447237,5.50631271 11.2798115,6.44000925 C10.468203,7.22525775 9.81197946,8.17144058 9.09054974,9.05033621 C8.61815201,9.6267863 8.17558263,10.2289026 7.67890601,10.7831549 C7.21899457,11.2943988 6.64185079,11.3207588 6.03418499,11.0328806 C4.72936835,10.4148095 3.4092907,9.82517947 2.11904139,9.17658641 C1.12360712,8.67713506 0.81561212,7.8745445 1.147886,6.8208409 C1.26789306,6.44139662 1.38373802,6.04252922 1.59808589,5.71511112 C3.29275205,3.12351359 5.02487706,0.696318789 8.47941553,0.108076095 C10.6173448,-0.254719813 12.314092,0.321730281 13.9525698,1.4496579 C15.0201471,2.18426759 16.0169687,3.02639805 17.0172588,3.85673591 C18.7570143,5.30167639 19.4305799,7.27450921 19.5082724,9.43810468 C19.6012258,12.0324769 19.6775309,14.6379481 19.5242271,17.2246899 C19.4215621,18.9526528 18.8215268,20.6466253 18.6002421,22.3759756 C18.3636964,24.2225582 17.6172941,25.8124783 16.599662,27.3219312 C15.706199,28.6468647 14.4180308,29.2788093 12.8849926,29.4723467 C12.2912004,29.5479581 11.6870031,29.5361655 11.0883551,29.5639128 C11.0793372,29.61802 11.0703194,29.6721273 11.0619952,29.7255408" id="Fill-17" fill="#000000" mask="url(#mask-2)"></path>
                    </g>
                </g>
            </g>
        </g>
    </g>
</svg>