<svg id="Layer_1" data-name="Layer 1" xmlns="http://www.w3.org/2000/svg" viewBox="0 0 146.22 40"><path d="M98.43,15.79a7.44,7.44,0,0,0-6.63-4.25c-4.56-.22-7.8,2.5-10.13,4.87a16.09,16.09,0,0,0-4.34,10.4c-.24,3.6,1.57,6.32,3.17,8.29s3.88,3,7,3.13l.71,0,.37,0a6.58,6.58,0,0,0,1,.08,13.11,13.11,0,0,0,3.52-.65l1.19-.32c2-.48,2.63-1.38,2.41-3.44A3.53,3.53,0,0,0,94.61,31c-1.14-.52-2.16-.13-3,1.14a1.26,1.26,0,0,1-1.17.57,18.56,18.56,0,0,1-2.31-.1,5,5,0,0,1-4.38-5,11.62,11.62,0,0,1,7.55-10.51,2.41,2.41,0,0,1,2.72.6c.12.12.24.24.35.37l.36.37c.94.92,2.49,1.52,3.47.91C98.93,18.91,99.4,17.71,98.43,15.79Z" transform="translate(0)"/><path d="M24.92,25.19c-1,0-1.79,0-2.64,0-2.29.05-4.57.13-6.74-.83a5.4,5.4,0,0,1-.77-.36,2.15,2.15,0,0,1-1.26-2.23A3,3,0,0,1,16,19.54c3.65-.13,7.31-.29,11-.38a7.31,7.31,0,0,1,2.69.29,5.79,5.79,0,0,1,3.2,5.68,24.31,24.31,0,0,1-1.74,6.94A10.53,10.53,0,0,1,24,38c-2.06.6-4.09.15-6.12,0a21.38,21.38,0,0,1-9-2.94,17.19,17.19,0,0,1-7.68-9.14,16.73,16.73,0,0,1,1-14.27c.31-.55.6-1.11.91-1.65a17.7,17.7,0,0,1,12.12-9A28.15,28.15,0,0,1,23.68.34a10.94,10.94,0,0,1,7.18,3.24,13.53,13.53,0,0,1,3.41,7.36c.18,1.16-.42,1.77-1.59,1.54a16.91,16.91,0,0,1-3.41-1.08,2.58,2.58,0,0,1-1.5-2.16c-.47-3.43-.51-3.58-4.49-3.38a13.89,13.89,0,0,0-10,4.39c-3,3.34-5.55,7-5,11.94.1.85,0,1.72.06,2.58.13,4,4,7.46,6.74,7.67a15.33,15.33,0,0,0,6.59-.73C24.1,30.82,25.25,28.48,24.92,25.19Z" transform="translate(0)"/><path d="M43.31,15.05c1.93-1.47,3.83-2.9,5.71-4.37.49-.39.89-.89,1.37-1.3C52,8,53.07,8.16,54.07,10.1A14.32,14.32,0,0,1,55,12.27a1.7,1.7,0,0,1-.41,1.89,32.4,32.4,0,0,1-3.5,3.25,68.92,68.92,0,0,0-7.94,7,2.73,2.73,0,0,0-.76,2c-.28,3.75-.58,7.51-1,11.25-.18,1.61-.89,2.08-2.21,2-1.86-.18-2.77-.88-2.79-2.38,0-3.54,0-7.08,0-10.62,0-1.19-.1-2.39,0-3.58.07-1.47.26-2.94.4-4.41s.37-3,.46-4.43a3.14,3.14,0,0,1,1-2.1c1.2-1.21,1.94-1.14,3,.25Z" transform="translate(0)"/><path d="M66.46,39.86c-2.18-.31-4.37-.53-6.52-.94a9.69,9.69,0,0,1-3-1.17,3.41,3.41,0,0,1-1.34-1.59,5.7,5.7,0,0,1,0-4.63c1.53-3.32,3.55-6.22,6.93-8,1.55-.79,3-1.69,4.57-2.53a2.79,2.79,0,0,0,1.69-2.84c0-.51,0-1-.08-1.53-.22-1.34-1-1.65-2-.69a30.42,30.42,0,0,0-2.24,2.67c-.49.59-.94,1.21-1.45,1.78a1.34,1.34,0,0,1-1.69.26c-1.33-.64-2.69-1.24-4-1.91a1.8,1.8,0,0,1-1-2.41,4.54,4.54,0,0,1,.46-1.14c1.73-2.65,3.51-5.14,7.05-5.74a7.26,7.26,0,0,1,5.61,1.37c1.1.76,2.12,1.62,3.14,2.47a7.38,7.38,0,0,1,2.56,5.72c.09,2.66.17,5.33,0,8-.1,1.77-.72,3.51-.95,5.28a11.42,11.42,0,0,1-2.05,5.07,5.08,5.08,0,0,1-3.8,2.21c-.61.07-1.23.06-1.85.09ZM68.58,25.5a16,16,0,0,0-5.64,3.8c-1.16,1.28-1.7,3.13-2.4,4.78a1.3,1.3,0,0,0,.85,1.85,25.51,25.51,0,0,0,3.81.28,1.78,1.78,0,0,0,1.47-1c1.89-2.79,2-6,2.17-9.15C68.85,26,68.73,25.84,68.58,25.5Z" transform="translate(0)"/><path d="M120.73,39.86c-2.17-.31-4.36-.53-6.52-.94a9.53,9.53,0,0,1-2.95-1.17,3.43,3.43,0,0,1-1.35-1.59,5.74,5.74,0,0,1,0-4.63c1.54-3.32,3.56-6.22,6.93-8,1.55-.79,3-1.69,4.57-2.53a2.81,2.81,0,0,0,1.7-2.84c0-.51,0-1-.09-1.53-.22-1.34-1-1.65-2-.69a28.87,28.87,0,0,0-2.25,2.67c-.48.59-.94,1.21-1.45,1.78a1.32,1.32,0,0,1-1.68.26c-1.34-.64-2.69-1.24-4-1.91a1.81,1.81,0,0,1-1-2.41,4.54,4.54,0,0,1,.46-1.14c1.74-2.65,3.51-5.14,7-5.74a7.24,7.24,0,0,1,5.61,1.37c1.1.76,2.12,1.62,3.15,2.47a7.4,7.4,0,0,1,2.55,5.72c.1,2.66.17,5.33,0,8-.11,1.77-.72,3.51-.95,5.28a11.54,11.54,0,0,1-2.05,5.07,5.11,5.11,0,0,1-3.81,2.21c-.61.07-1.23.06-1.84.09Zm2.12-14.36a16.22,16.22,0,0,0-5.64,3.8c-1.16,1.28-1.7,3.13-2.4,4.78a1.31,1.31,0,0,0,.85,1.85,25.61,25.61,0,0,0,3.81.28,1.78,1.78,0,0,0,1.47-1c1.89-2.79,2-6,2.18-9.15C123.13,26,123,25.84,122.85,25.5Z" transform="translate(0)"/><path d="M107.56,26.17c-.23,5.47-.42,5.65-.59,10.1-.08,1.91-.94,2.52-2.77,2.08a2.74,2.74,0,0,1-2.29-2.6,13,13,0,0,1-.17-2.71A84.63,84.63,0,0,0,102,17a2.89,2.89,0,0,1,1.83-3,1.44,1.44,0,0,1,2.1.47,7.22,7.22,0,0,1,1.1,2.82C107.35,20.58,107.44,23.89,107.56,26.17Z" transform="translate(0)"/><path d="M109.39,4c-.25.58-.39.94-.57,1.28-.32.6-.72,1.17-1,1.78-1,2.16-1.85,2-4.15,1.1a4.58,4.58,0,0,1-1-.72,1.27,1.27,0,0,1-.45-1.79c.93-1.61,1.89-3.22,2.93-4.77a2.41,2.41,0,0,1,1.39-.9,1.51,1.51,0,0,1,1.31.4A38.5,38.5,0,0,1,109.39,4Z" transform="translate(0)"/><path d="M145.36,10.2a16.64,16.64,0,0,0-.92-1.6l-.05-.08a4.47,4.47,0,0,0-4.06-2.12h0a6.85,6.85,0,0,0-4,1.33c-1.91,1.31-3.68,2.68-4.39,5a10.41,10.41,0,0,0,0,7.18,62.09,62.09,0,0,0,3.77,7.8,14.38,14.38,0,0,1,1.77,5.13,7,7,0,0,1,.14,1.79,1.07,1.07,0,0,1-.46.89,1.14,1.14,0,0,1-1-.08c-.89-.45-.82-1-.8-1.12a11.8,11.8,0,0,1,.55-2.24l0-.13c.33-1,.69-2-.26-3.13a2.41,2.41,0,0,0-1.73-1.07h0a2,2,0,0,0-1.53.88,8.36,8.36,0,0,0-1.82,6.57,4,4,0,0,0,.72,1.79,6.36,6.36,0,0,0,5.37,3,6.81,6.81,0,0,0,1.76-.23,13.06,13.06,0,0,0,2.78-1.09,2.07,2.07,0,0,0,.94-1.34,14.12,14.12,0,0,0-1.29-9.59c-.89-1.61-1.75-3.27-2.59-4.88l-1.2-2.29a6.61,6.61,0,0,1-.46-5.13,5.69,5.69,0,0,1,2.82-3.68c.54-.29,1.19-.62,1.49-.48s.47.86.57,1.39c.17.89.25,1.83.33,2.73,0,.41.07.82.12,1.23-.07,1.52.25,1.95,1.74,2.37a2.59,2.59,0,0,0,.4.09A1.48,1.48,0,0,0,146,17.59c0-.48.05-1,.06-1.46s0-1.31.11-1.95A7.17,7.17,0,0,0,145.36,10.2Z" transform="translate(0)"/></svg>