<?xml version="1.0" encoding="UTF-8"?>
<svg width="162px" height="48px" viewBox="0 0 162 48" version="1.1" xmlns="http://www.w3.org/2000/svg" xmlns:xlink="http://www.w3.org/1999/xlink">
    <title>marca</title>
    <g id="concept" stroke="none" stroke-width="1" fill="none" fill-rule="evenodd">
        <g id="00_home-d" transform="translate(-130.000000, -56.000000)" fill-rule="nonzero">
            <g id="marca" transform="translate(130.000000, 56.000000)">
                <path d="M3.29245586,39.7697834 C7.14449908,40.3601173 10.8859262,39.7697834 14.6468738,39.3825751 C16.609616,39.2143778 18.5827913,39.1952773 20.5485684,39.325446 C22.0060982,39.3889227 22.2663714,39.8649985 22.1167144,41.604262 C21.7473378,41.69984 21.3710154,41.7677462 20.9910328,41.8073877 C16.7355661,41.9724273 12.4800995,42.1311192 8.21812599,42.2580727 C7.18354005,42.2580727 6.14895412,42.1565099 5.10786136,42.1374669 C4.0667686,42.1184238 2.7979368,41.8454737 2.17978797,43.0769231 L0,41.1662723 L1.30136595,39.7316973 L1.30136595,33.8537484 C1.3881256,30.6112814 1.28602082,27.3666244 0.995544953,24.1354549 C0.774312741,22.2311518 0.897942507,20.2887626 0.871915188,18.3654165 C0.832874209,15.8834748 0.930476656,13.3888377 0.728764933,10.925939 C0.618000291,10.4143893 0.723309319,9.88087898 1.02088145,9.44603572 C1.31845359,9.01119246 1.78315814,8.71173983 2.30992456,8.61538462 C3.1037578,8.79946725 3.17533292,9.37075818 3.1493056,10.0245689 C3.07122365,11.7955708 2.94759388,13.5665727 2.98012803,15.3312269 C3.03218267,18.473327 3.22738756,21.6090794 3.27293537,24.7448319 C3.32499001,28.0392763 3.27293537,31.3273729 3.27293537,34.6218173 C3.28594903,36.2849087 3.29245586,37.9543477 3.29245586,39.7697834 Z" id="Path" fill="#000000"></path>
                <path d="M26.6026916,46.0061801 C29.5733026,45.0108229 30.0929991,42.3208383 31.3697843,40.2923254 C32.1332891,40.0655351 32.011385,41.955454 33.1919301,40.9222983 C33.2437156,41.1929189 33.2437156,41.4706426 33.1919301,41.7412632 C32.4486618,43.6272086 31.2665964,45.3163971 29.7401187,46.6739515 C28.8033818,47.4803169 27.8153168,48.129189 26.4294595,47.9779955 C25.1975863,47.8394015 24.7997939,47.5874123 24.5046576,46.4156626 C24.1581933,45.1053188 23.863057,43.7760759 23.5743367,42.4531326 C23.4460166,41.8735575 23.4973446,41.2687835 22.6825118,41.0482929 C22.4423179,40.9752746 22.2553081,40.7890284 22.1843594,40.5521746 C22.1134107,40.3153209 22.1679469,40.0593193 22.3296315,39.8702435 C23.3561925,38.3709078 23.1508803,36.6762806 23.1444643,35.0383509 C23.1444643,32.3231674 22.9584001,29.6079839 22.9648161,26.8928005 C22.9648161,24.5807997 23.0867202,22.2687989 23.2150403,19.9630979 C23.3690245,17.2542142 23.4588486,14.532731 23.8181449,11.8490461 C24.1221382,10.2245653 24.5951232,8.63500585 25.2296663,7.10534974 C25.4788992,6.40973961 26.2278189,6.01609653 26.955572,6.19818867 C29.2619043,6.48988262 31.1455865,8.14895909 31.6905846,10.3686097 C32.1097037,12.1805583 32.3035979,14.035708 32.2680252,15.8934726 C32.166554,18.4542151 31.9202273,21.0074422 31.5301845,23.5413443 C31.1257721,26.4865835 30.1824205,29.3357788 28.7456378,31.9514834 C27.7062447,33.8414022 26.8208359,35.8195173 25.8391869,37.7598341 C25.4397614,38.5840222 25.3379376,39.517154 25.5504666,40.4057205 C25.909763,42.2200426 26.2305633,44.0343648 26.6026916,46.0061801 Z M25.3194904,33.1547317 L25.7429468,33.2492277 C26.1279072,32.3924644 26.5128676,31.5294015 26.91066,30.678938 C28.0692027,28.2676937 28.8748921,25.7077926 29.3038303,23.0751643 C29.8942731,19.5558296 30.0921999,15.9837798 29.8941029,12.4223215 C29.8866508,10.6210841 29.0257711,8.92587096 27.5650926,7.83611838 C26.6455741,8.81660361 26.0816913,10.0678833 25.961091,11.3954656 C25.7365308,13.8397607 25.5183866,16.2903555 25.3644024,18.7409503 C25.2489143,20.5930709 25.2040023,22.4514911 25.2040023,24.3099113 C25.2040023,27.2518851 25.2617463,30.2064583 25.3002424,33.1547317 L25.3194904,33.1547317 Z M24.4148335,32.9342412 C24.6778898,32.3861647 24.8126259,31.8569874 24.1581933,31.4790036 L24.4148335,32.9342412 Z M24.1196972,29.885172 L24.4469135,29.885172 L24.3378414,27.5857707 L24.1196972,27.5857707 L24.1196972,29.885172 Z M24.2544333,18.6023563 L24.6586417,18.6023563 C24.9794421,18.1739747 25.0756822,17.7581925 24.3635055,17.1345193 C24.3250094,17.7833914 24.2929294,18.1928739 24.2544333,18.6023563 Z M24.2544333,22.2058016 L24.5880657,22.1617035 L24.4789936,21.1852454 L24.2544333,21.241943 C24.2544333,21.5506298 24.2865134,21.871916 24.2993454,22.2058016 L24.2544333,22.2058016 Z M24.1068652,24.5933992 L24.2865134,24.5933992 L24.2865134,23.5161454 L24.1068652,23.5161454 L24.1068652,24.5933992 Z" id="Shape" fill="#000000"></path>
                <path d="M24.0377502,33.2307692 L23.5454425,32 C24.8008272,32.3196803 24.5423656,32.7672328 24.0377502,33.2307692 Z" id="Path" fill="#FFFFFF"></path>
                <polygon id="Path" fill="#FFFFFF" points="23.6861538 29.5350896 23.6861538 28.3076923 24.1046154 28.3076923 24.3138462 29.5384615"></polygon>
                <path d="M23.3846154,18.4456916 C23.3846154,18.102344 23.4925952,17.7589964 23.5885773,17.2307692 C24.9203283,17.7589964 24.788353,18.102344 24.1404741,18.4615385 L23.3846154,18.4456916 Z" id="Path" fill="#FFFFFF"></path>
                <path d="M23.7230769,22.1538462 C23.7230769,21.7587844 23.7230769,21.3941121 23.6369231,20.9610636 L24.1538462,20.9230769 L24.3630769,22.1006648 L23.7230769,22.1538462 Z" id="Path" fill="#FFFFFF"></path>
                <polygon id="Path" fill="#FFFFFF" points="23.8276923 24.5941645 23.8276923 23.3846154 24.1723077 23.3846154 24.1723077 24.6153846"></polygon>
                <path d="M122.886474,41.1144796 C125.724823,40.1189743 126.228599,37.4285895 127.445034,35.3997748 C128.182268,35.1729508 128.059395,37.0631509 129.195964,36.0298415 C129.242371,36.29868 129.242371,36.5737891 129.195964,36.8426275 C128.474329,38.7175662 127.338762,40.395447 125.878413,41.7445463 C124.981446,42.5510316 124.03533,43.206301 122.708309,43.055085 C121.522592,42.9164703 121.141688,42.658143 120.865226,41.4925196 C120.527327,40.1756803 120.250865,38.8462396 119.968259,37.5230996 C119.845386,36.9434382 119.968259,37.2962755 119.765519,36.3511755 C119.6788,35.9364916 119.62741,35.5148587 119.611929,35.0910422 C119.509389,33.4360738 119.490933,31.7767527 119.556637,30.1198161 C119.556637,27.4042287 119.384615,24.6886413 119.384615,21.973054 C119.384615,19.6607093 119.507488,17.3546652 119.63036,15.0423205 C119.777807,12.3330338 119.857674,9.61114576 120.207859,6.92706172 C120.499775,5.30325105 120.950537,3.71375032 121.55331,2.18265964 C121.794519,1.486037 122.51362,1.09271251 123.212086,1.27536363 C125.419737,1.56881112 127.222636,3.22738872 127.746071,5.44640503 C128.14136,7.25963461 128.326948,9.11431583 128.298996,10.9720898 C128.192156,13.5333109 127.950153,16.0867193 127.57405,18.6210992 C127.193221,21.5685599 126.29397,24.4206712 124.92001,27.03879 C123.924745,28.9289901 123.076926,30.9010988 122.136954,32.8417041 C121.753654,33.6659176 121.658217,34.6001965 121.866635,35.4879842 C122.222964,37.2962755 122.530145,39.1108676 122.886474,41.1144796 Z M121.657752,28.2611194 L122.06323,28.3556294 C122.437991,27.4987387 122.800464,26.6355474 123.181368,25.7849574 C124.297564,23.3640246 125.073243,20.792941 125.485222,18.1485492 C126.067325,14.6305687 126.273331,11.0579434 126.099583,7.49412173 C126.091953,5.68953164 125.26525,3.99152903 123.863308,2.90093565 C122.960699,3.87240372 122.400625,5.12542096 122.272113,6.46081238 C122.057087,8.90547108 121.84206,11.3564305 121.694613,13.8073898 C121.590172,15.6597859 121.541023,17.5247832 121.541023,19.3771793 C121.541023,22.332192 121.602459,25.280904 121.633177,28.2296161 L121.657752,28.2611194 Z M120.797646,28.0405961 C121.043391,27.4924381 121.172406,26.9694827 120.545758,26.585142 L120.797646,28.0405961 Z M120.51504,24.9910733 L120.828364,24.9910733 L120.723923,22.6976306 L120.51504,22.6976306 L120.51504,24.9910733 Z M120.66863,13.7065792 L121.061821,13.7065792 C121.362858,13.2781338 121.455013,12.8622898 120.773072,12.2385238 C120.705492,12.8559891 120.674774,13.2655325 120.644056,13.6750758 L120.66863,13.7065792 Z M120.705492,17.3168612 L121.02496,17.2664559 L120.920518,16.2898525 L120.656343,16.3213559 C120.650199,16.6237879 120.662487,16.9514225 120.680918,17.2853579 L120.705492,17.3168612 Z M120.570332,19.6922126 L120.742354,19.6922126 L120.742354,18.5958966 L120.570332,18.5958966 L120.570332,19.6922126 Z" id="Shape" fill="#000000"></path>
                <path d="M120.049115,29.5384615 L119.5445,28.3076923 C120.799884,28.6327006 120.541423,29.0749251 120.049115,29.5384615 Z" id="Path" fill="#FFFFFF"></path>
                <polygon id="Path" fill="#FFFFFF" points="119.686154 24.6153846 119.686154 23.3846154 120.104615 23.3846154 120.313846 24.6153846"></polygon>
                <path d="M119.384615,14.753384 C119.384615,14.4100363 119.504393,14.0666887 119.588237,13.5384615 C120.917767,14.0666887 120.786012,14.4100363 120.151191,14.7692308 L119.384615,14.753384 Z" id="Path" fill="#FFFFFF"></path>
                <path d="M119.729231,18.4615385 C119.729231,18.0613497 119.667692,17.6687117 119.630769,17.2685229 L120.16,17.2307692 L120.369231,18.4011326 L119.729231,18.4615385 Z" id="Path" fill="#FFFFFF"></path>
                <polygon id="Path" fill="#FFFFFF" points="119.827692 19.6923077 119.827692 18.4615385 120.172308 18.4615385 120.172308 19.6923077"></polygon>
                <path d="M130.797621,41.1116783 C133.494057,40.1156135 135.466775,34.4796516 136.593208,32.4496967 C137.293581,32.2227452 136.762465,34.9713799 137.813024,33.9185771 C137.857197,34.1896762 137.857197,34.4670251 137.813024,34.7381242 C137.089306,36.6293865 135.08157,40.4119113 133.651641,41.7484033 C132.793684,42.5553419 131.871527,43.2109796 130.640037,43.0533744 C129.513604,42.9146818 129.151745,42.6625135 128.889105,41.4899308 C128.573937,40.1786556 128.305461,38.8484677 128.042821,37.524584 C127.926092,36.9445969 127.972783,36.339393 127.231555,36.1187457 C127.023319,36.0419875 126.862082,35.8615519 126.798433,35.6340508 C126.734784,35.4065498 126.776522,35.1598596 126.910551,34.9713799 C127.850218,33.4709784 127.657615,31.7814507 127.651779,30.1360524 C127.651779,27.4189388 127.482522,24.7018252 127.488359,21.9847116 C127.488359,19.6710673 127.605088,17.3637272 127.721816,15.0500829 C127.856055,12.3392735 127.937765,9.61585572 128.264605,6.93026316 C128.541139,5.30462749 128.971398,3.71393812 129.548623,2.18319462 C129.777772,1.48618046 130.460918,1.09263492 131.124462,1.27538869 C133.207538,1.58253228 134.902081,3.24011561 135.390901,5.44877431 C135.772161,7.26201095 135.94854,9.11847943 135.916181,10.9775646 C135.8236,13.5421997 135.599527,16.0993235 135.24499,18.6371772 C134.885095,21.5839061 134.032765,24.4355448 132.729484,27.0532947 C131.78398,28.9445571 130.978551,30.9240784 130.085575,32.8657744 C129.72223,33.6905485 129.629604,34.6243436 129.822935,35.5135417 C130.138103,37.3228494 130.459108,39.1384613 130.797621,41.1116783 Z M129.630333,28.2510942 L130.015538,28.3456574 C130.365725,27.4882851 130.715911,26.6246086 131.07777,25.7735405 C132.131661,23.3605822 132.864571,20.7988613 133.254763,18.1643616 C133.798149,14.6411469 133.98407,11.0644148 133.809225,7.49764187 C133.802446,5.69512399 133.019331,3.99870578 131.690597,2.90817853 C130.854879,3.88988432 130.342049,5.1417689 130.231486,6.47005599 C130.033047,8.91608865 129.828772,11.3684255 129.688697,13.8207624 C129.583641,15.6741995 129.542786,17.540245 129.542786,19.3936822 C129.51944,22.3440515 129.554459,25.3133334 129.606987,28.2510942 L129.630333,28.2510942 Z M128.807395,28.030447 C129.046689,27.4819809 129.169254,26.9524274 128.573937,26.5741749 L128.807395,28.030447 Z M128.538918,24.9792103 L128.836577,24.9792103 L128.743194,22.6781745 L128.538918,22.6781745 L128.538918,24.9792103 Z M128.690666,13.688374 L129.058362,13.688374 C129.350184,13.2596879 129.43773,12.8436102 128.789885,12.2194936 C128.719848,12.868827 128.696502,13.2786005 128.66732,13.688374 L128.690666,13.688374 Z M128.719848,17.2943809 L129.023343,17.2502515 L128.924123,16.2730993 L128.678993,16.3046203 C128.66732,16.6387433 128.684829,16.9665621 128.696502,17.2943809 L128.719848,17.2943809 Z M128.58561,19.6836757 L128.74903,19.6836757 L128.74903,18.6119604 L128.58561,18.6119604 L128.58561,19.6836757 Z" id="Shape" fill="#000000"></path>
                <path d="M129.883904,29.5384615 L129.391596,28.3076923 C130.646981,28.6273726 130.388519,29.0749251 129.883904,29.5384615 Z" id="Path" fill="#FFFFFF"></path>
                <polygon id="Path" fill="#FFFFFF" points="129.532308 25.8427819 129.532308 24.6153846 129.963077 24.6153846 130.16 25.8461538"></polygon>
                <path d="M129.230769,14.753384 C129.290758,14.4100363 129.338749,14.0666887 129.434731,13.5384615 C130.766482,14.0666887 130.634507,14.4100363 129.986628,14.7692308 L129.230769,14.753384 Z" id="Path" fill="#FFFFFF"></path>
                <path d="M129.569231,18.4615385 C129.569231,18.0664767 129.507692,17.7018044 129.483077,17.2687559 L130,17.2307692 L130.209231,18.4083571 L129.569231,18.4615385 Z" id="Path" fill="#FFFFFF"></path>
                <polygon id="Path" fill="#FFFFFF" points="129.673846 19.6709649 129.673846 18.4615385 130.018462 18.4615385 130.018462 19.6923077"></polygon>
                <path d="M35.7895361,41.4689372 C36.8847389,40.2520678 37.8858752,39.4170883 38.5309026,38.3749821 C41.2185169,34.0253214 43.8187837,29.623879 46.4190504,25.2289093 C46.7229663,24.6238665 46.9877536,24.0012984 47.2118966,23.364769 C47.655353,22.3356082 48.219752,22.0055001 49.173855,22.2126268 C49.8860728,22.3679718 50.11452,22.8598977 50.0070155,23.9602583 C49.6979398,27.196613 49.3351119,30.4329677 49.1268218,33.6693224 C49.0193172,35.3004451 49.1872931,36.950986 49.2343264,39.0028349 C50.477348,37.708293 51.5255175,36.9833496 52.9230769,38.2390552 C51.7338076,40.4786126 50.5512573,42.7699518 49.2880787,45.0289273 C49.1286498,45.3408815 48.799065,45.5384615 48.4381206,45.5384615 C48.0771763,45.5384615 47.7475915,45.3408815 47.5881626,45.0289273 C47.2712941,44.5026892 47.0721793,43.918425 47.0036065,43.3136594 C46.8154735,41.6242822 46.6474977,39.9219596 46.6071834,38.2261098 C46.5668692,36.3231332 46.6676548,34.413684 46.714688,32.5107074 C46.714688,31.8634365 46.7818784,31.2161655 46.8221926,30.5688946 L46.4795218,30.4459131 C45.8076182,31.4491831 45.0954004,32.4459803 44.4234969,33.455723 C42.9789042,35.6305533 41.6485352,37.8765835 40.0762808,39.9284323 C38.9634312,41.2512519 37.7482981,42.4910769 36.4412825,43.6372948 C36.2618761,43.8019227 36.0152608,43.8803222 35.769379,43.8508942 C34.7413665,43.4754771 33.5789734,43.2036233 33.4042784,41.8702452 C33.1825503,40.180868 32.8062843,38.5044363 32.6719036,36.8150591 C32.382985,33.255069 32.1410997,29.6950788 32,26.1350886 C32.07104,25.1346865 32.3210871,24.1536475 32.7390939,23.2353148 C32.7995652,23.054079 33.4109975,22.8857885 33.6596018,22.9440429 C34.4195376,23.1200414 34.9166683,23.8229962 34.8085569,24.568693 C34.8085569,28.1804648 34.8085569,31.7922367 34.8488711,35.3975358 C34.923144,36.8951276 35.0778892,38.3880083 35.3124846,39.870178 C35.4315991,40.4134044 35.5910257,40.9476963 35.7895361,41.4689372 L35.7895361,41.4689372 Z" id="Path" fill="#000000"></path>
                <path d="M55.8605018,39.9422868 C56.5549284,38.2275045 57.9437818,34.1184976 58.7284839,32.1384093 C59.2354154,32.785497 58.888202,35.5744449 59.3465237,36.1632947 L60.1173373,35.4256147 C60.1728914,35.7685712 60.3951079,36.1891782 60.2701111,36.4803677 C59.0131989,39.4505002 57.7771194,42.4335745 56.3743775,45.3454691 C55.6799508,46.7884746 54.9855241,46.9437757 53.1244607,46.6396445 C53.0133552,46.0667514 52.946058,45.4872283 52.9230769,44.9054494 C52.969372,40.9927259 53.0434442,37.0756884 53.1452935,33.1543369 C53.2216804,30.2683258 53.3605657,27.3823147 53.4647297,24.4963036 C53.4994511,23.4868468 53.4994511,23.4868468 55.0688553,22.1538462 C56.8465876,22.3997395 57.0063058,22.6585746 56.6382596,24.2245268 C55.917169,26.7567279 55.5782706,29.3702104 55.6313409,31.9895791 C55.7563378,33.9308422 55.5410655,35.9044596 55.4855113,37.8651353 C55.4855113,38.512223 55.4855113,39.1593107 55.4855113,39.8063984 L55.8605018,39.9422868 Z" id="Path" fill="#000000"></path>
                <path d="M58.374486,14.7692308 C60.0522091,16.8672847 58.5099076,18.3639856 56.0121314,20.9230769 C55.566063,20.8686492 55.1350725,20.7418137 54.7406731,20.5489017 C54.3819007,20.3038599 54.1663816,19.928408 54.1538462,19.5266015 C54.4623065,18.0633091 56.6440989,15.4641276 58.374486,14.7692308 Z" id="Path" fill="#000000"></path>
                <path d="M56.9763131,28.3134081 C57.3874883,28.2818699 57.8007592,28.2818699 58.2119345,28.3134081 C58.4818383,28.3249436 58.7300839,28.4541357 58.8817633,28.6620009 C59.0334428,28.8698661 59.0707906,29.132058 58.982537,29.3694604 C58.8496745,30.1105496 58.823102,30.8701661 58.7500276,31.6236069 C58.6249535,33.1875548 58.8511827,34.7585905 59.4143402,36.2368877 C60.1413941,38.280895 61.5666308,40.0482353 63.47329,41.270119 C63.8079499,41.4459051 64.1593031,41.5926834 64.5229039,41.7085968 C64.7117932,41.1907231 64.8670787,40.6627771 64.9879227,40.1276063 C65.5868301,36.5497634 65.181812,32.8887707 63.8120895,29.499151 C63.0282006,27.5908461 62.204453,25.688717 61.2943448,23.8236423 C60.2513741,21.6991864 59.7797121,19.4265126 59.0888271,17.2094205 C58.6459446,15.9366812 58.4217529,14.6069709 58.4245145,13.2692958 C58.5175182,10.4840353 60.2048722,9.82940645 62.4834643,9.84793368 C64.2196152,9.81142259 65.9153371,10.3376231 67.2798011,11.336288 C68.5107922,12.2722025 69.3843971,13.5521381 69.7709732,14.9861527 C70.3799454,17.516594 70.2607966,20.1515469 69.4255307,22.6255479 L68.6349987,21.8968102 L67.7780355,22.6317237 C67.6053142,22.4773301 67.3728048,22.359991 67.379448,22.2488276 C67.4027264,21.7638066 67.4626623,21.2809077 67.5588124,20.8037035 C68.0437605,18.2716485 68.2231249,15.7704721 66.8944998,13.3928107 C66.2124988,12.0222656 64.7322646,11.148327 63.1079181,11.1571914 C61.566713,11.1201369 60.6898204,11.817996 60.8160398,13.2569444 C60.9578513,14.7633494 61.2198688,16.2578765 61.5999286,17.728183 C62.5362598,21.2711998 63.835384,24.7227241 65.479514,28.0354997 C66.9210723,31.043087 67.2930873,34.2853526 67.7116043,37.5029152 C67.9374705,39.2506507 67.2532286,40.8378169 66.3829791,42.3508742 C66.0773953,42.9005154 64.7554133,43.27106 63.7988032,42.9684486 C62.1041825,42.4646563 60.6279966,41.468961 59.5870615,40.1276063 C59.2621061,39.7340921 58.9647639,39.3215211 58.6968826,38.8924576 C58.1106181,37.9871605 57.6189954,37.0317314 57.2287519,36.0392638 C56.6451297,34.1950882 56.4755416,32.2590644 56.7305174,30.3514037 C56.8434506,29.7338293 56.8965956,29.1162549 56.9763131,28.3134081 Z" id="Path" fill="#000000"></path>
                <path d="M148.222943,27.9816413 C148.613067,27.9738494 149.003141,27.9994678 149.388763,28.0582075 C149.637553,28.0876596 149.858131,28.2298207 149.98518,28.4425939 C150.112229,28.6553672 150.131187,28.9143659 150.03644,29.142895 C149.868044,29.8766542 149.803276,30.6295549 149.693171,31.3760751 C149.488897,32.9279053 149.61014,34.504526 150.049394,36.0083287 C150.62225,38.0816819 151.863304,39.9155953 153.585713,41.2339701 C153.894591,41.4192267 154.217182,41.581324 154.550753,41.7188892 C154.755589,41.2145495 154.930752,40.699 155.075372,40.1748047 C155.842797,36.6352455 155.668776,32.9603862 154.570183,29.5065843 C153.922506,27.5605274 153.274828,25.6272315 152.517045,23.7258381 C151.655634,21.5564632 151.338272,19.2594779 150.813653,17.0199173 C150.475543,15.7272004 150.348735,14.3896574 150.438,13.0576177 C150.677641,10.2884744 152.303312,9.72060862 154.440648,9.86736045 C156.077926,9.91926064 157.647034,10.5254076 158.883716,11.5837189 C159.990938,12.5785706 160.742786,13.8988036 161.027528,15.3482225 C161.458368,17.8997495 161.201526,20.5179992 160.282699,22.9410348 L159.576731,22.1753731 L158.728273,22.8708492 C158.579307,22.7049558 158.359097,22.570965 158.37205,22.4624962 C158.421006,21.9806873 158.505427,21.5030185 158.624645,21.033261 C159.220508,18.5320993 159.53787,16.0500791 158.391481,13.5999615 C157.832953,12.1916983 156.485405,11.2391841 154.952313,11.1689854 C153.501515,11.0605167 152.646581,11.7113292 152.678965,13.1469449 C152.732961,14.6560805 152.897467,16.1594079 153.1712,17.6452077 C153.854636,21.2241937 154.884839,24.7303787 156.247668,28.1156321 C157.439395,31.1846597 157.607791,34.4387221 157.821525,37.686404 C157.938107,39.434665 157.173847,40.9787495 156.325389,42.4462679 C156.008027,42.9758506 154.745056,43.2821153 153.870691,42.918426 C152.302743,42.3325787 150.96758,41.2655591 150.062348,39.8749205 C149.779915,39.4650242 149.522546,39.0389002 149.291611,38.5988176 C148.791172,37.664828 148.381319,36.6863987 148.067501,35.6765419 C147.623733,33.8093435 147.573035,31.8723699 147.918535,29.9851229 C148.022163,29.3917351 148.106361,28.7792057 148.222943,27.9816413 Z" id="Path" fill="#000000"></path>
                <path d="M102.921129,15.2933753 C102.37299,14.2244381 102.141757,13.0380588 102.251464,11.8575452 C102.316049,9.7588549 101.891054,7.67213153 101.005887,5.74176763 C100.422691,4.55499428 99.4492167,3.57249043 98.2267763,2.93688088 C98.0459667,2.8306825 97.8182806,2.80569464 97.637471,2.70574322 C94.9588106,1.16274316 92.7355225,2.08104684 90.6796506,3.83019671 C87.3982916,6.60384863 86.8759528,9.90224552 88.9184314,13.5379784 C89.7577853,14.9313459 90.8551371,16.1749701 92.1596105,17.2111932 C93.2693786,18.2196551 94.3052297,19.29656 95.2601599,20.4346265 C97.3663948,22.6287135 99.1954134,25.0412859 100.711234,27.6248818 C101.744176,29.7024075 102.463109,31.9035859 102.847466,34.1654529 C103.476951,37.1390077 102.097441,39.3629268 99.9746022,41.3494613 C99.7742843,41.582509 99.5202055,41.7704146 99.231274,41.8991941 C96.1508145,42.773769 92.9899952,43.7732832 89.8559625,42.3989512 C86.9997674,41.2387763 84.8822407,38.9080686 84.1236292,36.0895178 C83.2932445,33.0409994 83.5745038,30.173643 85.7375221,27.593647 C86.795593,26.3442542 87.659461,26.3442542 88.7041385,27.7498211 C88.5233289,27.9622179 88.349216,28.2120964 88.1349232,28.4182462 C84.7865977,31.5854569 86.1259279,37.0640441 89.5412199,39.7314977 C92.072554,41.6992912 94.7043379,41.405684 97.3629083,40.3936758 C98.3160555,39.9502509 99.0926021,39.2346043 99.5794998,38.3509187 C100.383199,36.9842316 100.610114,35.3866209 100.215682,33.8718456 C99.4297076,30.3404284 97.7540175,27.0342259 95.3271264,24.2265335 C94.1418192,22.8771893 93.0368718,21.4591285 91.8448679,20.1160313 C91.1930074,19.3882658 90.4785583,18.7113464 89.7086362,18.0920151 C87.7825984,16.561895 86.3730499,14.5439857 85.6504656,12.2823387 C84.5429768,9.28899368 85.3587811,5.96861059 87.7532141,3.72399832 C89.3887708,2.05322819 91.4676329,0.814253756 93.7802,0.131994137 C94.4365775,-0.0439980456 95.1328178,-0.0439980456 95.7891953,0.131994137 C97.6617389,0.556732049 99.4376005,1.29088772 101.032673,2.29969057 C102.151593,3.14359902 103.053238,4.21098355 103.671154,5.42317247 C104.789494,7.34099036 104.555112,9.37125359 104.615385,11.3890229 C104.615385,12.0886828 104.561808,12.7883428 104.615385,13.4880027 C104.615385,14.9685332 104.628775,14.9685332 102.921129,15.2933753 Z" id="Path" fill="#000000"></path>
                <path d="M115.484104,37.0680689 L116.223986,35.4855651 L118.153846,35.5986011 C118.055195,36.3772934 117.999704,37.1434262 117.857893,37.9032792 C117.629763,39.1278356 117.321478,40.3398326 117.099514,41.5706688 C117.040927,42.2519085 116.46961,42.7676105 115.798554,42.7449871 C115.503216,42.7937326 115.200995,42.720337 114.959029,42.5411055 C114.717063,42.361874 114.55539,42.0916488 114.509925,41.790461 C114.09888,40.2498224 113.673447,38.7112771 113.233628,37.1748251 C113.136052,36.9258813 113.024897,36.6826843 112.900681,36.446371 C112.760429,36.7731283 112.640979,37.1087439 112.543072,37.4511352 C112.30261,38.5124175 112.129971,39.5988189 111.85868,40.6538214 C111.155792,43.4169232 108.899151,43.5676378 107.030948,42.3493611 C105.936068,41.634535 105.144075,40.5276343 104.811301,39.2471514 C104.12691,36.7352407 103.645986,34.1542524 104.089915,31.5293058 C104.512864,29.2012719 105.58282,27.0457385 107.172759,25.3186065 C107.921477,24.3536032 109.114151,23.8619783 110.311093,24.0249725 C110.549316,24.038447 110.78809,24.038447 111.026313,24.0249725 C111.026313,22.2603553 111.026313,20.5710953 111.026313,18.8818354 C111.026313,17.3809687 110.927662,15.8863818 110.853673,14.3855152 C110.832298,13.9865653 110.753353,13.5929966 110.619377,13.2174767 C110.366584,12.5581001 109.811672,12.4262248 109.38624,12.985125 C108.835165,13.6929437 108.353968,14.4543882 107.949635,15.2584042 C106.926131,17.3558496 105.649834,19.3590984 105.335384,21.7579731 C105.327143,22.0607713 105.208442,22.3495825 105.002437,22.5680643 C104.657384,22.81036 104.243325,22.9295899 103.824791,22.9071723 C103.627489,22.8757734 103.356199,22.2791946 103.387027,21.9840451 C103.435124,21.0324805 103.611471,20.0921723 103.911111,19.1895444 C104.818386,16.7007375 106.010415,14.3294749 107.462546,12.1247956 C108.165434,11.1011919 108.695683,10.9190784 109.854832,11.1891088 C112.610894,11.8170865 112.84519,12.0494382 113.054823,14.9569749 C113.196634,16.9037057 113.252125,18.862996 113.227463,20.8097268 C113.192964,25.1703468 113.618787,29.522111 114.497594,33.7900254 C114.694896,34.8073492 115.083334,35.7744349 115.484104,37.0680689 Z M111.081804,29.3251041 L110.970821,29.3251041 C110.970821,28.427096 111.038644,27.5228082 110.970821,26.6310799 C110.902999,25.7393516 110.311093,25.5195594 109.583542,25.8586673 C109.277832,26.0055098 109.008196,26.2200615 108.794334,26.486645 C107.166593,28.6280489 105.964284,30.9452865 106.192415,33.7649063 C106.27042,35.2623934 106.476728,36.7500766 106.808983,38.2109882 C107.141778,39.1911356 107.62908,40.1095382 108.251754,40.9301316 C108.597032,41.4576328 109.151944,41.3445968 109.441731,40.7982563 C109.748013,40.2856221 109.957153,39.7190155 110.0583,39.1278356 C110.41591,35.8686315 110.736525,32.5968678 111.081804,29.3251041 Z" id="Shape" fill="#000000"></path>
                <path d="M138.91976,23.1716036 C138.699563,29.034088 139.761688,34.334935 141.510309,39.743061 C143.207119,38.0644595 142.986922,35.7674258 144.282197,34.1897927 L146.341684,34.3160034 C146.342612,34.7583303 146.277156,35.1984126 146.147392,35.6222835 C145.31194,37.572238 144.411724,39.4969503 143.524461,41.4342836 C143.421346,41.6538771 143.300053,41.8649254 143.161784,42.0653369 C142.753614,42.8031865 141.902306,43.1987982 141.056963,43.0434693 C140.519424,42.9046376 140.046649,42.2546528 139.716354,41.7308787 C139.408775,41.1481723 139.173952,40.5316573 139.016905,39.8945138 C137.337252,34.7493531 136.500168,29.3784283 136.536454,23.9793517 C136.578515,23.4874294 136.355354,23.0095231 135.947104,22.7172453 C135.111652,22.0861921 135.208798,21.6318338 136.225588,21.278444 C136.665857,21.1431387 136.998941,20.7897338 137.099899,20.3507958 C137.857634,18.2115254 138.576512,16.0470128 139.476728,13.9645372 C140.001838,12.931906 140.654296,11.9655644 141.41964,11.0869346 C141.742889,10.6908419 142.170419,10.3876749 142.656627,10.2097706 C144.036095,9.69230696 145.894814,9.52192259 146.736742,11.1184872 C147.921919,13.3145524 149.256052,19.8144005 148.84804,22.2691975 C148.804864,22.5174118 148.753053,22.7635225 148.692607,23.0075298 C148.304025,24.6167155 147.695246,24.9701053 146.017865,24.6167155 C143.725229,24.1497361 141.458498,23.6953778 138.91976,23.1716036 Z M145.933672,22.7929717 C147.099419,20.5274907 145.933672,13.5669737 144.13324,11.6990562 C143.263306,11.9092967 142.552909,12.5190972 142.229186,13.333484 C141.685798,14.4121734 141.212101,15.5228867 140.810861,16.6591344 C140.234463,18.2493885 139.742259,19.8711953 139.159385,21.6255232 L145.933672,22.7929717 Z" id="Shape" fill="#000000"></path>
                <path d="M148.219483,2.46153846 C149.896746,4.55731687 148.362388,6.05239446 145.857776,8.61538462 C145.412253,8.55553919 144.982024,8.42677128 144.586666,8.23494076 C144.227992,7.9901647 144.012532,7.61512009 144,7.21374937 C144.315897,5.78541632 146.48957,3.16235608 148.219483,2.46153846 Z" id="Path" fill="#000000"></path>
            </g>
        </g>
    </g>
</svg>