<?xml version="1.0" encoding="utf-8"?>
<!-- Generator: Adobe Illustrator 25.4.1, SVG Export Plug-In . SVG Version: 6.00 Build 0)  -->
<svg version="1.1" id="Layer_1" xmlns="http://www.w3.org/2000/svg" xmlns:xlink="http://www.w3.org/1999/xlink" x="0px" y="0px"
	 viewBox="0 0 234 40" style="enable-background:new 0 0 234 40;" xml:space="preserve">
<style type="text/css">
	.st0{fill-rule:evenodd;clip-rule:evenodd;}
</style>
<g id="concept">
	<g id="_x30_0_x5F_home-d-publicaciones" transform="translate(-478.000000, -104.000000)">
		<g id="Group-31" transform="translate(478.000000, 104.000000)">
			<path id="Fill-1" class="st0" d="M8.9,20.6c1.1,0,1.9,0.1,2.8,0c2.4-0.2,4.7-1,7-1.7c1.5-0.5,2.8-1.3,3.9-2.4
				c1.5-1.5,1.6-3.2,0.9-5c-0.4-1-0.8-1.9-1.3-2.8c-0.9-1.8-2.3-2.6-4.2-2.5c-1.9,0-3.7,0.1-5.6,0.2c-0.6,0-1.3,0.2-2,0.4
				C9.9,11.3,9.4,15.8,8.9,20.6 M8.3,26c-0.3,1.7-0.5,3.3-0.8,4.9c-0.3,1.6-0.7,3.2-1.1,4.8c-0.1,0.3-0.4,0.6-0.7,0.8
				c-1.6,1.1-4,0.1-4-1.9c0-2.4,0.2-4.8,0.4-7.2c0.1-1.2,0-2.1-1.1-2.9c-1.5-1-1.4-2.6,0.1-3.3c1.3-0.6,1.6-1.7,1.7-3
				c0.3-4.7,0.7-9.3,1.1-14C4,4,4,3.9,4,3.7c0-0.7-0.3-1.4,0.3-1.9c0.7-0.5,1.4-1,2.2-1.3c0.5-0.2,1.2-0.2,1.8-0.2
				c2.5,0,4.9,0,7.4,0.1c2.3,0.1,4.5,0.7,6.5,1.7c1.8,0.9,3.2,2.2,4,4c1,2.2,1.9,4.5,2.5,6.8c0.4,1.3,0.3,2.7,0.3,4.1
				c0,0.7-0.4,1.4-0.9,1.9c-1.8,1.9-4,3.2-6.4,4.1c-1.3,0.5-2.6,1.3-4,1.6c-2.4,0.5-5,0.9-7.4,1.2C9.7,25.9,9.1,25.9,8.3,26"/>
			<path id="Fill-3" class="st0" d="M45,33.8c-0.4,0.4-0.8,0.7-1.2,1.1c-1.4,1.5-3.1,2.1-5.2,1.4c-0.7-0.2-1.4-0.4-2.1-0.6
				c-2.2-0.7-3.5-2.3-4.1-4.5c-1-3.4-1.7-6.9-1.7-10.5c0-1.4,0.2-2.9,0.3-4.3c0-0.3,0.1-0.6,0.2-0.9c0.3-1.1,1.3-2,2.1-2
				c0.9,0,1.7,0.8,2.1,1.9c0.5,1.4,0.6,2.9,0.5,4.4c-0.3,3.6,0.3,7.1,1.1,10.5c0.2,0.8,0.8,1.2,1.5,1.3c0.7,0.2,1.2-0.3,1.5-0.8
				c0.5-1,1.1-1.9,1.3-2.9c0.8-3.3,1.6-6.6,2.3-9.9c0.2-0.8,0.1-1.6,0.2-2.5c0.1-1.3,1.5-2.9,2.7-3.1c0.7-0.1,1.3,0.2,1.6,0.9
				c0.7,1.5,1.1,3,1.1,4.6c0,2.4-0.3,4.7-0.4,7.1c-0.1,2.4-0.3,4.7-0.4,7.1c0,2-0.6,2.5-2.5,2C45.7,34.2,45.4,34,45,33.8"/>
			<path id="Fill-5" class="st0" d="M56.7,27.2C56.7,27.2,56.7,27.2,56.7,27.2c0.1,1.3,0.1,2.7,0.1,4c0,0.8,0.4,1.3,1.2,1.3
				c1.3,0.1,2.6,0.3,3.8,0.3c3.9,0.3,7.5-3.3,6.8-7.8c-0.4-2.6-1.7-4.7-3.2-6.8c-0.8-1.1-2-1.4-3.3-0.9c-0.8,0.3-1.6,0.6-2.4,1.1
				c-1.5,0.8-2.5,2.1-2.6,3.9C56.9,24,56.8,25.6,56.7,27.2 M57.7,14.3c0.5-0.1,1-0.3,1.5-0.4c1.5-0.2,3-0.4,4.6-0.5
				c1.4,0,2.6,0.5,3.7,1.4c3.9,3.6,5.7,8,5.3,13.3c-0.1,1.4-0.7,2.5-1.4,3.7C69,36,65.2,37,60.9,36.8c-2.3-0.1-4.6-0.4-6.8-1.2
				c-1.6-0.6-1.8-0.7-1.7-2.4c0.2-6.2,0.5-12.3,0.7-18.5c0.1-3.8,0.3-7.5,0.4-11.3c0-0.6,0.3-1.2,0.7-1.6c0.6-0.7,1.4-0.6,2,0
				c0.7,0.7,1.3,1.6,1.4,2.7c0.3,2.2,0.1,4.3,0,6.5C57.6,12,57.3,13.1,57.7,14.3"/>
			<path id="Fill-7" class="st0" d="M75.2,24.4c0.2-3.5,0.5-7.4,0.6-11.3c0.1-2.1,0-4.2-0.2-6.3c-0.1-1.8-0.2-3.5,0.6-5.1
				c0.2-0.4,0.4-0.7,0.7-1c0.9-0.8,1.9-0.9,2.5,0.4c0.7,1.5,1.4,3.1,1.4,4.8c0.1,2.7,0.2,5.4,0.2,8.2c0,1.2-0.2,2.4-0.3,3.7
				c-0.3,4.1-0.6,8.2-0.9,12.3c-0.1,1.9-0.1,3.8-0.2,5.7c-0.1,1.4-0.9,2-2.3,1.5c0,0-0.1,0-0.1-0.1c-2-0.8-2-0.8-2-2.9
				C75.2,31,75.2,27.9,75.2,24.4"/>
			<path id="Fill-9" class="st0" d="M89.2,25.9C89,30.9,88.9,31,88.7,35c-0.1,1.7-0.8,2.3-2.5,1.9c-1.3-0.3-1.9-1.1-2.1-2.3
				c-0.1-0.8-0.2-1.6-0.2-2.4c0.5-6.1,0.7-8.4,0.3-14.5c-0.1-1.4,0.6-2.1,1.7-2.7c0.8-0.4,1.5-0.3,1.9,0.4c0.5,0.8,0.9,1.7,1,2.5
				C89,20.9,89.1,23.9,89.2,25.9"/>
			<path id="Fill-11" class="st0" d="M90.9,6c-0.2,0.5-0.4,0.8-0.5,1.1c-0.3,0.5-0.6,1-0.9,1.6c-0.9,1.9-1.7,1.8-3.7,1
				c-0.3-0.1-0.6-0.4-0.9-0.6c-0.6-0.4-0.8-1-0.4-1.6c0.8-1.5,1.7-2.9,2.6-4.3c0.3-0.4,0.8-0.7,1.3-0.8c0.4-0.1,1,0.1,1.2,0.4
				C90.1,3.8,90.5,5,90.9,6"/>
			<path id="Fill-13" class="st0" d="M156.4,25.9c-0.2,4.9-0.4,5.1-0.5,9.1c-0.1,1.7-0.8,2.3-2.5,1.9c-1.3-0.3-1.9-1.1-2.1-2.3
				c-0.1-0.8-0.2-1.6-0.2-2.4c0.5-6.1,0.7-8.4,0.3-14.5c-0.1-1.4,0.6-2.1,1.7-2.7c0.8-0.4,1.5-0.3,1.9,0.4c0.5,0.8,0.9,1.7,1,2.5
				C156.2,20.9,156.3,23.9,156.4,25.9"/>
			<path id="Fill-15" class="st0" d="M158.1,6c-0.2,0.5-0.4,0.8-0.5,1.1c-0.3,0.5-0.6,1-0.9,1.6c-0.9,1.9-1.7,1.8-3.7,1
				c-0.3-0.1-0.6-0.4-0.9-0.6c-0.6-0.4-0.8-1-0.4-1.6c0.8-1.5,1.7-2.9,2.6-4.3c0.3-0.4,0.8-0.7,1.3-0.8c0.4-0.1,1,0.1,1.2,0.4
				C157.3,3.8,157.7,5,158.1,6"/>
			<path id="Fill-17" class="st0" d="M101.5,35.9c-0.4,0-0.7,0-1,0c-2.3-0.1-4.3-0.7-5.9-2.6c-1.7-2.1-2.9-4.3-2.7-7
				c0.2-3.4,1.4-6.6,3.7-9c2.3-2.3,5-4.4,8.6-4.2c2.4,0.1,4.3,1.3,5.4,3.5c0.6,1.1,0.5,2.1,0,2.4c-0.5,0.3-1.6,0-2.3-0.7
				c-0.2-0.2-0.4-0.5-0.6-0.7c-0.9-0.9-1.9-1.1-3.1-0.7c-4.6,1.6-7.1,6-7.2,10c-0.1,2.6,1.9,4.8,4.5,5.2c0.7,0.1,1.4,0.1,2.2,0.1
				c0.6,0,1.2-0.2,1.6-0.8c0.5-0.7,1.1-1.2,1.9-0.8c0.9,0.4,1.4,1.2,1.5,2.1c0.2,1.5-0.2,2.1-1.7,2.4
				C104.7,35.6,103.1,36.2,101.5,35.9"/>
			<path id="Fill-19" class="st0" d="M140.6,35.9c-0.4,0-0.7,0-1,0c-2.3-0.1-4.3-0.7-5.9-2.6c-1.7-2.1-2.9-4.3-2.7-7
				c0.2-3.4,1.4-6.6,3.7-9c2.3-2.3,5-4.4,8.6-4.2c2.4,0.1,4.3,1.3,5.4,3.5c0.6,1.1,0.5,2.1,0,2.4c-0.5,0.3-1.6,0-2.3-0.7
				c-0.2-0.2-0.4-0.5-0.6-0.7c-0.9-0.9-1.9-1.1-3.1-0.7c-4.6,1.6-7.1,6-7.2,10c-0.1,2.6,1.9,4.8,4.5,5.2c0.7,0.1,1.4,0.1,2.2,0.1
				c0.6,0,1.2-0.2,1.6-0.8c0.5-0.7,1.1-1.2,1.9-0.8c0.9,0.4,1.4,1.2,1.5,2.1c0.2,1.5-0.2,2.1-1.7,2.4
				C143.8,35.6,142.2,36.2,140.6,35.9"/>
			<path id="Fill-21" class="st0" d="M176.3,24.5c-0.1-0.9-0.4-2.3-1.3-3.5c-0.7-1-1-1.1-2.2-0.7c-1,0.4-2.1,0.4-3-0.1
				c-1-0.5-1.7-0.2-2.4,0.3c-1.3,0.9-2.2,2.1-2.8,3.6c-0.6,1.7-0.5,3.4-0.3,5c0.1,0.7,0.7,1.4,1.3,1.8c1.2,0.9,2.7,1.5,4.3,1.7
				c1.7,0.2,3.2-0.2,4.4-1.6C176,29.3,176.2,27.2,176.3,24.5 M181.6,26.2c-0.1,1.2-0.1,2.6-0.4,3.9c-0.2,1.1-0.6,2.2-1.3,3.1
				c-1.4,1.8-3.1,3.4-5.4,4.1c-0.7,0.2-1.6,0.2-2.4,0.1c-2.6-0.3-5.1-1-7.5-2.2c-2.5-1.3-4.1-3.1-5.1-5.8
				c-2.7-7.4,3.4-14.2,9.9-14.4c0.6,0,1.1-0.1,1.7-0.3c2.5-0.9,4.9-0.2,6.5,2c0.9,1.3,1.8,2.5,2.6,3.8
				C181.3,22.1,181.6,24.1,181.6,26.2"/>
			<path id="Fill-23" class="st0" d="M204,29.7c-0.1,1.6-0.1,3.3-0.3,4.9c-0.3,2.2-0.8,2.6-3,2.4c-0.4,0-0.8-0.1-1.2-0.2
				c-1.2-0.4-1.5-1-1.4-2.2c0.4-3.1,0.3-6.3,0.1-9.4c-0.1-1.6-0.6-3-1.4-4.4c-0.6-1-1.2-1.3-2.2-0.7c-2.3,1.5-4.5,3.2-4.8,6.2
				c-0.3,2.8-0.6,5.5-0.8,8.3c-0.1,1.6-0.4,2-2,1.9c-0.4,0-0.8,0-1.2-0.1c-1.5-0.4-1.9-0.8-2-2.5c-0.2-3.1,0-6.2,0.5-9.2
				c0.7-4.3,3.3-7.3,6.9-9.3c2-1.1,4.3-0.9,6.5-0.2c0.5,0.1,1,0.6,1.3,1c1.1,1.5,2.2,3,3.2,4.5c1.1,1.7,1.6,3.6,1.6,5.6
				c0,1.1,0.1,2.3,0.2,3.4C203.9,29.7,203.9,29.7,204,29.7"/>
			<path id="Fill-25" class="st0" d="M122.8,24.8c-2,0.9-3.7,2-5.1,3.4c-1,1.1-1.5,2.8-2.2,4.3c-0.3,0.7,0.1,1.6,0.8,1.7
				c1.1,0.2,2.3,0.2,3.4,0.3c0.6,0,1-0.3,1.3-0.9c1.7-2.5,1.8-5.4,2-8.2C123,25.2,122.9,25.1,122.8,24.8 M120.8,37.7
				c-2-0.3-3.9-0.5-5.9-0.8c-0.9-0.2-1.8-0.6-2.7-1.1c-0.5-0.3-1-0.9-1.2-1.4c-0.5-1.4-0.7-2.8,0-4.2c1.4-3,3.2-5.6,6.2-7.2
				c1.4-0.7,2.7-1.5,4.1-2.3c1-0.6,1.6-1.3,1.5-2.6c0-0.5,0-0.9-0.1-1.4c-0.2-1.2-0.9-1.5-1.8-0.6c-0.7,0.7-1.4,1.6-2,2.4
				c-0.4,0.5-0.8,1.1-1.3,1.6c-0.4,0.5-1,0.5-1.5,0.2c-1.2-0.6-2.4-1.1-3.6-1.7c-0.9-0.5-1.2-1.2-0.9-2.2c0.1-0.4,0.2-0.7,0.4-1
				c1.6-2.4,3.2-4.6,6.4-5.2c2-0.3,3.5,0.2,5,1.2c1,0.7,1.9,1.5,2.8,2.2c1.6,1.3,2.2,3.2,2.3,5.2c0.1,2.4,0.2,4.8,0,7.2
				c-0.1,1.6-0.6,3.2-0.9,4.8c-0.2,1.7-0.9,3.2-1.8,4.6c-0.8,1.2-2,1.8-3.4,2c-0.5,0.1-1.1,0.1-1.7,0.1
				C120.9,37.6,120.9,37.7,120.8,37.7"/>
			<path id="Fill-27" class="st0" d="M233.1,13.2c-0.2-0.5-0.5-1-0.8-1.4l0-0.1c-0.8-1.3-2-1.9-3.7-1.9h0c-1.3,0-2.4,0.4-3.6,1.2
				c-1.7,1.2-3.3,2.4-4,4.5c-0.5,1.7-1,4,0,6.5c1.1,2.8,2.2,5,3.4,7c0.8,1.4,1.3,2.9,1.6,4.6c0.1,0.6,0.2,1.1,0.1,1.6
				c0,0.4-0.2,0.7-0.4,0.8c-0.2,0.1-0.6,0.1-0.9-0.1c-0.8-0.4-0.7-0.9-0.7-1c0.1-0.7,0.3-1.3,0.5-2l0-0.1c0.3-0.9,0.6-1.8-0.2-2.8
				c-0.5-0.6-1-1-1.6-1h0c-0.5,0-0.9,0.3-1.4,0.8c-1.3,1.6-1.9,3.5-1.6,5.9c0.1,0.6,0.4,1.2,0.6,1.6c1.2,1.7,2.9,2.7,4.8,2.7
				c0.5,0,1-0.1,1.6-0.2c0.8-0.2,1.6-0.5,2.5-1c0.4-0.2,0.8-0.7,0.8-1.2c0.6-3.3,0.2-6.2-1.2-8.6c-0.8-1.4-1.6-2.9-2.3-4.4
				c-0.4-0.7-0.7-1.4-1.1-2.1c-0.8-1.4-0.9-2.9-0.4-4.6c0.4-1.5,1.2-2.6,2.5-3.3c0.5-0.3,1.1-0.6,1.3-0.4c0.3,0.1,0.4,0.8,0.5,1.2
				c0.2,0.8,0.2,1.6,0.3,2.5c0,0.4,0.1,0.7,0.1,1.1c-0.1,1.4,0.2,1.8,1.6,2.1c0.1,0,0.2,0.1,0.4,0.1c0.5,0.1,1,0,1.2-0.2
				c0.3-0.2,0.5-0.6,0.5-1.1c0-0.4,0-0.9,0.1-1.3c0-0.6,0-1.2,0.1-1.8C234,15.6,233.7,14.5,233.1,13.2"/>
			<path id="Fill-29" class="st0" d="M215,22l-3.6-0.2c-0.5,0-0.9,0-1.1-0.2c-0.1-0.1-0.1-0.6-0.1-1.1c0.1-1.7,0.9-3.6,1.9-4.6
				C213.1,16.8,214.7,20,215,22 M219.4,21.4c-1-3.7-3.1-6.8-4.9-9.3c-1.2-1.6-3.4-2-5.1-0.8c-0.6,0.4-1,0.8-1.4,1.2
				c-1.8,2.2-2.7,4.5-2.8,6.8c0,1.4,0,2.8,0,4.1l0.1,1c0.2,4,0.3,5.6,1.7,9.8c0.4,1.2,0.9,2.3,1.4,3.5l0.3,0.6
				c0.2,0.3,0.5,0.7,0.9,0.9c0.4,0.1,1.2,0.4,2,0.4c0.9,0,2-0.3,2.9-1.4c0.6-0.8,1.2-1.6,1.8-2.6c1.2-1.9,1-4.3-0.5-6.3
				c-0.3-0.3-0.6-0.5-0.9-0.5c-0.3,0-0.7,0.1-1,0.4c-0.4,0.4-0.7,0.8-0.8,1.2c-0.2,0.5-0.3,1-0.4,1.5c0,0.2-0.1,0.4-0.1,0.6
				c0,0.1-0.1,0.2-0.1,0.3c-0.1,0.5-0.2,0.9-0.5,1.3c-1.2-3.4-1.4-4.3-1.5-8.2l0.7,0c0.7,0,1.3,0,1.9,0c0.6,0,1.1,0,1.6-0.1
				c1-0.1,2-0.1,3,0.1c0.5,0.1,1,0,1.4-0.3c0.4-0.3,0.7-0.9,0.7-1.4C219.8,23.2,219.7,22.2,219.4,21.4"/>
		</g>
	</g>
</g>
</svg>
