<?xml version="1.0" encoding="UTF-8"?>
<svg width="193px" height="48px" viewBox="0 0 193 48" version="1.1" xmlns="http://www.w3.org/2000/svg" xmlns:xlink="http://www.w3.org/1999/xlink">
    <title>Group 37</title>
    <defs>
        <polygon id="path-1" points="0 3.70931765e-15 14.2215495 3.70931765e-15 14.2215495 22.5043497 0 22.5043497"></polygon>
        <polygon id="path-3" points="0 0 6.79402819 0 6.79402819 7.43052143 0 7.43052143"></polygon>
        <polygon id="path-5" points="0 0 6.79402819 0 6.79402819 7.43052143 0 7.43052143"></polygon>
    </defs>
    <g id="concept" stroke="none" stroke-width="1" fill="none" fill-rule="evenodd">
        <g id="00_home-d-quien-es-el" transform="translate(-478.000000, -104.000000)">
            <g id="Group-36" transform="translate(478.000000, 104.000000)">
                <g id="Group-3" transform="translate(0.000000, 16.645575)">
                    <mask id="mask-2" fill="white">
                        <use xlink:href="#path-1"></use>
                    </mask>
                    <g id="Clip-2"></g>
                    <path d="M9.69898208,3.78858664 C9.60449283,2.99404169 9.54132599,2.34044754 9.44788082,1.69050768 C9.26099048,0.397936518 10.1218345,-0.304729389 11.3475846,0.127519772 C12.708543,0.607796618 13.5192712,1.64874448 13.7823794,2.95802092 C14.0856846,4.46619463 14.1676449,6.03022661 14.2135844,7.57389904 C14.2407305,8.48329281 13.0248992,9.13949715 12.1854588,8.76415035 C11.8450887,8.6122367 11.5219459,8.4049868 11.2249051,8.17789938 C9.24219704,6.66763751 8.2263071,6.85296173 6.10212614,8.5756939 C5.0392526,9.43758202 4.84609778,10.715014 4.76935789,11.9825273 C4.66077356,13.7705144 4.97347555,15.4864601 5.79099027,17.1006079 C6.15433015,17.818413 6.60902703,18.4281558 7.50693591,18.2772862 C8.4439978,18.1196301 9.52253255,18.2892931 9.92763563,16.9497383 C10.2810567,15.7824568 11.6200895,14.8480051 12.8703754,16.0669686 C13.1976945,16.3859351 13.556336,16.6808877 13.8392817,17.0358749 C14.3373079,17.661801 14.3320875,18.3289681 13.9201979,19.0222373 C11.0432352,23.8620706 4.8711557,23.4193807 2.18212741,19.1605779 C0.665601063,16.7602378 -0.00052204005,14.1208033 -3.06590409e-07,11.2735969 C0.0010440801,6.90307758 3.3421004,4.3941531 6.47225254,3.68417863 C7.17491844,3.52443438 7.964243,3.74734548 8.71337047,3.78649848 C8.95872929,3.79954948 9.2051322,3.78858664 9.69898208,3.78858664" id="Fill-1" fill="#000000" mask="url(#mask-2)"></path>
                </g>
                <path d="M10.7099126,14.1605452 C9.58074001,14.1903014 7.83190585,12.9666396 7.50406469,12.0222691 C7.31717436,11.4845679 7.42836889,11.0121216 7.87419109,10.6675752 C9.06757464,9.74460838 10.2693108,8.83156034 11.484098,7.93678369 C12.1606619,7.43927952 12.9160539,7.72274727 13.5284069,7.9942081 C14.5489952,8.44733886 15.2819394,9.28625722 15.5674953,10.391416 C15.641625,10.6811482 15.4923215,11.1984899 15.2652341,11.3681529 C14.0572334,12.2691941 12.8027712,13.1086345 11.5383902,13.9303255 C11.2726718,14.1031208 10.8999352,14.1109514 10.7099126,14.1605452" id="Fill-4" fill="#000000"></path>
                <path d="M33.9799523,15.7893623 C31.8411542,15.4134935 30.2337929,15.8828075 28.7402363,16.8778158 C28.3252144,17.153975 27.8616429,17.4494497 27.3860644,17.5277557 C25.4858386,17.8415018 24.1823046,19.1591308 22.8229123,20.2930018 C22.0200147,20.9622572 21.4781372,22.0005948 20.981155,22.9574942 C20.7394505,23.4226319 20.7431048,24.1096366 20.8589977,24.6473379 C21.0746002,25.6407801 21.5627076,26.5480857 22.3676934,27.2084664 C23.1116005,27.8182091 23.8889181,28.3934973 24.6897275,28.9265002 C27.6465624,30.8961573 30.7887214,31.3388472 34.1318659,30.0086892 C34.6382448,29.8077038 35.1602848,29.6443052 35.6781485,29.472032 C39.1194366,28.3266762 41.3031301,25.9305123 42.4411774,22.5544793 C42.7731949,21.5688677 43.035781,20.490855 42.2814331,19.5412642 C41.4472131,18.4909196 40.6009862,17.4473615 39.7056875,16.4492209 C38.812477,15.4536906 37.6556363,15.2365219 36.3661973,15.4672636 C35.4698546,15.6270079 34.5594167,15.7131445 33.9799523,15.7893623 M37.6295343,34.7712606 C38.3254136,35.207164 38.9252377,35.6566405 39.5856183,35.9813494 C41.3516798,36.8510681 43.1553282,37.644569 44.9213897,38.5148098 C45.7822337,38.9392283 46.5861754,39.4774516 47.4277039,39.9446775 C48.0113447,40.2683423 48.5970737,40.5982716 49.2115148,40.8556373 C50.6392943,41.4523291 52.095264,41.9837659 53.516257,42.597163 C53.8263488,42.7302832 54.1390508,43.0497717 54.2747812,43.3598635 C54.8532016,44.6858452 54.0158494,47.0736564 52.7692177,47.8165194 C52.3322702,48.0770174 51.9266451,48.0409966 51.4609854,47.8285263 C49.4448667,46.9066036 47.4115207,46.0207016 45.3849612,45.1217486 C44.9641969,44.9353803 44.5549176,44.7145574 44.1200582,44.5720405 C41.7985461,43.8082959 39.6628802,42.6451906 37.5058108,41.5275029 C36.2069751,40.8540712 34.9185803,40.1587139 33.6275752,39.4685769 C32.49005,38.8609223 31.9158059,37.7776892 31.3389517,36.7069851 C31.0419109,36.1546667 30.6848355,35.7354685 29.9920883,35.7589603 C26.6792222,35.871721 24.0392656,34.2758446 21.5204224,32.3954563 C18.3850499,30.0535846 17.0642885,26.8863677 16.7672477,23.0055219 C16.4242674,18.5133673 20.4883492,13.7304364 23.8836977,12.3193621 C24.1154835,12.2222627 24.3644966,12.1523093 24.5769669,12.0228434 C27.7175598,10.1116547 31.1672005,9.69558882 34.7520495,9.86786204 C35.5815711,9.90753708 36.426754,9.74361651 37.2489671,9.828187 C38.1938595,9.92528644 39.1371859,10.1388008 40.0518001,10.4050413 C40.8124124,10.6253422 41.5249971,11.0079975 42.2678601,11.2966857 C43.6272524,11.8239461 44.2803245,12.9813089 44.5439547,14.2556087 C44.7073532,15.0470214 44.8811926,15.811288 45.2492308,16.5045572 C46.7161634,19.2713695 46.7166854,22.1420677 45.8793332,25.0571393 C45.4162836,26.668677 44.8634432,28.2640314 43.8517296,29.6359526 C42.4135093,31.5873383 40.6646751,33.1779943 38.4131164,34.1578635 C38.2601586,34.2241626 38.1056348,34.2909837 37.9631178,34.3760763 C37.8962967,34.4157513 37.8555776,34.4992777 37.6295343,34.7712606" id="Fill-6" fill="#000000"></path>
                <path d="M59.4645902,31.4724895 C59.1085589,31.8018968 58.7911585,32.0707474 58.5019483,32.3688323 C57.3257921,33.5810093 55.9564811,34.0800795 54.2943055,33.5465546 C53.7367668,33.3674949 53.179228,33.1889572 52.6196011,33.0192942 C50.793505,32.4654097 49.790144,31.1128039 49.3030806,29.3874615 C48.5168883,26.5997677 47.9462985,23.7603918 47.9181084,20.8489745 C47.9066235,19.6796048 48.0449641,18.5081469 48.1316227,17.3392992 C48.1498941,17.0908082 48.2245459,16.8444053 48.2976315,16.6042668 C48.5675262,15.7230632 49.3464099,15.0063022 50.0349808,14.9927292 C50.7668809,14.9781121 51.4403126,15.6097805 51.7775505,16.5473645 C52.1977927,17.714124 52.2807971,18.8845378 52.1821315,20.1275151 C51.9493016,23.0373664 52.4551584,25.8913593 53.0805624,28.7223825 C53.2293438,29.3952921 53.7221496,29.6641428 54.3365908,29.7909985 C54.9353707,29.915244 55.3237685,29.5806164 55.5654731,29.1206991 C55.9737084,28.3454696 56.4409342,27.5655418 56.6534045,26.7287116 C57.3341447,24.04908 57.9287484,21.3470007 58.5113451,18.6438773 C58.6507297,17.9960256 58.6230616,17.310587 58.6601265,16.6418537 C58.719639,15.5664512 59.8451574,14.2420356 60.8787967,14.1120476 C61.4655697,14.03844 61.9035613,14.2744021 62.1755442,14.8669176 C62.7257744,16.0665656 63.099033,17.3220719 63.0781514,18.626128 C63.046829,20.5503676 62.8625489,22.4730411 62.7544866,24.3967587 C62.6469463,26.3189101 62.5028633,28.2410616 62.4689307,30.1642571 C62.4407405,31.7684862 61.9395821,32.2294476 60.3932994,31.8321751 C60.1124419,31.7606556 59.8482896,31.6233591 59.4645902,31.4724895" id="Fill-8" fill="#000000"></path>
                <path d="M104.314669,26.7216118 C104.246282,28.0596005 104.250458,29.4054197 104.091236,30.7324455 C103.875111,32.5402702 103.403709,32.8717656 101.606847,32.71933 C101.275874,32.6916618 100.940724,32.6253627 100.623846,32.524609 C99.6779095,32.224958 99.3641634,31.7232775 99.4998938,30.7298353 C99.8496606,28.1765374 99.750473,25.6221955 99.5520978,23.0662874 C99.4529102,21.7888554 99.0441528,20.6064347 98.4161387,19.4986657 C97.9572655,18.6889816 97.4117336,18.4577178 96.6558196,18.9667069 C94.7994452,20.2149046 92.9780475,21.5377541 92.7201597,24.03937 C92.4883739,26.2888406 92.22892,28.5367451 92.0629113,30.790914 C91.9652898,32.1257704 91.7366362,32.4191569 90.4002137,32.3492036 C90.0661081,32.3314542 89.7241718,32.315271 89.4031172,32.2327886 C88.1418684,31.9096458 87.8333428,31.5400415 87.7492943,30.2338973 C87.5869399,27.7082675 87.7498164,25.1915124 88.1679704,22.7050357 C88.7531773,19.229293 90.8502122,16.7610877 93.8185319,15.0853391 C95.448863,14.1644605 97.3214207,14.3649238 99.0890483,14.88853 C99.4962395,15.0085992 99.8841153,15.3849901 100.153488,15.7399773 C101.066014,16.9396254 101.956092,18.1591109 102.78979,19.4146172 C103.694486,20.7771418 104.060958,22.3192481 104.101677,23.9485351 C104.124647,24.8715019 104.186769,25.7934246 104.231143,26.7153473 C104.259333,26.7174355 104.287001,26.7195237 104.314669,26.7216118" id="Fill-10" fill="#000000"></path>
                <path d="M138.515392,13.4299501 C138.23088,12.1258941 138.033549,10.7946919 137.640975,9.52404646 C137.069341,7.67237041 136.564529,7.55334528 134.980659,8.66633466 C133.531998,9.68431276 132.747894,11.0149928 132.446155,12.8139429 C132.118835,14.7679388 132.411178,16.4666571 133.495455,18.0755845 C134.994232,20.2999972 136.458554,22.5489457 137.996484,24.7462123 C139.922812,27.4984074 140.44172,30.5805319 140.221419,33.8375397 C140.193751,34.2421208 139.919158,34.7688592 139.591839,34.9870719 C138.79625,35.5174646 137.93645,35.9909549 137.041673,36.3234945 C134.473758,37.2772616 131.868256,36.5740737 130.114724,34.4859135 C129.747208,34.0479219 129.403705,33.4997798 129.291467,32.9526819 C128.829983,30.7042554 128.994948,28.5210839 130.336591,26.5561251 C131.152539,25.3606534 132.005553,25.4410476 133.047545,26.4548494 C133.997658,27.3793823 133.732983,28.2840777 133.498065,29.3119745 C133.323182,30.074153 133.212509,30.8634776 133.186929,31.6439274 C133.162916,32.3690411 133.717844,32.7746662 134.323933,33.0022757 C135.393593,33.4047685 136.192314,32.8581926 136.167256,31.7154469 C136.153683,31.0994397 135.994983,30.4761239 135.832106,29.8747337 C135.348175,28.079438 134.605312,26.4141302 133.487624,24.8981259 C131.795171,22.6027158 130.330848,20.1621786 128.970934,17.6480337 C127.767632,15.423099 127.809917,13.1574452 128.255739,10.8020005 C128.692165,8.49667164 130.266637,6.99424038 131.933511,5.56176249 C132.971849,4.66855196 134.151137,4.0629855 135.540808,3.91316001 C137.113193,3.74297495 138.449093,4.16321719 139.45141,5.43490675 C139.84033,5.92875664 140.234992,6.42417265 140.565443,6.95769758 C141.257147,8.07225308 141.753085,9.24475504 141.744732,10.6098898 C141.737423,11.7395844 141.896124,12.8687571 141.93371,14.0000178 C141.966077,14.979887 141.527041,15.3766375 140.555003,15.331742 C140.429713,15.3259996 140.304945,15.3040739 140.180178,15.2831923 C138.833315,15.0555828 138.603617,14.8217089 138.515392,13.4299501" id="Fill-12" fill="#000000"></path>
                <path d="M170.153368,25.9879889 C170.311547,23.1721049 170.53759,19.9558162 170.654527,16.7348291 C170.716128,15.026192 170.656093,7.70510232 170.524017,5.99907544 C170.4123,4.55876694 170.324075,3.15082492 170.987588,1.81544648 C171.132716,1.52362609 171.314385,1.2213649 171.555046,1.01046072 C172.307306,0.352168218 173.12221,0.27647241 173.592568,1.29914887 C174.167334,2.54995683 174.736358,3.79189011 174.767158,5.21340516 C174.814142,7.42946517 174.937343,15.2449268 174.955093,17.4609868 C174.963445,18.4591273 174.78543,19.458312 174.708168,20.4580187 C174.449236,23.7943766 174.177775,27.1296905 173.95121,30.4676146 C173.846802,32.0123311 173.849412,33.5643562 173.775282,35.1116829 C173.719424,36.2914934 173.039728,36.7206103 171.904291,36.3332566 C171.864616,36.3196836 171.825463,36.3040224 171.786832,36.2888832 C170.160155,35.6760082 170.154412,35.6681776 170.15389,33.9386589 C170.152846,31.424514 170.153368,28.9098471 170.153368,25.9879889" id="Fill-14" fill="#000000"></path>
                <path d="M184.406993,21.194304 C184.662793,21.7560191 184.874741,22.119881 184.997943,22.5119331 C185.274102,23.3868722 185.547651,24.2665097 185.747592,25.1612863 C186.212208,27.2306531 184.244117,27.7490388 182.981824,27.1283332 C182.127766,26.708613 181.439718,26.029961 181.429277,25.0020641 C181.417792,23.8556642 180.965183,22.888846 180.442099,21.9262041 C180.263039,21.5957528 180.080325,21.2647794 179.924235,20.9223211 C179.228878,19.3927438 179.621452,18.639962 181.262746,18.1205322 C182.338149,17.7801621 183.393714,17.36253 184.425787,16.906267 C185.513718,16.4259902 186.4252,15.6716423 187.174328,14.7528518 C187.484941,14.3717626 187.745961,13.9175877 187.909882,13.4545382 C188.499787,11.78401 187.505823,10.427228 185.738717,10.6412644 C184.635647,10.7749066 183.567031,11.223339 182.496327,11.5736279 C182.103753,11.7015277 181.756596,11.9646359 181.379161,12.1463058 C180.178469,12.7242042 179.145352,12.5216526 178.238568,11.5423055 C177.56096,10.8098833 177.506668,10.206405 178.051678,9.39828701 C178.145123,9.25942436 178.235436,9.10855479 178.360725,9.00258066 C181.609381,6.2749214 185.533556,4.93171235 189.317302,8.34846447 C190.448041,9.36957481 191.391889,10.5384225 191.990147,11.9588935 C192.469902,13.0964187 192.538289,14.220371 191.94995,15.3537199 C190.804072,17.5598612 189.076119,19.1301576 186.813076,20.1303864 C186.055596,20.465014 185.298638,20.7996417 184.406993,21.194304" id="Fill-16" fill="#000000"></path>
                <path d="M184.604794,34.3070216 C183.536178,34.2083448 182.609035,33.6951794 181.958573,32.7419343 C181.50231,32.073723 181.614549,31.3627045 182.260312,30.8646783 C183.37278,30.0069665 184.711812,29.5950769 186.03675,29.2980361 C187.246839,29.0276193 188.798342,30.7534837 188.598923,31.9614844 C188.567078,32.1582935 188.466847,32.360845 188.347299,32.5231995 C187.885816,33.1470374 185.471381,34.3111867 184.604794,34.3070216" id="Fill-18" fill="#000000"></path>
                <path d="M69.5999978,22.9281556 C69.4329449,26.9457758 69.289906,28.642928 69.1646163,31.9072444 C69.1108462,33.3136203 68.4786557,33.7625748 67.1338806,33.43891 C66.0824919,33.1851985 65.5661943,32.5441333 65.4503014,31.5303315 C65.3740835,30.8683848 65.2675874,30.1923429 65.3250118,29.5356165 C65.7572609,24.563185 65.8658453,21.1526974 65.5390482,16.1724353 C65.4654406,15.0547476 66.0203691,14.4491811 66.8879997,13.9939622 C67.5013968,13.6718635 68.0824273,13.7538238 68.4243636,14.3416409 C68.79449,14.9769636 69.1755792,15.6958127 69.2366579,16.4052652 C69.4454739,18.8233547 69.5154273,21.2534511 69.5999978,22.9281556" id="Fill-20" fill="#000000"></path>
                <path d="M70.9463912,6.684253 C70.7579348,7.1065834 70.6571811,7.37230179 70.5240608,7.62131489 C70.2886208,8.06243873 69.9983665,8.47693853 69.7926827,8.93111337 C69.0785319,10.5108066 68.4338125,10.3980459 66.7429248,9.73453301 C66.4824268,9.63169112 66.2809193,9.38163394 66.0470454,9.20727256 C65.5782534,8.85698369 65.4242516,8.39550028 65.7155499,7.89225368 C66.4030767,6.70826684 67.1010442,5.52741225 67.8647888,4.39249718 C68.0777812,4.07666295 68.5100303,3.81668701 68.8874653,3.73211652 C69.1845061,3.66477335 69.7420448,3.80833437 69.8532394,4.02706915 C70.2969734,4.89992011 70.6112415,5.83854812 70.9463912,6.684253" id="Fill-22" fill="#000000"></path>
                <path d="M82.4435403,19.5924763 C82.3135523,17.4573325 80.3298001,13.5117538 79.103528,12.7438329 C77.9445991,13.7545024 77.0054491,15.9188805 76.9182684,17.7783871 C76.8509252,19.2312246 76.9636859,19.3570362 78.3867671,19.4170708 C79.0977856,19.4473492 79.8088041,19.4734512 80.5193007,19.5042515 C81.1321757,19.5308756 81.7450507,19.5601098 82.4435403,19.5924763 M77.2602046,23.0499475 C77.394891,27.3813138 77.4778953,28.1842114 78.9474381,32.2154047 C79.7753936,31.6281096 79.8359502,30.825212 80.0191863,30.0844372 C80.1998121,29.3551473 80.327712,28.6075859 80.5793353,27.9038759 C80.7270726,27.4904202 81.0209811,27.0952359 81.3394256,26.783578 C81.8082175,26.3247048 82.3459188,26.3842173 82.7405811,26.8926843 C84.0644746,28.6002773 84.4742761,30.9066503 83.2448718,32.8622123 C82.6883771,33.7475922 82.0989938,34.618355 81.4615829,35.4473546 C80.1726661,37.1251914 78.3001084,36.82032 76.8780713,36.3483958 C76.600346,36.2559947 76.3236648,35.933896 76.196809,35.6509503 C75.596985,34.3155718 74.9684488,32.9848917 74.4980907,31.6030517 C72.9444995,27.0388556 72.9742558,25.5369463 72.716368,20.7451407 C72.6427604,19.3664329 72.6276212,17.9804166 72.676693,16.6011868 C72.7664839,14.0666824 73.8486729,11.9054366 75.3866029,9.95718309 C75.7436783,9.50561845 76.2082939,9.11617657 76.6828283,8.78311502 C78.2249346,7.70144804 80.2295684,8.00370923 81.3608292,9.52284577 C83.4750914,12.3616996 85.3518254,15.3451584 86.3008942,18.7968873 C86.5504293,19.7068031 86.5995011,20.6986792 86.5791416,21.648792 C86.5582599,22.6171763 85.8498516,23.2973945 84.9075693,23.0943209 C83.3158692,22.7518627 81.7601899,23.081792 80.1914595,23.0530798 C79.2731911,23.0368965 78.3549226,23.0499475 77.2602046,23.0499475" id="Fill-24" fill="#000000"></path>
                <path d="M123.942644,19.5924763 C123.813178,17.4573325 121.829426,13.5117538 120.602632,12.7438329 C119.443703,13.7545024 118.504553,15.9188805 118.417894,17.7783871 C118.350029,19.2312246 118.463312,19.3570362 119.886393,19.4170708 C120.597412,19.4473492 121.307908,19.4734512 122.018405,19.5042515 C122.63128,19.5308756 123.244155,19.5601098 123.942644,19.5924763 M118.759309,23.0499475 C118.893995,27.3813138 118.977521,28.1842114 120.447064,32.2154047 C121.274497,31.6281096 121.335576,30.825212 121.518812,30.0844372 C121.699438,29.3551473 121.826816,28.6075859 122.078961,27.9038759 C122.226699,27.4904202 122.520607,27.0952359 122.839052,26.783578 C123.307843,26.3247048 123.845023,26.3842173 124.239685,26.8926843 C125.564101,28.6002773 125.973902,30.9066503 124.744498,32.8622123 C124.187481,33.7475922 123.598098,34.618355 122.960687,35.4473546 C121.67177,37.1251914 119.799212,36.82032 118.377697,36.3483958 C118.09945,36.2559947 117.823291,35.933896 117.695913,35.6509503 C117.096611,34.3155718 116.468075,32.9848917 115.997195,31.6030517 C114.444125,27.0388556 114.47336,25.5369463 114.215994,20.7451407 C114.142386,19.3664329 114.127247,17.9804166 114.175797,16.6011868 C114.265588,14.0666824 115.347777,11.9054366 116.886229,9.95718309 C117.243304,9.50561845 117.707398,9.11617657 118.181932,8.78311502 C119.724561,7.70144804 121.729194,8.00370923 122.860455,9.52284577 C124.974195,12.3616996 126.851451,15.3451584 127.799998,18.7968873 C128.050055,19.7068031 128.099127,20.6986792 128.078245,21.648792 C128.057364,22.6171763 127.349478,23.2973945 126.407195,23.0943209 C124.814973,22.7518627 123.259816,23.081792 121.691085,23.0530798 C120.772817,23.0368965 119.854549,23.0499475 118.759309,23.0499475" id="Fill-26" fill="#000000"></path>
                <path d="M164.072959,19.5924763 C163.943493,17.4573325 161.959219,13.5117538 160.732947,12.7438329 C159.574018,13.7545024 158.634868,15.9188805 158.548209,17.7783871 C158.480344,19.2312246 158.593105,19.3570362 160.016708,19.4170708 C160.727726,19.4473492 161.438223,19.4734512 162.148719,19.5042515 C162.761594,19.5308756 163.37447,19.5601098 164.072959,19.5924763 M158.889623,23.0499475 C159.02431,27.3813138 159.107836,28.1842114 160.576857,32.2154047 C161.404812,31.6281096 161.465891,30.825212 161.648605,30.0844372 C161.829231,29.3551473 161.957131,28.6075859 162.208754,27.9038759 C162.357013,27.4904202 162.6504,27.0952359 162.968844,26.783578 C163.437636,26.3247048 163.975338,26.3842173 164.37,26.8926843 C165.693893,28.6002773 166.103695,30.9066503 164.874291,32.8622123 C164.317796,33.7475922 163.728413,34.618355 163.091002,35.4473546 C161.802085,37.1251914 159.929527,36.82032 158.50749,36.3483958 C158.229765,36.2559947 157.953084,35.933896 157.826228,35.6509503 C157.226404,34.3155718 156.59839,32.9848917 156.12751,31.6030517 C154.573918,27.0388556 154.603675,25.5369463 154.346309,20.7451407 C154.272179,19.3664329 154.25704,17.9804166 154.306112,16.6011868 C154.395903,14.0666824 155.478092,11.9054366 157.016022,9.95718309 C157.373097,9.50561845 157.837713,9.11617657 158.312247,8.78311502 C159.854353,7.70144804 161.858987,8.00370923 162.990248,9.52284577 C165.10451,12.3616996 166.981244,15.3451584 167.930313,18.7968873 C168.179848,19.7068031 168.22892,20.6986792 168.20856,21.648792 C168.187679,22.6171763 167.47927,23.2973945 166.53751,23.0943209 C164.945288,22.7518627 163.389609,23.081792 161.820878,23.0530798 C160.903132,23.0368965 159.984341,23.0499475 158.889623,23.0499475" id="Fill-28" fill="#000000"></path>
                <g id="Group-32" transform="translate(76.903609, 0.000000)">
                    <mask id="mask-4" fill="white">
                        <use xlink:href="#path-3"></use>
                    </mask>
                    <g id="Clip-31"></g>
                    <path d="M6.79402819,3.334322 C6.51682493,3.7044484 6.35969087,3.94145458 6.17488869,4.15496896 C5.84809162,4.53292596 4.08150809,6.07607634 3.78133507,6.47387086 C2.73568885,7.85623291 2.13064443,7.60408757 0.628735205,6.58297723 C0.397471463,6.42532114 0.25704269,6.13663299 0.0670201117,5.91476597 C-0.313025044,5.4694658 1.02966196,3.78223236 1.42589036,3.35624768 C2.35773185,2.35288671 3.30001414,1.35631225 4.29554451,0.418206284 C4.57274778,0.156664219 5.05198055,-0.000991876094 5.43829018,-0.000471128467 C5.74316157,5.2204005e-05 6.2558049,0.263682429 6.31531747,0.501210652 C6.55493385,1.4508015 6.65412146,2.43536904 6.79402819,3.334322" id="Fill-30" fill="#000000" mask="url(#mask-4)"></path>
                </g>
                <g id="Group-35" transform="translate(156.411718, 0.000000)">
                    <mask id="mask-6" fill="white">
                        <use xlink:href="#path-5"></use>
                    </mask>
                    <g id="Clip-34"></g>
                    <path d="M6.79402819,3.334322 C6.51682493,3.7044484 6.35969087,3.94145458 6.17488869,4.15496896 C5.84809162,4.53292596 4.08150809,6.07607634 3.78133507,6.47387086 C2.73568885,7.85623291 2.13064443,7.60408757 0.628735205,6.58297723 C0.397471463,6.42532114 0.25704269,6.13663299 0.0670201117,5.91476597 C-0.313025044,5.4694658 1.02966196,3.78223236 1.42589036,3.35624768 C2.35773185,2.35288671 3.30001414,1.35631225 4.29554451,0.418206284 C4.57274778,0.156664219 5.05198055,-0.000991876094 5.43829018,-0.000471128467 C5.74316157,5.2204005e-05 6.2558049,0.263682429 6.31531747,0.501210652 C6.55493385,1.4508015 6.65412146,2.43536904 6.79402819,3.334322" id="Fill-33" fill="#000000" mask="url(#mask-6)"></path>
                </g>
            </g>
        </g>
    </g>
</svg>