<?xml version="1.0" encoding="utf-8"?>
<!-- Generator: Adobe Illustrator 25.4.1, SVG Export Plug-In . SVG Version: 6.00 Build 0)  -->
<svg version="1.1" id="Layer_1" xmlns="http://www.w3.org/2000/svg" xmlns:xlink="http://www.w3.org/1999/xlink" x="0px" y="0px"
	 viewBox="0 0 170.6 41.9" style="enable-background:new 0 0 170.6 41.9;" xml:space="preserve">
<g>
	<path d="M99.7,11.1L99.7,11.1c-0.7-1.1-1.8-1.7-3.2-1.7c0,0,0,0,0,0c-1.1,0-2.1,0.3-3.1,1c-1.5,1-2.8,2.1-3.4,3.9
		c-0.5,1.5-0.9,3.5,0,5.5c1,2.4,1.9,4.3,2.9,6c0.7,1.2,1.1,2.5,1.4,3.9c0.1,0.5,0.1,0.9,0.1,1.4c0,0.3-0.2,0.6-0.4,0.7
		c-0.2,0.1-0.5,0.1-0.8-0.1c-0.7-0.3-0.6-0.7-0.6-0.9c0.1-0.6,0.2-1.1,0.4-1.7l0-0.1c0.3-0.8,0.5-1.5-0.2-2.4
		c-0.5-0.6-0.9-0.8-1.3-0.8c0,0,0,0,0,0c-0.4,0-0.8,0.2-1.2,0.7c-1.1,1.3-1.6,3-1.4,5.1c0.1,0.5,0.3,1,0.6,1.4
		c1,1.5,2.5,2.3,4.1,2.3c0.4,0,0.9-0.1,1.4-0.2c0.7-0.2,1.4-0.5,2.1-0.8c0.3-0.2,0.7-0.6,0.7-1c0.5-2.8,0.2-5.3-1-7.4
		c-0.7-1.2-1.3-2.5-2-3.8c-0.3-0.6-0.6-1.2-0.9-1.8c-0.7-1.2-0.8-2.5-0.4-3.9c0.4-1.3,1.1-2.2,2.2-2.8c0.4-0.2,0.9-0.5,1.1-0.4
		c0.2,0.1,0.4,0.7,0.4,1.1c0.1,0.7,0.2,1.4,0.3,2.1c0,0.3,0.1,0.6,0.1,0.9c0,1.2,0.2,1.5,1.3,1.8c0.1,0,0.2,0.1,0.3,0.1
		c0.5,0.1,0.8,0,1.1-0.2c0.3-0.2,0.4-0.5,0.4-1c0-0.4,0-0.7,0-1.1c0-0.5,0-1,0.1-1.5c0.1-1-0.1-1.9-0.6-3.1
		C100.2,11.9,99.9,11.4,99.7,11.1z"/>
	<path d="M169.9,12.3c-0.2-0.4-0.5-0.8-0.7-1.2l0-0.1c-0.7-1.1-1.7-1.6-3.1-1.6c0,0,0,0,0,0c-1.1,0-2.1,0.3-3.1,1
		c-1.5,1-2.8,2.1-3.4,3.9c-0.5,1.5-0.9,3.5,0,5.5c1,2.4,1.9,4.3,2.9,6c0.7,1.2,1.1,2.5,1.4,3.9c0.1,0.5,0.1,0.9,0.1,1.4
		c0,0.3-0.2,0.6-0.4,0.7c-0.2,0.1-0.5,0.1-0.8-0.1c-0.7-0.3-0.6-0.7-0.6-0.9c0.1-0.6,0.2-1.1,0.4-1.7l0-0.1c0.3-0.8,0.5-1.5-0.2-2.4
		c-0.5-0.6-0.9-0.8-1.3-0.8c0,0,0,0,0,0c-0.4,0-0.8,0.2-1.2,0.7c-1.1,1.3-1.6,3-1.4,5.1c0.1,0.5,0.3,1,0.6,1.4
		c1,1.5,2.5,2.3,4.1,2.3c0.4,0,0.9-0.1,1.4-0.2c0.7-0.2,1.4-0.5,2.1-0.8c0.3-0.2,0.7-0.6,0.7-1c0.5-2.8,0.2-5.3-1-7.4
		c-0.7-1.2-1.3-2.5-2-3.8c-0.3-0.6-0.6-1.2-0.9-1.8c-0.7-1.2-0.8-2.5-0.4-3.9c0.4-1.3,1.1-2.2,2.2-2.8c0.4-0.2,0.9-0.5,1.1-0.4
		c0.2,0.1,0.4,0.7,0.4,1.1c0.1,0.7,0.2,1.4,0.3,2.1c0,0.3,0.1,0.6,0.1,0.9c0,1.2,0.2,1.5,1.3,1.8c0.1,0,0.2,0.1,0.3,0.1
		c0.5,0.1,0.8,0,1.1-0.2c0.3-0.2,0.4-0.5,0.4-1c0-0.4,0-0.7,0-1.1c0-0.5,0-1,0.1-1.5C170.6,14.4,170.4,13.4,169.9,12.3z"/>
	<path d="M49.5,13.3c-1.3-1.8-3.4-2.5-5.6-1.7c-0.4,0.2-0.9,0.2-1.4,0.2c-5.6,0.2-10.8,6-8.5,12.3c0.8,2.3,2.2,3.9,4.4,5
		c2,1,4.2,1.6,6.4,1.9c0.7,0.1,1.4,0.1,2.1-0.1c2-0.6,3.4-2,4.6-3.5c0.6-0.7,0.9-1.7,1.1-2.6c0.2-1.1,0.2-2.3,0.3-3.3
		c0-1.8-0.3-3.4-1.2-4.9C51,15.4,50.3,14.4,49.5,13.3z M46.8,25.6c-1.1,1.1-2.3,1.5-3.8,1.3c-1.3-0.2-2.6-0.7-3.6-1.4
		c-0.5-0.4-1-1-1.1-1.6c-0.2-1.4-0.3-2.9,0.2-4.3c0.5-1.3,1.3-2.3,2.4-3.1c0.6-0.4,1.2-0.7,2.1-0.2c0.7,0.4,1.7,0.4,2.6,0.1
		c1.1-0.4,1.2-0.3,1.9,0.6c0.8,1,1,2.2,1.1,3C48.4,22.3,48.2,24.1,46.8,25.6z"/>
	<path d="M135.1,13.3c-1.3-1.8-3.4-2.5-5.6-1.7c-0.4,0.2-0.9,0.2-1.4,0.2c-5.6,0.2-10.8,6-8.5,12.3c0.8,2.3,2.2,3.9,4.4,5
		c2,1,4.2,1.6,6.4,1.9c0.7,0.1,1.4,0.1,2.1-0.1c2-0.6,3.4-2,4.6-3.5c0.6-0.7,0.9-1.7,1.1-2.6c0.2-1.1,0.2-2.3,0.3-3.3
		c0-1.8-0.3-3.4-1.2-4.9C136.6,15.4,135.9,14.4,135.1,13.3z M132.4,25.6c-1.1,1.1-2.3,1.5-3.8,1.3c-1.3-0.2-2.6-0.7-3.6-1.4
		c-0.5-0.4-1-1-1.1-1.6c-0.2-1.4-0.3-2.9,0.2-4.3c0.5-1.3,1.3-2.3,2.4-3.1c0.6-0.4,1.2-0.7,2.1-0.2c0.7,0.4,1.7,0.4,2.6,0.1
		c1.1-0.4,1.2-0.3,1.9,0.6c0.8,1,1,2.2,1.1,3C134,22.3,133.8,24.1,132.4,25.6z"/>
	<path d="M39.1,2.4c-0.8-0.6-1.6-1-2.7-1.1c-1.4,0-2.5,0.4-3,1.8C33,4.1,32.5,5,32,6c-1.6,3.1-3.1,6.1-4.7,9.2
		c-0.4,0.9-0.9,1.7-1.3,2.6c-0.9,1.9-1.7,3.9-2.6,5.8c-0.1,0.1-0.2,0.2-0.4,0.4c-0.9-1.6-1.9-3-2.5-4.6c-0.6-1.6-1.6-2.3-3.2-2.4
		c-0.3,0-0.6-0.1-0.9-0.2c-1.2-0.2-2.2,0.3-2.7,1.4c-0.2,0.4-0.5,0.8-0.8,1.3c-0.2-0.3-0.3-0.4-0.4-0.6c-0.9-2.5-1.8-5-2.8-7.4
		C9.1,9.8,8.3,8.2,7.6,6.5C6.7,4.2,2.4,3.4,0.4,5.7C0,6.1-0.1,6.5,0.1,7c0.2,0.5,0.4,0.9,0.6,1.3C1.5,9.9,2.3,11.4,3,13
		c1.4,3.1,2.6,6.2,3.9,9.4c0.2,0.4,0.4,0.7,0.5,1.1c1,1.7,1.9,3.3,2.9,5c0.3,0.6,0.9,0.9,1.5,0.8c0.7-0.1,1.5-0.3,2.1-0.6
		c1.4-0.6,2.3-1.7,3-3.3c0.3,0.4,0.4,0.6,0.5,0.8c1,2,2.1,4,3.1,6c0.6,1.3,1.3,1.6,2.6,1.3c1.4-0.4,2.4-1.2,3.1-2.5
		c0.5-0.8,0.8-1.7,1.2-2.6c1.4-3.3,2.9-6.7,4.3-10.1c2.1-5.1,4.6-10,7.5-14.7C39.5,3.1,39.5,2.7,39.1,2.4z"/>
	<path d="M69.1,9.7c-0.8-1.5-1.6-1.6-2.8-0.6c-0.4,0.3-0.7,0.7-1.1,1c-1.4,1.1-2.9,2.2-4.4,3.4c-0.6-0.8-1.1-1.5-1.6-2.1
		c-0.8-1.1-1.4-1.1-2.3-0.2c-0.4,0.4-0.7,0.9-0.8,1.6c-0.1,1.1-0.2,2.3-0.3,3.4c-0.1,1.1-0.3,2.3-0.3,3.4c0,0.9,0,1.8,0,2.8
		c0,2.7-0.1,5.4,0,8.2c0,1.2,0.7,1.7,2.1,1.8c1,0.1,1.6-0.3,1.7-1.5c0.3-2.9,0.5-5.8,0.8-8.7c0-0.6,0.1-1.1,0.6-1.5
		c2-1.9,3.8-3.9,6.1-5.4c1-0.7,1.8-1.7,2.7-2.5c0.5-0.4,0.5-0.9,0.3-1.5C69.6,10.8,69.4,10.2,69.1,9.7z"/>
	<path d="M88,5.3c-0.3-0.6-0.7-0.8-1.4-0.4c-0.6,0.3-1.2,0.7-1.7,1.2c-2.1,2.2-4.2,4.5-6.4,6.7c-0.8,0.9-1.6,1.7-2.5,2.5
		c-0.1,0-0.2-0.1-0.3-0.1c0-0.4-0.1-0.8-0.1-1.1c0.1-1.3,0.2-2.6,0.3-3.9c0.2-1.7,0.4-3.3,0.6-5c0.3-1.7-0.3-3.1-1.1-4.5
		c-0.4-0.7-0.7-0.7-1.4-0.4c-1.2,0.5-1.6,1.6-1.8,2.8c-0.6,3.8-0.9,7.6-0.9,11.4c0,3.2,0.1,6.4,0.1,9.6c0,1.8-0.1,3.7-0.1,5.5
		c0,1.4,0.2,1.5,1.5,1.9c1.3,0.4,2.1-0.1,2.2-1.5c0.1-2,0.2-4,0.4-6.1c0-0.4,0.1-0.8,0.2-1.6c0.5,0.6,0.8,0.8,1.1,1.2
		c2,2.7,4.1,5.3,6,8c0.8,1.1,1.8,1.6,3.1,1.8c0.4,0.1,1,0.1,1.2-0.1c0.2-0.3,0.2-0.9,0.1-1.3c-0.3-1.3-1.2-2.4-1.9-3.4
		c-1.8-2.6-3.6-5.1-5.5-7.6c-0.8-1.1-0.8-1.1,0.1-2.1c1.5-1.6,2.9-3.3,4.4-4.9c1.4-1.5,2.7-3,4.1-4.4c0.4-0.5,0.6-1,0.5-1.6
		C88.7,6.9,88.4,6.1,88,5.3z"/>
	<path d="M115.7,15.2c-0.7-1.3-1.9-2.1-3.4-2c-1.4,0.1-2.8,0.1-4,1.2c-0.2,0.2-0.6,0.3-1,0.6c0-0.6-0.1-1-0.1-1.4
		c0-2.6,0.1-5.2,0.1-7.8c0-1.6-0.4-3-1.3-4.3c-0.5-0.7-1-0.8-1.7-0.4c-0.8,0.5-1,1.3-1.1,2.1c-0.1,3.7-0.3,7.4-0.3,11.1
		c0,2.2,0.1,4.5,0,6.7c-0.1,2.9-0.2,5.8-0.3,8.7c0,1.5,0.2,1.8,1.6,2.1c2.1,0.5,2.2-0.2,2.2-1.6c0-3.9,0.9-7.5,3-10.8
		c0.4-0.6,0.8-1.1,1.3-1.7c0.4-0.5,1.1-0.6,1.7-0.5c0.6,0.1,0.7,0.8,0.8,1.2c0.1,0.2,0.1,0.4,0.1,0.7c0,2-0.1,4-0.1,6.1
		c0,3.8-0.1,7.6-0.1,11.4c0,0.4,0.1,0.9,0.2,1.3c0.3,0.9,2.4,1.6,3.1,1c0.3-0.3,0.6-0.7,0.6-1.1c0.1-0.5,0.1-1.1,0-1.7
		c-0.2-4.4,0.1-8.9,0.3-13.3c0.1-1.4,0.3-2.8-0.3-4.2C116.7,17.4,116.3,16.2,115.7,15.2z"/>
	<path d="M151.3,10.6c-1.1-0.2-2.2-0.3-3.3-0.1c-2.9,0.6-5,2.1-6.3,4.9c-0.7,1.6-0.7,3.4-0.8,5c-0.4,4.3-0.6,8.7-0.8,13
		c-0.1,1.4,0,2.8,0.1,4.2c0.1,1.7,0.8,2.3,2.6,2.3c1.1,0,1.6-0.4,1.7-1.5c0.1-1.1,0.1-2.1,0.1-3.2c0.1-1.7,0.2-3.3,0.3-5
		c0.4,0,0.5-0.1,0.6-0.1c0.6,0.1,1.3,0.3,1.9,0.4c3.2,0.7,6.7-1,8.3-3.8c0.9-1.7,1.4-3.5,1.3-5.4c-0.1-2.6-0.2-5.2-1.8-7.4
		C154.2,12.5,153.2,10.9,151.3,10.6z M151.5,24.7c0,0.1-0.1,0.2-0.1,0.2c-0.7,1.5-4.2,2.3-5.5,1.2c-0.2-0.2-0.3-0.5-0.3-0.8
		c0-2.5,0-5,0.9-7.4c0.6-1.5,2.6-2.9,4.2-2.9c0.6,0,1,0.2,1.1,0.7c0.3,1.3,0.5,2.6,0.8,3.8C152.6,21.4,152.1,23.1,151.5,24.7z"/>
</g>
</svg>
